G04 EAGLE Gerber RS-274X export*
G75*
%MOMM*%
%FSLAX34Y34*%
%LPD*%
%INBottom Copper*%
%IPPOS*%
%AMOC8*
5,1,8,0,0,1.08239X$1,22.5*%
G01*
%ADD10C,0.102500*%
%ADD11R,1.650000X1.650000*%
%ADD12C,1.650000*%
%ADD13C,1.000000*%
%ADD14R,1.270000X1.470000*%
%ADD15R,2.540000X2.540000*%
%ADD16R,1.300000X1.200000*%
%ADD17R,0.800000X0.900000*%
%ADD18R,1.550000X0.700000*%
%ADD19R,0.700000X0.600000*%
%ADD20R,0.900000X0.800000*%
%ADD21C,1.676400*%
%ADD22R,0.900000X0.900000*%
%ADD23R,1.000000X1.100000*%
%ADD24R,2.199997X5.720003*%
%ADD25R,3.499994X1.199997*%
%ADD26C,0.203200*%
%ADD27C,0.604800*%
%ADD28C,0.609600*%
%ADD29C,0.508000*%
%ADD30C,0.381000*%
%ADD31C,0.304800*%
%ADD32C,0.254000*%

G36*
X375044Y2547D02*
X375044Y2547D01*
X375080Y2544D01*
X378434Y2808D01*
X378593Y2843D01*
X378668Y2854D01*
X379050Y2978D01*
X379163Y3034D01*
X379277Y3085D01*
X379290Y3096D01*
X379305Y3103D01*
X379399Y3188D01*
X379494Y3269D01*
X379504Y3283D01*
X379516Y3294D01*
X379582Y3401D01*
X379652Y3505D01*
X379657Y3521D01*
X379666Y3536D01*
X379700Y3656D01*
X379738Y3776D01*
X379738Y3793D01*
X379743Y3809D01*
X379742Y3935D01*
X379745Y4060D01*
X379741Y4077D01*
X379741Y4094D01*
X379705Y4214D01*
X379673Y4335D01*
X379665Y4350D01*
X379660Y4366D01*
X379592Y4472D01*
X379528Y4580D01*
X379516Y4591D01*
X379506Y4606D01*
X379412Y4688D01*
X379321Y4774D01*
X379305Y4782D01*
X379293Y4793D01*
X379179Y4847D01*
X379067Y4904D01*
X379052Y4906D01*
X379036Y4914D01*
X378755Y4959D01*
X378746Y4958D01*
X378736Y4959D01*
X377008Y4959D01*
X371480Y7249D01*
X367249Y11480D01*
X364959Y17008D01*
X364959Y22992D01*
X367249Y28520D01*
X371480Y32751D01*
X377008Y35041D01*
X382992Y35041D01*
X388520Y32751D01*
X392751Y28520D01*
X395041Y22992D01*
X395041Y21264D01*
X395058Y21140D01*
X395072Y21015D01*
X395078Y20999D01*
X395081Y20982D01*
X395132Y20868D01*
X395179Y20751D01*
X395190Y20738D01*
X395197Y20723D01*
X395278Y20627D01*
X395356Y20528D01*
X395370Y20519D01*
X395380Y20506D01*
X395485Y20436D01*
X395587Y20363D01*
X395603Y20357D01*
X395617Y20348D01*
X395737Y20310D01*
X395855Y20268D01*
X395872Y20267D01*
X395888Y20262D01*
X396014Y20259D01*
X396139Y20252D01*
X396155Y20255D01*
X396172Y20255D01*
X396293Y20287D01*
X396416Y20314D01*
X396431Y20323D01*
X396447Y20327D01*
X396555Y20391D01*
X396665Y20451D01*
X396677Y20463D01*
X396692Y20472D01*
X396778Y20564D01*
X396866Y20652D01*
X396874Y20666D01*
X396886Y20679D01*
X397016Y20933D01*
X397017Y20942D01*
X397022Y20950D01*
X397146Y21332D01*
X397174Y21492D01*
X397192Y21566D01*
X397456Y24920D01*
X397453Y24965D01*
X397459Y25000D01*
X397459Y43617D01*
X397441Y43744D01*
X397427Y43872D01*
X397421Y43885D01*
X397419Y43899D01*
X397367Y44016D01*
X397318Y44135D01*
X397309Y44146D01*
X397303Y44158D01*
X397220Y44256D01*
X397140Y44357D01*
X397128Y44365D01*
X397120Y44375D01*
X397012Y44447D01*
X396908Y44521D01*
X396894Y44525D01*
X396883Y44533D01*
X396760Y44572D01*
X396639Y44614D01*
X396625Y44614D01*
X396612Y44619D01*
X396484Y44622D01*
X396355Y44629D01*
X396342Y44626D01*
X396328Y44626D01*
X396204Y44593D01*
X396078Y44564D01*
X396066Y44558D01*
X396053Y44554D01*
X395943Y44489D01*
X395830Y44426D01*
X395821Y44417D01*
X395808Y44409D01*
X395614Y44201D01*
X395608Y44189D01*
X395600Y44181D01*
X395407Y43893D01*
X394357Y42843D01*
X393122Y42018D01*
X391750Y41449D01*
X390293Y41159D01*
X388581Y41159D01*
X388581Y47684D01*
X388573Y47742D01*
X388574Y47800D01*
X388553Y47882D01*
X388541Y47965D01*
X388517Y48019D01*
X388503Y48075D01*
X388460Y48148D01*
X388425Y48225D01*
X388387Y48269D01*
X388357Y48320D01*
X388296Y48377D01*
X388241Y48442D01*
X388193Y48474D01*
X388150Y48514D01*
X388075Y48553D01*
X388005Y48599D01*
X387949Y48617D01*
X387897Y48644D01*
X387829Y48655D01*
X387734Y48685D01*
X387634Y48688D01*
X387566Y48699D01*
X386549Y48699D01*
X386549Y48701D01*
X387566Y48701D01*
X387624Y48709D01*
X387682Y48708D01*
X387764Y48729D01*
X387847Y48741D01*
X387901Y48765D01*
X387957Y48779D01*
X388030Y48822D01*
X388107Y48857D01*
X388151Y48895D01*
X388202Y48925D01*
X388259Y48986D01*
X388324Y49041D01*
X388356Y49089D01*
X388396Y49132D01*
X388435Y49207D01*
X388481Y49277D01*
X388499Y49333D01*
X388526Y49385D01*
X388537Y49453D01*
X388567Y49548D01*
X388570Y49648D01*
X388581Y49716D01*
X388581Y56241D01*
X390293Y56241D01*
X391750Y55951D01*
X393122Y55382D01*
X394357Y54557D01*
X395407Y53507D01*
X395600Y53219D01*
X395686Y53123D01*
X395769Y53025D01*
X395780Y53017D01*
X395789Y53007D01*
X395898Y52939D01*
X396005Y52867D01*
X396018Y52863D01*
X396030Y52856D01*
X396153Y52820D01*
X396276Y52781D01*
X396290Y52781D01*
X396303Y52777D01*
X396432Y52777D01*
X396560Y52774D01*
X396574Y52778D01*
X396588Y52778D01*
X396711Y52814D01*
X396835Y52846D01*
X396847Y52853D01*
X396861Y52857D01*
X396970Y52926D01*
X397080Y52991D01*
X397089Y53001D01*
X397101Y53009D01*
X397186Y53105D01*
X397274Y53199D01*
X397281Y53211D01*
X397290Y53221D01*
X397345Y53337D01*
X397404Y53452D01*
X397406Y53464D01*
X397412Y53478D01*
X397459Y53758D01*
X397457Y53772D01*
X397459Y53783D01*
X397459Y130017D01*
X397441Y130144D01*
X397427Y130272D01*
X397421Y130285D01*
X397419Y130299D01*
X397367Y130416D01*
X397318Y130535D01*
X397309Y130546D01*
X397303Y130558D01*
X397220Y130656D01*
X397140Y130757D01*
X397128Y130765D01*
X397120Y130775D01*
X397012Y130847D01*
X396908Y130921D01*
X396894Y130925D01*
X396883Y130933D01*
X396760Y130972D01*
X396639Y131014D01*
X396625Y131014D01*
X396612Y131019D01*
X396484Y131022D01*
X396355Y131029D01*
X396342Y131026D01*
X396328Y131026D01*
X396204Y130993D01*
X396078Y130964D01*
X396066Y130958D01*
X396053Y130954D01*
X395943Y130889D01*
X395830Y130826D01*
X395821Y130817D01*
X395808Y130809D01*
X395614Y130601D01*
X395608Y130589D01*
X395600Y130581D01*
X395407Y130293D01*
X394357Y129243D01*
X393122Y128418D01*
X391750Y127849D01*
X390293Y127559D01*
X388581Y127559D01*
X388581Y134084D01*
X388573Y134142D01*
X388574Y134200D01*
X388553Y134282D01*
X388541Y134365D01*
X388517Y134419D01*
X388503Y134475D01*
X388460Y134548D01*
X388425Y134625D01*
X388387Y134669D01*
X388357Y134720D01*
X388296Y134777D01*
X388241Y134842D01*
X388193Y134874D01*
X388150Y134914D01*
X388075Y134953D01*
X388005Y134999D01*
X387949Y135017D01*
X387897Y135044D01*
X387829Y135055D01*
X387734Y135085D01*
X387634Y135088D01*
X387566Y135099D01*
X386549Y135099D01*
X386549Y135101D01*
X387566Y135101D01*
X387624Y135109D01*
X387682Y135108D01*
X387764Y135129D01*
X387847Y135141D01*
X387901Y135165D01*
X387957Y135179D01*
X388030Y135222D01*
X388107Y135257D01*
X388151Y135295D01*
X388202Y135325D01*
X388259Y135386D01*
X388324Y135441D01*
X388356Y135489D01*
X388396Y135532D01*
X388435Y135607D01*
X388481Y135677D01*
X388499Y135733D01*
X388526Y135785D01*
X388537Y135853D01*
X388567Y135948D01*
X388570Y136048D01*
X388581Y136116D01*
X388581Y142641D01*
X390293Y142641D01*
X391750Y142351D01*
X393122Y141782D01*
X394357Y140957D01*
X395407Y139907D01*
X395600Y139619D01*
X395686Y139523D01*
X395769Y139425D01*
X395780Y139417D01*
X395789Y139407D01*
X395898Y139339D01*
X396005Y139267D01*
X396018Y139263D01*
X396030Y139256D01*
X396153Y139220D01*
X396276Y139181D01*
X396290Y139181D01*
X396303Y139177D01*
X396432Y139177D01*
X396560Y139174D01*
X396574Y139178D01*
X396588Y139178D01*
X396711Y139214D01*
X396835Y139246D01*
X396847Y139253D01*
X396861Y139257D01*
X396970Y139326D01*
X397080Y139391D01*
X397089Y139401D01*
X397101Y139409D01*
X397186Y139505D01*
X397274Y139599D01*
X397281Y139611D01*
X397290Y139621D01*
X397345Y139737D01*
X397404Y139852D01*
X397406Y139864D01*
X397412Y139878D01*
X397459Y140158D01*
X397457Y140172D01*
X397459Y140183D01*
X397459Y181724D01*
X397444Y181831D01*
X397436Y181940D01*
X397424Y181971D01*
X397419Y182005D01*
X397375Y182104D01*
X397337Y182206D01*
X397317Y182233D01*
X397303Y182264D01*
X397233Y182347D01*
X397168Y182435D01*
X397141Y182456D01*
X397120Y182481D01*
X397029Y182542D01*
X396943Y182608D01*
X396911Y182620D01*
X396883Y182639D01*
X396779Y182672D01*
X396678Y182711D01*
X396644Y182715D01*
X396612Y182725D01*
X396503Y182728D01*
X396395Y182738D01*
X396362Y182731D01*
X396328Y182732D01*
X396223Y182705D01*
X396116Y182684D01*
X396085Y182669D01*
X396053Y182660D01*
X395959Y182605D01*
X395862Y182556D01*
X395840Y182534D01*
X395808Y182515D01*
X395659Y182356D01*
X395623Y182320D01*
X394919Y181352D01*
X393704Y180137D01*
X392313Y179126D01*
X390781Y178346D01*
X389146Y177814D01*
X388619Y177731D01*
X388619Y187452D01*
X388611Y187510D01*
X388613Y187568D01*
X388591Y187650D01*
X388579Y187733D01*
X388555Y187787D01*
X388541Y187843D01*
X388498Y187916D01*
X388463Y187993D01*
X388425Y188037D01*
X388395Y188088D01*
X388334Y188145D01*
X388279Y188210D01*
X388231Y188242D01*
X388188Y188282D01*
X388113Y188321D01*
X388043Y188367D01*
X387987Y188385D01*
X387935Y188412D01*
X387867Y188423D01*
X387772Y188453D01*
X387672Y188456D01*
X387604Y188467D01*
X386587Y188467D01*
X386587Y188469D01*
X387604Y188469D01*
X387662Y188477D01*
X387720Y188476D01*
X387802Y188497D01*
X387885Y188509D01*
X387939Y188533D01*
X387995Y188547D01*
X388068Y188590D01*
X388145Y188625D01*
X388190Y188663D01*
X388240Y188693D01*
X388298Y188754D01*
X388362Y188809D01*
X388394Y188857D01*
X388434Y188900D01*
X388473Y188975D01*
X388519Y189045D01*
X388537Y189101D01*
X388564Y189153D01*
X388575Y189221D01*
X388605Y189316D01*
X388608Y189416D01*
X388619Y189484D01*
X388619Y199205D01*
X389146Y199122D01*
X390781Y198590D01*
X392313Y197810D01*
X393704Y196799D01*
X394919Y195584D01*
X395623Y194616D01*
X395698Y194537D01*
X395769Y194455D01*
X395797Y194436D01*
X395820Y194411D01*
X395915Y194357D01*
X396005Y194297D01*
X396038Y194287D01*
X396067Y194270D01*
X396172Y194244D01*
X396276Y194211D01*
X396310Y194210D01*
X396343Y194202D01*
X396452Y194207D01*
X396560Y194204D01*
X396593Y194212D01*
X396627Y194214D01*
X396730Y194248D01*
X396835Y194276D01*
X396865Y194293D01*
X396897Y194304D01*
X396986Y194365D01*
X397080Y194421D01*
X397103Y194446D01*
X397131Y194465D01*
X397200Y194549D01*
X397274Y194628D01*
X397290Y194658D01*
X397311Y194685D01*
X397354Y194785D01*
X397404Y194881D01*
X397409Y194911D01*
X397424Y194946D01*
X397451Y195163D01*
X397459Y195212D01*
X397459Y209122D01*
X397447Y209207D01*
X397445Y209293D01*
X397427Y209347D01*
X397419Y209404D01*
X397384Y209482D01*
X397358Y209564D01*
X397326Y209611D01*
X397303Y209663D01*
X397248Y209729D01*
X397200Y209800D01*
X397156Y209837D01*
X397120Y209880D01*
X397048Y209928D01*
X396982Y209983D01*
X396930Y210006D01*
X396883Y210038D01*
X396801Y210064D01*
X396722Y210098D01*
X396666Y210106D01*
X396612Y210123D01*
X396526Y210126D01*
X396441Y210137D01*
X396385Y210129D01*
X396328Y210131D01*
X396245Y210109D01*
X396159Y210097D01*
X396108Y210073D01*
X396053Y210059D01*
X395979Y210015D01*
X395900Y209980D01*
X395857Y209943D01*
X395808Y209914D01*
X395749Y209851D01*
X395684Y209795D01*
X395658Y209753D01*
X395614Y209706D01*
X395548Y209577D01*
X395506Y209511D01*
X394987Y208256D01*
X392200Y205470D01*
X388559Y203961D01*
X384617Y203961D01*
X380976Y205470D01*
X378189Y208256D01*
X376828Y211544D01*
X376812Y211570D01*
X376803Y211600D01*
X376757Y211664D01*
X376683Y211789D01*
X376636Y211833D01*
X376608Y211873D01*
X372871Y215610D01*
X372871Y236699D01*
X372867Y236729D01*
X372870Y236758D01*
X372847Y236869D01*
X372831Y236981D01*
X372819Y237008D01*
X372814Y237036D01*
X372762Y237137D01*
X372715Y237240D01*
X372696Y237263D01*
X372683Y237289D01*
X372605Y237371D01*
X372532Y237457D01*
X372507Y237474D01*
X372487Y237495D01*
X372389Y237552D01*
X372295Y237615D01*
X372267Y237624D01*
X372242Y237639D01*
X372132Y237667D01*
X372024Y237701D01*
X371995Y237701D01*
X371966Y237709D01*
X371853Y237705D01*
X371740Y237708D01*
X371711Y237701D01*
X371682Y237700D01*
X371574Y237665D01*
X371465Y237636D01*
X371439Y237621D01*
X371411Y237612D01*
X371348Y237567D01*
X371220Y237491D01*
X371219Y237489D01*
X368808Y237489D01*
X368750Y237481D01*
X368692Y237483D01*
X368610Y237461D01*
X368526Y237449D01*
X368473Y237426D01*
X368417Y237411D01*
X368344Y237368D01*
X368267Y237333D01*
X368222Y237295D01*
X368172Y237266D01*
X368114Y237204D01*
X368050Y237150D01*
X368018Y237101D01*
X367978Y237058D01*
X367939Y236983D01*
X367892Y236913D01*
X367875Y236857D01*
X367848Y236805D01*
X367837Y236737D01*
X367807Y236642D01*
X367804Y236542D01*
X367793Y236474D01*
X367793Y234580D01*
X365114Y231901D01*
X361326Y231901D01*
X360469Y232758D01*
X360422Y232793D01*
X360382Y232836D01*
X360309Y232878D01*
X360242Y232929D01*
X360187Y232950D01*
X360137Y232979D01*
X360055Y233000D01*
X359976Y233030D01*
X359918Y233035D01*
X359861Y233049D01*
X359777Y233047D01*
X359693Y233054D01*
X359636Y233042D01*
X359577Y233040D01*
X359497Y233014D01*
X359414Y232998D01*
X359362Y232971D01*
X359307Y232953D01*
X359250Y232913D01*
X359162Y232867D01*
X359089Y232798D01*
X359033Y232758D01*
X357676Y231401D01*
X357624Y231331D01*
X357564Y231267D01*
X357538Y231218D01*
X357505Y231174D01*
X357474Y231092D01*
X357434Y231014D01*
X357426Y230967D01*
X357404Y230908D01*
X357392Y230760D01*
X357379Y230683D01*
X357379Y196560D01*
X344206Y183387D01*
X325623Y183387D01*
X325593Y183383D01*
X325564Y183386D01*
X325453Y183363D01*
X325341Y183347D01*
X325314Y183335D01*
X325286Y183330D01*
X325185Y183278D01*
X325082Y183231D01*
X325059Y183212D01*
X325033Y183199D01*
X324951Y183121D01*
X324865Y183048D01*
X324848Y183023D01*
X324827Y183003D01*
X324770Y182905D01*
X324707Y182811D01*
X324698Y182783D01*
X324683Y182758D01*
X324656Y182648D01*
X324621Y182540D01*
X324621Y182511D01*
X324613Y182482D01*
X324617Y182369D01*
X324614Y182256D01*
X324621Y182227D01*
X324622Y182198D01*
X324657Y182090D01*
X324686Y181981D01*
X324701Y181955D01*
X324710Y181927D01*
X324755Y181864D01*
X324831Y181736D01*
X324843Y181725D01*
X324843Y177948D01*
X323611Y176716D01*
X323593Y176692D01*
X323571Y176673D01*
X323508Y176579D01*
X323440Y176489D01*
X323429Y176461D01*
X323413Y176437D01*
X323379Y176329D01*
X323339Y176223D01*
X323336Y176194D01*
X323327Y176166D01*
X323324Y176052D01*
X323315Y175940D01*
X323321Y175911D01*
X323320Y175882D01*
X323349Y175772D01*
X323371Y175661D01*
X323384Y175635D01*
X323392Y175607D01*
X323450Y175509D01*
X323502Y175409D01*
X323522Y175387D01*
X323537Y175362D01*
X323620Y175285D01*
X323698Y175203D01*
X323723Y175188D01*
X323744Y175168D01*
X323845Y175116D01*
X323943Y175059D01*
X323971Y175052D01*
X323998Y175038D01*
X324075Y175025D01*
X324218Y174989D01*
X324281Y174991D01*
X324329Y174983D01*
X324464Y174983D01*
X327129Y172318D01*
X327129Y168550D01*
X326025Y167446D01*
X325990Y167399D01*
X325947Y167359D01*
X325905Y167286D01*
X325854Y167219D01*
X325833Y167164D01*
X325804Y167114D01*
X325783Y167032D01*
X325753Y166953D01*
X325748Y166895D01*
X325734Y166838D01*
X325736Y166754D01*
X325729Y166670D01*
X325741Y166613D01*
X325743Y166554D01*
X325768Y166474D01*
X325785Y166391D01*
X325812Y166339D01*
X325830Y166284D01*
X325870Y166227D01*
X325916Y166139D01*
X325985Y166066D01*
X326025Y166010D01*
X329407Y162628D01*
X331193Y160842D01*
X331193Y148530D01*
X329407Y146744D01*
X323640Y140977D01*
X321854Y139191D01*
X312877Y139191D01*
X312848Y139187D01*
X312819Y139190D01*
X312708Y139167D01*
X312595Y139151D01*
X312569Y139139D01*
X312540Y139134D01*
X312439Y139081D01*
X312336Y139035D01*
X312314Y139016D01*
X312288Y139003D01*
X312205Y138925D01*
X312119Y138852D01*
X312103Y138827D01*
X312081Y138807D01*
X312024Y138709D01*
X311961Y138615D01*
X311953Y138587D01*
X311938Y138562D01*
X311910Y138452D01*
X311876Y138344D01*
X311875Y138314D01*
X311868Y138286D01*
X311871Y138173D01*
X311868Y138060D01*
X311876Y138031D01*
X311877Y138002D01*
X311912Y137894D01*
X311940Y137785D01*
X311955Y137759D01*
X311964Y137731D01*
X312010Y137668D01*
X312085Y137540D01*
X312131Y137497D01*
X312159Y137458D01*
X314467Y135150D01*
X314537Y135098D01*
X314601Y135038D01*
X314650Y135012D01*
X314694Y134979D01*
X314776Y134948D01*
X314854Y134908D01*
X314901Y134900D01*
X314960Y134878D01*
X315108Y134866D01*
X315185Y134853D01*
X317176Y134853D01*
X318069Y133960D01*
X318069Y124696D01*
X317022Y123650D01*
X317017Y123647D01*
X317009Y123641D01*
X317000Y123637D01*
X316900Y123549D01*
X316800Y123464D01*
X316794Y123455D01*
X316787Y123449D01*
X316715Y123337D01*
X316642Y123227D01*
X316639Y123217D01*
X316634Y123209D01*
X316596Y123082D01*
X316556Y122956D01*
X316556Y122946D01*
X316553Y122937D01*
X316552Y122803D01*
X316549Y122672D01*
X316551Y122662D01*
X316551Y122652D01*
X316587Y122524D01*
X316621Y122397D01*
X316626Y122388D01*
X316628Y122379D01*
X316698Y122266D01*
X316766Y122152D01*
X316773Y122145D01*
X316778Y122137D01*
X316877Y122048D01*
X316973Y121958D01*
X316982Y121953D01*
X316989Y121947D01*
X317041Y121923D01*
X317226Y121828D01*
X317262Y121822D01*
X317295Y121807D01*
X317563Y121736D01*
X318142Y121401D01*
X318615Y120928D01*
X318950Y120349D01*
X319123Y119702D01*
X319123Y117367D01*
X313066Y117367D01*
X313008Y117359D01*
X312950Y117361D01*
X312868Y117339D01*
X312785Y117327D01*
X312731Y117304D01*
X312675Y117289D01*
X312602Y117246D01*
X312525Y117211D01*
X312481Y117173D01*
X312430Y117144D01*
X312373Y117082D01*
X312308Y117028D01*
X312276Y116979D01*
X312236Y116936D01*
X312197Y116861D01*
X312151Y116791D01*
X312133Y116735D01*
X312106Y116683D01*
X312095Y116615D01*
X312082Y116573D01*
X312073Y116634D01*
X312049Y116687D01*
X312035Y116743D01*
X311991Y116816D01*
X311957Y116893D01*
X311919Y116938D01*
X311889Y116988D01*
X311828Y117046D01*
X311773Y117110D01*
X311725Y117142D01*
X311682Y117182D01*
X311607Y117221D01*
X311537Y117268D01*
X311481Y117285D01*
X311429Y117312D01*
X311361Y117323D01*
X311266Y117353D01*
X311166Y117356D01*
X311098Y117367D01*
X305041Y117367D01*
X305041Y119702D01*
X305214Y120349D01*
X305549Y120928D01*
X306022Y121401D01*
X306601Y121736D01*
X306869Y121807D01*
X306878Y121811D01*
X306888Y121813D01*
X307009Y121867D01*
X307131Y121919D01*
X307138Y121925D01*
X307147Y121929D01*
X307248Y122014D01*
X307351Y122098D01*
X307357Y122106D01*
X307364Y122113D01*
X307438Y122223D01*
X307513Y122332D01*
X307517Y122341D01*
X307522Y122349D01*
X307562Y122476D01*
X307604Y122601D01*
X307605Y122611D01*
X307608Y122620D01*
X307611Y122752D01*
X307617Y122885D01*
X307615Y122895D01*
X307615Y122904D01*
X307582Y123032D01*
X307551Y123161D01*
X307546Y123170D01*
X307543Y123179D01*
X307476Y123293D01*
X307410Y123409D01*
X307403Y123415D01*
X307398Y123424D01*
X307301Y123514D01*
X307207Y123607D01*
X307198Y123612D01*
X307191Y123618D01*
X307073Y123678D01*
X306996Y123720D01*
X306019Y124696D01*
X306019Y133971D01*
X306065Y134039D01*
X306133Y134129D01*
X306143Y134157D01*
X306159Y134181D01*
X306194Y134289D01*
X306234Y134395D01*
X306236Y134424D01*
X306245Y134452D01*
X306248Y134565D01*
X306258Y134678D01*
X306252Y134707D01*
X306253Y134736D01*
X306224Y134846D01*
X306202Y134957D01*
X306188Y134983D01*
X306181Y135011D01*
X306123Y135108D01*
X306071Y135209D01*
X306050Y135231D01*
X306035Y135256D01*
X305953Y135333D01*
X305875Y135415D01*
X305850Y135430D01*
X305828Y135450D01*
X305727Y135502D01*
X305630Y135559D01*
X305601Y135566D01*
X305575Y135580D01*
X305498Y135593D01*
X305354Y135629D01*
X305292Y135627D01*
X305244Y135635D01*
X303604Y135635D01*
X303575Y135631D01*
X303546Y135634D01*
X303435Y135611D01*
X303323Y135595D01*
X303296Y135583D01*
X303267Y135578D01*
X303167Y135526D01*
X303063Y135479D01*
X303041Y135460D01*
X303015Y135447D01*
X302933Y135369D01*
X302846Y135296D01*
X302830Y135271D01*
X302809Y135251D01*
X302751Y135153D01*
X302689Y135059D01*
X302680Y135031D01*
X302665Y135006D01*
X302637Y134896D01*
X302603Y134788D01*
X302602Y134759D01*
X302595Y134730D01*
X302598Y134617D01*
X302595Y134504D01*
X302603Y134475D01*
X302604Y134446D01*
X302639Y134338D01*
X302667Y134229D01*
X302682Y134203D01*
X302691Y134175D01*
X302737Y134112D01*
X302813Y133984D01*
X302829Y133969D01*
X302829Y124696D01*
X301936Y123803D01*
X291672Y123803D01*
X290779Y124696D01*
X290779Y125772D01*
X290771Y125830D01*
X290773Y125888D01*
X290751Y125970D01*
X290739Y126054D01*
X290716Y126107D01*
X290701Y126163D01*
X290658Y126236D01*
X290623Y126313D01*
X290585Y126358D01*
X290556Y126408D01*
X290494Y126466D01*
X290440Y126530D01*
X290391Y126562D01*
X290348Y126602D01*
X290273Y126641D01*
X290203Y126688D01*
X290147Y126705D01*
X290095Y126732D01*
X290027Y126743D01*
X289932Y126773D01*
X289832Y126776D01*
X289764Y126787D01*
X285149Y126787D01*
X285120Y126783D01*
X285091Y126786D01*
X284980Y126763D01*
X284867Y126747D01*
X284841Y126735D01*
X284812Y126730D01*
X284711Y126678D01*
X284608Y126631D01*
X284586Y126612D01*
X284560Y126599D01*
X284477Y126521D01*
X284391Y126448D01*
X284375Y126423D01*
X284353Y126403D01*
X284296Y126305D01*
X284233Y126211D01*
X284225Y126183D01*
X284210Y126158D01*
X284182Y126048D01*
X284148Y125940D01*
X284147Y125910D01*
X284140Y125882D01*
X284143Y125769D01*
X284140Y125656D01*
X284148Y125627D01*
X284149Y125598D01*
X284184Y125490D01*
X284212Y125381D01*
X284227Y125355D01*
X284236Y125327D01*
X284282Y125264D01*
X284357Y125136D01*
X284403Y125093D01*
X284431Y125054D01*
X289434Y120052D01*
X289480Y120017D01*
X289521Y119974D01*
X289593Y119931D01*
X289661Y119881D01*
X289715Y119860D01*
X289766Y119830D01*
X289847Y119810D01*
X289926Y119779D01*
X289985Y119775D01*
X290041Y119760D01*
X290126Y119763D01*
X290210Y119756D01*
X290267Y119767D01*
X290325Y119769D01*
X290406Y119795D01*
X290488Y119812D01*
X290540Y119839D01*
X290596Y119857D01*
X290652Y119897D01*
X290741Y119943D01*
X290813Y120011D01*
X290869Y120052D01*
X291710Y120893D01*
X301974Y120893D01*
X302867Y120000D01*
X302867Y110736D01*
X301974Y109843D01*
X291710Y109843D01*
X290817Y110736D01*
X290817Y111812D01*
X290809Y111870D01*
X290811Y111928D01*
X290789Y112010D01*
X290777Y112094D01*
X290754Y112147D01*
X290739Y112203D01*
X290696Y112276D01*
X290661Y112353D01*
X290623Y112398D01*
X290594Y112448D01*
X290532Y112506D01*
X290478Y112570D01*
X290429Y112602D01*
X290386Y112642D01*
X290311Y112681D01*
X290241Y112728D01*
X290185Y112745D01*
X290133Y112772D01*
X290065Y112783D01*
X289970Y112813D01*
X289870Y112816D01*
X289802Y112827D01*
X289472Y112827D01*
X283432Y118867D01*
X283408Y118885D01*
X283389Y118907D01*
X283295Y118970D01*
X283205Y119038D01*
X283177Y119048D01*
X283153Y119065D01*
X283045Y119099D01*
X282939Y119139D01*
X282910Y119142D01*
X282882Y119150D01*
X282768Y119153D01*
X282656Y119163D01*
X282627Y119157D01*
X282598Y119158D01*
X282488Y119129D01*
X282377Y119107D01*
X282351Y119093D01*
X282323Y119086D01*
X282225Y119028D01*
X282125Y118976D01*
X282103Y118956D01*
X282078Y118941D01*
X282001Y118858D01*
X281919Y118780D01*
X281904Y118755D01*
X281884Y118733D01*
X281832Y118632D01*
X281775Y118535D01*
X281768Y118506D01*
X281754Y118480D01*
X281741Y118403D01*
X281705Y118259D01*
X281707Y118197D01*
X281699Y118149D01*
X281699Y114719D01*
X281548Y114568D01*
X281513Y114521D01*
X281470Y114481D01*
X281428Y114408D01*
X281377Y114341D01*
X281356Y114286D01*
X281327Y114236D01*
X281306Y114154D01*
X281276Y114075D01*
X281271Y114017D01*
X281257Y113960D01*
X281259Y113876D01*
X281252Y113792D01*
X281264Y113734D01*
X281266Y113676D01*
X281292Y113596D01*
X281308Y113513D01*
X281335Y113461D01*
X281353Y113405D01*
X281393Y113349D01*
X281439Y113261D01*
X281508Y113188D01*
X281548Y113132D01*
X281699Y112981D01*
X281699Y108219D01*
X280505Y107025D01*
X275844Y107025D01*
X275786Y107017D01*
X275728Y107019D01*
X275646Y106997D01*
X275562Y106985D01*
X275509Y106962D01*
X275453Y106947D01*
X275380Y106904D01*
X275303Y106869D01*
X275258Y106831D01*
X275208Y106802D01*
X275150Y106740D01*
X275086Y106686D01*
X275054Y106637D01*
X275014Y106594D01*
X274975Y106519D01*
X274928Y106449D01*
X274911Y106393D01*
X274884Y106341D01*
X274873Y106273D01*
X274843Y106178D01*
X274840Y106078D01*
X274829Y106010D01*
X274829Y87151D01*
X274841Y87064D01*
X274844Y86977D01*
X274861Y86924D01*
X274869Y86869D01*
X274904Y86789D01*
X274931Y86706D01*
X274959Y86667D01*
X274985Y86610D01*
X275081Y86496D01*
X275126Y86433D01*
X276861Y84698D01*
X276861Y80910D01*
X274182Y78231D01*
X270394Y78231D01*
X267715Y80910D01*
X267715Y84698D01*
X269450Y86433D01*
X269502Y86503D01*
X269562Y86566D01*
X269588Y86616D01*
X269621Y86660D01*
X269652Y86742D01*
X269692Y86820D01*
X269700Y86867D01*
X269722Y86926D01*
X269734Y87073D01*
X269747Y87151D01*
X269747Y106010D01*
X269739Y106068D01*
X269741Y106126D01*
X269719Y106208D01*
X269707Y106292D01*
X269684Y106345D01*
X269669Y106401D01*
X269626Y106474D01*
X269591Y106551D01*
X269553Y106596D01*
X269524Y106646D01*
X269462Y106704D01*
X269408Y106768D01*
X269359Y106800D01*
X269316Y106840D01*
X269241Y106879D01*
X269171Y106926D01*
X269115Y106943D01*
X269063Y106970D01*
X268995Y106981D01*
X268900Y107011D01*
X268800Y107014D01*
X268732Y107025D01*
X264143Y107025D01*
X262949Y108219D01*
X262949Y111871D01*
X262945Y111900D01*
X262948Y111930D01*
X262925Y112041D01*
X262909Y112153D01*
X262897Y112179D01*
X262892Y112208D01*
X262840Y112309D01*
X262793Y112412D01*
X262774Y112435D01*
X262761Y112461D01*
X262683Y112543D01*
X262610Y112629D01*
X262585Y112645D01*
X262565Y112667D01*
X262467Y112724D01*
X262373Y112787D01*
X262345Y112795D01*
X262319Y112810D01*
X262210Y112838D01*
X262102Y112872D01*
X262072Y112873D01*
X262044Y112880D01*
X261931Y112877D01*
X261818Y112880D01*
X261789Y112872D01*
X261760Y112871D01*
X261652Y112836D01*
X261543Y112808D01*
X261517Y112793D01*
X261489Y112784D01*
X261425Y112738D01*
X261298Y112663D01*
X261255Y112617D01*
X261216Y112589D01*
X261156Y112529D01*
X261103Y112459D01*
X261044Y112395D01*
X261018Y112346D01*
X260985Y112302D01*
X260954Y112220D01*
X260914Y112142D01*
X260906Y112094D01*
X260884Y112036D01*
X260872Y111888D01*
X260859Y111811D01*
X260859Y83341D01*
X260871Y83254D01*
X260874Y83167D01*
X260891Y83114D01*
X260899Y83059D01*
X260934Y82979D01*
X260961Y82896D01*
X260989Y82857D01*
X261015Y82800D01*
X261111Y82686D01*
X261156Y82623D01*
X262891Y80888D01*
X262891Y77100D01*
X260212Y74421D01*
X256424Y74421D01*
X253745Y77100D01*
X253745Y80888D01*
X255480Y82623D01*
X255532Y82693D01*
X255592Y82756D01*
X255618Y82806D01*
X255651Y82850D01*
X255682Y82932D01*
X255722Y83010D01*
X255730Y83057D01*
X255752Y83116D01*
X255764Y83263D01*
X255777Y83341D01*
X255777Y114336D01*
X261082Y119641D01*
X262076Y119641D01*
X262105Y119645D01*
X262135Y119642D01*
X262246Y119665D01*
X262358Y119681D01*
X262384Y119693D01*
X262413Y119698D01*
X262514Y119751D01*
X262617Y119797D01*
X262640Y119816D01*
X262666Y119829D01*
X262748Y119907D01*
X262834Y119980D01*
X262850Y120005D01*
X262872Y120025D01*
X262929Y120123D01*
X262992Y120217D01*
X263001Y120245D01*
X263015Y120270D01*
X263043Y120380D01*
X263077Y120488D01*
X263078Y120517D01*
X263085Y120546D01*
X263082Y120659D01*
X263085Y120772D01*
X263077Y120801D01*
X263076Y120830D01*
X263041Y120938D01*
X263013Y121047D01*
X262998Y121073D01*
X262989Y121101D01*
X262949Y121156D01*
X262949Y125981D01*
X263100Y126132D01*
X263135Y126179D01*
X263178Y126219D01*
X263220Y126292D01*
X263271Y126359D01*
X263292Y126414D01*
X263321Y126464D01*
X263342Y126546D01*
X263372Y126625D01*
X263377Y126683D01*
X263391Y126740D01*
X263389Y126824D01*
X263396Y126908D01*
X263384Y126966D01*
X263382Y127024D01*
X263356Y127104D01*
X263340Y127187D01*
X263313Y127239D01*
X263295Y127295D01*
X263255Y127351D01*
X263209Y127439D01*
X263140Y127512D01*
X263100Y127568D01*
X262949Y127719D01*
X262949Y132481D01*
X263100Y132632D01*
X263135Y132679D01*
X263178Y132719D01*
X263220Y132792D01*
X263271Y132859D01*
X263292Y132914D01*
X263321Y132964D01*
X263342Y133046D01*
X263372Y133125D01*
X263377Y133183D01*
X263391Y133240D01*
X263389Y133324D01*
X263396Y133408D01*
X263384Y133466D01*
X263382Y133524D01*
X263356Y133604D01*
X263340Y133687D01*
X263313Y133739D01*
X263295Y133795D01*
X263255Y133851D01*
X263209Y133939D01*
X263140Y134012D01*
X263100Y134068D01*
X262949Y134219D01*
X262949Y138981D01*
X263100Y139132D01*
X263135Y139179D01*
X263178Y139219D01*
X263220Y139292D01*
X263271Y139359D01*
X263292Y139414D01*
X263321Y139464D01*
X263342Y139546D01*
X263372Y139625D01*
X263377Y139683D01*
X263391Y139740D01*
X263389Y139824D01*
X263396Y139908D01*
X263384Y139966D01*
X263382Y140024D01*
X263356Y140104D01*
X263340Y140187D01*
X263313Y140239D01*
X263295Y140295D01*
X263255Y140351D01*
X263209Y140439D01*
X263140Y140512D01*
X263100Y140568D01*
X262949Y140719D01*
X262949Y145481D01*
X263100Y145632D01*
X263135Y145679D01*
X263178Y145719D01*
X263220Y145792D01*
X263271Y145859D01*
X263292Y145914D01*
X263321Y145964D01*
X263342Y146046D01*
X263372Y146125D01*
X263377Y146183D01*
X263391Y146240D01*
X263389Y146324D01*
X263396Y146408D01*
X263384Y146466D01*
X263382Y146524D01*
X263356Y146604D01*
X263340Y146687D01*
X263313Y146739D01*
X263295Y146795D01*
X263255Y146851D01*
X263209Y146939D01*
X263140Y147012D01*
X263100Y147068D01*
X262949Y147219D01*
X262949Y151981D01*
X263100Y152132D01*
X263135Y152179D01*
X263178Y152219D01*
X263220Y152292D01*
X263271Y152359D01*
X263292Y152414D01*
X263321Y152464D01*
X263342Y152546D01*
X263372Y152625D01*
X263377Y152683D01*
X263391Y152740D01*
X263389Y152824D01*
X263396Y152908D01*
X263384Y152966D01*
X263382Y153024D01*
X263356Y153104D01*
X263340Y153187D01*
X263313Y153239D01*
X263295Y153295D01*
X263255Y153351D01*
X263209Y153439D01*
X263140Y153512D01*
X263100Y153568D01*
X262949Y153719D01*
X262949Y158481D01*
X264143Y159675D01*
X280505Y159675D01*
X280568Y159613D01*
X280614Y159577D01*
X280655Y159535D01*
X280727Y159492D01*
X280795Y159442D01*
X280849Y159421D01*
X280900Y159391D01*
X280981Y159370D01*
X281060Y159340D01*
X281119Y159336D01*
X281175Y159321D01*
X281259Y159324D01*
X281344Y159317D01*
X281401Y159328D01*
X281459Y159330D01*
X281540Y159356D01*
X281622Y159373D01*
X281674Y159400D01*
X281730Y159418D01*
X281786Y159458D01*
X281875Y159504D01*
X281947Y159572D01*
X282003Y159613D01*
X288578Y166187D01*
X289764Y166187D01*
X289822Y166195D01*
X289880Y166193D01*
X289962Y166215D01*
X290046Y166227D01*
X290099Y166250D01*
X290155Y166265D01*
X290228Y166308D01*
X290305Y166343D01*
X290350Y166381D01*
X290400Y166410D01*
X290458Y166472D01*
X290522Y166526D01*
X290554Y166575D01*
X290594Y166618D01*
X290633Y166693D01*
X290680Y166763D01*
X290697Y166819D01*
X290724Y166871D01*
X290735Y166939D01*
X290765Y167034D01*
X290768Y167134D01*
X290779Y167202D01*
X290779Y168278D01*
X291672Y169171D01*
X301936Y169171D01*
X302829Y168278D01*
X302829Y159014D01*
X301936Y158121D01*
X291672Y158121D01*
X290726Y159068D01*
X290722Y159088D01*
X290670Y159189D01*
X290623Y159292D01*
X290604Y159314D01*
X290591Y159340D01*
X290513Y159423D01*
X290440Y159509D01*
X290415Y159525D01*
X290395Y159547D01*
X290297Y159604D01*
X290203Y159667D01*
X290175Y159675D01*
X290150Y159690D01*
X290040Y159718D01*
X289932Y159752D01*
X289902Y159753D01*
X289874Y159760D01*
X289761Y159757D01*
X289648Y159760D01*
X289619Y159752D01*
X289590Y159751D01*
X289482Y159716D01*
X289373Y159688D01*
X289347Y159673D01*
X289319Y159664D01*
X289256Y159618D01*
X289128Y159543D01*
X289085Y159497D01*
X289046Y159469D01*
X283451Y153874D01*
X283433Y153850D01*
X283411Y153831D01*
X283348Y153737D01*
X283280Y153647D01*
X283270Y153619D01*
X283253Y153595D01*
X283219Y153487D01*
X283179Y153381D01*
X283176Y153352D01*
X283168Y153324D01*
X283165Y153210D01*
X283155Y153098D01*
X283161Y153069D01*
X283160Y153040D01*
X283189Y152930D01*
X283211Y152819D01*
X283225Y152793D01*
X283232Y152765D01*
X283290Y152667D01*
X283342Y152567D01*
X283362Y152545D01*
X283377Y152520D01*
X283460Y152443D01*
X283538Y152361D01*
X283563Y152346D01*
X283585Y152326D01*
X283686Y152274D01*
X283783Y152217D01*
X283812Y152210D01*
X283838Y152196D01*
X283915Y152183D01*
X284059Y152147D01*
X284121Y152149D01*
X284169Y152141D01*
X289764Y152141D01*
X289822Y152149D01*
X289880Y152147D01*
X289962Y152169D01*
X290046Y152181D01*
X290099Y152204D01*
X290155Y152219D01*
X290228Y152262D01*
X290305Y152297D01*
X290350Y152335D01*
X290400Y152364D01*
X290458Y152426D01*
X290522Y152480D01*
X290554Y152529D01*
X290594Y152572D01*
X290633Y152647D01*
X290680Y152717D01*
X290697Y152773D01*
X290724Y152825D01*
X290735Y152893D01*
X290765Y152988D01*
X290768Y153088D01*
X290779Y153156D01*
X290779Y154120D01*
X291672Y155013D01*
X301936Y155013D01*
X302829Y154120D01*
X302829Y145288D01*
X302837Y145230D01*
X302835Y145172D01*
X302857Y145090D01*
X302869Y145006D01*
X302892Y144953D01*
X302907Y144897D01*
X302950Y144824D01*
X302985Y144747D01*
X303023Y144702D01*
X303052Y144652D01*
X303114Y144594D01*
X303168Y144530D01*
X303217Y144498D01*
X303260Y144458D01*
X303335Y144419D01*
X303405Y144372D01*
X303461Y144355D01*
X303513Y144328D01*
X303581Y144317D01*
X303676Y144287D01*
X303776Y144284D01*
X303844Y144273D01*
X303988Y144273D01*
X304046Y144281D01*
X304104Y144279D01*
X304186Y144301D01*
X304270Y144313D01*
X304323Y144336D01*
X304379Y144351D01*
X304452Y144394D01*
X304529Y144429D01*
X304574Y144467D01*
X304624Y144496D01*
X304682Y144558D01*
X304746Y144612D01*
X304778Y144661D01*
X304818Y144704D01*
X304857Y144779D01*
X304904Y144849D01*
X304921Y144905D01*
X304948Y144957D01*
X304959Y145025D01*
X304989Y145120D01*
X304992Y145220D01*
X305003Y145288D01*
X305003Y147489D01*
X311060Y147489D01*
X311118Y147497D01*
X311176Y147495D01*
X311258Y147517D01*
X311341Y147529D01*
X311395Y147552D01*
X311451Y147567D01*
X311524Y147610D01*
X311601Y147645D01*
X311645Y147683D01*
X311696Y147712D01*
X311753Y147774D01*
X311818Y147828D01*
X311850Y147877D01*
X311890Y147920D01*
X311929Y147995D01*
X311975Y148065D01*
X311993Y148121D01*
X312020Y148173D01*
X312031Y148241D01*
X312044Y148283D01*
X312053Y148222D01*
X312077Y148169D01*
X312091Y148113D01*
X312135Y148040D01*
X312169Y147963D01*
X312207Y147918D01*
X312237Y147868D01*
X312298Y147810D01*
X312353Y147746D01*
X312401Y147714D01*
X312444Y147674D01*
X312519Y147635D01*
X312589Y147588D01*
X312645Y147571D01*
X312697Y147544D01*
X312765Y147533D01*
X312860Y147503D01*
X312960Y147500D01*
X313028Y147489D01*
X319085Y147489D01*
X319085Y146059D01*
X319089Y146030D01*
X319086Y146001D01*
X319109Y145890D01*
X319125Y145777D01*
X319137Y145751D01*
X319142Y145722D01*
X319194Y145621D01*
X319241Y145518D01*
X319260Y145496D01*
X319273Y145470D01*
X319351Y145387D01*
X319424Y145301D01*
X319449Y145285D01*
X319469Y145263D01*
X319567Y145206D01*
X319661Y145143D01*
X319689Y145135D01*
X319714Y145120D01*
X319824Y145092D01*
X319932Y145058D01*
X319962Y145057D01*
X319990Y145050D01*
X320103Y145053D01*
X320216Y145050D01*
X320245Y145058D01*
X320274Y145059D01*
X320382Y145094D01*
X320491Y145122D01*
X320517Y145137D01*
X320545Y145146D01*
X320608Y145192D01*
X320736Y145267D01*
X320779Y145313D01*
X320818Y145341D01*
X325814Y150337D01*
X325866Y150407D01*
X325926Y150471D01*
X325952Y150520D01*
X325985Y150564D01*
X326016Y150646D01*
X326056Y150724D01*
X326064Y150771D01*
X326086Y150830D01*
X326098Y150978D01*
X326111Y151055D01*
X326111Y158317D01*
X326099Y158404D01*
X326096Y158491D01*
X326079Y158544D01*
X326071Y158599D01*
X326036Y158678D01*
X326009Y158762D01*
X325981Y158801D01*
X325955Y158858D01*
X325859Y158971D01*
X325814Y159035D01*
X324041Y160808D01*
X323971Y160860D01*
X323907Y160920D01*
X323858Y160946D01*
X323814Y160979D01*
X323732Y161010D01*
X323654Y161050D01*
X323607Y161058D01*
X323548Y161080D01*
X323400Y161092D01*
X323323Y161105D01*
X319084Y161105D01*
X319026Y161097D01*
X318968Y161099D01*
X318886Y161077D01*
X318802Y161065D01*
X318749Y161042D01*
X318693Y161027D01*
X318620Y160984D01*
X318543Y160949D01*
X318498Y160911D01*
X318448Y160882D01*
X318390Y160820D01*
X318326Y160766D01*
X318294Y160717D01*
X318254Y160674D01*
X318215Y160599D01*
X318168Y160529D01*
X318151Y160473D01*
X318124Y160421D01*
X318113Y160353D01*
X318083Y160258D01*
X318080Y160158D01*
X318069Y160090D01*
X318069Y159014D01*
X317176Y158121D01*
X306912Y158121D01*
X306019Y159014D01*
X306019Y168278D01*
X306912Y169171D01*
X314497Y169171D01*
X314526Y169175D01*
X314555Y169172D01*
X314666Y169195D01*
X314779Y169211D01*
X314805Y169223D01*
X314834Y169228D01*
X314935Y169281D01*
X315038Y169327D01*
X315060Y169346D01*
X315086Y169359D01*
X315169Y169437D01*
X315255Y169510D01*
X315271Y169535D01*
X315293Y169555D01*
X315350Y169653D01*
X315413Y169747D01*
X315421Y169775D01*
X315436Y169800D01*
X315464Y169910D01*
X315498Y170018D01*
X315499Y170048D01*
X315506Y170076D01*
X315503Y170189D01*
X315506Y170302D01*
X315498Y170331D01*
X315497Y170360D01*
X315462Y170468D01*
X315434Y170577D01*
X315419Y170603D01*
X315410Y170631D01*
X315364Y170695D01*
X315289Y170822D01*
X315243Y170865D01*
X315215Y170904D01*
X314199Y171920D01*
X314129Y171972D01*
X314065Y172032D01*
X314016Y172058D01*
X313972Y172091D01*
X313890Y172122D01*
X313812Y172162D01*
X313765Y172170D01*
X313706Y172192D01*
X313558Y172204D01*
X313481Y172217D01*
X246589Y172217D01*
X246502Y172205D01*
X246415Y172202D01*
X246362Y172185D01*
X246307Y172177D01*
X246228Y172142D01*
X246144Y172115D01*
X246105Y172087D01*
X246048Y172061D01*
X245935Y171965D01*
X245871Y171920D01*
X234486Y160535D01*
X234434Y160465D01*
X234374Y160401D01*
X234348Y160352D01*
X234315Y160308D01*
X234284Y160226D01*
X234244Y160148D01*
X234236Y160101D01*
X234214Y160042D01*
X234202Y159894D01*
X234189Y159817D01*
X234189Y128234D01*
X227014Y121059D01*
X225172Y121059D01*
X225143Y121055D01*
X225113Y121058D01*
X225002Y121035D01*
X224890Y121019D01*
X224864Y121007D01*
X224835Y121002D01*
X224734Y120949D01*
X224631Y120903D01*
X224608Y120884D01*
X224582Y120871D01*
X224500Y120793D01*
X224414Y120720D01*
X224398Y120695D01*
X224376Y120675D01*
X224319Y120577D01*
X224256Y120483D01*
X224247Y120455D01*
X224233Y120430D01*
X224205Y120320D01*
X224171Y120212D01*
X224170Y120183D01*
X224163Y120154D01*
X224166Y120041D01*
X224163Y119928D01*
X224171Y119899D01*
X224172Y119870D01*
X224207Y119762D01*
X224235Y119653D01*
X224250Y119627D01*
X224259Y119599D01*
X224299Y119544D01*
X224299Y114719D01*
X224148Y114568D01*
X224113Y114521D01*
X224070Y114481D01*
X224028Y114408D01*
X223977Y114341D01*
X223956Y114286D01*
X223927Y114236D01*
X223906Y114154D01*
X223876Y114075D01*
X223871Y114017D01*
X223857Y113960D01*
X223859Y113876D01*
X223852Y113792D01*
X223864Y113734D01*
X223866Y113676D01*
X223892Y113596D01*
X223908Y113513D01*
X223935Y113461D01*
X223953Y113405D01*
X223993Y113349D01*
X224039Y113261D01*
X224108Y113188D01*
X224148Y113132D01*
X224299Y112981D01*
X224299Y108219D01*
X223105Y107025D01*
X207559Y107025D01*
X207472Y107013D01*
X207385Y107010D01*
X207332Y106993D01*
X207277Y106985D01*
X207198Y106950D01*
X207114Y106923D01*
X207075Y106895D01*
X207018Y106869D01*
X206905Y106773D01*
X206841Y106728D01*
X206292Y106179D01*
X206239Y106109D01*
X206180Y106045D01*
X206154Y105996D01*
X206121Y105952D01*
X206090Y105870D01*
X206050Y105792D01*
X206042Y105745D01*
X206020Y105686D01*
X206008Y105538D01*
X205995Y105461D01*
X205995Y76483D01*
X206007Y76396D01*
X206010Y76309D01*
X206027Y76256D01*
X206035Y76201D01*
X206070Y76121D01*
X206097Y76038D01*
X206125Y75999D01*
X206151Y75942D01*
X206247Y75828D01*
X206292Y75765D01*
X208027Y74030D01*
X208027Y70242D01*
X205348Y67563D01*
X201560Y67563D01*
X200108Y69015D01*
X200061Y69050D01*
X200021Y69093D01*
X199948Y69136D01*
X199881Y69186D01*
X199826Y69207D01*
X199776Y69237D01*
X199694Y69257D01*
X199615Y69287D01*
X199557Y69292D01*
X199500Y69307D01*
X199416Y69304D01*
X199332Y69311D01*
X199274Y69299D01*
X199216Y69298D01*
X199136Y69272D01*
X199053Y69255D01*
X199001Y69228D01*
X198945Y69210D01*
X198889Y69170D01*
X198801Y69124D01*
X198728Y69055D01*
X198672Y69015D01*
X197220Y67563D01*
X193432Y67563D01*
X192742Y68253D01*
X192718Y68271D01*
X192699Y68293D01*
X192647Y68329D01*
X192627Y68347D01*
X192597Y68362D01*
X192515Y68424D01*
X192487Y68435D01*
X192463Y68451D01*
X192355Y68485D01*
X192249Y68525D01*
X192220Y68528D01*
X192192Y68537D01*
X192078Y68540D01*
X191966Y68549D01*
X191937Y68543D01*
X191908Y68544D01*
X191798Y68515D01*
X191687Y68493D01*
X191661Y68480D01*
X191633Y68472D01*
X191535Y68414D01*
X191435Y68362D01*
X191413Y68342D01*
X191388Y68327D01*
X191311Y68244D01*
X191229Y68166D01*
X191214Y68141D01*
X191194Y68120D01*
X191142Y68019D01*
X191085Y67921D01*
X191078Y67893D01*
X191064Y67866D01*
X191051Y67789D01*
X191033Y67716D01*
X191023Y67685D01*
X191022Y67676D01*
X191015Y67646D01*
X191017Y67583D01*
X191009Y67535D01*
X191009Y64719D01*
X191021Y64632D01*
X191024Y64545D01*
X191041Y64492D01*
X191049Y64437D01*
X191084Y64358D01*
X191111Y64274D01*
X191139Y64235D01*
X191165Y64178D01*
X191261Y64065D01*
X191306Y64001D01*
X194811Y60496D01*
X194881Y60444D01*
X194945Y60384D01*
X194994Y60358D01*
X195038Y60325D01*
X195120Y60294D01*
X195198Y60254D01*
X195245Y60246D01*
X195304Y60224D01*
X195452Y60212D01*
X195529Y60199D01*
X211633Y60199D01*
X211720Y60211D01*
X211807Y60214D01*
X211860Y60231D01*
X211915Y60239D01*
X211994Y60274D01*
X212078Y60301D01*
X212117Y60329D01*
X212174Y60355D01*
X212287Y60451D01*
X212351Y60496D01*
X216364Y64509D01*
X216416Y64579D01*
X216476Y64643D01*
X216502Y64692D01*
X216535Y64736D01*
X216566Y64818D01*
X216606Y64896D01*
X216614Y64943D01*
X216636Y65002D01*
X216648Y65150D01*
X216661Y65227D01*
X216661Y67680D01*
X219340Y70359D01*
X223128Y70359D01*
X225723Y67764D01*
X225770Y67729D01*
X225810Y67686D01*
X225883Y67643D01*
X225950Y67593D01*
X226005Y67572D01*
X226055Y67542D01*
X226137Y67522D01*
X226216Y67492D01*
X226274Y67487D01*
X226331Y67472D01*
X226415Y67475D01*
X226499Y67468D01*
X226557Y67480D01*
X226615Y67481D01*
X226695Y67507D01*
X226778Y67524D01*
X226830Y67551D01*
X226886Y67569D01*
X226942Y67609D01*
X227030Y67655D01*
X227103Y67724D01*
X227159Y67764D01*
X229246Y69851D01*
X233034Y69851D01*
X235713Y67172D01*
X235713Y63384D01*
X233034Y60705D01*
X230581Y60705D01*
X230494Y60693D01*
X230407Y60690D01*
X230354Y60673D01*
X230299Y60665D01*
X230220Y60630D01*
X230136Y60603D01*
X230097Y60575D01*
X230040Y60549D01*
X229927Y60453D01*
X229863Y60408D01*
X221532Y52077D01*
X219746Y50291D01*
X189956Y50291D01*
X181355Y58892D01*
X181355Y108255D01*
X181351Y108284D01*
X181354Y108313D01*
X181331Y108424D01*
X181315Y108537D01*
X181303Y108563D01*
X181298Y108592D01*
X181246Y108693D01*
X181199Y108796D01*
X181180Y108818D01*
X181167Y108844D01*
X181089Y108926D01*
X181016Y109013D01*
X180991Y109029D01*
X180971Y109051D01*
X180873Y109108D01*
X180779Y109171D01*
X180751Y109179D01*
X180726Y109194D01*
X180616Y109222D01*
X180508Y109256D01*
X180478Y109257D01*
X180450Y109264D01*
X180337Y109261D01*
X180224Y109264D01*
X180195Y109256D01*
X180166Y109255D01*
X180058Y109220D01*
X179949Y109192D01*
X179923Y109177D01*
X179895Y109168D01*
X179832Y109122D01*
X179704Y109047D01*
X179661Y109001D01*
X179622Y108973D01*
X175304Y104655D01*
X175252Y104585D01*
X175192Y104521D01*
X175166Y104472D01*
X175133Y104428D01*
X175102Y104346D01*
X175062Y104268D01*
X175054Y104221D01*
X175032Y104162D01*
X175020Y104014D01*
X175007Y103937D01*
X175007Y86563D01*
X175019Y86476D01*
X175022Y86389D01*
X175039Y86336D01*
X175047Y86281D01*
X175082Y86202D01*
X175109Y86118D01*
X175137Y86079D01*
X175163Y86022D01*
X175259Y85909D01*
X175304Y85845D01*
X179325Y81824D01*
X179325Y48971D01*
X179337Y48884D01*
X179340Y48797D01*
X179357Y48744D01*
X179365Y48689D01*
X179400Y48610D01*
X179427Y48526D01*
X179455Y48487D01*
X179481Y48430D01*
X179577Y48317D01*
X179622Y48253D01*
X186180Y41695D01*
X186204Y41677D01*
X186224Y41653D01*
X186291Y41612D01*
X186407Y41525D01*
X186467Y41502D01*
X186509Y41475D01*
X189973Y40041D01*
X192723Y37291D01*
X194211Y33698D01*
X194211Y29810D01*
X192723Y26217D01*
X189973Y23467D01*
X186380Y21979D01*
X182492Y21979D01*
X178899Y23467D01*
X176149Y26217D01*
X175944Y26713D01*
X175900Y26787D01*
X175865Y26865D01*
X175828Y26909D01*
X175799Y26958D01*
X175737Y27017D01*
X175681Y27082D01*
X175634Y27114D01*
X175593Y27153D01*
X175516Y27192D01*
X175445Y27240D01*
X175391Y27257D01*
X175340Y27283D01*
X175256Y27300D01*
X175174Y27326D01*
X175117Y27327D01*
X175061Y27338D01*
X174976Y27331D01*
X174890Y27333D01*
X174835Y27319D01*
X174778Y27314D01*
X174698Y27283D01*
X174615Y27261D01*
X174566Y27232D01*
X174513Y27212D01*
X174444Y27160D01*
X174370Y27116D01*
X174331Y27075D01*
X174286Y27040D01*
X174234Y26971D01*
X174176Y26909D01*
X174150Y26858D01*
X174116Y26813D01*
X174085Y26732D01*
X174046Y26656D01*
X174038Y26607D01*
X174015Y26547D01*
X174004Y26402D01*
X173991Y26325D01*
X173991Y25603D01*
X174003Y25516D01*
X174006Y25429D01*
X174023Y25376D01*
X174031Y25321D01*
X174066Y25242D01*
X174093Y25158D01*
X174121Y25119D01*
X174147Y25062D01*
X174243Y24949D01*
X174288Y24885D01*
X179317Y19856D01*
X179387Y19804D01*
X179451Y19744D01*
X179500Y19718D01*
X179544Y19685D01*
X179626Y19654D01*
X179704Y19614D01*
X179751Y19606D01*
X179810Y19584D01*
X179958Y19572D01*
X180035Y19559D01*
X206040Y19559D01*
X206164Y19576D01*
X206289Y19590D01*
X206304Y19596D01*
X206321Y19599D01*
X206436Y19650D01*
X206552Y19697D01*
X206565Y19708D01*
X206581Y19715D01*
X206676Y19796D01*
X206775Y19874D01*
X206785Y19888D01*
X206798Y19898D01*
X206867Y20002D01*
X206940Y20105D01*
X206946Y20121D01*
X206955Y20135D01*
X206993Y20255D01*
X207035Y20373D01*
X207036Y20390D01*
X207041Y20406D01*
X207044Y20531D01*
X207052Y20657D01*
X207048Y20673D01*
X207048Y20690D01*
X207017Y20812D01*
X206989Y20934D01*
X206981Y20949D01*
X206976Y20965D01*
X206912Y21073D01*
X206852Y21183D01*
X206840Y21195D01*
X206831Y21210D01*
X206740Y21296D01*
X206651Y21384D01*
X206637Y21392D01*
X206624Y21404D01*
X206371Y21534D01*
X206362Y21535D01*
X206353Y21540D01*
X205694Y21754D01*
X204180Y22525D01*
X202806Y23523D01*
X201605Y24724D01*
X200607Y26098D01*
X199836Y27612D01*
X199311Y29227D01*
X199232Y29723D01*
X208820Y29723D01*
X208878Y29731D01*
X208936Y29729D01*
X209018Y29751D01*
X209101Y29763D01*
X209155Y29787D01*
X209211Y29801D01*
X209284Y29844D01*
X209361Y29879D01*
X209405Y29917D01*
X209456Y29947D01*
X209513Y30008D01*
X209578Y30063D01*
X209610Y30111D01*
X209650Y30154D01*
X209689Y30229D01*
X209735Y30299D01*
X209753Y30355D01*
X209780Y30407D01*
X209791Y30475D01*
X209821Y30570D01*
X209824Y30670D01*
X209835Y30738D01*
X209835Y31755D01*
X209837Y31755D01*
X209837Y30738D01*
X209845Y30680D01*
X209844Y30622D01*
X209865Y30540D01*
X209877Y30457D01*
X209901Y30403D01*
X209915Y30347D01*
X209958Y30274D01*
X209993Y30197D01*
X210031Y30152D01*
X210061Y30102D01*
X210122Y30044D01*
X210177Y29980D01*
X210225Y29948D01*
X210268Y29908D01*
X210343Y29869D01*
X210413Y29823D01*
X210469Y29805D01*
X210521Y29778D01*
X210589Y29767D01*
X210684Y29737D01*
X210784Y29734D01*
X210852Y29723D01*
X220440Y29723D01*
X220361Y29227D01*
X219836Y27612D01*
X219065Y26098D01*
X218067Y24724D01*
X216866Y23523D01*
X215492Y22525D01*
X213978Y21754D01*
X213319Y21540D01*
X213206Y21484D01*
X213091Y21433D01*
X213079Y21422D01*
X213063Y21415D01*
X212970Y21330D01*
X212874Y21249D01*
X212865Y21235D01*
X212852Y21224D01*
X212786Y21117D01*
X212717Y21013D01*
X212712Y20997D01*
X212703Y20982D01*
X212669Y20861D01*
X212631Y20742D01*
X212631Y20725D01*
X212626Y20709D01*
X212627Y20583D01*
X212624Y20458D01*
X212628Y20441D01*
X212628Y20424D01*
X212664Y20304D01*
X212696Y20183D01*
X212704Y20168D01*
X212709Y20152D01*
X212777Y20046D01*
X212841Y19938D01*
X212853Y19927D01*
X212862Y19912D01*
X212956Y19830D01*
X213048Y19744D01*
X213063Y19736D01*
X213076Y19725D01*
X213189Y19671D01*
X213301Y19614D01*
X213317Y19612D01*
X213333Y19604D01*
X213614Y19559D01*
X213623Y19560D01*
X213632Y19559D01*
X228905Y19559D01*
X228992Y19571D01*
X229079Y19574D01*
X229132Y19591D01*
X229187Y19599D01*
X229266Y19634D01*
X229350Y19661D01*
X229389Y19689D01*
X229446Y19715D01*
X229559Y19811D01*
X229623Y19856D01*
X231124Y21358D01*
X231193Y21449D01*
X231267Y21537D01*
X231279Y21563D01*
X231295Y21585D01*
X231336Y21692D01*
X231383Y21797D01*
X231387Y21824D01*
X231397Y21850D01*
X231406Y21965D01*
X231422Y22079D01*
X231418Y22106D01*
X231420Y22134D01*
X231398Y22246D01*
X231381Y22360D01*
X231370Y22385D01*
X231364Y22412D01*
X231311Y22515D01*
X231264Y22619D01*
X231246Y22640D01*
X231233Y22665D01*
X231154Y22748D01*
X231080Y22835D01*
X231059Y22849D01*
X231037Y22871D01*
X230808Y23006D01*
X230795Y23013D01*
X229699Y23467D01*
X226949Y26217D01*
X225461Y29810D01*
X225461Y33698D01*
X226949Y37291D01*
X229699Y40041D01*
X233292Y41529D01*
X237180Y41529D01*
X240773Y40041D01*
X243523Y37291D01*
X245011Y33698D01*
X245011Y29810D01*
X243523Y26217D01*
X240773Y23467D01*
X238403Y22486D01*
X238402Y22485D01*
X238401Y22485D01*
X238282Y22415D01*
X238159Y22341D01*
X238158Y22340D01*
X238156Y22339D01*
X238058Y22235D01*
X237963Y22135D01*
X237963Y22133D01*
X237962Y22132D01*
X237897Y22006D01*
X237833Y21882D01*
X237833Y21880D01*
X237832Y21879D01*
X237830Y21864D01*
X237778Y21603D01*
X237781Y21573D01*
X237777Y21548D01*
X237777Y20824D01*
X231430Y14477D01*
X177510Y14477D01*
X168909Y23078D01*
X168909Y23916D01*
X168905Y23945D01*
X168908Y23974D01*
X168885Y24085D01*
X168869Y24197D01*
X168857Y24224D01*
X168852Y24253D01*
X168799Y24354D01*
X168753Y24457D01*
X168734Y24479D01*
X168721Y24505D01*
X168643Y24587D01*
X168570Y24674D01*
X168545Y24690D01*
X168525Y24711D01*
X168427Y24768D01*
X168333Y24831D01*
X168305Y24840D01*
X168280Y24855D01*
X168170Y24883D01*
X168062Y24917D01*
X168032Y24918D01*
X168004Y24925D01*
X167891Y24922D01*
X167778Y24924D01*
X167749Y24917D01*
X167720Y24916D01*
X167612Y24881D01*
X167503Y24853D01*
X167477Y24838D01*
X167449Y24829D01*
X167385Y24783D01*
X167258Y24707D01*
X167215Y24662D01*
X167176Y24634D01*
X166066Y23523D01*
X164692Y22525D01*
X163178Y21754D01*
X161563Y21229D01*
X161067Y21150D01*
X161067Y30738D01*
X161059Y30796D01*
X161061Y30854D01*
X161039Y30936D01*
X161027Y31019D01*
X161003Y31073D01*
X160989Y31129D01*
X160946Y31202D01*
X160911Y31279D01*
X160873Y31323D01*
X160843Y31374D01*
X160782Y31431D01*
X160727Y31496D01*
X160679Y31528D01*
X160636Y31568D01*
X160561Y31607D01*
X160491Y31653D01*
X160435Y31671D01*
X160383Y31698D01*
X160315Y31709D01*
X160220Y31739D01*
X160120Y31742D01*
X160052Y31753D01*
X159035Y31753D01*
X159035Y31755D01*
X160052Y31755D01*
X160110Y31763D01*
X160168Y31762D01*
X160250Y31783D01*
X160333Y31795D01*
X160387Y31819D01*
X160443Y31833D01*
X160516Y31876D01*
X160593Y31911D01*
X160638Y31949D01*
X160688Y31979D01*
X160746Y32040D01*
X160810Y32095D01*
X160842Y32143D01*
X160882Y32186D01*
X160921Y32261D01*
X160967Y32331D01*
X160985Y32387D01*
X161012Y32439D01*
X161023Y32507D01*
X161053Y32602D01*
X161056Y32702D01*
X161067Y32770D01*
X161067Y42358D01*
X161563Y42279D01*
X163178Y41754D01*
X164692Y40983D01*
X166066Y39985D01*
X167176Y38874D01*
X167200Y38857D01*
X167219Y38834D01*
X167313Y38771D01*
X167403Y38703D01*
X167431Y38693D01*
X167455Y38677D01*
X167563Y38642D01*
X167669Y38602D01*
X167698Y38600D01*
X167726Y38591D01*
X167840Y38588D01*
X167952Y38579D01*
X167981Y38584D01*
X168010Y38584D01*
X168120Y38612D01*
X168231Y38634D01*
X168257Y38648D01*
X168285Y38655D01*
X168383Y38713D01*
X168483Y38765D01*
X168505Y38786D01*
X168530Y38801D01*
X168607Y38883D01*
X168689Y38961D01*
X168704Y38987D01*
X168724Y39008D01*
X168776Y39109D01*
X168833Y39207D01*
X168840Y39235D01*
X168854Y39261D01*
X168867Y39338D01*
X168903Y39482D01*
X168901Y39545D01*
X168909Y39592D01*
X168909Y74219D01*
X168897Y74306D01*
X168894Y74393D01*
X168877Y74446D01*
X168869Y74501D01*
X168834Y74580D01*
X168807Y74664D01*
X168779Y74703D01*
X168753Y74760D01*
X168657Y74873D01*
X168612Y74937D01*
X161797Y81752D01*
X161797Y100301D01*
X161785Y100388D01*
X161782Y100475D01*
X161765Y100528D01*
X161757Y100583D01*
X161722Y100663D01*
X161695Y100746D01*
X161667Y100785D01*
X161641Y100842D01*
X161545Y100956D01*
X161500Y101019D01*
X159765Y102754D01*
X159765Y106542D01*
X161471Y108248D01*
X161489Y108272D01*
X161511Y108291D01*
X161574Y108385D01*
X161642Y108475D01*
X161653Y108503D01*
X161669Y108527D01*
X161703Y108635D01*
X161743Y108741D01*
X161746Y108770D01*
X161755Y108798D01*
X161758Y108912D01*
X161767Y109024D01*
X161761Y109053D01*
X161762Y109082D01*
X161733Y109192D01*
X161711Y109303D01*
X161698Y109329D01*
X161690Y109357D01*
X161632Y109455D01*
X161580Y109555D01*
X161560Y109577D01*
X161545Y109602D01*
X161462Y109679D01*
X161384Y109761D01*
X161359Y109776D01*
X161338Y109796D01*
X161237Y109848D01*
X161139Y109905D01*
X161111Y109912D01*
X161084Y109926D01*
X161007Y109939D01*
X160864Y109975D01*
X160801Y109973D01*
X160753Y109981D01*
X143967Y109981D01*
X143880Y109969D01*
X143793Y109966D01*
X143740Y109949D01*
X143685Y109941D01*
X143606Y109906D01*
X143522Y109879D01*
X143483Y109851D01*
X143426Y109825D01*
X143313Y109729D01*
X143249Y109684D01*
X136474Y102909D01*
X136422Y102839D01*
X136362Y102775D01*
X136336Y102726D01*
X136303Y102682D01*
X136272Y102600D01*
X136232Y102522D01*
X136224Y102475D01*
X136202Y102416D01*
X136190Y102268D01*
X136177Y102191D01*
X136177Y41960D01*
X136177Y41958D01*
X136177Y41957D01*
X136197Y41814D01*
X136217Y41679D01*
X136217Y41677D01*
X136217Y41676D01*
X136276Y41546D01*
X136333Y41419D01*
X136334Y41418D01*
X136335Y41416D01*
X136426Y41309D01*
X136516Y41202D01*
X136518Y41201D01*
X136519Y41200D01*
X136532Y41192D01*
X136753Y41045D01*
X136782Y41035D01*
X136803Y41022D01*
X139173Y40041D01*
X141923Y37291D01*
X143411Y33698D01*
X143411Y29810D01*
X141923Y26217D01*
X139173Y23467D01*
X135580Y21979D01*
X131692Y21979D01*
X128099Y23467D01*
X125349Y26217D01*
X123861Y29810D01*
X123861Y33698D01*
X125349Y37291D01*
X128099Y40041D01*
X130469Y41022D01*
X130470Y41023D01*
X130471Y41023D01*
X130590Y41093D01*
X130713Y41167D01*
X130714Y41168D01*
X130716Y41169D01*
X130813Y41272D01*
X130909Y41373D01*
X130909Y41375D01*
X130910Y41376D01*
X130974Y41501D01*
X131039Y41626D01*
X131039Y41628D01*
X131040Y41629D01*
X131042Y41644D01*
X131094Y41905D01*
X131091Y41935D01*
X131095Y41960D01*
X131095Y104716D01*
X132881Y106502D01*
X139656Y113277D01*
X141442Y115063D01*
X170993Y115063D01*
X171080Y115075D01*
X171167Y115078D01*
X171220Y115095D01*
X171275Y115103D01*
X171354Y115138D01*
X171438Y115165D01*
X171477Y115193D01*
X171534Y115219D01*
X171647Y115315D01*
X171711Y115360D01*
X178772Y122421D01*
X178824Y122491D01*
X178884Y122555D01*
X178910Y122604D01*
X178943Y122648D01*
X178974Y122730D01*
X179014Y122808D01*
X179022Y122855D01*
X179044Y122914D01*
X179056Y123062D01*
X179069Y123139D01*
X179069Y124812D01*
X179064Y124851D01*
X179066Y124890D01*
X179044Y124991D01*
X179029Y125093D01*
X179013Y125129D01*
X179005Y125167D01*
X178956Y125258D01*
X178913Y125353D01*
X178888Y125383D01*
X178869Y125417D01*
X178796Y125491D01*
X178730Y125570D01*
X178697Y125592D01*
X178670Y125619D01*
X178579Y125670D01*
X178493Y125727D01*
X178456Y125739D01*
X178422Y125758D01*
X178321Y125782D01*
X178222Y125813D01*
X178183Y125814D01*
X178145Y125823D01*
X178041Y125818D01*
X177938Y125821D01*
X177900Y125811D01*
X177861Y125809D01*
X177788Y125781D01*
X177663Y125749D01*
X177599Y125711D01*
X177546Y125691D01*
X177057Y125408D01*
X176410Y125235D01*
X174075Y125235D01*
X174075Y131292D01*
X174067Y131350D01*
X174069Y131408D01*
X174047Y131490D01*
X174035Y131573D01*
X174012Y131627D01*
X173997Y131683D01*
X173954Y131756D01*
X173919Y131833D01*
X173881Y131877D01*
X173852Y131928D01*
X173790Y131985D01*
X173736Y132050D01*
X173687Y132082D01*
X173644Y132122D01*
X173569Y132161D01*
X173499Y132207D01*
X173443Y132225D01*
X173391Y132252D01*
X173323Y132263D01*
X173281Y132276D01*
X173342Y132285D01*
X173395Y132309D01*
X173451Y132323D01*
X173524Y132367D01*
X173601Y132401D01*
X173646Y132439D01*
X173696Y132469D01*
X173754Y132530D01*
X173818Y132585D01*
X173850Y132633D01*
X173890Y132676D01*
X173929Y132751D01*
X173976Y132821D01*
X173993Y132877D01*
X174020Y132929D01*
X174031Y132997D01*
X174061Y133092D01*
X174064Y133192D01*
X174075Y133260D01*
X174075Y139317D01*
X176410Y139317D01*
X177057Y139144D01*
X177636Y138809D01*
X178187Y138258D01*
X178234Y138223D01*
X178274Y138180D01*
X178347Y138138D01*
X178414Y138087D01*
X178469Y138066D01*
X178519Y138037D01*
X178601Y138016D01*
X178680Y137986D01*
X178738Y137981D01*
X178795Y137967D01*
X178879Y137969D01*
X178963Y137962D01*
X179021Y137974D01*
X179079Y137976D01*
X179159Y138002D01*
X179242Y138018D01*
X179294Y138045D01*
X179350Y138063D01*
X179406Y138103D01*
X179494Y138149D01*
X179567Y138218D01*
X179623Y138258D01*
X187006Y145641D01*
X203751Y145641D01*
X203800Y145648D01*
X203848Y145645D01*
X203940Y145667D01*
X204033Y145681D01*
X204077Y145700D01*
X204125Y145712D01*
X204207Y145758D01*
X204292Y145797D01*
X204330Y145828D01*
X204372Y145852D01*
X204438Y145920D01*
X204509Y145980D01*
X204536Y146021D01*
X204570Y146056D01*
X204615Y146139D01*
X204667Y146217D01*
X204682Y146264D01*
X204705Y146307D01*
X204724Y146399D01*
X204753Y146488D01*
X204754Y146537D01*
X204764Y146585D01*
X204757Y146659D01*
X204760Y146772D01*
X204738Y146856D01*
X204732Y146919D01*
X204533Y147661D01*
X204533Y148576D01*
X214915Y148576D01*
X214973Y148584D01*
X215031Y148582D01*
X215113Y148604D01*
X215196Y148616D01*
X215250Y148639D01*
X215306Y148654D01*
X215379Y148697D01*
X215456Y148732D01*
X215500Y148770D01*
X215551Y148799D01*
X215608Y148861D01*
X215673Y148915D01*
X215705Y148964D01*
X215745Y149007D01*
X215784Y149082D01*
X215830Y149152D01*
X215848Y149208D01*
X215875Y149260D01*
X215886Y149328D01*
X215916Y149423D01*
X215919Y149523D01*
X215930Y149591D01*
X215930Y149609D01*
X215922Y149664D01*
X215923Y149707D01*
X215923Y149709D01*
X215923Y149725D01*
X215902Y149807D01*
X215890Y149891D01*
X215866Y149944D01*
X215852Y150000D01*
X215808Y150073D01*
X215774Y150150D01*
X215736Y150195D01*
X215706Y150245D01*
X215645Y150303D01*
X215590Y150367D01*
X215542Y150399D01*
X215499Y150439D01*
X215424Y150478D01*
X215354Y150525D01*
X215298Y150542D01*
X215246Y150569D01*
X215178Y150580D01*
X215083Y150610D01*
X214983Y150613D01*
X214915Y150624D01*
X204533Y150624D01*
X204533Y151655D01*
X204525Y151713D01*
X204527Y151771D01*
X204505Y151853D01*
X204493Y151937D01*
X204470Y151990D01*
X204455Y152046D01*
X204412Y152119D01*
X204377Y152196D01*
X204339Y152241D01*
X204310Y152291D01*
X204248Y152349D01*
X204194Y152413D01*
X204145Y152445D01*
X204102Y152485D01*
X204027Y152524D01*
X203957Y152571D01*
X203901Y152588D01*
X203849Y152615D01*
X203781Y152626D01*
X203686Y152656D01*
X203586Y152659D01*
X203518Y152670D01*
X195793Y152670D01*
X192171Y156293D01*
X192101Y156345D01*
X192037Y156405D01*
X191988Y156431D01*
X191944Y156464D01*
X191862Y156495D01*
X191784Y156535D01*
X191736Y156543D01*
X191678Y156565D01*
X191530Y156577D01*
X191453Y156590D01*
X160885Y156590D01*
X147192Y170283D01*
X147192Y185357D01*
X147180Y185443D01*
X147177Y185531D01*
X147160Y185584D01*
X147152Y185638D01*
X147117Y185718D01*
X147090Y185801D01*
X147062Y185841D01*
X147036Y185898D01*
X146940Y186011D01*
X146895Y186075D01*
X140696Y192274D01*
X140649Y192309D01*
X140609Y192351D01*
X140536Y192394D01*
X140469Y192445D01*
X140414Y192465D01*
X140364Y192495D01*
X140282Y192516D01*
X140203Y192546D01*
X140145Y192551D01*
X140088Y192565D01*
X140004Y192562D01*
X139920Y192569D01*
X139862Y192558D01*
X139804Y192556D01*
X139724Y192530D01*
X139641Y192514D01*
X139589Y192487D01*
X139533Y192469D01*
X139477Y192429D01*
X139389Y192383D01*
X139316Y192314D01*
X139260Y192274D01*
X138208Y191221D01*
X121444Y191221D01*
X120782Y191884D01*
X120712Y191936D01*
X120648Y191996D01*
X120599Y192022D01*
X120555Y192055D01*
X120473Y192086D01*
X120395Y192126D01*
X120347Y192134D01*
X120289Y192156D01*
X120141Y192168D01*
X120064Y192181D01*
X76176Y192181D01*
X76090Y192169D01*
X76002Y192166D01*
X75950Y192149D01*
X75895Y192141D01*
X75815Y192106D01*
X75732Y192079D01*
X75692Y192051D01*
X75635Y192025D01*
X75522Y191929D01*
X75458Y191884D01*
X63470Y179896D01*
X63458Y179879D01*
X63447Y179870D01*
X63417Y179825D01*
X63358Y179762D01*
X63332Y179713D01*
X63299Y179668D01*
X63268Y179587D01*
X63228Y179509D01*
X63220Y179461D01*
X63198Y179403D01*
X63186Y179255D01*
X63173Y179178D01*
X63173Y170863D01*
X62280Y169970D01*
X54248Y169970D01*
X54190Y169962D01*
X54131Y169964D01*
X54050Y169942D01*
X53966Y169930D01*
X53913Y169907D01*
X53856Y169892D01*
X53784Y169849D01*
X53707Y169814D01*
X53662Y169776D01*
X53612Y169747D01*
X53554Y169685D01*
X53490Y169631D01*
X53457Y169582D01*
X53417Y169539D01*
X53379Y169464D01*
X53332Y169394D01*
X53314Y169338D01*
X53288Y169286D01*
X53276Y169218D01*
X53246Y169123D01*
X53244Y169023D01*
X53232Y168955D01*
X53232Y161950D01*
X53240Y161892D01*
X53239Y161834D01*
X53260Y161752D01*
X53272Y161668D01*
X53296Y161615D01*
X53311Y161559D01*
X53354Y161486D01*
X53388Y161409D01*
X53426Y161364D01*
X53456Y161314D01*
X53518Y161256D01*
X53572Y161192D01*
X53621Y161160D01*
X53663Y161120D01*
X53738Y161081D01*
X53809Y161034D01*
X53864Y161017D01*
X53916Y160990D01*
X53984Y160979D01*
X54080Y160949D01*
X54179Y160946D01*
X54248Y160935D01*
X60799Y160935D01*
X61692Y160042D01*
X61692Y101578D01*
X60799Y100685D01*
X37536Y100685D01*
X36643Y101578D01*
X36643Y160042D01*
X37536Y160935D01*
X44088Y160935D01*
X44145Y160943D01*
X44204Y160941D01*
X44286Y160963D01*
X44369Y160975D01*
X44422Y160998D01*
X44479Y161013D01*
X44551Y161056D01*
X44628Y161091D01*
X44673Y161129D01*
X44723Y161158D01*
X44781Y161220D01*
X44845Y161274D01*
X44878Y161323D01*
X44918Y161366D01*
X44956Y161441D01*
X45003Y161511D01*
X45021Y161567D01*
X45047Y161619D01*
X45059Y161687D01*
X45089Y161782D01*
X45091Y161882D01*
X45103Y161950D01*
X45103Y168955D01*
X45095Y169013D01*
X45096Y169071D01*
X45075Y169153D01*
X45063Y169237D01*
X45039Y169290D01*
X45024Y169346D01*
X44981Y169419D01*
X44947Y169496D01*
X44909Y169541D01*
X44879Y169591D01*
X44818Y169649D01*
X44763Y169713D01*
X44714Y169745D01*
X44672Y169785D01*
X44597Y169824D01*
X44526Y169871D01*
X44471Y169888D01*
X44419Y169915D01*
X44351Y169926D01*
X44255Y169956D01*
X44156Y169959D01*
X44088Y169970D01*
X35616Y169970D01*
X34723Y170863D01*
X34723Y179750D01*
X34715Y179808D01*
X34717Y179866D01*
X34695Y179948D01*
X34683Y180032D01*
X34660Y180085D01*
X34645Y180141D01*
X34602Y180214D01*
X34567Y180291D01*
X34529Y180336D01*
X34500Y180386D01*
X34438Y180444D01*
X34384Y180508D01*
X34335Y180540D01*
X34292Y180580D01*
X34217Y180619D01*
X34147Y180666D01*
X34091Y180683D01*
X34039Y180710D01*
X33971Y180721D01*
X33876Y180751D01*
X33776Y180754D01*
X33708Y180765D01*
X21648Y180765D01*
X15874Y186539D01*
X15874Y187296D01*
X15862Y187383D01*
X15859Y187470D01*
X15842Y187523D01*
X15834Y187578D01*
X15799Y187658D01*
X15772Y187741D01*
X15744Y187780D01*
X15718Y187837D01*
X15653Y187914D01*
X15631Y187952D01*
X15602Y187979D01*
X15577Y188014D01*
X14731Y188860D01*
X14731Y192648D01*
X17410Y195327D01*
X21198Y195327D01*
X23877Y192648D01*
X23877Y188658D01*
X23889Y188572D01*
X23892Y188484D01*
X23909Y188431D01*
X23917Y188377D01*
X23952Y188297D01*
X23979Y188214D01*
X24007Y188174D01*
X24033Y188117D01*
X24095Y188043D01*
X24119Y188004D01*
X24149Y187976D01*
X24174Y187940D01*
X24192Y187922D01*
X24208Y187910D01*
X24216Y187900D01*
X24259Y187872D01*
X24262Y187870D01*
X24326Y187810D01*
X24375Y187784D01*
X24419Y187751D01*
X24501Y187720D01*
X24579Y187680D01*
X24627Y187672D01*
X24685Y187650D01*
X24833Y187638D01*
X24910Y187625D01*
X33708Y187625D01*
X33766Y187633D01*
X33824Y187631D01*
X33906Y187653D01*
X33990Y187665D01*
X34043Y187688D01*
X34099Y187703D01*
X34172Y187746D01*
X34249Y187781D01*
X34294Y187819D01*
X34344Y187848D01*
X34402Y187910D01*
X34466Y187964D01*
X34498Y188013D01*
X34538Y188056D01*
X34577Y188131D01*
X34624Y188201D01*
X34641Y188257D01*
X34668Y188309D01*
X34679Y188377D01*
X34709Y188472D01*
X34712Y188572D01*
X34723Y188640D01*
X34723Y197527D01*
X35616Y198420D01*
X62280Y198420D01*
X63173Y197527D01*
X63173Y193546D01*
X63177Y193517D01*
X63174Y193488D01*
X63197Y193377D01*
X63213Y193265D01*
X63225Y193238D01*
X63230Y193209D01*
X63282Y193109D01*
X63329Y193005D01*
X63348Y192983D01*
X63361Y192957D01*
X63439Y192875D01*
X63512Y192788D01*
X63537Y192772D01*
X63557Y192751D01*
X63655Y192693D01*
X63749Y192631D01*
X63777Y192622D01*
X63802Y192607D01*
X63912Y192579D01*
X64020Y192545D01*
X64050Y192544D01*
X64078Y192537D01*
X64191Y192540D01*
X64304Y192538D01*
X64333Y192545D01*
X64362Y192546D01*
X64470Y192581D01*
X64579Y192609D01*
X64605Y192624D01*
X64633Y192633D01*
X64696Y192679D01*
X64824Y192755D01*
X64867Y192800D01*
X64906Y192828D01*
X69710Y197632D01*
X72388Y200311D01*
X80138Y200311D01*
X80196Y200319D01*
X80254Y200317D01*
X80336Y200339D01*
X80420Y200351D01*
X80473Y200374D01*
X80529Y200389D01*
X80602Y200432D01*
X80679Y200467D01*
X80724Y200505D01*
X80774Y200534D01*
X80832Y200596D01*
X80896Y200650D01*
X80928Y200699D01*
X80968Y200742D01*
X81007Y200817D01*
X81054Y200887D01*
X81071Y200943D01*
X81098Y200995D01*
X81109Y201063D01*
X81139Y201158D01*
X81142Y201258D01*
X81153Y201326D01*
X81153Y208642D01*
X81145Y208699D01*
X81147Y208753D01*
X81146Y208753D01*
X81147Y208758D01*
X81125Y208840D01*
X81113Y208924D01*
X81090Y208977D01*
X81075Y209033D01*
X81032Y209106D01*
X80997Y209183D01*
X80959Y209228D01*
X80930Y209278D01*
X80868Y209336D01*
X80814Y209400D01*
X80765Y209432D01*
X80722Y209472D01*
X80647Y209511D01*
X80577Y209558D01*
X80521Y209575D01*
X80469Y209602D01*
X80401Y209613D01*
X80306Y209643D01*
X80206Y209646D01*
X80138Y209657D01*
X78086Y209657D01*
X77193Y210550D01*
X77193Y223814D01*
X78086Y224707D01*
X92350Y224707D01*
X93243Y223814D01*
X93243Y222262D01*
X93251Y222204D01*
X93249Y222146D01*
X93271Y222064D01*
X93283Y221980D01*
X93306Y221927D01*
X93321Y221871D01*
X93364Y221798D01*
X93399Y221721D01*
X93437Y221676D01*
X93466Y221626D01*
X93528Y221568D01*
X93582Y221504D01*
X93631Y221472D01*
X93674Y221432D01*
X93749Y221393D01*
X93819Y221346D01*
X93875Y221329D01*
X93927Y221302D01*
X93995Y221291D01*
X94090Y221261D01*
X94190Y221258D01*
X94258Y221247D01*
X99266Y221247D01*
X99324Y221255D01*
X99382Y221253D01*
X99464Y221275D01*
X99548Y221287D01*
X99601Y221310D01*
X99657Y221325D01*
X99730Y221368D01*
X99807Y221403D01*
X99852Y221441D01*
X99902Y221470D01*
X99960Y221532D01*
X100024Y221586D01*
X100056Y221635D01*
X100096Y221678D01*
X100135Y221753D01*
X100182Y221823D01*
X100199Y221879D01*
X100226Y221931D01*
X100237Y221999D01*
X100267Y222094D01*
X100270Y222194D01*
X100281Y222262D01*
X100281Y224346D01*
X101174Y225239D01*
X110438Y225239D01*
X111331Y224346D01*
X111331Y224294D01*
X111339Y224236D01*
X111337Y224178D01*
X111359Y224096D01*
X111371Y224012D01*
X111394Y223959D01*
X111409Y223903D01*
X111452Y223830D01*
X111487Y223753D01*
X111525Y223708D01*
X111554Y223658D01*
X111616Y223600D01*
X111670Y223536D01*
X111719Y223504D01*
X111762Y223464D01*
X111837Y223425D01*
X111907Y223378D01*
X111963Y223361D01*
X112015Y223334D01*
X112083Y223323D01*
X112178Y223293D01*
X112278Y223290D01*
X112346Y223279D01*
X116018Y223279D01*
X116104Y223291D01*
X116192Y223294D01*
X116244Y223311D01*
X116299Y223319D01*
X116379Y223354D01*
X116462Y223381D01*
X116502Y223409D01*
X116559Y223435D01*
X116672Y223531D01*
X116736Y223576D01*
X128958Y235798D01*
X129010Y235868D01*
X129070Y235932D01*
X129096Y235981D01*
X129129Y236026D01*
X129160Y236107D01*
X129200Y236185D01*
X129208Y236233D01*
X129230Y236291D01*
X129242Y236439D01*
X129255Y236516D01*
X129255Y246222D01*
X129248Y246277D01*
X129249Y246317D01*
X129248Y246319D01*
X129249Y246338D01*
X129227Y246420D01*
X129215Y246504D01*
X129192Y246557D01*
X129177Y246613D01*
X129134Y246686D01*
X129099Y246763D01*
X129061Y246808D01*
X129032Y246858D01*
X128970Y246916D01*
X128916Y246980D01*
X128867Y247012D01*
X128824Y247052D01*
X128749Y247091D01*
X128679Y247138D01*
X128623Y247155D01*
X128571Y247182D01*
X128503Y247193D01*
X128408Y247223D01*
X128308Y247226D01*
X128240Y247237D01*
X115188Y247237D01*
X114295Y248130D01*
X114295Y261394D01*
X115188Y262287D01*
X128240Y262287D01*
X128298Y262295D01*
X128356Y262293D01*
X128438Y262315D01*
X128522Y262327D01*
X128575Y262350D01*
X128631Y262365D01*
X128704Y262408D01*
X128781Y262443D01*
X128826Y262481D01*
X128876Y262510D01*
X128934Y262572D01*
X128998Y262626D01*
X129030Y262675D01*
X129070Y262718D01*
X129109Y262793D01*
X129156Y262863D01*
X129173Y262919D01*
X129200Y262971D01*
X129211Y263039D01*
X129241Y263134D01*
X129244Y263234D01*
X129255Y263302D01*
X129255Y272246D01*
X129243Y272332D01*
X129240Y272420D01*
X129223Y272472D01*
X129215Y272527D01*
X129180Y272607D01*
X129153Y272690D01*
X129125Y272730D01*
X129099Y272787D01*
X129003Y272900D01*
X128958Y272964D01*
X124606Y277316D01*
X124559Y277351D01*
X124519Y277393D01*
X124446Y277436D01*
X124379Y277487D01*
X124324Y277508D01*
X124274Y277537D01*
X124192Y277558D01*
X124113Y277588D01*
X124055Y277593D01*
X123998Y277607D01*
X123914Y277604D01*
X123830Y277611D01*
X123772Y277600D01*
X123714Y277598D01*
X123634Y277572D01*
X123551Y277556D01*
X123499Y277529D01*
X123443Y277511D01*
X123387Y277471D01*
X123299Y277425D01*
X123226Y277356D01*
X123170Y277316D01*
X122048Y276193D01*
X85784Y276193D01*
X84891Y277086D01*
X84891Y290350D01*
X85784Y291243D01*
X122048Y291243D01*
X122941Y290350D01*
X122941Y288798D01*
X122948Y288747D01*
X122947Y288725D01*
X122948Y288721D01*
X122947Y288682D01*
X122969Y288600D01*
X122980Y288516D01*
X123004Y288463D01*
X123019Y288407D01*
X123062Y288334D01*
X123097Y288257D01*
X123135Y288212D01*
X123164Y288162D01*
X123226Y288104D01*
X123280Y288040D01*
X123329Y288008D01*
X123372Y287968D01*
X123447Y287929D01*
X123517Y287882D01*
X123573Y287865D01*
X123625Y287838D01*
X123693Y287827D01*
X123788Y287797D01*
X123888Y287794D01*
X123956Y287783D01*
X125636Y287783D01*
X137385Y276034D01*
X137385Y263302D01*
X137393Y263244D01*
X137391Y263186D01*
X137413Y263104D01*
X137425Y263020D01*
X137449Y262967D01*
X137463Y262911D01*
X137506Y262838D01*
X137541Y262761D01*
X137579Y262716D01*
X137609Y262666D01*
X137670Y262608D01*
X137725Y262544D01*
X137773Y262512D01*
X137816Y262472D01*
X137891Y262433D01*
X137961Y262386D01*
X138017Y262369D01*
X138069Y262342D01*
X138137Y262331D01*
X138232Y262301D01*
X138332Y262298D01*
X138400Y262287D01*
X151452Y262287D01*
X152345Y261394D01*
X152345Y248130D01*
X151452Y247237D01*
X138400Y247237D01*
X138342Y247229D01*
X138284Y247231D01*
X138202Y247209D01*
X138119Y247197D01*
X138065Y247174D01*
X138009Y247159D01*
X137936Y247116D01*
X137859Y247081D01*
X137814Y247043D01*
X137764Y247014D01*
X137706Y246952D01*
X137642Y246898D01*
X137610Y246849D01*
X137570Y246806D01*
X137531Y246731D01*
X137485Y246661D01*
X137467Y246605D01*
X137440Y246553D01*
X137429Y246485D01*
X137399Y246390D01*
X137396Y246290D01*
X137385Y246222D01*
X137385Y232728D01*
X121376Y216720D01*
X121359Y216696D01*
X121336Y216677D01*
X121273Y216583D01*
X121205Y216493D01*
X121195Y216465D01*
X121179Y216441D01*
X121144Y216333D01*
X121104Y216227D01*
X121102Y216198D01*
X121093Y216170D01*
X121090Y216056D01*
X121081Y215944D01*
X121086Y215915D01*
X121086Y215886D01*
X121114Y215776D01*
X121136Y215665D01*
X121150Y215639D01*
X121157Y215611D01*
X121215Y215513D01*
X121267Y215413D01*
X121288Y215391D01*
X121303Y215366D01*
X121385Y215289D01*
X121463Y215207D01*
X121489Y215192D01*
X121510Y215172D01*
X121611Y215120D01*
X121709Y215063D01*
X121737Y215056D01*
X121763Y215042D01*
X121840Y215029D01*
X121984Y214993D01*
X122047Y214995D01*
X122094Y214987D01*
X128077Y214987D01*
X128077Y210695D01*
X119535Y210695D01*
X119535Y212780D01*
X119708Y213427D01*
X119824Y213626D01*
X119838Y213663D01*
X119860Y213695D01*
X119891Y213794D01*
X119930Y213890D01*
X119934Y213929D01*
X119946Y213966D01*
X119948Y214070D01*
X119959Y214173D01*
X119952Y214211D01*
X119953Y214250D01*
X119927Y214350D01*
X119909Y214453D01*
X119891Y214488D01*
X119881Y214525D01*
X119828Y214614D01*
X119782Y214707D01*
X119756Y214736D01*
X119736Y214770D01*
X119660Y214841D01*
X119591Y214917D01*
X119557Y214938D01*
X119529Y214964D01*
X119436Y215012D01*
X119348Y215066D01*
X119310Y215076D01*
X119276Y215094D01*
X119199Y215107D01*
X119074Y215141D01*
X119000Y215140D01*
X118945Y215149D01*
X112346Y215149D01*
X112288Y215141D01*
X112230Y215143D01*
X112148Y215121D01*
X112064Y215109D01*
X112011Y215086D01*
X111955Y215071D01*
X111882Y215028D01*
X111805Y214993D01*
X111760Y214955D01*
X111710Y214926D01*
X111652Y214864D01*
X111588Y214810D01*
X111556Y214761D01*
X111516Y214718D01*
X111477Y214643D01*
X111430Y214573D01*
X111413Y214517D01*
X111386Y214465D01*
X111375Y214397D01*
X111345Y214302D01*
X111342Y214202D01*
X111331Y214134D01*
X111331Y214082D01*
X110438Y213189D01*
X105950Y213189D01*
X105864Y213177D01*
X105776Y213174D01*
X105724Y213157D01*
X105669Y213149D01*
X105597Y213117D01*
X94258Y213117D01*
X94200Y213109D01*
X94142Y213111D01*
X94060Y213089D01*
X93976Y213077D01*
X93923Y213054D01*
X93867Y213039D01*
X93794Y212996D01*
X93717Y212961D01*
X93672Y212923D01*
X93622Y212894D01*
X93564Y212832D01*
X93500Y212778D01*
X93468Y212729D01*
X93428Y212686D01*
X93389Y212611D01*
X93342Y212541D01*
X93325Y212485D01*
X93298Y212433D01*
X93287Y212365D01*
X93257Y212270D01*
X93254Y212170D01*
X93243Y212102D01*
X93243Y210550D01*
X92350Y209657D01*
X90298Y209657D01*
X90240Y209649D01*
X90182Y209651D01*
X90100Y209629D01*
X90016Y209617D01*
X89963Y209594D01*
X89907Y209579D01*
X89834Y209536D01*
X89757Y209501D01*
X89712Y209463D01*
X89662Y209434D01*
X89604Y209372D01*
X89540Y209318D01*
X89508Y209269D01*
X89468Y209226D01*
X89429Y209151D01*
X89382Y209081D01*
X89365Y209025D01*
X89338Y208973D01*
X89327Y208905D01*
X89297Y208810D01*
X89294Y208710D01*
X89283Y208642D01*
X89283Y203302D01*
X89295Y203216D01*
X89298Y203128D01*
X89315Y203076D01*
X89323Y203021D01*
X89358Y202941D01*
X89385Y202858D01*
X89413Y202818D01*
X89439Y202761D01*
X89535Y202648D01*
X89580Y202584D01*
X91556Y200608D01*
X91626Y200556D01*
X91690Y200496D01*
X91739Y200470D01*
X91784Y200437D01*
X91865Y200406D01*
X91943Y200366D01*
X91991Y200358D01*
X92049Y200336D01*
X92197Y200324D01*
X92274Y200311D01*
X120064Y200311D01*
X120151Y200323D01*
X120238Y200326D01*
X120291Y200343D01*
X120345Y200351D01*
X120425Y200386D01*
X120508Y200413D01*
X120548Y200441D01*
X120605Y200467D01*
X120718Y200563D01*
X120782Y200608D01*
X121553Y201379D01*
X121576Y201410D01*
X121606Y201436D01*
X121662Y201524D01*
X121724Y201606D01*
X121738Y201643D01*
X121759Y201676D01*
X121788Y201775D01*
X121825Y201872D01*
X121828Y201911D01*
X121839Y201949D01*
X121840Y202052D01*
X121849Y202155D01*
X121841Y202194D01*
X121841Y202233D01*
X121813Y202332D01*
X121793Y202434D01*
X121775Y202469D01*
X121764Y202506D01*
X121709Y202595D01*
X121662Y202686D01*
X121635Y202715D01*
X121614Y202748D01*
X121537Y202817D01*
X121466Y202893D01*
X121432Y202912D01*
X121403Y202939D01*
X121332Y202971D01*
X121221Y203036D01*
X121149Y203055D01*
X121098Y203078D01*
X121095Y203078D01*
X120516Y203413D01*
X120043Y203886D01*
X119708Y204465D01*
X119535Y205112D01*
X119535Y207197D01*
X129092Y207197D01*
X129150Y207205D01*
X129208Y207203D01*
X129290Y207225D01*
X129373Y207237D01*
X129427Y207260D01*
X129483Y207275D01*
X129556Y207318D01*
X129633Y207353D01*
X129677Y207391D01*
X129728Y207420D01*
X129785Y207482D01*
X129829Y207519D01*
X129830Y207518D01*
X129885Y207454D01*
X129933Y207422D01*
X129976Y207382D01*
X130051Y207343D01*
X130121Y207296D01*
X130177Y207279D01*
X130229Y207252D01*
X130297Y207241D01*
X130392Y207211D01*
X130492Y207208D01*
X130560Y207197D01*
X140117Y207197D01*
X140117Y205112D01*
X139944Y204465D01*
X139609Y203886D01*
X139136Y203413D01*
X138557Y203078D01*
X138554Y203078D01*
X138518Y203062D01*
X138480Y203055D01*
X138388Y203007D01*
X138293Y202967D01*
X138262Y202942D01*
X138228Y202924D01*
X138153Y202852D01*
X138072Y202787D01*
X138050Y202755D01*
X138022Y202728D01*
X137969Y202638D01*
X137910Y202554D01*
X137898Y202516D01*
X137878Y202483D01*
X137852Y202382D01*
X137819Y202284D01*
X137817Y202245D01*
X137808Y202207D01*
X137811Y202104D01*
X137806Y202000D01*
X137816Y201962D01*
X137817Y201923D01*
X137849Y201825D01*
X137873Y201724D01*
X137892Y201690D01*
X137904Y201653D01*
X137949Y201589D01*
X138013Y201477D01*
X138067Y201425D01*
X138099Y201379D01*
X139180Y200298D01*
X139222Y200227D01*
X139257Y200150D01*
X139295Y200105D01*
X139324Y200055D01*
X139386Y199997D01*
X139440Y199933D01*
X139489Y199901D01*
X139532Y199861D01*
X139607Y199822D01*
X139677Y199775D01*
X139733Y199758D01*
X139785Y199731D01*
X139853Y199720D01*
X139948Y199690D01*
X140048Y199687D01*
X140116Y199676D01*
X142995Y199676D01*
X151745Y190925D01*
X154052Y188619D01*
X154052Y173545D01*
X154064Y173459D01*
X154067Y173371D01*
X154084Y173318D01*
X154092Y173264D01*
X154127Y173184D01*
X154154Y173101D01*
X154182Y173061D01*
X154208Y173004D01*
X154304Y172891D01*
X154349Y172827D01*
X163429Y163747D01*
X163499Y163695D01*
X163563Y163635D01*
X163612Y163609D01*
X163656Y163576D01*
X163738Y163545D01*
X163816Y163505D01*
X163864Y163497D01*
X163922Y163475D01*
X164070Y163463D01*
X164147Y163450D01*
X174454Y163450D01*
X174474Y163452D01*
X174493Y163450D01*
X174614Y163472D01*
X174736Y163490D01*
X174754Y163498D01*
X174773Y163501D01*
X174883Y163556D01*
X174995Y163606D01*
X175010Y163619D01*
X175028Y163627D01*
X175118Y163710D01*
X175212Y163789D01*
X175223Y163806D01*
X175238Y163819D01*
X175302Y163924D01*
X175370Y164026D01*
X175376Y164045D01*
X175386Y164062D01*
X175418Y164180D01*
X175455Y164297D01*
X175456Y164317D01*
X175461Y164336D01*
X175460Y164459D01*
X175463Y164581D01*
X175458Y164600D01*
X175457Y164620D01*
X175422Y164738D01*
X175391Y164856D01*
X175381Y164873D01*
X175375Y164892D01*
X175308Y164995D01*
X175246Y165101D01*
X175231Y165114D01*
X175221Y165131D01*
X175164Y165178D01*
X175038Y165295D01*
X175028Y165300D01*
X174543Y165786D01*
X174208Y166365D01*
X174035Y167012D01*
X174035Y169097D01*
X183592Y169097D01*
X183650Y169105D01*
X183708Y169103D01*
X183790Y169125D01*
X183873Y169137D01*
X183927Y169160D01*
X183983Y169175D01*
X184056Y169218D01*
X184133Y169253D01*
X184177Y169291D01*
X184228Y169320D01*
X184285Y169382D01*
X184329Y169419D01*
X184330Y169418D01*
X184385Y169354D01*
X184433Y169322D01*
X184476Y169282D01*
X184551Y169243D01*
X184621Y169196D01*
X184677Y169179D01*
X184729Y169152D01*
X184797Y169141D01*
X184892Y169111D01*
X184992Y169108D01*
X185060Y169097D01*
X194617Y169097D01*
X194617Y167012D01*
X194444Y166365D01*
X194109Y165786D01*
X193594Y165271D01*
X193563Y165245D01*
X193467Y165169D01*
X193455Y165153D01*
X193440Y165140D01*
X193372Y165038D01*
X193300Y164939D01*
X193293Y164920D01*
X193282Y164904D01*
X193245Y164787D01*
X193204Y164671D01*
X193203Y164652D01*
X193197Y164633D01*
X193193Y164510D01*
X193186Y164388D01*
X193190Y164368D01*
X193189Y164349D01*
X193220Y164230D01*
X193247Y164110D01*
X193256Y164093D01*
X193261Y164074D01*
X193323Y163969D01*
X193382Y163860D01*
X193396Y163846D01*
X193406Y163829D01*
X193496Y163745D01*
X193582Y163658D01*
X193599Y163648D01*
X193614Y163635D01*
X193723Y163579D01*
X193830Y163519D01*
X193849Y163514D01*
X193867Y163505D01*
X193939Y163493D01*
X194107Y163454D01*
X194158Y163456D01*
X194198Y163450D01*
X194715Y163450D01*
X198337Y159827D01*
X198407Y159775D01*
X198471Y159715D01*
X198520Y159689D01*
X198564Y159656D01*
X198646Y159625D01*
X198724Y159585D01*
X198772Y159577D01*
X198830Y159555D01*
X198978Y159543D01*
X199055Y159530D01*
X206177Y159530D01*
X206264Y159542D01*
X206351Y159545D01*
X206404Y159562D01*
X206459Y159570D01*
X206538Y159605D01*
X206622Y159632D01*
X206661Y159660D01*
X206693Y159675D01*
X210479Y159675D01*
X210537Y159683D01*
X210595Y159681D01*
X210677Y159703D01*
X210761Y159715D01*
X210814Y159738D01*
X210870Y159753D01*
X210943Y159796D01*
X211020Y159831D01*
X211065Y159869D01*
X211115Y159898D01*
X211173Y159960D01*
X211237Y160014D01*
X211269Y160063D01*
X211309Y160106D01*
X211348Y160181D01*
X211395Y160251D01*
X211412Y160307D01*
X211439Y160359D01*
X211450Y160427D01*
X211480Y160522D01*
X211483Y160622D01*
X211494Y160690D01*
X211494Y163005D01*
X212808Y164318D01*
X212860Y164388D01*
X212920Y164452D01*
X212946Y164501D01*
X212979Y164545D01*
X213010Y164627D01*
X213050Y164705D01*
X213058Y164753D01*
X213080Y164811D01*
X213092Y164959D01*
X213105Y165036D01*
X213105Y166232D01*
X214332Y167459D01*
X214384Y167529D01*
X214444Y167592D01*
X214470Y167642D01*
X214503Y167686D01*
X214534Y167768D01*
X214574Y167846D01*
X214582Y167893D01*
X214604Y167952D01*
X214616Y168099D01*
X214629Y168177D01*
X214629Y206495D01*
X234271Y226136D01*
X234323Y226206D01*
X234383Y226270D01*
X234409Y226320D01*
X234442Y226364D01*
X234473Y226445D01*
X234513Y226523D01*
X234521Y226571D01*
X234543Y226629D01*
X234552Y226735D01*
X234554Y226743D01*
X234555Y226775D01*
X234555Y226777D01*
X234568Y226854D01*
X234568Y240455D01*
X234564Y240484D01*
X234567Y240513D01*
X234544Y240624D01*
X234528Y240736D01*
X234516Y240763D01*
X234511Y240792D01*
X234458Y240893D01*
X234412Y240996D01*
X234393Y241018D01*
X234380Y241044D01*
X234302Y241126D01*
X234229Y241213D01*
X234204Y241229D01*
X234184Y241250D01*
X234086Y241308D01*
X233992Y241370D01*
X233964Y241379D01*
X233939Y241394D01*
X233829Y241422D01*
X233721Y241456D01*
X233691Y241457D01*
X233663Y241464D01*
X233550Y241461D01*
X233437Y241464D01*
X233408Y241456D01*
X233379Y241455D01*
X233271Y241420D01*
X233162Y241392D01*
X233136Y241377D01*
X233108Y241368D01*
X233044Y241322D01*
X232917Y241246D01*
X232874Y241201D01*
X232835Y241173D01*
X232080Y240417D01*
X223816Y240417D01*
X223622Y240612D01*
X223575Y240647D01*
X223535Y240689D01*
X223462Y240732D01*
X223395Y240782D01*
X223340Y240803D01*
X223290Y240833D01*
X223208Y240854D01*
X223129Y240884D01*
X223071Y240889D01*
X223014Y240903D01*
X222930Y240900D01*
X222846Y240907D01*
X222789Y240896D01*
X222730Y240894D01*
X222650Y240868D01*
X222567Y240851D01*
X222515Y240824D01*
X222460Y240806D01*
X222403Y240766D01*
X222315Y240720D01*
X222243Y240652D01*
X222186Y240612D01*
X220842Y239267D01*
X217054Y239267D01*
X214375Y241946D01*
X214375Y245734D01*
X217054Y248413D01*
X220842Y248413D01*
X221190Y248065D01*
X221214Y248047D01*
X221233Y248025D01*
X221327Y247962D01*
X221417Y247894D01*
X221445Y247883D01*
X221469Y247867D01*
X221577Y247833D01*
X221683Y247793D01*
X221712Y247790D01*
X221740Y247781D01*
X221854Y247778D01*
X221966Y247769D01*
X221995Y247775D01*
X222024Y247774D01*
X222134Y247803D01*
X222245Y247825D01*
X222271Y247838D01*
X222299Y247846D01*
X222397Y247904D01*
X222497Y247956D01*
X222519Y247976D01*
X222544Y247991D01*
X222621Y248074D01*
X222703Y248152D01*
X222718Y248177D01*
X222738Y248198D01*
X222790Y248299D01*
X222847Y248397D01*
X222854Y248425D01*
X222868Y248452D01*
X222881Y248529D01*
X222881Y248532D01*
X223574Y249224D01*
X223609Y249271D01*
X223651Y249311D01*
X223694Y249384D01*
X223745Y249451D01*
X223766Y249506D01*
X223795Y249556D01*
X223816Y249638D01*
X223846Y249717D01*
X223851Y249775D01*
X223865Y249832D01*
X223862Y249916D01*
X223869Y250000D01*
X223858Y250058D01*
X223856Y250116D01*
X223830Y250196D01*
X223814Y250279D01*
X223787Y250331D01*
X223769Y250387D01*
X223729Y250443D01*
X223683Y250531D01*
X223614Y250604D01*
X223574Y250660D01*
X222923Y251310D01*
X222923Y258574D01*
X223816Y259467D01*
X223884Y259467D01*
X223942Y259475D01*
X224000Y259473D01*
X224082Y259495D01*
X224166Y259507D01*
X224219Y259530D01*
X224275Y259545D01*
X224348Y259588D01*
X224425Y259623D01*
X224470Y259661D01*
X224520Y259690D01*
X224578Y259752D01*
X224642Y259806D01*
X224674Y259855D01*
X224714Y259898D01*
X224753Y259973D01*
X224800Y260043D01*
X224817Y260099D01*
X224844Y260151D01*
X224855Y260219D01*
X224885Y260314D01*
X224888Y260414D01*
X224899Y260482D01*
X224899Y266803D01*
X235871Y277775D01*
X246402Y277775D01*
X246460Y277783D01*
X246518Y277781D01*
X246600Y277803D01*
X246684Y277815D01*
X246737Y277838D01*
X246793Y277853D01*
X246866Y277896D01*
X246943Y277931D01*
X246988Y277969D01*
X247038Y277998D01*
X247096Y278060D01*
X247160Y278114D01*
X247192Y278163D01*
X247232Y278206D01*
X247271Y278281D01*
X247318Y278351D01*
X247335Y278407D01*
X247362Y278459D01*
X247373Y278527D01*
X247403Y278622D01*
X247406Y278722D01*
X247417Y278790D01*
X247417Y280858D01*
X248310Y281751D01*
X259574Y281751D01*
X260467Y280858D01*
X260467Y268594D01*
X259574Y267701D01*
X259334Y267701D01*
X259276Y267693D01*
X259218Y267695D01*
X259136Y267673D01*
X259052Y267661D01*
X258999Y267638D01*
X258943Y267623D01*
X258870Y267580D01*
X258793Y267545D01*
X258748Y267507D01*
X258698Y267478D01*
X258640Y267416D01*
X258576Y267362D01*
X258544Y267313D01*
X258504Y267270D01*
X258465Y267195D01*
X258418Y267125D01*
X258401Y267069D01*
X258374Y267017D01*
X258363Y266949D01*
X258333Y266854D01*
X258330Y266754D01*
X258319Y266686D01*
X258319Y265133D01*
X258323Y265104D01*
X258320Y265075D01*
X258343Y264964D01*
X258359Y264851D01*
X258371Y264825D01*
X258376Y264796D01*
X258428Y264695D01*
X258475Y264592D01*
X258494Y264570D01*
X258507Y264544D01*
X258585Y264461D01*
X258658Y264375D01*
X258683Y264359D01*
X258703Y264337D01*
X258801Y264280D01*
X258895Y264217D01*
X258923Y264209D01*
X258948Y264194D01*
X259058Y264166D01*
X259166Y264132D01*
X259196Y264131D01*
X259224Y264124D01*
X259337Y264127D01*
X259450Y264124D01*
X259479Y264132D01*
X259508Y264133D01*
X259616Y264168D01*
X259725Y264196D01*
X259751Y264211D01*
X259779Y264220D01*
X259842Y264266D01*
X259970Y264341D01*
X260013Y264387D01*
X260052Y264415D01*
X264120Y268483D01*
X264172Y268553D01*
X264232Y268617D01*
X264258Y268666D01*
X264291Y268710D01*
X264322Y268792D01*
X264362Y268870D01*
X264370Y268917D01*
X264392Y268976D01*
X264404Y269124D01*
X264417Y269201D01*
X264417Y280858D01*
X265310Y281751D01*
X276574Y281751D01*
X277467Y280858D01*
X277467Y268594D01*
X276574Y267701D01*
X270945Y267701D01*
X270858Y267689D01*
X270771Y267686D01*
X270718Y267669D01*
X270663Y267661D01*
X270584Y267626D01*
X270500Y267599D01*
X270461Y267571D01*
X270404Y267545D01*
X270291Y267449D01*
X270227Y267404D01*
X266555Y263732D01*
X266537Y263708D01*
X266515Y263689D01*
X266452Y263595D01*
X266384Y263505D01*
X266374Y263477D01*
X266357Y263453D01*
X266323Y263345D01*
X266283Y263239D01*
X266280Y263210D01*
X266272Y263182D01*
X266269Y263068D01*
X266259Y262956D01*
X266265Y262927D01*
X266264Y262898D01*
X266293Y262788D01*
X266315Y262677D01*
X266329Y262651D01*
X266336Y262623D01*
X266394Y262525D01*
X266446Y262425D01*
X266466Y262403D01*
X266481Y262378D01*
X266564Y262301D01*
X266642Y262219D01*
X266667Y262204D01*
X266689Y262184D01*
X266790Y262132D01*
X266887Y262075D01*
X266916Y262068D01*
X266942Y262054D01*
X267019Y262041D01*
X267163Y262005D01*
X267225Y262007D01*
X267273Y261999D01*
X268157Y261999D01*
X268157Y256989D01*
X263147Y256989D01*
X263147Y257873D01*
X263143Y257902D01*
X263146Y257931D01*
X263123Y258042D01*
X263107Y258155D01*
X263095Y258181D01*
X263090Y258210D01*
X263038Y258311D01*
X262991Y258414D01*
X262972Y258436D01*
X262959Y258462D01*
X262881Y258545D01*
X262808Y258631D01*
X262783Y258647D01*
X262763Y258669D01*
X262665Y258726D01*
X262571Y258789D01*
X262543Y258797D01*
X262518Y258812D01*
X262408Y258840D01*
X262300Y258874D01*
X262270Y258875D01*
X262242Y258882D01*
X262129Y258879D01*
X262016Y258882D01*
X261987Y258874D01*
X261958Y258873D01*
X261850Y258838D01*
X261741Y258810D01*
X261715Y258795D01*
X261687Y258786D01*
X261624Y258740D01*
X261496Y258665D01*
X261453Y258619D01*
X261414Y258591D01*
X260510Y257687D01*
X260458Y257617D01*
X260398Y257553D01*
X260372Y257504D01*
X260339Y257460D01*
X260308Y257378D01*
X260268Y257300D01*
X260260Y257253D01*
X260238Y257194D01*
X260226Y257046D01*
X260213Y256969D01*
X260213Y249826D01*
X259320Y248933D01*
X257744Y248933D01*
X257686Y248925D01*
X257628Y248927D01*
X257546Y248905D01*
X257462Y248893D01*
X257409Y248870D01*
X257353Y248855D01*
X257280Y248812D01*
X257203Y248777D01*
X257158Y248739D01*
X257108Y248710D01*
X257050Y248648D01*
X256986Y248594D01*
X256954Y248545D01*
X256914Y248502D01*
X256875Y248427D01*
X256828Y248357D01*
X256811Y248301D01*
X256784Y248249D01*
X256773Y248181D01*
X256743Y248086D01*
X256740Y247986D01*
X256729Y247918D01*
X256729Y224819D01*
X256736Y224770D01*
X256735Y224764D01*
X256738Y224756D01*
X256741Y224732D01*
X256744Y224645D01*
X256761Y224592D01*
X256769Y224537D01*
X256804Y224457D01*
X256831Y224374D01*
X256859Y224335D01*
X256885Y224278D01*
X256981Y224164D01*
X257026Y224101D01*
X258761Y222366D01*
X258761Y220962D01*
X258773Y220875D01*
X258776Y220788D01*
X258793Y220735D01*
X258801Y220681D01*
X258836Y220601D01*
X258863Y220518D01*
X258891Y220478D01*
X258917Y220421D01*
X259013Y220308D01*
X259058Y220244D01*
X260213Y219090D01*
X260213Y208826D01*
X259320Y207933D01*
X249056Y207933D01*
X248163Y208826D01*
X248163Y219090D01*
X249318Y220244D01*
X249370Y220314D01*
X249430Y220378D01*
X249456Y220427D01*
X249489Y220471D01*
X249520Y220553D01*
X249560Y220631D01*
X249568Y220679D01*
X249590Y220737D01*
X249602Y220885D01*
X249615Y220962D01*
X249615Y222366D01*
X251350Y224101D01*
X251402Y224171D01*
X251462Y224234D01*
X251488Y224284D01*
X251521Y224328D01*
X251552Y224410D01*
X251592Y224488D01*
X251600Y224535D01*
X251622Y224594D01*
X251631Y224707D01*
X251633Y224713D01*
X251634Y224737D01*
X251634Y224741D01*
X251647Y224819D01*
X251647Y247918D01*
X251639Y247976D01*
X251641Y248034D01*
X251619Y248116D01*
X251607Y248200D01*
X251584Y248253D01*
X251569Y248309D01*
X251526Y248382D01*
X251491Y248459D01*
X251453Y248504D01*
X251424Y248554D01*
X251362Y248612D01*
X251308Y248676D01*
X251259Y248708D01*
X251216Y248748D01*
X251141Y248787D01*
X251071Y248834D01*
X251015Y248851D01*
X250963Y248878D01*
X250895Y248889D01*
X250800Y248919D01*
X250700Y248922D01*
X250632Y248933D01*
X249056Y248933D01*
X248163Y249826D01*
X248163Y260090D01*
X249056Y260983D01*
X251053Y260983D01*
X251083Y260987D01*
X251112Y260984D01*
X251223Y261007D01*
X251335Y261023D01*
X251362Y261035D01*
X251390Y261040D01*
X251491Y261093D01*
X251594Y261139D01*
X251617Y261158D01*
X251643Y261171D01*
X251725Y261249D01*
X251811Y261322D01*
X251828Y261347D01*
X251849Y261367D01*
X251906Y261465D01*
X251969Y261559D01*
X251978Y261587D01*
X251993Y261612D01*
X252020Y261722D01*
X252055Y261830D01*
X252055Y261860D01*
X252063Y261888D01*
X252059Y262001D01*
X252062Y262114D01*
X252055Y262143D01*
X252054Y262172D01*
X252019Y262280D01*
X251990Y262389D01*
X251975Y262415D01*
X251966Y262443D01*
X251921Y262506D01*
X251845Y262634D01*
X251799Y262677D01*
X251771Y262716D01*
X249173Y265314D01*
X249173Y266686D01*
X249165Y266744D01*
X249167Y266802D01*
X249145Y266884D01*
X249133Y266968D01*
X249110Y267021D01*
X249095Y267077D01*
X249052Y267150D01*
X249017Y267227D01*
X248979Y267272D01*
X248950Y267322D01*
X248888Y267380D01*
X248834Y267444D01*
X248785Y267476D01*
X248742Y267516D01*
X248667Y267555D01*
X248597Y267602D01*
X248541Y267619D01*
X248489Y267646D01*
X248421Y267657D01*
X248326Y267687D01*
X248324Y267687D01*
X247417Y268594D01*
X247417Y270662D01*
X247409Y270720D01*
X247411Y270778D01*
X247389Y270860D01*
X247377Y270944D01*
X247354Y270997D01*
X247339Y271053D01*
X247296Y271126D01*
X247261Y271203D01*
X247223Y271248D01*
X247194Y271298D01*
X247132Y271356D01*
X247078Y271420D01*
X247029Y271452D01*
X246986Y271492D01*
X246911Y271531D01*
X246841Y271578D01*
X246785Y271595D01*
X246733Y271622D01*
X246665Y271633D01*
X246570Y271663D01*
X246470Y271666D01*
X246402Y271677D01*
X238817Y271677D01*
X238731Y271665D01*
X238643Y271662D01*
X238591Y271645D01*
X238536Y271637D01*
X238456Y271602D01*
X238373Y271575D01*
X238334Y271547D01*
X238276Y271521D01*
X238163Y271425D01*
X238099Y271380D01*
X231294Y264575D01*
X231242Y264505D01*
X231182Y264441D01*
X231156Y264391D01*
X231123Y264347D01*
X231092Y264266D01*
X231052Y264188D01*
X231044Y264140D01*
X231022Y264082D01*
X231010Y263934D01*
X230997Y263857D01*
X230997Y260482D01*
X231005Y260424D01*
X231003Y260366D01*
X231025Y260284D01*
X231037Y260200D01*
X231060Y260147D01*
X231075Y260091D01*
X231118Y260018D01*
X231153Y259941D01*
X231191Y259896D01*
X231220Y259846D01*
X231282Y259788D01*
X231336Y259724D01*
X231385Y259692D01*
X231428Y259652D01*
X231503Y259613D01*
X231573Y259566D01*
X231629Y259549D01*
X231681Y259522D01*
X231749Y259511D01*
X231844Y259481D01*
X231944Y259478D01*
X232012Y259467D01*
X232080Y259467D01*
X233258Y258288D01*
X233328Y258236D01*
X233392Y258176D01*
X233441Y258150D01*
X233485Y258117D01*
X233567Y258086D01*
X233645Y258046D01*
X233693Y258038D01*
X233751Y258016D01*
X233899Y258004D01*
X233976Y257991D01*
X234509Y257991D01*
X240666Y251834D01*
X240666Y223908D01*
X221024Y204267D01*
X221010Y204248D01*
X220996Y204236D01*
X220965Y204190D01*
X220912Y204133D01*
X220886Y204083D01*
X220853Y204039D01*
X220822Y203958D01*
X220782Y203880D01*
X220774Y203832D01*
X220752Y203774D01*
X220740Y203626D01*
X220727Y203549D01*
X220727Y194847D01*
X220731Y194817D01*
X220728Y194788D01*
X220751Y194677D01*
X220767Y194565D01*
X220779Y194538D01*
X220784Y194510D01*
X220837Y194409D01*
X220883Y194306D01*
X220902Y194283D01*
X220915Y194257D01*
X220993Y194175D01*
X221066Y194089D01*
X221091Y194072D01*
X221111Y194051D01*
X221209Y193994D01*
X221303Y193931D01*
X221331Y193922D01*
X221356Y193907D01*
X221466Y193879D01*
X221574Y193845D01*
X221604Y193845D01*
X221632Y193837D01*
X221745Y193841D01*
X221858Y193838D01*
X221887Y193845D01*
X221916Y193846D01*
X222024Y193881D01*
X222133Y193910D01*
X222159Y193925D01*
X222187Y193934D01*
X222251Y193979D01*
X222378Y194055D01*
X222421Y194101D01*
X222460Y194129D01*
X222896Y194565D01*
X226684Y194565D01*
X228419Y192830D01*
X228489Y192778D01*
X228552Y192718D01*
X228602Y192692D01*
X228646Y192659D01*
X228728Y192628D01*
X228806Y192588D01*
X228853Y192580D01*
X228912Y192558D01*
X229059Y192546D01*
X229137Y192533D01*
X300199Y192533D01*
X300229Y192537D01*
X300258Y192534D01*
X300369Y192557D01*
X300481Y192573D01*
X300508Y192585D01*
X300536Y192590D01*
X300637Y192643D01*
X300740Y192689D01*
X300763Y192708D01*
X300789Y192721D01*
X300871Y192799D01*
X300957Y192872D01*
X300974Y192897D01*
X300995Y192917D01*
X301052Y193015D01*
X301115Y193109D01*
X301124Y193137D01*
X301139Y193162D01*
X301166Y193272D01*
X301201Y193380D01*
X301201Y193410D01*
X301209Y193438D01*
X301205Y193551D01*
X301208Y193664D01*
X301201Y193693D01*
X301200Y193722D01*
X301165Y193830D01*
X301136Y193939D01*
X301121Y193965D01*
X301112Y193993D01*
X301067Y194057D01*
X300991Y194184D01*
X300945Y194227D01*
X300917Y194266D01*
X299719Y195464D01*
X299719Y199252D01*
X301454Y200987D01*
X301506Y201057D01*
X301566Y201120D01*
X301592Y201170D01*
X301625Y201214D01*
X301656Y201296D01*
X301696Y201374D01*
X301704Y201421D01*
X301726Y201480D01*
X301738Y201627D01*
X301751Y201705D01*
X301751Y261656D01*
X313146Y273051D01*
X376493Y273051D01*
X376495Y273051D01*
X376496Y273051D01*
X376636Y273071D01*
X376775Y273091D01*
X376776Y273091D01*
X376778Y273091D01*
X376903Y273148D01*
X377034Y273207D01*
X377035Y273208D01*
X377037Y273209D01*
X377144Y273300D01*
X377251Y273390D01*
X377252Y273392D01*
X377253Y273393D01*
X377261Y273406D01*
X377409Y273627D01*
X377418Y273656D01*
X377431Y273677D01*
X378443Y276122D01*
X381230Y278908D01*
X384871Y280417D01*
X388813Y280417D01*
X392454Y278908D01*
X395240Y276122D01*
X395506Y275481D01*
X395550Y275407D01*
X395585Y275328D01*
X395622Y275285D01*
X395651Y275236D01*
X395713Y275177D01*
X395769Y275111D01*
X395816Y275080D01*
X395857Y275041D01*
X395934Y275001D01*
X396005Y274954D01*
X396059Y274936D01*
X396110Y274910D01*
X396194Y274894D01*
X396276Y274868D01*
X396333Y274866D01*
X396389Y274855D01*
X396474Y274863D01*
X396560Y274861D01*
X396615Y274875D01*
X396672Y274880D01*
X396752Y274911D01*
X396835Y274932D01*
X396884Y274961D01*
X396937Y274982D01*
X397006Y275034D01*
X397080Y275078D01*
X397119Y275119D01*
X397164Y275153D01*
X397216Y275222D01*
X397274Y275285D01*
X397300Y275336D01*
X397334Y275381D01*
X397365Y275462D01*
X397404Y275538D01*
X397412Y275587D01*
X397435Y275647D01*
X397446Y275792D01*
X397459Y275869D01*
X397459Y325000D01*
X397453Y325044D01*
X397456Y325080D01*
X397192Y328434D01*
X397157Y328593D01*
X397146Y328668D01*
X395072Y335049D01*
X394947Y335305D01*
X394935Y335318D01*
X394928Y335332D01*
X390985Y340760D01*
X390787Y340964D01*
X390771Y340974D01*
X390760Y340985D01*
X385332Y344928D01*
X385081Y345061D01*
X385063Y345065D01*
X385049Y345072D01*
X378668Y347146D01*
X378508Y347174D01*
X378434Y347192D01*
X375080Y347456D01*
X375035Y347453D01*
X375000Y347459D01*
X366254Y347459D01*
X366196Y347451D01*
X366138Y347453D01*
X366056Y347431D01*
X365972Y347419D01*
X365919Y347396D01*
X365863Y347381D01*
X365790Y347338D01*
X365713Y347303D01*
X365668Y347265D01*
X365618Y347236D01*
X365560Y347174D01*
X365496Y347120D01*
X365464Y347071D01*
X365424Y347028D01*
X365385Y346953D01*
X365338Y346883D01*
X365321Y346827D01*
X365294Y346775D01*
X365283Y346707D01*
X365253Y346612D01*
X365250Y346512D01*
X365239Y346444D01*
X365239Y291948D01*
X363750Y290459D01*
X228948Y290459D01*
X227459Y291948D01*
X227459Y346444D01*
X227451Y346502D01*
X227453Y346560D01*
X227431Y346642D01*
X227419Y346726D01*
X227396Y346779D01*
X227381Y346835D01*
X227338Y346908D01*
X227303Y346985D01*
X227265Y347030D01*
X227236Y347080D01*
X227174Y347138D01*
X227120Y347202D01*
X227071Y347234D01*
X227028Y347274D01*
X226953Y347313D01*
X226883Y347360D01*
X226827Y347377D01*
X226775Y347404D01*
X226707Y347415D01*
X226612Y347445D01*
X226512Y347448D01*
X226444Y347459D01*
X25000Y347459D01*
X24956Y347453D01*
X24920Y347456D01*
X21566Y347192D01*
X21407Y347157D01*
X21332Y347146D01*
X20950Y347022D01*
X20837Y346966D01*
X20723Y346915D01*
X20710Y346904D01*
X20695Y346897D01*
X20602Y346813D01*
X20506Y346731D01*
X20496Y346717D01*
X20484Y346706D01*
X20418Y346600D01*
X20348Y346495D01*
X20343Y346479D01*
X20334Y346464D01*
X20300Y346344D01*
X20262Y346224D01*
X20262Y346207D01*
X20257Y346191D01*
X20258Y346065D01*
X20255Y345940D01*
X20259Y345923D01*
X20259Y345906D01*
X20295Y345786D01*
X20327Y345665D01*
X20335Y345650D01*
X20340Y345634D01*
X20408Y345528D01*
X20472Y345420D01*
X20484Y345409D01*
X20494Y345394D01*
X20588Y345312D01*
X20679Y345226D01*
X20695Y345218D01*
X20707Y345207D01*
X20821Y345153D01*
X20933Y345096D01*
X20948Y345094D01*
X20965Y345086D01*
X21245Y345041D01*
X21254Y345042D01*
X21264Y345041D01*
X22992Y345041D01*
X28520Y342751D01*
X32751Y338520D01*
X35041Y332992D01*
X35041Y327008D01*
X32751Y321480D01*
X28520Y317249D01*
X22992Y314959D01*
X17008Y314959D01*
X11480Y317249D01*
X7249Y321480D01*
X4959Y327008D01*
X4959Y328736D01*
X4942Y328860D01*
X4928Y328985D01*
X4922Y329001D01*
X4919Y329018D01*
X4868Y329132D01*
X4821Y329249D01*
X4810Y329262D01*
X4803Y329277D01*
X4722Y329373D01*
X4644Y329471D01*
X4630Y329481D01*
X4620Y329494D01*
X4515Y329564D01*
X4413Y329637D01*
X4397Y329642D01*
X4383Y329652D01*
X4263Y329690D01*
X4145Y329732D01*
X4128Y329733D01*
X4112Y329738D01*
X3986Y329741D01*
X3861Y329748D01*
X3845Y329745D01*
X3828Y329745D01*
X3707Y329713D01*
X3584Y329686D01*
X3569Y329677D01*
X3553Y329673D01*
X3445Y329609D01*
X3335Y329549D01*
X3323Y329537D01*
X3308Y329528D01*
X3222Y329436D01*
X3134Y329348D01*
X3126Y329334D01*
X3114Y329321D01*
X2984Y329067D01*
X2983Y329058D01*
X2978Y329050D01*
X2854Y328668D01*
X2826Y328508D01*
X2808Y328434D01*
X2544Y325080D01*
X2547Y325035D01*
X2541Y325000D01*
X2541Y100306D01*
X2556Y100198D01*
X2564Y100090D01*
X2576Y100058D01*
X2581Y100024D01*
X2625Y99925D01*
X2663Y99823D01*
X2683Y99796D01*
X2697Y99765D01*
X2767Y99682D01*
X2832Y99594D01*
X2859Y99574D01*
X2880Y99548D01*
X2971Y99488D01*
X3057Y99422D01*
X3089Y99409D01*
X3117Y99390D01*
X3221Y99358D01*
X3322Y99318D01*
X3356Y99315D01*
X3388Y99305D01*
X3497Y99302D01*
X3605Y99292D01*
X3638Y99298D01*
X3672Y99297D01*
X3778Y99325D01*
X3884Y99345D01*
X3915Y99361D01*
X3947Y99369D01*
X4041Y99425D01*
X4138Y99474D01*
X4160Y99495D01*
X4192Y99514D01*
X4342Y99674D01*
X4377Y99709D01*
X4583Y99992D01*
X5798Y101207D01*
X7189Y102218D01*
X8721Y102998D01*
X10356Y103530D01*
X10883Y103613D01*
X10883Y93892D01*
X10890Y93837D01*
X10889Y93797D01*
X10890Y93795D01*
X10889Y93776D01*
X10911Y93694D01*
X10923Y93611D01*
X10947Y93557D01*
X10961Y93501D01*
X11004Y93428D01*
X11039Y93351D01*
X11077Y93307D01*
X11107Y93256D01*
X11168Y93199D01*
X11223Y93134D01*
X11271Y93102D01*
X11314Y93062D01*
X11389Y93023D01*
X11459Y92977D01*
X11515Y92959D01*
X11567Y92932D01*
X11635Y92921D01*
X11730Y92891D01*
X11830Y92888D01*
X11898Y92877D01*
X12915Y92877D01*
X12915Y92875D01*
X11898Y92875D01*
X11840Y92867D01*
X11782Y92868D01*
X11700Y92847D01*
X11617Y92835D01*
X11563Y92811D01*
X11507Y92797D01*
X11434Y92754D01*
X11357Y92719D01*
X11312Y92681D01*
X11262Y92651D01*
X11204Y92590D01*
X11140Y92535D01*
X11108Y92487D01*
X11068Y92444D01*
X11029Y92369D01*
X10983Y92299D01*
X10965Y92243D01*
X10938Y92191D01*
X10927Y92123D01*
X10897Y92028D01*
X10894Y91928D01*
X10883Y91860D01*
X10883Y82139D01*
X10356Y82222D01*
X8721Y82754D01*
X7189Y83534D01*
X5798Y84545D01*
X4583Y85760D01*
X4377Y86043D01*
X4302Y86121D01*
X4231Y86204D01*
X4203Y86223D01*
X4180Y86247D01*
X4085Y86301D01*
X3995Y86362D01*
X3963Y86372D01*
X3933Y86389D01*
X3827Y86415D01*
X3724Y86447D01*
X3690Y86448D01*
X3657Y86456D01*
X3548Y86452D01*
X3440Y86455D01*
X3407Y86446D01*
X3373Y86445D01*
X3270Y86410D01*
X3165Y86383D01*
X3135Y86366D01*
X3103Y86355D01*
X3014Y86293D01*
X2920Y86238D01*
X2897Y86213D01*
X2869Y86194D01*
X2800Y86110D01*
X2726Y86030D01*
X2710Y86000D01*
X2689Y85974D01*
X2646Y85874D01*
X2596Y85777D01*
X2591Y85747D01*
X2576Y85713D01*
X2549Y85496D01*
X2541Y85446D01*
X2541Y73424D01*
X2553Y73339D01*
X2555Y73253D01*
X2573Y73199D01*
X2581Y73143D01*
X2616Y73064D01*
X2642Y72982D01*
X2674Y72935D01*
X2697Y72883D01*
X2752Y72818D01*
X2800Y72746D01*
X2844Y72710D01*
X2880Y72666D01*
X2952Y72619D01*
X3018Y72563D01*
X3070Y72540D01*
X3117Y72509D01*
X3199Y72483D01*
X3278Y72448D01*
X3334Y72440D01*
X3388Y72423D01*
X3474Y72421D01*
X3559Y72409D01*
X3616Y72417D01*
X3672Y72416D01*
X3756Y72437D01*
X3841Y72450D01*
X3892Y72473D01*
X3947Y72487D01*
X4021Y72531D01*
X4100Y72567D01*
X4143Y72604D01*
X4192Y72633D01*
X4251Y72695D01*
X4316Y72751D01*
X4342Y72793D01*
X4386Y72840D01*
X4452Y72969D01*
X4494Y73036D01*
X4516Y73088D01*
X7302Y75874D01*
X10943Y77383D01*
X14885Y77383D01*
X18526Y75874D01*
X21313Y73088D01*
X22325Y70643D01*
X22326Y70642D01*
X22326Y70641D01*
X22401Y70515D01*
X22469Y70399D01*
X22471Y70398D01*
X22471Y70396D01*
X22575Y70299D01*
X22676Y70203D01*
X22678Y70203D01*
X22679Y70202D01*
X22804Y70137D01*
X22929Y70073D01*
X22930Y70073D01*
X22932Y70072D01*
X22947Y70070D01*
X23208Y70018D01*
X23238Y70021D01*
X23263Y70017D01*
X65749Y70017D01*
X65836Y70029D01*
X65923Y70032D01*
X65976Y70049D01*
X66031Y70057D01*
X66110Y70092D01*
X66194Y70119D01*
X66233Y70147D01*
X66290Y70173D01*
X66403Y70269D01*
X66467Y70314D01*
X68282Y72129D01*
X68334Y72199D01*
X68394Y72263D01*
X68420Y72312D01*
X68453Y72356D01*
X68484Y72438D01*
X68524Y72516D01*
X68532Y72563D01*
X68554Y72622D01*
X68566Y72770D01*
X68579Y72847D01*
X68579Y75300D01*
X71258Y77979D01*
X75046Y77979D01*
X77725Y75300D01*
X77725Y71512D01*
X75046Y68833D01*
X72593Y68833D01*
X72506Y68821D01*
X72419Y68818D01*
X72366Y68801D01*
X72311Y68793D01*
X72232Y68758D01*
X72148Y68731D01*
X72109Y68703D01*
X72052Y68677D01*
X71939Y68581D01*
X71875Y68536D01*
X68274Y64935D01*
X23263Y64935D01*
X23261Y64935D01*
X23260Y64935D01*
X23120Y64915D01*
X22981Y64895D01*
X22980Y64895D01*
X22978Y64895D01*
X22853Y64838D01*
X22722Y64779D01*
X22721Y64778D01*
X22719Y64777D01*
X22611Y64685D01*
X22505Y64596D01*
X22504Y64594D01*
X22503Y64593D01*
X22495Y64580D01*
X22347Y64359D01*
X22338Y64330D01*
X22325Y64309D01*
X21313Y61864D01*
X18526Y59078D01*
X14885Y57569D01*
X10943Y57569D01*
X7302Y59078D01*
X4516Y61864D01*
X4494Y61916D01*
X4450Y61990D01*
X4415Y62069D01*
X4378Y62112D01*
X4350Y62161D01*
X4287Y62220D01*
X4231Y62286D01*
X4184Y62317D01*
X4143Y62356D01*
X4066Y62396D01*
X3995Y62443D01*
X3941Y62460D01*
X3890Y62486D01*
X3806Y62503D01*
X3724Y62529D01*
X3667Y62531D01*
X3611Y62542D01*
X3526Y62534D01*
X3440Y62536D01*
X3385Y62522D01*
X3328Y62517D01*
X3248Y62486D01*
X3165Y62465D01*
X3116Y62436D01*
X3063Y62415D01*
X2994Y62363D01*
X2920Y62319D01*
X2881Y62278D01*
X2836Y62244D01*
X2784Y62175D01*
X2726Y62112D01*
X2700Y62061D01*
X2666Y62016D01*
X2635Y61935D01*
X2596Y61859D01*
X2588Y61810D01*
X2565Y61750D01*
X2554Y61605D01*
X2541Y61528D01*
X2541Y25000D01*
X2547Y24956D01*
X2544Y24920D01*
X2808Y21566D01*
X2843Y21407D01*
X2854Y21332D01*
X4928Y14951D01*
X5053Y14695D01*
X5065Y14682D01*
X5072Y14668D01*
X9015Y9240D01*
X9213Y9036D01*
X9229Y9026D01*
X9240Y9015D01*
X14668Y5072D01*
X14919Y4939D01*
X14937Y4935D01*
X14951Y4928D01*
X21332Y2854D01*
X21492Y2826D01*
X21566Y2808D01*
X24920Y2544D01*
X24965Y2547D01*
X25000Y2541D01*
X375000Y2541D01*
X375044Y2547D01*
G37*
G36*
X331725Y192537D02*
X331725Y192537D01*
X331754Y192534D01*
X331865Y192557D01*
X331977Y192573D01*
X332004Y192585D01*
X332032Y192590D01*
X332133Y192643D01*
X332236Y192689D01*
X332259Y192708D01*
X332285Y192721D01*
X332367Y192799D01*
X332453Y192872D01*
X332470Y192897D01*
X332491Y192917D01*
X332548Y193015D01*
X332611Y193109D01*
X332620Y193137D01*
X332635Y193162D01*
X332662Y193272D01*
X332697Y193380D01*
X332697Y193410D01*
X332705Y193438D01*
X332701Y193551D01*
X332704Y193664D01*
X332697Y193693D01*
X332696Y193722D01*
X332661Y193830D01*
X332632Y193939D01*
X332617Y193965D01*
X332608Y193993D01*
X332563Y194057D01*
X332487Y194184D01*
X332441Y194227D01*
X332413Y194266D01*
X332231Y194448D01*
X332231Y198236D01*
X333508Y199513D01*
X333560Y199583D01*
X333620Y199646D01*
X333646Y199696D01*
X333679Y199740D01*
X333710Y199822D01*
X333750Y199900D01*
X333758Y199947D01*
X333780Y200006D01*
X333792Y200153D01*
X333805Y200231D01*
X333805Y206918D01*
X333797Y206976D01*
X333799Y207034D01*
X333777Y207116D01*
X333765Y207200D01*
X333742Y207253D01*
X333727Y207309D01*
X333684Y207382D01*
X333649Y207459D01*
X333611Y207504D01*
X333582Y207554D01*
X333520Y207612D01*
X333466Y207676D01*
X333417Y207708D01*
X333374Y207748D01*
X333299Y207787D01*
X333229Y207834D01*
X333173Y207851D01*
X333121Y207878D01*
X333053Y207889D01*
X332958Y207919D01*
X332858Y207922D01*
X332790Y207933D01*
X331214Y207933D01*
X330321Y208826D01*
X330321Y219090D01*
X331214Y219983D01*
X332790Y219983D01*
X332848Y219991D01*
X332906Y219989D01*
X332988Y220011D01*
X333072Y220023D01*
X333125Y220046D01*
X333181Y220061D01*
X333254Y220104D01*
X333331Y220139D01*
X333376Y220177D01*
X333426Y220206D01*
X333484Y220268D01*
X333548Y220322D01*
X333580Y220371D01*
X333620Y220414D01*
X333659Y220489D01*
X333706Y220559D01*
X333723Y220615D01*
X333750Y220667D01*
X333761Y220735D01*
X333791Y220830D01*
X333794Y220930D01*
X333805Y220998D01*
X333805Y247918D01*
X333797Y247976D01*
X333799Y248034D01*
X333777Y248116D01*
X333765Y248200D01*
X333742Y248253D01*
X333727Y248309D01*
X333684Y248382D01*
X333649Y248459D01*
X333611Y248504D01*
X333582Y248554D01*
X333520Y248612D01*
X333466Y248676D01*
X333417Y248708D01*
X333374Y248748D01*
X333299Y248787D01*
X333229Y248834D01*
X333173Y248851D01*
X333121Y248878D01*
X333053Y248889D01*
X332958Y248919D01*
X332858Y248922D01*
X332790Y248933D01*
X331214Y248933D01*
X330321Y249826D01*
X330321Y260090D01*
X331214Y260983D01*
X341478Y260983D01*
X342371Y260090D01*
X342371Y249826D01*
X341478Y248933D01*
X339902Y248933D01*
X339844Y248925D01*
X339786Y248927D01*
X339704Y248905D01*
X339620Y248893D01*
X339567Y248870D01*
X339511Y248855D01*
X339438Y248812D01*
X339361Y248777D01*
X339316Y248739D01*
X339266Y248710D01*
X339208Y248648D01*
X339144Y248594D01*
X339112Y248545D01*
X339072Y248502D01*
X339033Y248427D01*
X338986Y248357D01*
X338969Y248301D01*
X338942Y248249D01*
X338931Y248181D01*
X338901Y248086D01*
X338898Y247986D01*
X338887Y247918D01*
X338887Y236553D01*
X338891Y236523D01*
X338888Y236494D01*
X338911Y236383D01*
X338927Y236271D01*
X338939Y236244D01*
X338944Y236216D01*
X338997Y236115D01*
X339043Y236012D01*
X339062Y235989D01*
X339075Y235963D01*
X339153Y235881D01*
X339226Y235795D01*
X339251Y235778D01*
X339271Y235757D01*
X339369Y235700D01*
X339463Y235637D01*
X339491Y235628D01*
X339516Y235613D01*
X339626Y235585D01*
X339734Y235551D01*
X339764Y235551D01*
X339792Y235543D01*
X339905Y235547D01*
X340018Y235544D01*
X340047Y235551D01*
X340076Y235552D01*
X340184Y235587D01*
X340293Y235616D01*
X340319Y235631D01*
X340347Y235640D01*
X340411Y235685D01*
X340538Y235761D01*
X340581Y235807D01*
X340620Y235835D01*
X341332Y236547D01*
X341385Y236617D01*
X341444Y236680D01*
X341470Y236730D01*
X341503Y236774D01*
X341534Y236856D01*
X341574Y236934D01*
X341582Y236981D01*
X341604Y237040D01*
X341616Y237187D01*
X341629Y237265D01*
X341629Y242352D01*
X350992Y251715D01*
X372146Y251715D01*
X375018Y248843D01*
X375028Y248836D01*
X375036Y248826D01*
X375141Y248750D01*
X375245Y248672D01*
X375257Y248668D01*
X375267Y248661D01*
X375390Y248617D01*
X375511Y248571D01*
X375523Y248570D01*
X375535Y248566D01*
X375665Y248558D01*
X375794Y248547D01*
X375806Y248550D01*
X375819Y248549D01*
X375946Y248578D01*
X376073Y248603D01*
X376084Y248609D01*
X376096Y248612D01*
X376210Y248674D01*
X376325Y248734D01*
X376334Y248743D01*
X376345Y248749D01*
X376437Y248841D01*
X376531Y248930D01*
X376538Y248941D01*
X376546Y248950D01*
X376575Y249005D01*
X376675Y249175D01*
X376686Y249217D01*
X376701Y249247D01*
X376719Y249303D01*
X377500Y250835D01*
X378511Y252226D01*
X379726Y253441D01*
X381117Y254452D01*
X382649Y255232D01*
X384284Y255764D01*
X384811Y255847D01*
X384811Y246126D01*
X384819Y246068D01*
X384817Y246010D01*
X384839Y245928D01*
X384851Y245845D01*
X384875Y245791D01*
X384889Y245735D01*
X384932Y245662D01*
X384967Y245585D01*
X385005Y245541D01*
X385035Y245490D01*
X385096Y245433D01*
X385151Y245368D01*
X385199Y245336D01*
X385242Y245296D01*
X385317Y245257D01*
X385387Y245211D01*
X385443Y245193D01*
X385495Y245166D01*
X385563Y245155D01*
X385658Y245125D01*
X385758Y245122D01*
X385826Y245111D01*
X387858Y245111D01*
X387916Y245119D01*
X387974Y245118D01*
X388056Y245139D01*
X388139Y245151D01*
X388193Y245175D01*
X388249Y245189D01*
X388322Y245232D01*
X388399Y245267D01*
X388444Y245305D01*
X388494Y245335D01*
X388552Y245396D01*
X388616Y245451D01*
X388648Y245499D01*
X388688Y245542D01*
X388727Y245617D01*
X388773Y245687D01*
X388791Y245743D01*
X388818Y245795D01*
X388829Y245863D01*
X388859Y245958D01*
X388862Y246058D01*
X388873Y246126D01*
X388873Y255847D01*
X389400Y255764D01*
X391035Y255232D01*
X392567Y254452D01*
X393958Y253441D01*
X395173Y252226D01*
X395623Y251607D01*
X395698Y251529D01*
X395769Y251446D01*
X395797Y251427D01*
X395820Y251403D01*
X395915Y251349D01*
X396005Y251289D01*
X396038Y251278D01*
X396067Y251261D01*
X396172Y251236D01*
X396276Y251203D01*
X396310Y251202D01*
X396343Y251194D01*
X396452Y251198D01*
X396560Y251195D01*
X396593Y251204D01*
X396627Y251205D01*
X396730Y251240D01*
X396835Y251267D01*
X396865Y251285D01*
X396897Y251295D01*
X396986Y251357D01*
X397080Y251413D01*
X397103Y251437D01*
X397131Y251456D01*
X397200Y251540D01*
X397274Y251620D01*
X397290Y251650D01*
X397311Y251676D01*
X397354Y251776D01*
X397404Y251873D01*
X397409Y251903D01*
X397424Y251937D01*
X397451Y252154D01*
X397459Y252204D01*
X397459Y265151D01*
X397447Y265236D01*
X397445Y265322D01*
X397427Y265376D01*
X397419Y265432D01*
X397384Y265511D01*
X397358Y265593D01*
X397326Y265640D01*
X397303Y265692D01*
X397248Y265757D01*
X397200Y265829D01*
X397156Y265865D01*
X397120Y265909D01*
X397048Y265956D01*
X396982Y266012D01*
X396930Y266035D01*
X396883Y266066D01*
X396801Y266092D01*
X396722Y266127D01*
X396666Y266135D01*
X396612Y266152D01*
X396526Y266154D01*
X396441Y266166D01*
X396385Y266158D01*
X396328Y266159D01*
X396245Y266138D01*
X396159Y266125D01*
X396108Y266102D01*
X396053Y266088D01*
X395979Y266044D01*
X395900Y266008D01*
X395857Y265971D01*
X395808Y265942D01*
X395749Y265880D01*
X395684Y265824D01*
X395658Y265782D01*
X395614Y265735D01*
X395548Y265606D01*
X395506Y265539D01*
X395240Y264898D01*
X392454Y262112D01*
X388813Y260603D01*
X384871Y260603D01*
X381230Y262112D01*
X378443Y264898D01*
X377431Y267343D01*
X377430Y267344D01*
X377430Y267345D01*
X377358Y267465D01*
X377287Y267587D01*
X377285Y267588D01*
X377285Y267590D01*
X377182Y267686D01*
X377080Y267783D01*
X377078Y267783D01*
X377077Y267784D01*
X376952Y267849D01*
X376827Y267913D01*
X376826Y267913D01*
X376824Y267914D01*
X376809Y267916D01*
X376548Y267968D01*
X376518Y267965D01*
X376493Y267969D01*
X315671Y267969D01*
X315584Y267957D01*
X315497Y267954D01*
X315444Y267937D01*
X315389Y267929D01*
X315310Y267894D01*
X315226Y267867D01*
X315187Y267839D01*
X315130Y267813D01*
X315017Y267717D01*
X314953Y267672D01*
X307130Y259849D01*
X307078Y259779D01*
X307018Y259715D01*
X306992Y259666D01*
X306959Y259622D01*
X306928Y259540D01*
X306888Y259462D01*
X306880Y259415D01*
X306858Y259356D01*
X306846Y259208D01*
X306833Y259131D01*
X306833Y201705D01*
X306845Y201618D01*
X306848Y201531D01*
X306865Y201478D01*
X306873Y201423D01*
X306908Y201343D01*
X306935Y201260D01*
X306963Y201221D01*
X306989Y201164D01*
X307085Y201050D01*
X307130Y200987D01*
X308865Y199252D01*
X308865Y195464D01*
X307667Y194266D01*
X307649Y194242D01*
X307627Y194223D01*
X307564Y194129D01*
X307496Y194039D01*
X307485Y194011D01*
X307469Y193987D01*
X307435Y193879D01*
X307395Y193773D01*
X307392Y193744D01*
X307383Y193716D01*
X307380Y193602D01*
X307371Y193490D01*
X307377Y193461D01*
X307376Y193432D01*
X307405Y193322D01*
X307427Y193211D01*
X307440Y193185D01*
X307448Y193157D01*
X307506Y193059D01*
X307558Y192959D01*
X307578Y192937D01*
X307593Y192912D01*
X307676Y192835D01*
X307754Y192753D01*
X307779Y192738D01*
X307800Y192718D01*
X307901Y192666D01*
X307999Y192609D01*
X308027Y192602D01*
X308054Y192588D01*
X308131Y192575D01*
X308274Y192539D01*
X308337Y192541D01*
X308385Y192533D01*
X331695Y192533D01*
X331725Y192537D01*
G37*
%LPC*%
G36*
X30364Y72135D02*
X30364Y72135D01*
X27685Y74814D01*
X27685Y78602D01*
X30364Y81281D01*
X30662Y81281D01*
X30748Y81293D01*
X30836Y81296D01*
X30888Y81313D01*
X30943Y81321D01*
X31023Y81356D01*
X31106Y81383D01*
X31146Y81411D01*
X31203Y81437D01*
X31316Y81533D01*
X31380Y81578D01*
X38956Y89155D01*
X107878Y89155D01*
X107964Y89167D01*
X108052Y89170D01*
X108104Y89187D01*
X108159Y89195D01*
X108239Y89230D01*
X108322Y89257D01*
X108362Y89285D01*
X108419Y89311D01*
X108532Y89407D01*
X108596Y89452D01*
X115780Y96636D01*
X115832Y96706D01*
X115892Y96770D01*
X115918Y96819D01*
X115951Y96864D01*
X115982Y96945D01*
X116022Y97023D01*
X116030Y97071D01*
X116052Y97129D01*
X116064Y97277D01*
X116077Y97354D01*
X116077Y138844D01*
X125995Y148761D01*
X126030Y148808D01*
X126072Y148848D01*
X126115Y148921D01*
X126166Y148988D01*
X126186Y149043D01*
X126216Y149093D01*
X126237Y149175D01*
X126267Y149254D01*
X126272Y149312D01*
X126286Y149369D01*
X126283Y149453D01*
X126290Y149537D01*
X126279Y149595D01*
X126277Y149653D01*
X126251Y149733D01*
X126235Y149816D01*
X126208Y149868D01*
X126190Y149924D01*
X126149Y149980D01*
X126104Y150068D01*
X126035Y150141D01*
X125995Y150197D01*
X125761Y150430D01*
X125761Y164806D01*
X125753Y164864D01*
X125755Y164922D01*
X125733Y165004D01*
X125721Y165088D01*
X125698Y165141D01*
X125683Y165197D01*
X125640Y165270D01*
X125605Y165347D01*
X125567Y165392D01*
X125538Y165442D01*
X125476Y165500D01*
X125422Y165564D01*
X125373Y165596D01*
X125330Y165636D01*
X125255Y165675D01*
X125185Y165722D01*
X125129Y165739D01*
X125077Y165766D01*
X125009Y165777D01*
X124914Y165807D01*
X124814Y165810D01*
X124746Y165821D01*
X121444Y165821D01*
X120551Y166714D01*
X120551Y174978D01*
X121444Y175871D01*
X138208Y175871D01*
X139101Y174978D01*
X139101Y166714D01*
X138208Y165821D01*
X134906Y165821D01*
X134848Y165813D01*
X134790Y165815D01*
X134708Y165793D01*
X134624Y165781D01*
X134571Y165758D01*
X134515Y165743D01*
X134442Y165700D01*
X134365Y165665D01*
X134320Y165627D01*
X134270Y165598D01*
X134212Y165536D01*
X134148Y165482D01*
X134116Y165433D01*
X134076Y165390D01*
X134037Y165315D01*
X133990Y165245D01*
X133973Y165189D01*
X133946Y165137D01*
X133935Y165069D01*
X133905Y164974D01*
X133902Y164874D01*
X133891Y164806D01*
X133891Y154218D01*
X133903Y154132D01*
X133906Y154044D01*
X133923Y153992D01*
X133931Y153937D01*
X133966Y153857D01*
X133993Y153774D01*
X134021Y153734D01*
X134047Y153677D01*
X134143Y153564D01*
X134188Y153500D01*
X135078Y152610D01*
X135125Y152575D01*
X135165Y152533D01*
X135238Y152490D01*
X135305Y152439D01*
X135360Y152418D01*
X135410Y152389D01*
X135492Y152368D01*
X135571Y152338D01*
X135629Y152333D01*
X135686Y152319D01*
X135770Y152322D01*
X135854Y152315D01*
X135912Y152326D01*
X135970Y152328D01*
X136050Y152354D01*
X136133Y152370D01*
X136185Y152397D01*
X136241Y152415D01*
X136297Y152455D01*
X136385Y152501D01*
X136458Y152570D01*
X136514Y152610D01*
X137444Y153541D01*
X146708Y153541D01*
X147601Y152648D01*
X147601Y152596D01*
X147609Y152538D01*
X147607Y152480D01*
X147629Y152398D01*
X147641Y152314D01*
X147664Y152261D01*
X147679Y152205D01*
X147722Y152132D01*
X147757Y152055D01*
X147795Y152010D01*
X147824Y151960D01*
X147886Y151902D01*
X147940Y151838D01*
X147989Y151806D01*
X148032Y151766D01*
X148107Y151727D01*
X148177Y151680D01*
X148233Y151663D01*
X148285Y151636D01*
X148353Y151625D01*
X148448Y151595D01*
X148548Y151592D01*
X148616Y151581D01*
X150536Y151581D01*
X150594Y151589D01*
X150652Y151587D01*
X150734Y151609D01*
X150818Y151621D01*
X150871Y151644D01*
X150927Y151659D01*
X151000Y151702D01*
X151077Y151737D01*
X151122Y151775D01*
X151172Y151804D01*
X151230Y151866D01*
X151294Y151920D01*
X151326Y151969D01*
X151366Y152012D01*
X151405Y152087D01*
X151452Y152157D01*
X151469Y152213D01*
X151496Y152265D01*
X151507Y152333D01*
X151537Y152428D01*
X151540Y152528D01*
X151551Y152596D01*
X151551Y152648D01*
X152444Y153541D01*
X161708Y153541D01*
X162601Y152648D01*
X162601Y152596D01*
X162609Y152538D01*
X162607Y152480D01*
X162629Y152398D01*
X162641Y152314D01*
X162664Y152261D01*
X162679Y152205D01*
X162722Y152132D01*
X162757Y152055D01*
X162795Y152010D01*
X162824Y151960D01*
X162886Y151902D01*
X162940Y151838D01*
X162989Y151806D01*
X163032Y151766D01*
X163107Y151727D01*
X163177Y151680D01*
X163233Y151663D01*
X163285Y151636D01*
X163353Y151625D01*
X163448Y151595D01*
X163548Y151592D01*
X163616Y151581D01*
X165536Y151581D01*
X165594Y151589D01*
X165652Y151587D01*
X165734Y151609D01*
X165818Y151621D01*
X165871Y151644D01*
X165927Y151659D01*
X166000Y151702D01*
X166077Y151737D01*
X166122Y151775D01*
X166172Y151804D01*
X166230Y151866D01*
X166294Y151920D01*
X166326Y151969D01*
X166366Y152012D01*
X166405Y152087D01*
X166452Y152157D01*
X166469Y152213D01*
X166496Y152265D01*
X166507Y152333D01*
X166537Y152428D01*
X166540Y152528D01*
X166551Y152596D01*
X166551Y152648D01*
X167444Y153541D01*
X176708Y153541D01*
X177601Y152648D01*
X177601Y142384D01*
X176708Y141491D01*
X167444Y141491D01*
X166551Y142384D01*
X166551Y142436D01*
X166543Y142494D01*
X166545Y142552D01*
X166523Y142634D01*
X166511Y142718D01*
X166488Y142771D01*
X166473Y142827D01*
X166430Y142900D01*
X166395Y142977D01*
X166357Y143022D01*
X166328Y143072D01*
X166266Y143130D01*
X166212Y143194D01*
X166163Y143226D01*
X166120Y143266D01*
X166045Y143305D01*
X165975Y143352D01*
X165919Y143369D01*
X165867Y143396D01*
X165799Y143407D01*
X165704Y143437D01*
X165604Y143440D01*
X165536Y143451D01*
X163616Y143451D01*
X163558Y143443D01*
X163500Y143445D01*
X163418Y143423D01*
X163334Y143411D01*
X163281Y143388D01*
X163225Y143373D01*
X163152Y143330D01*
X163075Y143295D01*
X163030Y143257D01*
X162980Y143228D01*
X162922Y143166D01*
X162858Y143112D01*
X162826Y143063D01*
X162786Y143020D01*
X162747Y142945D01*
X162700Y142875D01*
X162683Y142819D01*
X162656Y142767D01*
X162645Y142699D01*
X162615Y142604D01*
X162612Y142504D01*
X162601Y142436D01*
X162601Y142384D01*
X161708Y141491D01*
X152444Y141491D01*
X151551Y142384D01*
X151551Y142436D01*
X151543Y142494D01*
X151545Y142552D01*
X151523Y142634D01*
X151511Y142718D01*
X151488Y142771D01*
X151473Y142827D01*
X151430Y142900D01*
X151395Y142977D01*
X151357Y143022D01*
X151328Y143072D01*
X151266Y143130D01*
X151212Y143194D01*
X151163Y143226D01*
X151120Y143266D01*
X151045Y143305D01*
X150975Y143352D01*
X150919Y143369D01*
X150867Y143396D01*
X150799Y143407D01*
X150704Y143437D01*
X150604Y143440D01*
X150536Y143451D01*
X148616Y143451D01*
X148558Y143443D01*
X148500Y143445D01*
X148418Y143423D01*
X148334Y143411D01*
X148281Y143388D01*
X148225Y143373D01*
X148152Y143330D01*
X148075Y143295D01*
X148030Y143257D01*
X147980Y143228D01*
X147922Y143166D01*
X147858Y143112D01*
X147826Y143063D01*
X147786Y143020D01*
X147747Y142945D01*
X147700Y142875D01*
X147683Y142819D01*
X147656Y142767D01*
X147645Y142699D01*
X147615Y142604D01*
X147612Y142504D01*
X147601Y142436D01*
X147601Y142384D01*
X146708Y141491D01*
X137444Y141491D01*
X136551Y142384D01*
X136551Y142436D01*
X136543Y142494D01*
X136545Y142552D01*
X136523Y142634D01*
X136511Y142718D01*
X136488Y142771D01*
X136473Y142827D01*
X136430Y142900D01*
X136395Y142977D01*
X136357Y143022D01*
X136328Y143072D01*
X136266Y143130D01*
X136212Y143194D01*
X136163Y143226D01*
X136120Y143266D01*
X136045Y143305D01*
X135975Y143352D01*
X135919Y143369D01*
X135867Y143396D01*
X135799Y143407D01*
X135704Y143437D01*
X135604Y143440D01*
X135536Y143451D01*
X132602Y143451D01*
X132516Y143439D01*
X132428Y143436D01*
X132376Y143419D01*
X132321Y143411D01*
X132241Y143376D01*
X132158Y143349D01*
X132118Y143321D01*
X132061Y143295D01*
X131948Y143199D01*
X131884Y143154D01*
X124504Y135774D01*
X124452Y135704D01*
X124392Y135640D01*
X124366Y135591D01*
X124333Y135546D01*
X124302Y135465D01*
X124262Y135387D01*
X124254Y135339D01*
X124232Y135281D01*
X124220Y135133D01*
X124207Y135056D01*
X124207Y93566D01*
X111666Y81025D01*
X42744Y81025D01*
X42658Y81013D01*
X42570Y81010D01*
X42518Y80993D01*
X42463Y80985D01*
X42383Y80950D01*
X42300Y80923D01*
X42260Y80895D01*
X42203Y80869D01*
X42090Y80773D01*
X42026Y80728D01*
X37128Y75830D01*
X37076Y75760D01*
X37016Y75696D01*
X36990Y75647D01*
X36957Y75602D01*
X36926Y75521D01*
X36886Y75443D01*
X36878Y75395D01*
X36856Y75337D01*
X36844Y75189D01*
X36831Y75112D01*
X36831Y74814D01*
X34152Y72135D01*
X30364Y72135D01*
G37*
%LPD*%
%LPC*%
G36*
X87534Y100685D02*
X87534Y100685D01*
X86641Y101578D01*
X86641Y160042D01*
X87534Y160935D01*
X94086Y160935D01*
X94144Y160943D01*
X94202Y160941D01*
X94284Y160963D01*
X94367Y160975D01*
X94421Y160998D01*
X94477Y161013D01*
X94550Y161056D01*
X94627Y161091D01*
X94671Y161129D01*
X94722Y161158D01*
X94779Y161220D01*
X94844Y161274D01*
X94876Y161323D01*
X94916Y161366D01*
X94955Y161441D01*
X95001Y161511D01*
X95019Y161567D01*
X95046Y161619D01*
X95057Y161687D01*
X95087Y161782D01*
X95090Y161882D01*
X95101Y161950D01*
X95101Y172986D01*
X109726Y187611D01*
X120064Y187611D01*
X120151Y187623D01*
X120238Y187626D01*
X120291Y187643D01*
X120345Y187651D01*
X120425Y187686D01*
X120508Y187713D01*
X120548Y187741D01*
X120605Y187767D01*
X120718Y187863D01*
X120782Y187908D01*
X121444Y188571D01*
X138208Y188571D01*
X139101Y187678D01*
X139101Y179414D01*
X138208Y178521D01*
X121444Y178521D01*
X120782Y179184D01*
X120712Y179236D01*
X120648Y179296D01*
X120599Y179322D01*
X120555Y179355D01*
X120473Y179386D01*
X120395Y179426D01*
X120347Y179434D01*
X120289Y179456D01*
X120141Y179468D01*
X120064Y179481D01*
X113514Y179481D01*
X113428Y179469D01*
X113340Y179466D01*
X113288Y179449D01*
X113233Y179441D01*
X113153Y179406D01*
X113070Y179379D01*
X113030Y179351D01*
X112973Y179325D01*
X112860Y179229D01*
X112796Y179184D01*
X103528Y169916D01*
X103476Y169846D01*
X103416Y169782D01*
X103390Y169733D01*
X103357Y169688D01*
X103326Y169607D01*
X103286Y169529D01*
X103278Y169481D01*
X103256Y169423D01*
X103244Y169275D01*
X103231Y169198D01*
X103231Y161950D01*
X103239Y161892D01*
X103237Y161834D01*
X103259Y161752D01*
X103270Y161668D01*
X103294Y161615D01*
X103309Y161559D01*
X103352Y161486D01*
X103387Y161409D01*
X103425Y161364D01*
X103454Y161314D01*
X103516Y161256D01*
X103570Y161192D01*
X103619Y161160D01*
X103662Y161120D01*
X103737Y161081D01*
X103807Y161034D01*
X103863Y161017D01*
X103915Y160990D01*
X103983Y160979D01*
X104078Y160949D01*
X104178Y160946D01*
X104246Y160935D01*
X110797Y160935D01*
X111691Y160042D01*
X111691Y101578D01*
X110797Y100685D01*
X87534Y100685D01*
G37*
%LPD*%
%LPC*%
G36*
X347636Y12129D02*
X347636Y12129D01*
X346743Y13022D01*
X346743Y15924D01*
X346735Y15982D01*
X346737Y16040D01*
X346715Y16122D01*
X346703Y16206D01*
X346680Y16259D01*
X346665Y16315D01*
X346622Y16388D01*
X346587Y16465D01*
X346549Y16510D01*
X346520Y16560D01*
X346458Y16618D01*
X346404Y16682D01*
X346355Y16714D01*
X346312Y16754D01*
X346237Y16793D01*
X346167Y16840D01*
X346111Y16857D01*
X346059Y16884D01*
X345991Y16895D01*
X345896Y16925D01*
X345796Y16928D01*
X345728Y16939D01*
X345358Y16939D01*
X316737Y45560D01*
X316737Y62455D01*
X316729Y62511D01*
X316731Y62557D01*
X316724Y62583D01*
X316722Y62629D01*
X316705Y62682D01*
X316697Y62737D01*
X316664Y62811D01*
X316659Y62832D01*
X316654Y62839D01*
X316635Y62900D01*
X316607Y62939D01*
X316581Y62996D01*
X316514Y63076D01*
X316513Y63077D01*
X316485Y63110D01*
X316440Y63173D01*
X316229Y63384D01*
X316229Y67172D01*
X318908Y69851D01*
X322696Y69851D01*
X325375Y67172D01*
X325375Y63384D01*
X325164Y63173D01*
X325112Y63103D01*
X325052Y63040D01*
X325026Y62990D01*
X324993Y62946D01*
X324970Y62884D01*
X324966Y62879D01*
X324961Y62863D01*
X324922Y62786D01*
X324914Y62739D01*
X324892Y62680D01*
X324888Y62631D01*
X324881Y62608D01*
X324879Y62526D01*
X324867Y62455D01*
X324867Y49348D01*
X324879Y49262D01*
X324882Y49174D01*
X324899Y49122D01*
X324907Y49067D01*
X324942Y48987D01*
X324969Y48904D01*
X324997Y48864D01*
X325023Y48807D01*
X325119Y48694D01*
X325164Y48630D01*
X345058Y28736D01*
X345105Y28701D01*
X345145Y28659D01*
X345218Y28616D01*
X345285Y28565D01*
X345340Y28544D01*
X345390Y28515D01*
X345472Y28494D01*
X345551Y28464D01*
X345609Y28459D01*
X345666Y28445D01*
X345750Y28448D01*
X345834Y28441D01*
X345892Y28452D01*
X345950Y28454D01*
X346030Y28480D01*
X346113Y28496D01*
X346165Y28523D01*
X346221Y28541D01*
X346277Y28582D01*
X346365Y28627D01*
X346438Y28696D01*
X346494Y28736D01*
X347636Y29879D01*
X361600Y29879D01*
X362493Y28986D01*
X362493Y13022D01*
X361600Y12129D01*
X347636Y12129D01*
G37*
%LPD*%
%LPC*%
G36*
X304636Y12129D02*
X304636Y12129D01*
X303743Y13022D01*
X303743Y26674D01*
X303735Y26732D01*
X303737Y26790D01*
X303715Y26872D01*
X303703Y26956D01*
X303680Y27009D01*
X303665Y27065D01*
X303622Y27138D01*
X303587Y27215D01*
X303549Y27260D01*
X303520Y27310D01*
X303458Y27368D01*
X303404Y27432D01*
X303355Y27464D01*
X303312Y27504D01*
X303237Y27543D01*
X303167Y27590D01*
X303111Y27607D01*
X303059Y27634D01*
X302991Y27645D01*
X302896Y27675D01*
X302796Y27678D01*
X302728Y27689D01*
X295611Y27689D01*
X295609Y27689D01*
X295608Y27689D01*
X295467Y27669D01*
X295329Y27649D01*
X295328Y27649D01*
X295326Y27649D01*
X295196Y27590D01*
X295070Y27533D01*
X295069Y27532D01*
X295067Y27531D01*
X294960Y27441D01*
X294853Y27350D01*
X294852Y27348D01*
X294851Y27347D01*
X294843Y27335D01*
X294695Y27113D01*
X294686Y27084D01*
X294673Y27063D01*
X294323Y26217D01*
X291573Y23467D01*
X287980Y21979D01*
X284092Y21979D01*
X280499Y23467D01*
X277749Y26217D01*
X276261Y29810D01*
X276261Y33698D01*
X277749Y37291D01*
X280499Y40041D01*
X284092Y41529D01*
X287980Y41529D01*
X291573Y40041D01*
X294323Y37291D01*
X294673Y36445D01*
X294674Y36444D01*
X294674Y36443D01*
X294743Y36326D01*
X294817Y36201D01*
X294818Y36199D01*
X294819Y36198D01*
X294924Y36099D01*
X295024Y36005D01*
X295025Y36005D01*
X295027Y36004D01*
X295152Y35939D01*
X295277Y35875D01*
X295278Y35875D01*
X295280Y35874D01*
X295295Y35872D01*
X295556Y35820D01*
X295586Y35823D01*
X295611Y35819D01*
X308294Y35819D01*
X313936Y30176D01*
X314006Y30124D01*
X314070Y30064D01*
X314119Y30038D01*
X314164Y30005D01*
X314245Y29974D01*
X314323Y29934D01*
X314371Y29926D01*
X314429Y29904D01*
X314577Y29892D01*
X314654Y29879D01*
X318600Y29879D01*
X319493Y28986D01*
X319493Y13022D01*
X318600Y12129D01*
X304636Y12129D01*
G37*
%LPD*%
%LPC*%
G36*
X48554Y21979D02*
X48554Y21979D01*
X47661Y22872D01*
X47661Y40636D01*
X48554Y41529D01*
X66318Y41529D01*
X67211Y40636D01*
X67211Y22872D01*
X66318Y21979D01*
X48554Y21979D01*
G37*
%LPD*%
G36*
X396474Y217608D02*
X396474Y217608D01*
X396560Y217605D01*
X396615Y217620D01*
X396672Y217625D01*
X396753Y217656D01*
X396835Y217677D01*
X396884Y217706D01*
X396937Y217727D01*
X397006Y217779D01*
X397080Y217822D01*
X397119Y217864D01*
X397164Y217898D01*
X397216Y217967D01*
X397274Y218030D01*
X397300Y218080D01*
X397334Y218126D01*
X397365Y218206D01*
X397404Y218283D01*
X397412Y218332D01*
X397435Y218392D01*
X397446Y218537D01*
X397459Y218614D01*
X397459Y238016D01*
X397444Y238124D01*
X397436Y238232D01*
X397424Y238264D01*
X397419Y238297D01*
X397375Y238397D01*
X397337Y238499D01*
X397317Y238526D01*
X397303Y238557D01*
X397233Y238640D01*
X397168Y238727D01*
X397141Y238748D01*
X397120Y238774D01*
X397029Y238834D01*
X396943Y238900D01*
X396911Y238913D01*
X396883Y238931D01*
X396779Y238964D01*
X396678Y239004D01*
X396644Y239007D01*
X396612Y239017D01*
X396503Y239020D01*
X396395Y239030D01*
X396362Y239024D01*
X396328Y239025D01*
X396222Y238997D01*
X396116Y238977D01*
X396085Y238961D01*
X396053Y238953D01*
X395959Y238897D01*
X395862Y238848D01*
X395840Y238827D01*
X395808Y238807D01*
X395658Y238648D01*
X395623Y238613D01*
X395173Y237994D01*
X393958Y236779D01*
X392567Y235768D01*
X391035Y234988D01*
X389400Y234456D01*
X388873Y234373D01*
X388873Y244094D01*
X388865Y244152D01*
X388867Y244210D01*
X388845Y244292D01*
X388833Y244375D01*
X388809Y244429D01*
X388795Y244485D01*
X388752Y244558D01*
X388717Y244635D01*
X388679Y244679D01*
X388649Y244730D01*
X388588Y244787D01*
X388533Y244852D01*
X388485Y244884D01*
X388442Y244924D01*
X388367Y244963D01*
X388297Y245009D01*
X388241Y245027D01*
X388189Y245054D01*
X388121Y245065D01*
X388026Y245095D01*
X387926Y245098D01*
X387858Y245109D01*
X385826Y245109D01*
X385768Y245101D01*
X385710Y245102D01*
X385628Y245081D01*
X385545Y245069D01*
X385491Y245045D01*
X385435Y245031D01*
X385362Y244988D01*
X385285Y244953D01*
X385240Y244915D01*
X385190Y244885D01*
X385132Y244824D01*
X385068Y244769D01*
X385036Y244721D01*
X384996Y244678D01*
X384957Y244603D01*
X384911Y244533D01*
X384893Y244477D01*
X384866Y244425D01*
X384855Y244357D01*
X384825Y244262D01*
X384822Y244162D01*
X384811Y244094D01*
X384811Y234373D01*
X384284Y234456D01*
X382649Y234988D01*
X381117Y235768D01*
X379726Y236779D01*
X379686Y236819D01*
X379662Y236837D01*
X379643Y236859D01*
X379549Y236922D01*
X379459Y236990D01*
X379431Y237000D01*
X379407Y237017D01*
X379299Y237051D01*
X379193Y237091D01*
X379164Y237094D01*
X379136Y237102D01*
X379023Y237105D01*
X378910Y237115D01*
X378881Y237109D01*
X378852Y237110D01*
X378742Y237081D01*
X378631Y237059D01*
X378605Y237045D01*
X378577Y237038D01*
X378479Y236980D01*
X378379Y236928D01*
X378357Y236908D01*
X378332Y236893D01*
X378255Y236810D01*
X378173Y236732D01*
X378158Y236707D01*
X378138Y236685D01*
X378086Y236585D01*
X378029Y236487D01*
X378022Y236458D01*
X378008Y236432D01*
X377995Y236355D01*
X377959Y236211D01*
X377961Y236149D01*
X377953Y236101D01*
X377953Y221694D01*
X377957Y221665D01*
X377954Y221636D01*
X377977Y221525D01*
X377993Y221412D01*
X378005Y221386D01*
X378010Y221357D01*
X378063Y221256D01*
X378109Y221153D01*
X378128Y221131D01*
X378141Y221105D01*
X378219Y221022D01*
X378292Y220936D01*
X378317Y220920D01*
X378337Y220899D01*
X378435Y220841D01*
X378529Y220778D01*
X378557Y220770D01*
X378582Y220755D01*
X378692Y220727D01*
X378800Y220693D01*
X378830Y220692D01*
X378858Y220685D01*
X378971Y220688D01*
X379084Y220685D01*
X379113Y220693D01*
X379142Y220694D01*
X379250Y220729D01*
X379359Y220757D01*
X379385Y220772D01*
X379413Y220781D01*
X379477Y220827D01*
X379604Y220902D01*
X379647Y220948D01*
X379686Y220976D01*
X380976Y222267D01*
X384617Y223775D01*
X388559Y223775D01*
X392200Y222266D01*
X394987Y219480D01*
X395506Y218225D01*
X395550Y218151D01*
X395585Y218073D01*
X395622Y218030D01*
X395651Y217981D01*
X395713Y217922D01*
X395769Y217856D01*
X395816Y217824D01*
X395857Y217785D01*
X395934Y217746D01*
X396005Y217698D01*
X396059Y217681D01*
X396110Y217655D01*
X396194Y217639D01*
X396276Y217613D01*
X396333Y217611D01*
X396389Y217600D01*
X396474Y217608D01*
G37*
%LPC*%
G36*
X106292Y21979D02*
X106292Y21979D01*
X102699Y23467D01*
X99949Y26217D01*
X98461Y29810D01*
X98461Y33698D01*
X99949Y37291D01*
X102699Y40041D01*
X106292Y41529D01*
X110180Y41529D01*
X113773Y40041D01*
X116523Y37291D01*
X118011Y33698D01*
X118011Y29810D01*
X116523Y26217D01*
X113773Y23467D01*
X110180Y21979D01*
X106292Y21979D01*
G37*
%LPD*%
%LPC*%
G36*
X50979Y233216D02*
X50979Y233216D01*
X50979Y246426D01*
X61982Y246426D01*
X62629Y246253D01*
X63208Y245918D01*
X63681Y245445D01*
X64016Y244866D01*
X64189Y244219D01*
X64189Y233216D01*
X50979Y233216D01*
G37*
%LPD*%
%LPC*%
G36*
X50979Y229154D02*
X50979Y229154D01*
X64189Y229154D01*
X64189Y218151D01*
X64016Y217504D01*
X63681Y216925D01*
X63208Y216452D01*
X62629Y216117D01*
X61982Y215944D01*
X50979Y215944D01*
X50979Y229154D01*
G37*
%LPD*%
%LPC*%
G36*
X33707Y233216D02*
X33707Y233216D01*
X33707Y244219D01*
X33880Y244866D01*
X34215Y245445D01*
X34688Y245918D01*
X35267Y246253D01*
X35914Y246426D01*
X46917Y246426D01*
X46917Y233216D01*
X33707Y233216D01*
G37*
%LPD*%
%LPC*%
G36*
X35914Y215944D02*
X35914Y215944D01*
X35267Y216117D01*
X34688Y216452D01*
X34215Y216925D01*
X33880Y217504D01*
X33707Y218151D01*
X33707Y229154D01*
X46917Y229154D01*
X46917Y215944D01*
X35914Y215944D01*
G37*
%LPD*%
%LPC*%
G36*
X346781Y50731D02*
X346781Y50731D01*
X346781Y56451D01*
X346840Y56507D01*
X346927Y56580D01*
X346943Y56605D01*
X346964Y56625D01*
X347022Y56723D01*
X347084Y56817D01*
X347093Y56845D01*
X347108Y56870D01*
X347136Y56980D01*
X347170Y57088D01*
X347171Y57118D01*
X347178Y57146D01*
X347175Y57259D01*
X347177Y57372D01*
X347170Y57401D01*
X347169Y57430D01*
X347134Y57538D01*
X347106Y57647D01*
X347091Y57673D01*
X347082Y57701D01*
X347036Y57764D01*
X346960Y57892D01*
X346915Y57935D01*
X346887Y57974D01*
X345141Y59720D01*
X344259Y61848D01*
X344259Y64152D01*
X345141Y66280D01*
X346770Y67909D01*
X348898Y68791D01*
X351202Y68791D01*
X353330Y67909D01*
X354959Y66280D01*
X355841Y64152D01*
X355841Y61848D01*
X354959Y59720D01*
X353330Y58091D01*
X352571Y57776D01*
X352546Y57762D01*
X352518Y57753D01*
X352424Y57690D01*
X352326Y57632D01*
X352306Y57611D01*
X352282Y57594D01*
X352209Y57508D01*
X352131Y57425D01*
X352118Y57399D01*
X352099Y57377D01*
X352053Y57273D01*
X352001Y57173D01*
X351995Y57144D01*
X351983Y57117D01*
X351968Y57005D01*
X351946Y56894D01*
X351948Y56864D01*
X351944Y56835D01*
X351961Y56723D01*
X351970Y56610D01*
X351981Y56583D01*
X351985Y56554D01*
X352032Y56451D01*
X352072Y56345D01*
X352090Y56322D01*
X352102Y56295D01*
X352176Y56209D01*
X352244Y56118D01*
X352268Y56101D01*
X352287Y56079D01*
X352353Y56037D01*
X352472Y55948D01*
X352530Y55926D01*
X352571Y55901D01*
X353822Y55383D01*
X355057Y54557D01*
X356107Y53507D01*
X356932Y52272D01*
X357501Y50900D01*
X357534Y50731D01*
X346781Y50731D01*
G37*
%LPD*%
%LPC*%
G36*
X348898Y115009D02*
X348898Y115009D01*
X346770Y115891D01*
X345141Y117520D01*
X344259Y119648D01*
X344259Y121952D01*
X345141Y124080D01*
X346887Y125826D01*
X346904Y125850D01*
X346927Y125869D01*
X346990Y125963D01*
X347058Y126053D01*
X347068Y126081D01*
X347084Y126105D01*
X347119Y126213D01*
X347159Y126319D01*
X347161Y126348D01*
X347170Y126376D01*
X347173Y126490D01*
X347182Y126602D01*
X347177Y126631D01*
X347177Y126660D01*
X347149Y126770D01*
X347127Y126881D01*
X347113Y126907D01*
X347106Y126935D01*
X347048Y127033D01*
X346996Y127133D01*
X346975Y127155D01*
X346960Y127180D01*
X346878Y127257D01*
X346800Y127339D01*
X346781Y127350D01*
X346781Y133069D01*
X357534Y133069D01*
X357501Y132900D01*
X356932Y131528D01*
X356107Y130293D01*
X355057Y129243D01*
X353822Y128417D01*
X352571Y127899D01*
X352546Y127885D01*
X352518Y127876D01*
X352424Y127812D01*
X352326Y127755D01*
X352306Y127734D01*
X352282Y127717D01*
X352209Y127630D01*
X352131Y127548D01*
X352118Y127522D01*
X352099Y127500D01*
X352053Y127396D01*
X352001Y127296D01*
X351995Y127267D01*
X351983Y127240D01*
X351968Y127128D01*
X351946Y127017D01*
X351948Y126987D01*
X351944Y126958D01*
X351961Y126846D01*
X351970Y126733D01*
X351981Y126706D01*
X351985Y126677D01*
X352032Y126574D01*
X352072Y126468D01*
X352090Y126445D01*
X352102Y126418D01*
X352176Y126332D01*
X352244Y126241D01*
X352268Y126224D01*
X352287Y126201D01*
X352353Y126160D01*
X352472Y126071D01*
X352530Y126049D01*
X352571Y126024D01*
X353330Y125709D01*
X354959Y124080D01*
X355841Y121952D01*
X355841Y119648D01*
X354959Y117520D01*
X353330Y115891D01*
X351202Y115009D01*
X348898Y115009D01*
G37*
%LPD*%
%LPC*%
G36*
X315214Y248933D02*
X315214Y248933D01*
X314321Y249826D01*
X314321Y260090D01*
X315214Y260983D01*
X325478Y260983D01*
X326371Y260090D01*
X326371Y249826D01*
X325478Y248933D01*
X315214Y248933D01*
G37*
%LPD*%
%LPC*%
G36*
X52547Y285749D02*
X52547Y285749D01*
X52547Y292259D01*
X68350Y292259D01*
X68997Y292086D01*
X69576Y291751D01*
X70049Y291278D01*
X70384Y290699D01*
X70557Y290052D01*
X70557Y285749D01*
X52547Y285749D01*
G37*
%LPD*%
%LPC*%
G36*
X188751Y256793D02*
X188751Y256793D01*
X188751Y263303D01*
X204554Y263303D01*
X205201Y263130D01*
X205780Y262795D01*
X206253Y262322D01*
X206588Y261743D01*
X206761Y261096D01*
X206761Y256793D01*
X188751Y256793D01*
G37*
%LPD*%
%LPC*%
G36*
X30475Y285749D02*
X30475Y285749D01*
X30475Y290052D01*
X30648Y290699D01*
X30983Y291278D01*
X31456Y291751D01*
X32035Y292086D01*
X32682Y292259D01*
X48485Y292259D01*
X48485Y285749D01*
X30475Y285749D01*
G37*
%LPD*%
%LPC*%
G36*
X166679Y256793D02*
X166679Y256793D01*
X166679Y261096D01*
X166852Y261743D01*
X167187Y262322D01*
X167660Y262795D01*
X168239Y263130D01*
X168886Y263303D01*
X184689Y263303D01*
X184689Y256793D01*
X166679Y256793D01*
G37*
%LPD*%
%LPC*%
G36*
X52547Y275177D02*
X52547Y275177D01*
X52547Y281687D01*
X70557Y281687D01*
X70557Y277384D01*
X70384Y276737D01*
X70049Y276158D01*
X69576Y275685D01*
X68997Y275350D01*
X68350Y275177D01*
X52547Y275177D01*
G37*
%LPD*%
%LPC*%
G36*
X188751Y246221D02*
X188751Y246221D01*
X188751Y252731D01*
X206761Y252731D01*
X206761Y248428D01*
X206588Y247781D01*
X206253Y247202D01*
X205780Y246729D01*
X205201Y246394D01*
X204554Y246221D01*
X188751Y246221D01*
G37*
%LPD*%
%LPC*%
G36*
X32682Y275177D02*
X32682Y275177D01*
X32035Y275350D01*
X31456Y275685D01*
X30983Y276158D01*
X30648Y276737D01*
X30475Y277384D01*
X30475Y281687D01*
X48485Y281687D01*
X48485Y275177D01*
X32682Y275177D01*
G37*
%LPD*%
%LPC*%
G36*
X168886Y246221D02*
X168886Y246221D01*
X168239Y246394D01*
X167660Y246729D01*
X167187Y247202D01*
X166852Y247781D01*
X166679Y248428D01*
X166679Y252731D01*
X184689Y252731D01*
X184689Y246221D01*
X168886Y246221D01*
G37*
%LPD*%
%LPC*%
G36*
X186075Y172595D02*
X186075Y172595D01*
X186075Y181797D01*
X194617Y181797D01*
X194617Y179712D01*
X194444Y179065D01*
X194109Y178486D01*
X193542Y177918D01*
X193539Y177916D01*
X193522Y177902D01*
X193498Y177869D01*
X193469Y177842D01*
X193415Y177755D01*
X193355Y177672D01*
X193341Y177634D01*
X193320Y177600D01*
X193293Y177501D01*
X193258Y177405D01*
X193255Y177365D01*
X193245Y177326D01*
X193246Y177223D01*
X193239Y177121D01*
X193248Y177082D01*
X193248Y177041D01*
X193278Y176943D01*
X193300Y176843D01*
X193319Y176808D01*
X193330Y176769D01*
X193386Y176683D01*
X193435Y176593D01*
X193463Y176564D01*
X193485Y176531D01*
X193524Y176498D01*
X193542Y176474D01*
X194109Y175906D01*
X194444Y175327D01*
X194617Y174680D01*
X194617Y172595D01*
X186075Y172595D01*
G37*
%LPD*%
%LPC*%
G36*
X186075Y197995D02*
X186075Y197995D01*
X186075Y207197D01*
X194617Y207197D01*
X194617Y205112D01*
X194444Y204465D01*
X194109Y203886D01*
X193542Y203318D01*
X193539Y203314D01*
X193520Y203300D01*
X193496Y203267D01*
X193467Y203240D01*
X193413Y203152D01*
X193353Y203069D01*
X193340Y203031D01*
X193319Y202997D01*
X193292Y202898D01*
X193257Y202802D01*
X193255Y202761D01*
X193244Y202723D01*
X193246Y202620D01*
X193239Y202518D01*
X193248Y202479D01*
X193249Y202438D01*
X193279Y202341D01*
X193301Y202240D01*
X193320Y202205D01*
X193332Y202166D01*
X193387Y202081D01*
X193436Y201991D01*
X193465Y201962D01*
X193487Y201928D01*
X193525Y201897D01*
X193542Y201874D01*
X194109Y201306D01*
X194444Y200727D01*
X194617Y200080D01*
X194617Y197995D01*
X186075Y197995D01*
G37*
%LPD*%
%LPC*%
G36*
X186075Y185295D02*
X186075Y185295D01*
X186075Y194497D01*
X194617Y194497D01*
X194617Y192412D01*
X194444Y191765D01*
X194109Y191186D01*
X193542Y190618D01*
X193540Y190616D01*
X193523Y190603D01*
X193498Y190569D01*
X193467Y190541D01*
X193415Y190455D01*
X193356Y190374D01*
X193341Y190334D01*
X193319Y190298D01*
X193293Y190201D01*
X193258Y190106D01*
X193255Y190065D01*
X193244Y190024D01*
X193246Y189923D01*
X193239Y189823D01*
X193248Y189782D01*
X193248Y189740D01*
X193278Y189643D01*
X193299Y189545D01*
X193319Y189508D01*
X193331Y189468D01*
X193386Y189383D01*
X193434Y189295D01*
X193463Y189265D01*
X193486Y189229D01*
X193524Y189198D01*
X193542Y189174D01*
X194109Y188606D01*
X194444Y188027D01*
X194617Y187380D01*
X194617Y185295D01*
X186075Y185295D01*
G37*
%LPD*%
%LPC*%
G36*
X174035Y197995D02*
X174035Y197995D01*
X174035Y200080D01*
X174208Y200727D01*
X174543Y201306D01*
X175110Y201874D01*
X175113Y201876D01*
X175130Y201890D01*
X175154Y201923D01*
X175183Y201950D01*
X175237Y202037D01*
X175297Y202120D01*
X175311Y202158D01*
X175332Y202192D01*
X175359Y202291D01*
X175394Y202387D01*
X175397Y202427D01*
X175407Y202466D01*
X175406Y202569D01*
X175413Y202671D01*
X175404Y202710D01*
X175404Y202751D01*
X175374Y202849D01*
X175352Y202949D01*
X175333Y202984D01*
X175322Y203023D01*
X175266Y203109D01*
X175217Y203199D01*
X175189Y203228D01*
X175167Y203261D01*
X175128Y203294D01*
X175110Y203318D01*
X174543Y203886D01*
X174208Y204465D01*
X174035Y205112D01*
X174035Y207197D01*
X182577Y207197D01*
X182577Y197995D01*
X174035Y197995D01*
G37*
%LPD*%
%LPC*%
G36*
X174035Y185295D02*
X174035Y185295D01*
X174035Y187380D01*
X174208Y188027D01*
X174543Y188606D01*
X175110Y189174D01*
X175113Y189176D01*
X175130Y189190D01*
X175154Y189223D01*
X175183Y189250D01*
X175237Y189337D01*
X175297Y189420D01*
X175311Y189458D01*
X175332Y189492D01*
X175359Y189591D01*
X175394Y189687D01*
X175397Y189727D01*
X175407Y189766D01*
X175406Y189869D01*
X175413Y189971D01*
X175404Y190010D01*
X175404Y190051D01*
X175374Y190149D01*
X175352Y190249D01*
X175333Y190284D01*
X175322Y190323D01*
X175266Y190409D01*
X175217Y190499D01*
X175189Y190528D01*
X175167Y190561D01*
X175128Y190594D01*
X175110Y190618D01*
X174543Y191186D01*
X174208Y191765D01*
X174035Y192412D01*
X174035Y194497D01*
X182577Y194497D01*
X182577Y185295D01*
X174035Y185295D01*
G37*
%LPD*%
%LPC*%
G36*
X174035Y172595D02*
X174035Y172595D01*
X174035Y174680D01*
X174208Y175327D01*
X174543Y175906D01*
X175110Y176474D01*
X175113Y176478D01*
X175132Y176492D01*
X175156Y176525D01*
X175185Y176552D01*
X175239Y176640D01*
X175299Y176723D01*
X175312Y176761D01*
X175333Y176795D01*
X175360Y176894D01*
X175395Y176990D01*
X175397Y177031D01*
X175408Y177069D01*
X175406Y177172D01*
X175413Y177274D01*
X175404Y177313D01*
X175403Y177354D01*
X175373Y177451D01*
X175351Y177552D01*
X175332Y177587D01*
X175320Y177626D01*
X175265Y177711D01*
X175216Y177801D01*
X175187Y177830D01*
X175165Y177864D01*
X175127Y177895D01*
X175110Y177918D01*
X174543Y178486D01*
X174208Y179065D01*
X174035Y179712D01*
X174035Y181797D01*
X182577Y181797D01*
X182577Y172595D01*
X174035Y172595D01*
G37*
%LPD*%
%LPC*%
G36*
X14945Y94907D02*
X14945Y94907D01*
X14945Y103613D01*
X15472Y103530D01*
X17107Y102998D01*
X18639Y102218D01*
X20030Y101207D01*
X21245Y99992D01*
X22256Y98601D01*
X23036Y97069D01*
X23568Y95434D01*
X23651Y94907D01*
X14945Y94907D01*
G37*
%LPD*%
%LPC*%
G36*
X14945Y90845D02*
X14945Y90845D01*
X23651Y90845D01*
X23568Y90318D01*
X23036Y88683D01*
X22256Y87151D01*
X21245Y85760D01*
X20030Y84545D01*
X18639Y83534D01*
X17107Y82754D01*
X15472Y82222D01*
X14945Y82139D01*
X14945Y90845D01*
G37*
%LPD*%
%LPC*%
G36*
X375851Y190499D02*
X375851Y190499D01*
X375934Y191026D01*
X376466Y192661D01*
X377246Y194193D01*
X378257Y195584D01*
X379472Y196799D01*
X380863Y197810D01*
X382395Y198590D01*
X384030Y199122D01*
X384557Y199205D01*
X384557Y190499D01*
X375851Y190499D01*
G37*
%LPD*%
%LPC*%
G36*
X384030Y177814D02*
X384030Y177814D01*
X382395Y178346D01*
X380863Y179126D01*
X379472Y180137D01*
X378257Y181352D01*
X377246Y182743D01*
X376466Y184275D01*
X375934Y185910D01*
X375851Y186437D01*
X384557Y186437D01*
X384557Y177731D01*
X384030Y177814D01*
G37*
%LPD*%
%LPC*%
G36*
X262667Y33785D02*
X262667Y33785D01*
X262667Y42358D01*
X263163Y42279D01*
X264778Y41754D01*
X266292Y40983D01*
X267666Y39985D01*
X268867Y38784D01*
X269865Y37410D01*
X270636Y35896D01*
X271161Y34281D01*
X271240Y33785D01*
X262667Y33785D01*
G37*
%LPD*%
%LPC*%
G36*
X84867Y33785D02*
X84867Y33785D01*
X84867Y42358D01*
X85363Y42279D01*
X86978Y41754D01*
X88492Y40983D01*
X89866Y39985D01*
X91067Y38784D01*
X92065Y37410D01*
X92836Y35896D01*
X93361Y34281D01*
X93440Y33785D01*
X84867Y33785D01*
G37*
%LPD*%
%LPC*%
G36*
X211867Y33785D02*
X211867Y33785D01*
X211867Y42358D01*
X212363Y42279D01*
X213978Y41754D01*
X215492Y40983D01*
X216866Y39985D01*
X218067Y38784D01*
X219065Y37410D01*
X219836Y35896D01*
X220361Y34281D01*
X220440Y33785D01*
X211867Y33785D01*
G37*
%LPD*%
%LPC*%
G36*
X84867Y29723D02*
X84867Y29723D01*
X93440Y29723D01*
X93361Y29227D01*
X92836Y27612D01*
X92065Y26098D01*
X91067Y24724D01*
X89866Y23523D01*
X88492Y22525D01*
X86978Y21754D01*
X85363Y21229D01*
X84867Y21150D01*
X84867Y29723D01*
G37*
%LPD*%
%LPC*%
G36*
X148432Y33785D02*
X148432Y33785D01*
X148511Y34281D01*
X149036Y35896D01*
X149807Y37410D01*
X150805Y38784D01*
X152006Y39985D01*
X153380Y40983D01*
X154894Y41754D01*
X156509Y42279D01*
X157005Y42358D01*
X157005Y33785D01*
X148432Y33785D01*
G37*
%LPD*%
%LPC*%
G36*
X199232Y33785D02*
X199232Y33785D01*
X199311Y34281D01*
X199836Y35896D01*
X200607Y37410D01*
X201605Y38784D01*
X202806Y39985D01*
X204180Y40983D01*
X205694Y41754D01*
X207309Y42279D01*
X207805Y42358D01*
X207805Y33785D01*
X199232Y33785D01*
G37*
%LPD*%
%LPC*%
G36*
X72232Y33785D02*
X72232Y33785D01*
X72311Y34281D01*
X72836Y35896D01*
X73607Y37410D01*
X74605Y38784D01*
X75806Y39985D01*
X77180Y40983D01*
X78694Y41754D01*
X80309Y42279D01*
X80805Y42358D01*
X80805Y33785D01*
X72232Y33785D01*
G37*
%LPD*%
%LPC*%
G36*
X250032Y33785D02*
X250032Y33785D01*
X250111Y34281D01*
X250636Y35896D01*
X251407Y37410D01*
X252405Y38784D01*
X253606Y39985D01*
X254980Y40983D01*
X256494Y41754D01*
X258109Y42279D01*
X258605Y42358D01*
X258605Y33785D01*
X250032Y33785D01*
G37*
%LPD*%
%LPC*%
G36*
X262667Y29723D02*
X262667Y29723D01*
X271240Y29723D01*
X271161Y29227D01*
X270636Y27612D01*
X269865Y26098D01*
X268867Y24724D01*
X267666Y23523D01*
X266292Y22525D01*
X264778Y21754D01*
X263163Y21229D01*
X262667Y21150D01*
X262667Y29723D01*
G37*
%LPD*%
%LPC*%
G36*
X156509Y21229D02*
X156509Y21229D01*
X154894Y21754D01*
X153380Y22525D01*
X152006Y23523D01*
X150805Y24724D01*
X149807Y26098D01*
X149036Y27612D01*
X148511Y29227D01*
X148432Y29723D01*
X157005Y29723D01*
X157005Y21150D01*
X156509Y21229D01*
G37*
%LPD*%
%LPC*%
G36*
X80309Y21229D02*
X80309Y21229D01*
X78694Y21754D01*
X77180Y22525D01*
X75806Y23523D01*
X74605Y24724D01*
X73607Y26098D01*
X72836Y27612D01*
X72311Y29227D01*
X72232Y29723D01*
X80805Y29723D01*
X80805Y21150D01*
X80309Y21229D01*
G37*
%LPD*%
%LPC*%
G36*
X258109Y21229D02*
X258109Y21229D01*
X256494Y21754D01*
X254980Y22525D01*
X253606Y23523D01*
X252405Y24724D01*
X251407Y26098D01*
X250636Y27612D01*
X250111Y29227D01*
X250032Y29723D01*
X258605Y29723D01*
X258605Y21150D01*
X258109Y21229D01*
G37*
%LPD*%
%LPC*%
G36*
X346781Y137131D02*
X346781Y137131D01*
X346781Y142641D01*
X350993Y142641D01*
X352450Y142351D01*
X353822Y141782D01*
X355057Y140957D01*
X356107Y139907D01*
X356932Y138672D01*
X357501Y137300D01*
X357534Y137131D01*
X346781Y137131D01*
G37*
%LPD*%
%LPC*%
G36*
X331966Y50731D02*
X331966Y50731D01*
X331999Y50900D01*
X332568Y52272D01*
X333393Y53507D01*
X334443Y54557D01*
X335678Y55382D01*
X337050Y55951D01*
X338507Y56241D01*
X342719Y56241D01*
X342719Y50731D01*
X331966Y50731D01*
G37*
%LPD*%
%LPC*%
G36*
X331966Y137131D02*
X331966Y137131D01*
X331999Y137300D01*
X332568Y138672D01*
X333393Y139907D01*
X334443Y140957D01*
X335678Y141782D01*
X337050Y142351D01*
X338507Y142641D01*
X342719Y142641D01*
X342719Y137131D01*
X331966Y137131D01*
G37*
%LPD*%
%LPC*%
G36*
X346781Y41159D02*
X346781Y41159D01*
X346781Y46669D01*
X357534Y46669D01*
X357501Y46500D01*
X356932Y45128D01*
X356107Y43893D01*
X355057Y42843D01*
X353822Y42018D01*
X352450Y41449D01*
X350993Y41159D01*
X346781Y41159D01*
G37*
%LPD*%
%LPC*%
G36*
X338507Y41159D02*
X338507Y41159D01*
X337050Y41449D01*
X335678Y42018D01*
X334443Y42843D01*
X333393Y43893D01*
X332568Y45128D01*
X331999Y46500D01*
X331966Y46669D01*
X342719Y46669D01*
X342719Y41159D01*
X338507Y41159D01*
G37*
%LPD*%
%LPC*%
G36*
X338507Y127559D02*
X338507Y127559D01*
X337050Y127849D01*
X335678Y128418D01*
X334443Y129243D01*
X333393Y130293D01*
X332568Y131528D01*
X331999Y132900D01*
X331966Y133069D01*
X342719Y133069D01*
X342719Y127559D01*
X338507Y127559D01*
G37*
%LPD*%
%LPC*%
G36*
X144075Y134275D02*
X144075Y134275D01*
X144075Y139317D01*
X146410Y139317D01*
X147057Y139144D01*
X147636Y138809D01*
X148109Y138336D01*
X148444Y137757D01*
X148595Y137190D01*
X148603Y137172D01*
X148606Y137153D01*
X148659Y137042D01*
X148707Y136929D01*
X148719Y136913D01*
X148727Y136896D01*
X148809Y136803D01*
X148886Y136708D01*
X148902Y136697D01*
X148915Y136682D01*
X149019Y136616D01*
X149120Y136546D01*
X149138Y136540D01*
X149155Y136529D01*
X149272Y136495D01*
X149389Y136455D01*
X149409Y136454D01*
X149427Y136449D01*
X149551Y136448D01*
X149673Y136442D01*
X149692Y136447D01*
X149712Y136447D01*
X149830Y136480D01*
X149949Y136509D01*
X149967Y136519D01*
X149985Y136524D01*
X150090Y136589D01*
X150197Y136650D01*
X150210Y136664D01*
X150227Y136674D01*
X150309Y136765D01*
X150395Y136853D01*
X150404Y136870D01*
X150417Y136885D01*
X150448Y136952D01*
X150529Y137104D01*
X150540Y137154D01*
X150557Y137190D01*
X150708Y137757D01*
X151043Y138336D01*
X151516Y138809D01*
X152095Y139144D01*
X152742Y139317D01*
X155077Y139317D01*
X155077Y134275D01*
X144075Y134275D01*
G37*
%LPD*%
%LPC*%
G36*
X159075Y134275D02*
X159075Y134275D01*
X159075Y139317D01*
X161410Y139317D01*
X162057Y139144D01*
X162636Y138809D01*
X163109Y138336D01*
X163444Y137757D01*
X163595Y137190D01*
X163603Y137172D01*
X163606Y137153D01*
X163659Y137042D01*
X163707Y136929D01*
X163719Y136913D01*
X163727Y136896D01*
X163809Y136803D01*
X163886Y136708D01*
X163902Y136697D01*
X163915Y136682D01*
X164019Y136616D01*
X164120Y136546D01*
X164138Y136540D01*
X164155Y136529D01*
X164272Y136495D01*
X164389Y136455D01*
X164409Y136454D01*
X164427Y136449D01*
X164551Y136448D01*
X164673Y136442D01*
X164692Y136447D01*
X164712Y136447D01*
X164830Y136480D01*
X164949Y136509D01*
X164967Y136519D01*
X164985Y136524D01*
X165090Y136589D01*
X165197Y136650D01*
X165210Y136664D01*
X165227Y136674D01*
X165309Y136765D01*
X165395Y136853D01*
X165404Y136870D01*
X165417Y136885D01*
X165448Y136952D01*
X165529Y137104D01*
X165540Y137154D01*
X165557Y137190D01*
X165708Y137757D01*
X166043Y138336D01*
X166516Y138809D01*
X167095Y139144D01*
X167742Y139317D01*
X170077Y139317D01*
X170077Y134275D01*
X159075Y134275D01*
G37*
%LPD*%
%LPC*%
G36*
X159075Y125235D02*
X159075Y125235D01*
X159075Y130277D01*
X170077Y130277D01*
X170077Y125235D01*
X167742Y125235D01*
X167095Y125408D01*
X166516Y125743D01*
X166043Y126216D01*
X165708Y126795D01*
X165557Y127362D01*
X165549Y127380D01*
X165546Y127399D01*
X165494Y127510D01*
X165445Y127623D01*
X165433Y127638D01*
X165425Y127656D01*
X165343Y127748D01*
X165266Y127844D01*
X165250Y127855D01*
X165237Y127870D01*
X165133Y127936D01*
X165032Y128006D01*
X165014Y128012D01*
X164997Y128023D01*
X164879Y128058D01*
X164763Y128097D01*
X164743Y128098D01*
X164725Y128103D01*
X164601Y128104D01*
X164479Y128110D01*
X164460Y128105D01*
X164440Y128105D01*
X164322Y128072D01*
X164203Y128043D01*
X164186Y128033D01*
X164167Y128028D01*
X164062Y127963D01*
X163956Y127903D01*
X163942Y127889D01*
X163925Y127878D01*
X163843Y127787D01*
X163757Y127699D01*
X163748Y127682D01*
X163735Y127667D01*
X163704Y127600D01*
X163623Y127448D01*
X163612Y127398D01*
X163595Y127362D01*
X163444Y126795D01*
X163109Y126216D01*
X162636Y125743D01*
X162057Y125408D01*
X161410Y125235D01*
X159075Y125235D01*
G37*
%LPD*%
%LPC*%
G36*
X144075Y125235D02*
X144075Y125235D01*
X144075Y130277D01*
X155077Y130277D01*
X155077Y125235D01*
X152742Y125235D01*
X152095Y125408D01*
X151516Y125743D01*
X151043Y126216D01*
X150708Y126795D01*
X150557Y127362D01*
X150549Y127380D01*
X150546Y127399D01*
X150494Y127510D01*
X150445Y127623D01*
X150433Y127638D01*
X150425Y127656D01*
X150343Y127748D01*
X150266Y127844D01*
X150250Y127855D01*
X150237Y127870D01*
X150133Y127936D01*
X150032Y128006D01*
X150014Y128012D01*
X149997Y128023D01*
X149879Y128058D01*
X149763Y128097D01*
X149743Y128098D01*
X149725Y128103D01*
X149601Y128104D01*
X149479Y128110D01*
X149460Y128105D01*
X149440Y128105D01*
X149322Y128072D01*
X149203Y128043D01*
X149186Y128033D01*
X149167Y128028D01*
X149062Y127963D01*
X148956Y127903D01*
X148942Y127889D01*
X148925Y127878D01*
X148843Y127787D01*
X148757Y127699D01*
X148748Y127682D01*
X148735Y127667D01*
X148704Y127600D01*
X148623Y127448D01*
X148612Y127398D01*
X148595Y127362D01*
X148444Y126795D01*
X148109Y126216D01*
X147636Y125743D01*
X147057Y125408D01*
X146410Y125235D01*
X144075Y125235D01*
G37*
%LPD*%
%LPC*%
G36*
X87249Y239533D02*
X87249Y239533D01*
X87249Y246043D01*
X92052Y246043D01*
X92699Y245870D01*
X93278Y245535D01*
X93751Y245062D01*
X94086Y244483D01*
X94259Y243836D01*
X94259Y239533D01*
X87249Y239533D01*
G37*
%LPD*%
%LPC*%
G36*
X76177Y239533D02*
X76177Y239533D01*
X76177Y243836D01*
X76350Y244483D01*
X76685Y245062D01*
X77158Y245535D01*
X77737Y245870D01*
X78384Y246043D01*
X83187Y246043D01*
X83187Y239533D01*
X76177Y239533D01*
G37*
%LPD*%
%LPC*%
G36*
X87249Y228961D02*
X87249Y228961D01*
X87249Y235471D01*
X94259Y235471D01*
X94259Y231168D01*
X94086Y230521D01*
X93751Y229942D01*
X93278Y229469D01*
X92699Y229134D01*
X92052Y228961D01*
X87249Y228961D01*
G37*
%LPD*%
%LPC*%
G36*
X78384Y228961D02*
X78384Y228961D01*
X77737Y229134D01*
X77158Y229469D01*
X76685Y229942D01*
X76350Y230521D01*
X76177Y231168D01*
X76177Y235471D01*
X83187Y235471D01*
X83187Y228961D01*
X78384Y228961D01*
G37*
%LPD*%
%LPC*%
G36*
X186075Y210695D02*
X186075Y210695D01*
X186075Y214987D01*
X192410Y214987D01*
X193057Y214814D01*
X193636Y214479D01*
X194109Y214006D01*
X194444Y213427D01*
X194617Y212780D01*
X194617Y210695D01*
X186075Y210695D01*
G37*
%LPD*%
%LPC*%
G36*
X131575Y210695D02*
X131575Y210695D01*
X131575Y214987D01*
X137910Y214987D01*
X138557Y214814D01*
X139136Y214479D01*
X139609Y214006D01*
X139944Y213427D01*
X140117Y212780D01*
X140117Y210695D01*
X131575Y210695D01*
G37*
%LPD*%
%LPC*%
G36*
X174035Y210695D02*
X174035Y210695D01*
X174035Y212780D01*
X174208Y213427D01*
X174543Y214006D01*
X175016Y214479D01*
X175595Y214814D01*
X176242Y214987D01*
X182577Y214987D01*
X182577Y210695D01*
X174035Y210695D01*
G37*
%LPD*%
%LPC*%
G36*
X376266Y137131D02*
X376266Y137131D01*
X376299Y137300D01*
X376868Y138672D01*
X377693Y139907D01*
X378743Y140957D01*
X379978Y141782D01*
X381350Y142351D01*
X382807Y142641D01*
X384519Y142641D01*
X384519Y137131D01*
X376266Y137131D01*
G37*
%LPD*%
%LPC*%
G36*
X376266Y50731D02*
X376266Y50731D01*
X376299Y50900D01*
X376868Y52272D01*
X377693Y53507D01*
X378743Y54557D01*
X379978Y55382D01*
X381350Y55951D01*
X382807Y56241D01*
X384519Y56241D01*
X384519Y50731D01*
X376266Y50731D01*
G37*
%LPD*%
%LPC*%
G36*
X382807Y41159D02*
X382807Y41159D01*
X381350Y41449D01*
X379978Y42018D01*
X378743Y42843D01*
X377693Y43893D01*
X376868Y45128D01*
X376299Y46500D01*
X376266Y46669D01*
X384519Y46669D01*
X384519Y41159D01*
X382807Y41159D01*
G37*
%LPD*%
%LPC*%
G36*
X382807Y127559D02*
X382807Y127559D01*
X381350Y127849D01*
X379978Y128418D01*
X378743Y129243D01*
X377693Y130293D01*
X376868Y131528D01*
X376299Y132900D01*
X376266Y133069D01*
X384519Y133069D01*
X384519Y127559D01*
X382807Y127559D01*
G37*
%LPD*%
%LPC*%
G36*
X272219Y215989D02*
X272219Y215989D01*
X272219Y220999D01*
X275022Y220999D01*
X275669Y220826D01*
X276248Y220491D01*
X276721Y220018D01*
X277056Y219439D01*
X277229Y218792D01*
X277229Y215989D01*
X272219Y215989D01*
G37*
%LPD*%
%LPC*%
G36*
X322377Y215989D02*
X322377Y215989D01*
X322377Y220999D01*
X325180Y220999D01*
X325827Y220826D01*
X326406Y220491D01*
X326879Y220018D01*
X327214Y219439D01*
X327387Y218792D01*
X327387Y215989D01*
X322377Y215989D01*
G37*
%LPD*%
%LPC*%
G36*
X272219Y256989D02*
X272219Y256989D01*
X272219Y261999D01*
X275022Y261999D01*
X275669Y261826D01*
X276248Y261491D01*
X276721Y261018D01*
X277056Y260439D01*
X277229Y259792D01*
X277229Y256989D01*
X272219Y256989D01*
G37*
%LPD*%
%LPC*%
G36*
X322377Y211927D02*
X322377Y211927D01*
X327387Y211927D01*
X327387Y209124D01*
X327214Y208477D01*
X326879Y207898D01*
X326406Y207425D01*
X325827Y207090D01*
X325180Y206917D01*
X322377Y206917D01*
X322377Y211927D01*
G37*
%LPD*%
%LPC*%
G36*
X272219Y252927D02*
X272219Y252927D01*
X277229Y252927D01*
X277229Y250124D01*
X277056Y249477D01*
X276721Y248898D01*
X276248Y248425D01*
X275669Y248090D01*
X275022Y247917D01*
X272219Y247917D01*
X272219Y252927D01*
G37*
%LPD*%
%LPC*%
G36*
X272219Y211927D02*
X272219Y211927D01*
X277229Y211927D01*
X277229Y209124D01*
X277056Y208477D01*
X276721Y207898D01*
X276248Y207425D01*
X275669Y207090D01*
X275022Y206917D01*
X272219Y206917D01*
X272219Y211927D01*
G37*
%LPD*%
%LPC*%
G36*
X263147Y215989D02*
X263147Y215989D01*
X263147Y218792D01*
X263320Y219439D01*
X263655Y220018D01*
X264128Y220491D01*
X264707Y220826D01*
X265354Y220999D01*
X268157Y220999D01*
X268157Y215989D01*
X263147Y215989D01*
G37*
%LPD*%
%LPC*%
G36*
X313305Y215989D02*
X313305Y215989D01*
X313305Y218792D01*
X313478Y219439D01*
X313813Y220018D01*
X314286Y220491D01*
X314865Y220826D01*
X315512Y220999D01*
X318315Y220999D01*
X318315Y215989D01*
X313305Y215989D01*
G37*
%LPD*%
%LPC*%
G36*
X265354Y247917D02*
X265354Y247917D01*
X264707Y248090D01*
X264128Y248425D01*
X263655Y248898D01*
X263320Y249477D01*
X263147Y250124D01*
X263147Y252927D01*
X268157Y252927D01*
X268157Y247917D01*
X265354Y247917D01*
G37*
%LPD*%
%LPC*%
G36*
X265354Y206917D02*
X265354Y206917D01*
X264707Y207090D01*
X264128Y207425D01*
X263655Y207898D01*
X263320Y208477D01*
X263147Y209124D01*
X263147Y211927D01*
X268157Y211927D01*
X268157Y206917D01*
X265354Y206917D01*
G37*
%LPD*%
%LPC*%
G36*
X315512Y206917D02*
X315512Y206917D01*
X314865Y207090D01*
X314286Y207425D01*
X313813Y207898D01*
X313478Y208477D01*
X313305Y209124D01*
X313305Y211927D01*
X318315Y211927D01*
X318315Y206917D01*
X315512Y206917D01*
G37*
%LPD*%
%LPC*%
G36*
X314043Y151487D02*
X314043Y151487D01*
X314043Y156029D01*
X316878Y156029D01*
X317525Y155856D01*
X318104Y155521D01*
X318577Y155048D01*
X318912Y154469D01*
X319085Y153822D01*
X319085Y151487D01*
X314043Y151487D01*
G37*
%LPD*%
%LPC*%
G36*
X107805Y236453D02*
X107805Y236453D01*
X107805Y241495D01*
X110140Y241495D01*
X110787Y241322D01*
X111366Y240987D01*
X111839Y240514D01*
X112174Y239935D01*
X112347Y239288D01*
X112347Y236453D01*
X107805Y236453D01*
G37*
%LPD*%
%LPC*%
G36*
X135535Y134275D02*
X135535Y134275D01*
X135535Y137110D01*
X135708Y137757D01*
X136043Y138336D01*
X136516Y138809D01*
X137095Y139144D01*
X137742Y139317D01*
X140077Y139317D01*
X140077Y134275D01*
X135535Y134275D01*
G37*
%LPD*%
%LPC*%
G36*
X99265Y236453D02*
X99265Y236453D01*
X99265Y239288D01*
X99438Y239935D01*
X99773Y240514D01*
X100246Y240987D01*
X100825Y241322D01*
X101472Y241495D01*
X103807Y241495D01*
X103807Y236453D01*
X99265Y236453D01*
G37*
%LPD*%
%LPC*%
G36*
X305003Y151487D02*
X305003Y151487D01*
X305003Y153822D01*
X305176Y154469D01*
X305511Y155048D01*
X305984Y155521D01*
X306563Y155856D01*
X307210Y156029D01*
X310045Y156029D01*
X310045Y151487D01*
X305003Y151487D01*
G37*
%LPD*%
%LPC*%
G36*
X107805Y227413D02*
X107805Y227413D01*
X107805Y232455D01*
X112347Y232455D01*
X112347Y229620D01*
X112174Y228973D01*
X111839Y228394D01*
X111366Y227921D01*
X110787Y227586D01*
X110140Y227413D01*
X107805Y227413D01*
G37*
%LPD*%
%LPC*%
G36*
X314081Y108827D02*
X314081Y108827D01*
X314081Y113369D01*
X319123Y113369D01*
X319123Y111034D01*
X318950Y110387D01*
X318615Y109808D01*
X318142Y109335D01*
X317563Y109000D01*
X316916Y108827D01*
X314081Y108827D01*
G37*
%LPD*%
%LPC*%
G36*
X307248Y108827D02*
X307248Y108827D01*
X306601Y109000D01*
X306022Y109335D01*
X305549Y109808D01*
X305214Y110387D01*
X305041Y111034D01*
X305041Y113369D01*
X310083Y113369D01*
X310083Y108827D01*
X307248Y108827D01*
G37*
%LPD*%
%LPC*%
G36*
X137742Y125235D02*
X137742Y125235D01*
X137095Y125408D01*
X136516Y125743D01*
X136043Y126216D01*
X135708Y126795D01*
X135535Y127442D01*
X135535Y130277D01*
X140077Y130277D01*
X140077Y125235D01*
X137742Y125235D01*
G37*
%LPD*%
%LPC*%
G36*
X101472Y227413D02*
X101472Y227413D01*
X100825Y227586D01*
X100246Y227921D01*
X99773Y228394D01*
X99438Y228973D01*
X99265Y229620D01*
X99265Y232455D01*
X103807Y232455D01*
X103807Y227413D01*
X101472Y227413D01*
G37*
%LPD*%
%LPC*%
G36*
X82835Y31753D02*
X82835Y31753D01*
X82835Y31755D01*
X82837Y31755D01*
X82837Y31753D01*
X82835Y31753D01*
G37*
%LPD*%
%LPC*%
G36*
X260635Y31753D02*
X260635Y31753D01*
X260635Y31755D01*
X260637Y31755D01*
X260637Y31753D01*
X260635Y31753D01*
G37*
%LPD*%
%LPC*%
G36*
X320345Y213957D02*
X320345Y213957D01*
X320345Y213959D01*
X320347Y213959D01*
X320347Y213957D01*
X320345Y213957D01*
G37*
%LPD*%
%LPC*%
G36*
X344749Y135099D02*
X344749Y135099D01*
X344749Y135101D01*
X344751Y135101D01*
X344751Y135099D01*
X344749Y135099D01*
G37*
%LPD*%
%LPC*%
G36*
X270187Y213957D02*
X270187Y213957D01*
X270187Y213959D01*
X270189Y213959D01*
X270189Y213957D01*
X270187Y213957D01*
G37*
%LPD*%
%LPC*%
G36*
X344749Y48699D02*
X344749Y48699D01*
X344749Y48701D01*
X344751Y48701D01*
X344751Y48699D01*
X344749Y48699D01*
G37*
%LPD*%
%LPC*%
G36*
X48947Y231184D02*
X48947Y231184D01*
X48947Y231186D01*
X48949Y231186D01*
X48949Y231184D01*
X48947Y231184D01*
G37*
%LPD*%
%LPC*%
G36*
X85217Y237501D02*
X85217Y237501D01*
X85217Y237503D01*
X85219Y237503D01*
X85219Y237501D01*
X85217Y237501D01*
G37*
%LPD*%
%LPC*%
G36*
X186719Y254761D02*
X186719Y254761D01*
X186719Y254763D01*
X186721Y254763D01*
X186721Y254761D01*
X186719Y254761D01*
G37*
%LPD*%
%LPC*%
G36*
X270187Y254957D02*
X270187Y254957D01*
X270187Y254959D01*
X270189Y254959D01*
X270189Y254957D01*
X270187Y254957D01*
G37*
%LPD*%
%LPC*%
G36*
X50515Y283717D02*
X50515Y283717D01*
X50515Y283719D01*
X50517Y283719D01*
X50517Y283717D01*
X50515Y283717D01*
G37*
%LPD*%
D10*
X264986Y157638D02*
X279662Y157638D01*
X279662Y154562D01*
X264986Y154562D01*
X264986Y157638D01*
X264986Y155536D02*
X279662Y155536D01*
X279662Y156510D02*
X264986Y156510D01*
X264986Y157484D02*
X279662Y157484D01*
X279662Y151138D02*
X264986Y151138D01*
X279662Y151138D02*
X279662Y148062D01*
X264986Y148062D01*
X264986Y151138D01*
X264986Y149036D02*
X279662Y149036D01*
X279662Y150010D02*
X264986Y150010D01*
X264986Y150984D02*
X279662Y150984D01*
X279662Y144638D02*
X264986Y144638D01*
X279662Y144638D02*
X279662Y141562D01*
X264986Y141562D01*
X264986Y144638D01*
X264986Y142536D02*
X279662Y142536D01*
X279662Y143510D02*
X264986Y143510D01*
X264986Y144484D02*
X279662Y144484D01*
X279662Y138138D02*
X264986Y138138D01*
X279662Y138138D02*
X279662Y135062D01*
X264986Y135062D01*
X264986Y138138D01*
X264986Y136036D02*
X279662Y136036D01*
X279662Y137010D02*
X264986Y137010D01*
X264986Y137984D02*
X279662Y137984D01*
X279662Y131638D02*
X264986Y131638D01*
X279662Y131638D02*
X279662Y128562D01*
X264986Y128562D01*
X264986Y131638D01*
X264986Y129536D02*
X279662Y129536D01*
X279662Y130510D02*
X264986Y130510D01*
X264986Y131484D02*
X279662Y131484D01*
X279662Y125138D02*
X264986Y125138D01*
X279662Y125138D02*
X279662Y122062D01*
X264986Y122062D01*
X264986Y125138D01*
X264986Y123036D02*
X279662Y123036D01*
X279662Y124010D02*
X264986Y124010D01*
X264986Y124984D02*
X279662Y124984D01*
X279662Y118638D02*
X264986Y118638D01*
X279662Y118638D02*
X279662Y115562D01*
X264986Y115562D01*
X264986Y118638D01*
X264986Y116536D02*
X279662Y116536D01*
X279662Y117510D02*
X264986Y117510D01*
X264986Y118484D02*
X279662Y118484D01*
X279662Y112138D02*
X264986Y112138D01*
X279662Y112138D02*
X279662Y109062D01*
X264986Y109062D01*
X264986Y112138D01*
X264986Y110036D02*
X279662Y110036D01*
X279662Y111010D02*
X264986Y111010D01*
X264986Y111984D02*
X279662Y111984D01*
X222262Y112138D02*
X207586Y112138D01*
X222262Y112138D02*
X222262Y109062D01*
X207586Y109062D01*
X207586Y112138D01*
X207586Y110036D02*
X222262Y110036D01*
X222262Y111010D02*
X207586Y111010D01*
X207586Y111984D02*
X222262Y111984D01*
X222262Y118638D02*
X207586Y118638D01*
X222262Y118638D02*
X222262Y115562D01*
X207586Y115562D01*
X207586Y118638D01*
X207586Y116536D02*
X222262Y116536D01*
X222262Y117510D02*
X207586Y117510D01*
X207586Y118484D02*
X222262Y118484D01*
X222262Y125138D02*
X207586Y125138D01*
X222262Y125138D02*
X222262Y122062D01*
X207586Y122062D01*
X207586Y125138D01*
X207586Y123036D02*
X222262Y123036D01*
X222262Y124010D02*
X207586Y124010D01*
X207586Y124984D02*
X222262Y124984D01*
X222262Y131638D02*
X207586Y131638D01*
X222262Y131638D02*
X222262Y128562D01*
X207586Y128562D01*
X207586Y131638D01*
X207586Y129536D02*
X222262Y129536D01*
X222262Y130510D02*
X207586Y130510D01*
X207586Y131484D02*
X222262Y131484D01*
X222262Y138138D02*
X207586Y138138D01*
X222262Y138138D02*
X222262Y135062D01*
X207586Y135062D01*
X207586Y138138D01*
X207586Y136036D02*
X222262Y136036D01*
X222262Y137010D02*
X207586Y137010D01*
X207586Y137984D02*
X222262Y137984D01*
X222262Y144638D02*
X207586Y144638D01*
X222262Y144638D02*
X222262Y141562D01*
X207586Y141562D01*
X207586Y144638D01*
X207586Y142536D02*
X222262Y142536D01*
X222262Y143510D02*
X207586Y143510D01*
X207586Y144484D02*
X222262Y144484D01*
X222262Y151138D02*
X207586Y151138D01*
X222262Y151138D02*
X222262Y148062D01*
X207586Y148062D01*
X207586Y151138D01*
X207586Y149036D02*
X222262Y149036D01*
X222262Y150010D02*
X207586Y150010D01*
X207586Y150984D02*
X222262Y150984D01*
X222262Y157638D02*
X207586Y157638D01*
X222262Y157638D02*
X222262Y154562D01*
X207586Y154562D01*
X207586Y157638D01*
X207586Y155536D02*
X222262Y155536D01*
X222262Y156510D02*
X207586Y156510D01*
X207586Y157484D02*
X222262Y157484D01*
D11*
X57436Y31754D03*
D12*
X82836Y31754D03*
X108236Y31754D03*
X133636Y31754D03*
X159036Y31754D03*
X184436Y31754D03*
X209836Y31754D03*
X235236Y31754D03*
X260636Y31754D03*
X286036Y31754D03*
D13*
X339250Y48700D02*
X350250Y48700D01*
X350250Y135100D02*
X339250Y135100D01*
X383550Y48700D02*
X389550Y48700D01*
X389550Y135100D02*
X383550Y135100D01*
D14*
X354618Y21004D03*
X311618Y21004D03*
D15*
X48948Y184195D03*
X48948Y231185D03*
D16*
X85218Y217182D03*
X85218Y237502D03*
D17*
X105806Y219214D03*
X105806Y234454D03*
D18*
X129826Y170846D03*
X129826Y183546D03*
X129826Y196246D03*
X129826Y208946D03*
X184326Y208946D03*
X184326Y196246D03*
X184326Y183546D03*
X184326Y170846D03*
D17*
X172076Y132276D03*
X172076Y147516D03*
X157076Y132276D03*
X157076Y147516D03*
X142076Y132276D03*
X142076Y147516D03*
D19*
X227948Y244942D03*
X227948Y254942D03*
D20*
X296804Y163646D03*
X312044Y163646D03*
X296804Y129328D03*
X312044Y129328D03*
X312082Y115368D03*
X296842Y115368D03*
X312044Y149488D03*
X296804Y149488D03*
D21*
X12914Y92876D03*
X12914Y67476D03*
D22*
X336346Y254958D03*
X320346Y254958D03*
X320346Y213958D03*
X336346Y213958D03*
D23*
X270942Y274726D03*
X253942Y274726D03*
D22*
X270188Y254958D03*
X254188Y254958D03*
X254188Y213958D03*
X270188Y213958D03*
D21*
X386842Y245110D03*
X386842Y270510D03*
X386588Y188468D03*
X386588Y213868D03*
D24*
X49168Y130810D03*
X99166Y130810D03*
D25*
X186720Y254762D03*
X133320Y254762D03*
X50516Y283718D03*
X103916Y283718D03*
D26*
X312044Y149488D02*
X312416Y149860D01*
X316738Y149860D01*
X321056Y154178D01*
D27*
X321056Y154178D03*
D28*
X233934Y102870D03*
X29210Y313690D03*
X39116Y313436D03*
X49022Y313944D03*
X57912Y315214D03*
X11176Y310896D03*
X5842Y299466D03*
X5842Y290068D03*
X5588Y279908D03*
X5842Y269748D03*
X5842Y259588D03*
X8128Y250190D03*
X14478Y242824D03*
X23876Y240792D03*
X25908Y264414D03*
X26924Y274066D03*
X26416Y286258D03*
X30734Y294894D03*
X39370Y296926D03*
X87122Y315976D03*
X97790Y318262D03*
X97790Y328422D03*
X103886Y336042D03*
X121158Y335026D03*
X134366Y336550D03*
X145034Y338074D03*
X144018Y322326D03*
X120904Y323850D03*
X108204Y327406D03*
X112522Y338836D03*
X133096Y325374D03*
X152400Y316992D03*
X190500Y316230D03*
X200152Y316738D03*
X210312Y320548D03*
X221488Y320294D03*
X225044Y287274D03*
X226060Y277368D03*
X204216Y262890D03*
X204724Y270002D03*
X204216Y279400D03*
X203708Y294132D03*
X197866Y298196D03*
X187198Y297942D03*
X207772Y240030D03*
X221234Y342138D03*
X221742Y332740D03*
X369570Y339344D03*
X371856Y325120D03*
X369062Y309626D03*
X386842Y314960D03*
X384556Y332232D03*
X377698Y304038D03*
X257556Y200914D03*
X344170Y262636D03*
X304038Y271780D03*
X286004Y200914D03*
X313182Y201930D03*
X345440Y174244D03*
X268732Y165100D03*
X130048Y116332D03*
X71120Y19812D03*
X96774Y20828D03*
X148082Y20828D03*
X282194Y52832D03*
X307848Y47752D03*
X21082Y21590D03*
X258318Y78994D03*
D26*
X258318Y113284D01*
X262134Y117100D02*
X272324Y117100D01*
X262134Y117100D02*
X258318Y113284D01*
X272288Y110600D02*
X272324Y110600D01*
X272288Y110600D02*
X272288Y82804D01*
D28*
X272288Y82804D03*
D26*
X214924Y143100D02*
X188058Y143100D01*
X181610Y136652D02*
X181610Y121666D01*
X172466Y112522D01*
X142494Y112522D02*
X133636Y103664D01*
X133636Y31754D01*
X181610Y136652D02*
X188058Y143100D01*
X172466Y112522D02*
X142494Y112522D01*
X196290Y136600D02*
X214924Y136600D01*
X196290Y136600D02*
X186690Y127000D01*
X186690Y119634D01*
X184436Y39846D02*
X184436Y31754D01*
X184436Y39846D02*
X176784Y47498D01*
X176784Y80772D01*
X172466Y85090D01*
X172466Y105410D01*
X186690Y119634D01*
D28*
X164338Y104648D03*
D26*
X164338Y82804D02*
X171450Y75692D01*
X164338Y82804D02*
X164338Y104648D01*
X171450Y24130D02*
X178562Y17018D01*
X230378Y17018D01*
X235236Y21876D02*
X235236Y31754D01*
X171450Y24130D02*
X171450Y75692D01*
X230378Y17018D02*
X235236Y21876D01*
D29*
X56329Y191576D02*
X48948Y184195D01*
X85218Y217182D02*
X103774Y217182D01*
X105806Y219214D01*
X86360Y216040D02*
X85218Y217182D01*
X87884Y214516D01*
X252628Y274726D02*
X253942Y274726D01*
D28*
X217678Y164338D03*
D30*
X214924Y161584D01*
X214924Y156100D01*
X141574Y196246D02*
X129826Y196246D01*
X141574Y196246D02*
X150622Y187198D01*
X150622Y171704D01*
X197214Y156100D02*
X214924Y156100D01*
X162306Y160020D02*
X150622Y171704D01*
X162306Y160020D02*
X193294Y160020D01*
X197214Y156100D01*
D31*
X217678Y164338D02*
X217678Y205232D01*
X237617Y225171D02*
X237617Y250571D01*
X237617Y225171D02*
X217678Y205232D01*
X227948Y254942D02*
X227948Y265540D01*
X237134Y274726D02*
X253942Y274726D01*
X237134Y274726D02*
X227948Y265540D01*
X233246Y254942D02*
X237617Y250571D01*
X233246Y254942D02*
X227948Y254942D01*
D28*
X253746Y267208D03*
D31*
X253746Y274530D01*
X253942Y274726D01*
D28*
X19304Y190754D03*
D30*
X19304Y187960D01*
X23069Y184195D02*
X48948Y184195D01*
X23069Y184195D02*
X19304Y187960D01*
D29*
X103916Y283718D02*
X123952Y283718D01*
X133320Y274350D02*
X133320Y254762D01*
X133320Y274350D02*
X123952Y283718D01*
X133320Y254762D02*
X133320Y234412D01*
X118122Y219214D02*
X105806Y219214D01*
X118122Y219214D02*
X133320Y234412D01*
X49168Y183975D02*
X49168Y130810D01*
X49168Y183975D02*
X48948Y184195D01*
X62021Y184195D01*
X74072Y196246D01*
X90170Y196246D01*
X129826Y196246D01*
X85218Y201198D02*
X85218Y217182D01*
X85218Y201198D02*
X90170Y196246D01*
D26*
X254188Y213958D02*
X254188Y220472D01*
X254188Y254958D01*
D28*
X254188Y220472D03*
D26*
X254188Y254958D02*
X270942Y271712D01*
X270942Y274726D01*
X336346Y254958D02*
X336346Y213958D01*
X336346Y196800D01*
X336804Y196342D01*
D28*
X336804Y196342D03*
X320802Y65278D03*
D29*
X320802Y47244D01*
X347042Y21004D02*
X354618Y21004D01*
X347042Y21004D02*
X320802Y47244D01*
X99166Y130810D02*
X99166Y171302D01*
X111410Y183546D02*
X129826Y183546D01*
X111410Y183546D02*
X99166Y171302D01*
X142076Y147516D02*
X157076Y147516D01*
X172076Y147516D01*
X142076Y147516D02*
X134424Y147516D01*
X129826Y152114D02*
X129826Y170846D01*
X129826Y152114D02*
X134424Y147516D01*
X306610Y31754D02*
X311618Y26746D01*
X306610Y31754D02*
X286036Y31754D01*
X311618Y26746D02*
X311618Y21004D01*
D28*
X32258Y76708D03*
D29*
X40640Y85090D01*
X109982Y85090D01*
X130498Y147516D02*
X134424Y147516D01*
X120142Y95250D02*
X109982Y85090D01*
X120142Y95250D02*
X120142Y137160D01*
X130498Y147516D01*
D28*
X218948Y243840D03*
D26*
X226846Y243840D01*
X227948Y244942D01*
D28*
X363220Y236474D03*
D26*
X359156Y236474D01*
X229362Y185928D02*
X224790Y181356D01*
D28*
X224790Y181356D03*
D26*
X354838Y232156D02*
X359156Y236474D01*
X354838Y232156D02*
X354838Y197612D01*
X343154Y185928D01*
X229362Y185928D01*
D28*
X369316Y242062D03*
D26*
X358140Y242062D01*
D28*
X224790Y189992D03*
D26*
X350520Y234442D02*
X358140Y242062D01*
X350520Y234442D02*
X350520Y199644D01*
X340868Y189992D01*
X224790Y189992D01*
D28*
X344170Y232918D03*
D26*
X344170Y241300D01*
X378206Y213868D02*
X386588Y213868D01*
X352044Y249174D02*
X344170Y241300D01*
X352044Y249174D02*
X371094Y249174D01*
X375412Y244856D01*
X375412Y216662D01*
X378206Y213868D01*
X386842Y270510D02*
X314198Y270510D01*
X304292Y260604D02*
X304292Y197358D01*
D28*
X304292Y197358D03*
D26*
X304292Y260604D02*
X314198Y270510D01*
X225858Y130100D02*
X214924Y130100D01*
X225858Y130100D02*
X227584Y131826D01*
X227584Y164084D01*
D27*
X320294Y179832D03*
D26*
X243078Y179578D02*
X227584Y164084D01*
X243078Y179578D02*
X320040Y179578D01*
X320294Y179832D01*
X214924Y130100D02*
X202998Y130100D01*
X183896Y59944D02*
X191008Y52832D01*
X183896Y110998D02*
X202998Y130100D01*
X183896Y110998D02*
X183896Y59944D01*
X218694Y52832D02*
X231140Y65278D01*
X218694Y52832D02*
X191008Y52832D01*
D28*
X231140Y65278D03*
D26*
X214924Y110600D02*
X207120Y110600D01*
X203454Y106934D02*
X203454Y72136D01*
D28*
X203454Y72136D03*
D26*
X203454Y106934D02*
X207120Y110600D01*
X214924Y123600D02*
X225962Y123600D01*
X231648Y129286D02*
X231648Y161290D01*
X245116Y174758D01*
X231648Y129286D02*
X225962Y123600D01*
X319278Y170434D02*
X322580Y170434D01*
D27*
X322580Y170434D03*
D26*
X314954Y174758D02*
X245116Y174758D01*
X314954Y174758D02*
X319278Y170434D01*
X214924Y123600D02*
X203102Y123600D01*
X221234Y65786D02*
X213106Y57658D01*
X188468Y108966D02*
X203102Y123600D01*
X188468Y108966D02*
X188468Y63246D01*
X194056Y57658D01*
X213106Y57658D01*
D28*
X221234Y65786D03*
X195326Y72136D03*
D26*
X199644Y76454D01*
X202698Y117100D02*
X214924Y117100D01*
X199644Y114046D02*
X199644Y76454D01*
X199644Y114046D02*
X202698Y117100D01*
X272324Y156100D02*
X282084Y156100D01*
X289630Y163646D02*
X296804Y163646D01*
X289630Y163646D02*
X282084Y156100D01*
X312044Y163646D02*
X324796Y163646D01*
X282350Y143100D02*
X272324Y143100D01*
X324796Y163646D02*
X328652Y159790D01*
X320802Y141732D02*
X283718Y141732D01*
X282350Y143100D01*
X328652Y149582D02*
X328652Y159790D01*
X328652Y149582D02*
X320802Y141732D01*
X296804Y129328D02*
X283676Y129328D01*
X282904Y130100D02*
X272324Y130100D01*
X282904Y130100D02*
X283676Y129328D01*
X282904Y136600D02*
X272324Y136600D01*
X312044Y133980D02*
X312044Y129328D01*
X284480Y138176D02*
X282904Y136600D01*
X284480Y138176D02*
X307848Y138176D01*
X312044Y133980D01*
X282292Y123600D02*
X272324Y123600D01*
X290524Y115368D02*
X296842Y115368D01*
X290524Y115368D02*
X282292Y123600D01*
X272324Y149600D02*
X296692Y149600D01*
X296804Y149488D01*
X67222Y67476D02*
X12914Y67476D01*
X67222Y67476D02*
X73152Y73406D01*
D28*
X73152Y73406D03*
D32*
X0Y25000D02*
X95Y22821D01*
X380Y20659D01*
X852Y18530D01*
X1508Y16450D01*
X2342Y14435D01*
X3349Y12500D01*
X4521Y10661D01*
X5849Y8930D01*
X7322Y7322D01*
X8930Y5849D01*
X10661Y4521D01*
X12500Y3349D01*
X14435Y2342D01*
X16450Y1508D01*
X18530Y852D01*
X20659Y380D01*
X22821Y95D01*
X25000Y0D01*
X375000Y0D01*
X377179Y95D01*
X379341Y380D01*
X381470Y852D01*
X383551Y1508D01*
X385565Y2342D01*
X387500Y3349D01*
X389339Y4521D01*
X391070Y5849D01*
X392678Y7322D01*
X394151Y8930D01*
X395479Y10661D01*
X396651Y12500D01*
X397658Y14435D01*
X398492Y16450D01*
X399148Y18530D01*
X399620Y20659D01*
X399905Y22821D01*
X400000Y25000D01*
X400000Y325000D01*
X399905Y327179D01*
X399620Y329341D01*
X399148Y331470D01*
X398492Y333551D01*
X397658Y335565D01*
X396651Y337500D01*
X395479Y339339D01*
X394151Y341070D01*
X392678Y342678D01*
X391070Y344151D01*
X389339Y345479D01*
X387500Y346651D01*
X385565Y347658D01*
X383551Y348492D01*
X381470Y349148D01*
X379341Y349620D01*
X377179Y349905D01*
X375000Y350000D01*
X362698Y350000D01*
X362698Y293000D01*
X230000Y293000D01*
X230000Y350000D01*
X25000Y350000D01*
X22821Y349905D01*
X20659Y349620D01*
X18530Y349148D01*
X16450Y348492D01*
X14435Y347658D01*
X12500Y346651D01*
X10661Y345479D01*
X8930Y344151D01*
X7322Y342678D01*
X5849Y341070D01*
X4521Y339339D01*
X3349Y337500D01*
X2342Y335565D01*
X1508Y333551D01*
X852Y331470D01*
X380Y329341D01*
X95Y327179D01*
X0Y325000D01*
X0Y25000D01*
X339250Y132100D02*
X350250Y132100D01*
X350511Y132111D01*
X350771Y132146D01*
X351026Y132202D01*
X351276Y132281D01*
X351518Y132381D01*
X351750Y132502D01*
X351971Y132643D01*
X352178Y132802D01*
X352371Y132979D01*
X352548Y133172D01*
X352707Y133379D01*
X352848Y133600D01*
X352969Y133832D01*
X353069Y134074D01*
X353148Y134324D01*
X353204Y134579D01*
X353239Y134839D01*
X353250Y135100D01*
X353239Y135361D01*
X353204Y135621D01*
X353148Y135876D01*
X353069Y136126D01*
X352969Y136368D01*
X352848Y136600D01*
X352707Y136821D01*
X352548Y137028D01*
X352371Y137221D01*
X352178Y137398D01*
X351971Y137557D01*
X351750Y137698D01*
X351518Y137819D01*
X351276Y137919D01*
X351026Y137998D01*
X350771Y138054D01*
X350511Y138089D01*
X350250Y138100D01*
X339250Y138100D01*
X338989Y138089D01*
X338729Y138054D01*
X338474Y137998D01*
X338224Y137919D01*
X337982Y137819D01*
X337750Y137698D01*
X337529Y137557D01*
X337322Y137398D01*
X337129Y137221D01*
X336952Y137028D01*
X336793Y136821D01*
X336652Y136600D01*
X336531Y136368D01*
X336431Y136126D01*
X336352Y135876D01*
X336296Y135621D01*
X336261Y135361D01*
X336250Y135100D01*
X336261Y134839D01*
X336296Y134579D01*
X336352Y134324D01*
X336431Y134074D01*
X336531Y133832D01*
X336652Y133600D01*
X336793Y133379D01*
X336952Y133172D01*
X337129Y132979D01*
X337322Y132802D01*
X337529Y132643D01*
X337750Y132502D01*
X337982Y132381D01*
X338224Y132281D01*
X338474Y132202D01*
X338729Y132146D01*
X338989Y132111D01*
X339250Y132100D01*
X383400Y132100D02*
X389600Y132100D01*
X389861Y132111D01*
X390121Y132146D01*
X390376Y132202D01*
X390626Y132281D01*
X390868Y132381D01*
X391100Y132502D01*
X391321Y132643D01*
X391528Y132802D01*
X391721Y132979D01*
X391898Y133172D01*
X392057Y133379D01*
X392198Y133600D01*
X392319Y133832D01*
X392419Y134074D01*
X392498Y134324D01*
X392554Y134579D01*
X392589Y134839D01*
X392600Y135100D01*
X392589Y135361D01*
X392554Y135621D01*
X392498Y135876D01*
X392419Y136126D01*
X392319Y136368D01*
X392198Y136600D01*
X392057Y136821D01*
X391898Y137028D01*
X391721Y137221D01*
X391528Y137398D01*
X391321Y137557D01*
X391100Y137698D01*
X390868Y137819D01*
X390626Y137919D01*
X390376Y137998D01*
X390121Y138054D01*
X389861Y138089D01*
X389600Y138100D01*
X383400Y138100D01*
X383139Y138089D01*
X382879Y138054D01*
X382624Y137998D01*
X382374Y137919D01*
X382132Y137819D01*
X381900Y137698D01*
X381679Y137557D01*
X381472Y137398D01*
X381279Y137221D01*
X381102Y137028D01*
X380943Y136821D01*
X380802Y136600D01*
X380681Y136368D01*
X380581Y136126D01*
X380502Y135876D01*
X380446Y135621D01*
X380411Y135361D01*
X380400Y135100D01*
X380411Y134839D01*
X380446Y134579D01*
X380502Y134324D01*
X380581Y134074D01*
X380681Y133832D01*
X380802Y133600D01*
X380943Y133379D01*
X381102Y133172D01*
X381279Y132979D01*
X381472Y132802D01*
X381679Y132643D01*
X381900Y132502D01*
X382132Y132381D01*
X382374Y132281D01*
X382624Y132202D01*
X382879Y132146D01*
X383139Y132111D01*
X383400Y132100D01*
X383400Y45700D02*
X389600Y45700D01*
X389861Y45711D01*
X390121Y45746D01*
X390376Y45802D01*
X390626Y45881D01*
X390868Y45981D01*
X391100Y46102D01*
X391321Y46243D01*
X391528Y46402D01*
X391721Y46579D01*
X391898Y46772D01*
X392057Y46979D01*
X392198Y47200D01*
X392319Y47432D01*
X392419Y47674D01*
X392498Y47924D01*
X392554Y48179D01*
X392589Y48439D01*
X392600Y48700D01*
X392589Y48961D01*
X392554Y49221D01*
X392498Y49476D01*
X392419Y49726D01*
X392319Y49968D01*
X392198Y50200D01*
X392057Y50421D01*
X391898Y50628D01*
X391721Y50821D01*
X391528Y50998D01*
X391321Y51157D01*
X391100Y51298D01*
X390868Y51419D01*
X390626Y51519D01*
X390376Y51598D01*
X390121Y51654D01*
X389861Y51689D01*
X389600Y51700D01*
X383400Y51700D01*
X383139Y51689D01*
X382879Y51654D01*
X382624Y51598D01*
X382374Y51519D01*
X382132Y51419D01*
X381900Y51298D01*
X381679Y51157D01*
X381472Y50998D01*
X381279Y50821D01*
X381102Y50628D01*
X380943Y50421D01*
X380802Y50200D01*
X380681Y49968D01*
X380581Y49726D01*
X380502Y49476D01*
X380446Y49221D01*
X380411Y48961D01*
X380400Y48700D01*
X380411Y48439D01*
X380446Y48179D01*
X380502Y47924D01*
X380581Y47674D01*
X380681Y47432D01*
X380802Y47200D01*
X380943Y46979D01*
X381102Y46772D01*
X381279Y46579D01*
X381472Y46402D01*
X381679Y46243D01*
X381900Y46102D01*
X382132Y45981D01*
X382374Y45881D01*
X382624Y45802D01*
X382879Y45746D01*
X383139Y45711D01*
X383400Y45700D01*
X339250Y45700D02*
X350250Y45700D01*
X350511Y45711D01*
X350771Y45746D01*
X351026Y45802D01*
X351276Y45881D01*
X351518Y45981D01*
X351750Y46102D01*
X351971Y46243D01*
X352178Y46402D01*
X352371Y46579D01*
X352548Y46772D01*
X352707Y46979D01*
X352848Y47200D01*
X352969Y47432D01*
X353069Y47674D01*
X353148Y47924D01*
X353204Y48179D01*
X353239Y48439D01*
X353250Y48700D01*
X353239Y48961D01*
X353204Y49221D01*
X353148Y49476D01*
X353069Y49726D01*
X352969Y49968D01*
X352848Y50200D01*
X352707Y50421D01*
X352548Y50628D01*
X352371Y50821D01*
X352178Y50998D01*
X351971Y51157D01*
X351750Y51298D01*
X351518Y51419D01*
X351276Y51519D01*
X351026Y51598D01*
X350771Y51654D01*
X350511Y51689D01*
X350250Y51700D01*
X339250Y51700D01*
X338989Y51689D01*
X338729Y51654D01*
X338474Y51598D01*
X338224Y51519D01*
X337982Y51419D01*
X337750Y51298D01*
X337529Y51157D01*
X337322Y50998D01*
X337129Y50821D01*
X336952Y50628D01*
X336793Y50421D01*
X336652Y50200D01*
X336531Y49968D01*
X336431Y49726D01*
X336352Y49476D01*
X336296Y49221D01*
X336261Y48961D01*
X336250Y48700D01*
X336261Y48439D01*
X336296Y48179D01*
X336352Y47924D01*
X336431Y47674D01*
X336531Y47432D01*
X336652Y47200D01*
X336793Y46979D01*
X336952Y46772D01*
X337129Y46579D01*
X337322Y46402D01*
X337529Y46243D01*
X337750Y46102D01*
X337982Y45981D01*
X338224Y45881D01*
X338474Y45802D01*
X338729Y45746D01*
X338989Y45711D01*
X339250Y45700D01*
X32500Y329509D02*
X32423Y328530D01*
X32269Y327560D01*
X32040Y326604D01*
X31736Y325670D01*
X31361Y324763D01*
X30915Y323888D01*
X30401Y323050D01*
X29824Y322255D01*
X29186Y321508D01*
X28492Y320814D01*
X27745Y320176D01*
X26950Y319599D01*
X26112Y319085D01*
X25237Y318639D01*
X24330Y318264D01*
X23396Y317960D01*
X22441Y317731D01*
X21470Y317577D01*
X20491Y317500D01*
X19509Y317500D01*
X18530Y317577D01*
X17560Y317731D01*
X16604Y317960D01*
X15670Y318264D01*
X14763Y318639D01*
X13888Y319085D01*
X13050Y319599D01*
X12255Y320176D01*
X11508Y320814D01*
X10814Y321508D01*
X10176Y322255D01*
X9599Y323050D01*
X9085Y323888D01*
X8639Y324763D01*
X8264Y325670D01*
X7960Y326604D01*
X7731Y327560D01*
X7577Y328530D01*
X7500Y329509D01*
X7500Y330491D01*
X7577Y331470D01*
X7731Y332441D01*
X7960Y333396D01*
X8264Y334330D01*
X8639Y335237D01*
X9085Y336112D01*
X9599Y336950D01*
X10176Y337745D01*
X10814Y338492D01*
X11508Y339186D01*
X12255Y339824D01*
X13050Y340401D01*
X13888Y340915D01*
X14763Y341361D01*
X15670Y341736D01*
X16604Y342040D01*
X17560Y342269D01*
X18530Y342423D01*
X19509Y342500D01*
X20491Y342500D01*
X21470Y342423D01*
X22441Y342269D01*
X23396Y342040D01*
X24330Y341736D01*
X25237Y341361D01*
X26112Y340915D01*
X26950Y340401D01*
X27745Y339824D01*
X28492Y339186D01*
X29186Y338492D01*
X29824Y337745D01*
X30401Y336950D01*
X30915Y336112D01*
X31361Y335237D01*
X31736Y334330D01*
X32040Y333396D01*
X32269Y332441D01*
X32423Y331470D01*
X32500Y330491D01*
X32500Y329509D01*
X392500Y19509D02*
X392423Y18530D01*
X392269Y17560D01*
X392040Y16604D01*
X391736Y15670D01*
X391361Y14763D01*
X390915Y13888D01*
X390401Y13050D01*
X389824Y12255D01*
X389186Y11508D01*
X388492Y10814D01*
X387745Y10176D01*
X386950Y9599D01*
X386112Y9085D01*
X385237Y8639D01*
X384330Y8264D01*
X383396Y7960D01*
X382441Y7731D01*
X381470Y7577D01*
X380491Y7500D01*
X379509Y7500D01*
X378530Y7577D01*
X377560Y7731D01*
X376604Y7960D01*
X375670Y8264D01*
X374763Y8639D01*
X373888Y9085D01*
X373050Y9599D01*
X372255Y10176D01*
X371508Y10814D01*
X370814Y11508D01*
X370176Y12255D01*
X369599Y13050D01*
X369085Y13888D01*
X368639Y14763D01*
X368264Y15670D01*
X367960Y16604D01*
X367731Y17560D01*
X367577Y18530D01*
X367500Y19509D01*
X367500Y20491D01*
X367577Y21470D01*
X367731Y22441D01*
X367960Y23396D01*
X368264Y24330D01*
X368639Y25237D01*
X369085Y26112D01*
X369599Y26950D01*
X370176Y27745D01*
X370814Y28492D01*
X371508Y29186D01*
X372255Y29824D01*
X373050Y30401D01*
X373888Y30915D01*
X374763Y31361D01*
X375670Y31736D01*
X376604Y32040D01*
X377560Y32269D01*
X378530Y32423D01*
X379509Y32500D01*
X380491Y32500D01*
X381470Y32423D01*
X382441Y32269D01*
X383396Y32040D01*
X384330Y31736D01*
X385237Y31361D01*
X386112Y30915D01*
X386950Y30401D01*
X387745Y29824D01*
X388492Y29186D01*
X389186Y28492D01*
X389824Y27745D01*
X390401Y26950D01*
X390915Y26112D01*
X391361Y25237D01*
X391736Y24330D01*
X392040Y23396D01*
X392269Y22441D01*
X392423Y21470D01*
X392500Y20491D01*
X392500Y19509D01*
X350263Y66250D02*
X350685Y66194D01*
X351097Y66084D01*
X351491Y65921D01*
X351859Y65708D01*
X352197Y65449D01*
X352499Y65147D01*
X352758Y64809D01*
X352971Y64441D01*
X353134Y64047D01*
X353244Y63635D01*
X353300Y63213D01*
X353300Y62787D01*
X353244Y62365D01*
X353134Y61953D01*
X352971Y61559D01*
X352758Y61191D01*
X352499Y60853D01*
X352197Y60551D01*
X351859Y60292D01*
X351491Y60079D01*
X351097Y59916D01*
X350685Y59806D01*
X350263Y59750D01*
X349837Y59750D01*
X349415Y59806D01*
X349003Y59916D01*
X348609Y60079D01*
X348241Y60292D01*
X347903Y60551D01*
X347601Y60853D01*
X347342Y61191D01*
X347129Y61559D01*
X346966Y61953D01*
X346856Y62365D01*
X346800Y62787D01*
X346800Y63213D01*
X346856Y63635D01*
X346966Y64047D01*
X347129Y64441D01*
X347342Y64809D01*
X347601Y65147D01*
X347903Y65449D01*
X348241Y65708D01*
X348609Y65921D01*
X349003Y66084D01*
X349415Y66194D01*
X349837Y66250D01*
X350263Y66250D01*
X350263Y124050D02*
X350685Y123994D01*
X351097Y123884D01*
X351491Y123721D01*
X351859Y123508D01*
X352197Y123249D01*
X352499Y122947D01*
X352758Y122609D01*
X352971Y122241D01*
X353134Y121847D01*
X353244Y121435D01*
X353300Y121013D01*
X353300Y120587D01*
X353244Y120165D01*
X353134Y119753D01*
X352971Y119359D01*
X352758Y118991D01*
X352499Y118653D01*
X352197Y118351D01*
X351859Y118092D01*
X351491Y117879D01*
X351097Y117716D01*
X350685Y117606D01*
X350263Y117550D01*
X349837Y117550D01*
X349415Y117606D01*
X349003Y117716D01*
X348609Y117879D01*
X348241Y118092D01*
X347903Y118351D01*
X347601Y118653D01*
X347342Y118991D01*
X347129Y119359D01*
X346966Y119753D01*
X346856Y120165D01*
X346800Y120587D01*
X346800Y121013D01*
X346856Y121435D01*
X346966Y121847D01*
X347129Y122241D01*
X347342Y122609D01*
X347601Y122947D01*
X347903Y123249D01*
X348241Y123508D01*
X348609Y123721D01*
X349003Y123884D01*
X349415Y123994D01*
X349837Y124050D01*
X350263Y124050D01*
M02*
