M48
;GenerationSoftware,Autodesk,EAGLE,9.6.2*%
;CreationDate,2023-01-25T23:12:24Z*%
FMAT,2
ICI,OFF
METRIC,TZ,000.000
T6C0.300
T5C0.305
T4C0.650
T3C1.000
T2C1.100
T1C2.500
%
G90
M71
T1
X2000Y33000
X38000Y2000
T2
X8284Y3175
X5744Y3175
X10824Y3175
X13364Y3175
X15904Y3175
X18444Y3175
X20984Y3175
X23524Y3175
X26064Y3175
X28604Y3175
T3
X38659Y21387
X1291Y9288
X1291Y6748
X38684Y24511
X38684Y27051
X38659Y18847
T4
X35005Y6300
X35005Y12080
T5
X3937Y29693
X8712Y31598
X9779Y31826
X9779Y32842
X10389Y33604
X12116Y33503
X13437Y33655
X14503Y33807
X14402Y32233
X10820Y32741
X11252Y33884
X13310Y32537
X15240Y31699
X19050Y31623
X20015Y31674
X21031Y32055
X22149Y32029
X22504Y28727
X22606Y27737
X20422Y26289
X20472Y27000
X20422Y27940
X20371Y29413
X19787Y29820
X18720Y29794
X20777Y24003
X22123Y34214
X22174Y33274
X36957Y33934
X37186Y32512
X36906Y30963
X38684Y31496
X38456Y33223
X37770Y30404
X25756Y20091
X34417Y26264
X12090Y32385
X28600Y20091
X31318Y20193
X34544Y17424
X26873Y16510
X13005Y11633
X7112Y1981
X9677Y2083
X14808Y2083
X28219Y5283
X30785Y4775
X2108Y2159
X25832Y7899
X27229Y8280
X16434Y10465
X21768Y16434
X25375Y26721
X1930Y19075
X25419Y22047
X33680Y19634
X32080Y6528
X3226Y7671
X21895Y24384
X36322Y23647
X22479Y18136
X36932Y24206
X22479Y18999
X30429Y19736
X23114Y6528
X20345Y7214
X22123Y6579
X19533Y7214
X7315Y7341
X2388Y24079
X23393Y10287
X2921Y31369
X3912Y31344
X4902Y31394
X30404Y27178
X5791Y31521
X1118Y31090
X584Y29947
X584Y29007
X559Y27991
X584Y26975
X584Y25959
X813Y25019
X1448Y24282
X2591Y26441
X2692Y27407
X2642Y28626
X3073Y29489
X34417Y23292
T6
X32258Y17043
X32106Y15418
X32029Y17983
M30