G04 EAGLE Gerber RS-274X export*
G75*
%MOMM*%
%FSLAX34Y34*%
%LPD*%
%INSilkscreen Top*%
%IPPOS*%
%AMOC8*
5,1,8,0,0,1.08239X$1,22.5*%
G01*
%ADD10C,0.076200*%
%ADD11C,0.050800*%
%ADD12C,0.127000*%
%ADD13C,0.500000*%
%ADD14C,0.025400*%
%ADD15C,0.200000*%
%ADD16C,0.152400*%
%ADD17C,0.101600*%
%ADD18C,0.203200*%
%ADD19C,0.254000*%


D10*
X372928Y268351D02*
X372928Y273262D01*
X370473Y270806D02*
X375384Y270806D01*
X373182Y215858D02*
X373182Y210947D01*
X370727Y213402D02*
X375638Y213402D01*
X28392Y68199D02*
X28392Y63288D01*
X30847Y65744D02*
X25936Y65744D01*
X28095Y91793D02*
X28095Y93020D01*
X28095Y91793D02*
X24003Y91793D01*
X24003Y94248D01*
X24005Y94326D01*
X24010Y94404D01*
X24020Y94481D01*
X24033Y94558D01*
X24049Y94634D01*
X24069Y94709D01*
X24093Y94783D01*
X24120Y94856D01*
X24151Y94928D01*
X24185Y94998D01*
X24222Y95067D01*
X24263Y95133D01*
X24307Y95198D01*
X24353Y95260D01*
X24403Y95320D01*
X24455Y95378D01*
X24510Y95433D01*
X24568Y95485D01*
X24628Y95535D01*
X24690Y95581D01*
X24755Y95625D01*
X24822Y95666D01*
X24890Y95703D01*
X24960Y95737D01*
X25032Y95768D01*
X25105Y95795D01*
X25179Y95819D01*
X25254Y95839D01*
X25330Y95855D01*
X25407Y95868D01*
X25484Y95878D01*
X25562Y95883D01*
X25640Y95885D01*
X29732Y95885D01*
X29810Y95883D01*
X29888Y95878D01*
X29965Y95868D01*
X30042Y95855D01*
X30118Y95839D01*
X30193Y95819D01*
X30267Y95795D01*
X30340Y95768D01*
X30412Y95737D01*
X30482Y95703D01*
X30551Y95666D01*
X30617Y95625D01*
X30682Y95581D01*
X30744Y95535D01*
X30804Y95485D01*
X30862Y95433D01*
X30917Y95378D01*
X30969Y95320D01*
X31019Y95260D01*
X31065Y95198D01*
X31109Y95133D01*
X31150Y95067D01*
X31187Y94998D01*
X31221Y94928D01*
X31252Y94856D01*
X31279Y94783D01*
X31303Y94709D01*
X31323Y94634D01*
X31339Y94558D01*
X31352Y94481D01*
X31362Y94404D01*
X31367Y94326D01*
X31369Y94248D01*
X31369Y91793D01*
X371955Y245054D02*
X371955Y246281D01*
X376047Y246281D01*
X376047Y243826D01*
X376045Y243748D01*
X376040Y243670D01*
X376030Y243593D01*
X376017Y243516D01*
X376001Y243440D01*
X375981Y243365D01*
X375957Y243291D01*
X375930Y243218D01*
X375899Y243146D01*
X375865Y243076D01*
X375828Y243008D01*
X375787Y242941D01*
X375743Y242876D01*
X375697Y242814D01*
X375647Y242754D01*
X375595Y242696D01*
X375540Y242641D01*
X375482Y242589D01*
X375422Y242539D01*
X375360Y242493D01*
X375295Y242449D01*
X375229Y242408D01*
X375160Y242371D01*
X375090Y242337D01*
X375018Y242306D01*
X374945Y242279D01*
X374871Y242255D01*
X374796Y242235D01*
X374720Y242219D01*
X374643Y242206D01*
X374566Y242196D01*
X374488Y242191D01*
X374410Y242189D01*
X370318Y242189D01*
X370238Y242191D01*
X370158Y242197D01*
X370078Y242207D01*
X369999Y242220D01*
X369920Y242238D01*
X369843Y242259D01*
X369767Y242285D01*
X369692Y242314D01*
X369618Y242346D01*
X369546Y242382D01*
X369476Y242422D01*
X369409Y242465D01*
X369343Y242511D01*
X369280Y242561D01*
X369219Y242613D01*
X369160Y242668D01*
X369105Y242727D01*
X369053Y242787D01*
X369003Y242851D01*
X368957Y242916D01*
X368914Y242984D01*
X368874Y243054D01*
X368838Y243126D01*
X368806Y243200D01*
X368777Y243274D01*
X368752Y243351D01*
X368730Y243428D01*
X368712Y243507D01*
X368699Y243586D01*
X368689Y243665D01*
X368683Y243746D01*
X368681Y243826D01*
X368681Y246281D01*
X371955Y190401D02*
X371955Y189174D01*
X371955Y190401D02*
X376047Y190401D01*
X376047Y187946D01*
X376045Y187868D01*
X376040Y187790D01*
X376030Y187713D01*
X376017Y187636D01*
X376001Y187560D01*
X375981Y187485D01*
X375957Y187411D01*
X375930Y187338D01*
X375899Y187266D01*
X375865Y187196D01*
X375828Y187128D01*
X375787Y187061D01*
X375743Y186996D01*
X375697Y186934D01*
X375647Y186874D01*
X375595Y186816D01*
X375540Y186761D01*
X375482Y186709D01*
X375422Y186659D01*
X375360Y186613D01*
X375295Y186569D01*
X375229Y186528D01*
X375160Y186491D01*
X375090Y186457D01*
X375018Y186426D01*
X374945Y186399D01*
X374871Y186375D01*
X374796Y186355D01*
X374720Y186339D01*
X374643Y186326D01*
X374566Y186316D01*
X374488Y186311D01*
X374410Y186309D01*
X370318Y186309D01*
X370238Y186311D01*
X370158Y186317D01*
X370078Y186327D01*
X369999Y186340D01*
X369920Y186358D01*
X369843Y186379D01*
X369767Y186405D01*
X369692Y186434D01*
X369618Y186466D01*
X369546Y186502D01*
X369476Y186542D01*
X369409Y186585D01*
X369343Y186631D01*
X369280Y186681D01*
X369219Y186733D01*
X369160Y186788D01*
X369105Y186847D01*
X369053Y186907D01*
X369003Y186971D01*
X368957Y187036D01*
X368914Y187104D01*
X368874Y187174D01*
X368838Y187246D01*
X368806Y187320D01*
X368777Y187394D01*
X368752Y187471D01*
X368730Y187548D01*
X368712Y187627D01*
X368699Y187706D01*
X368689Y187785D01*
X368683Y187866D01*
X368681Y187946D01*
X368681Y190401D01*
D11*
X278384Y75438D02*
X280585Y68834D01*
X282787Y75438D01*
X285706Y75438D02*
X285706Y68834D01*
X284972Y68834D02*
X286440Y68834D01*
X286440Y75438D02*
X284972Y75438D01*
X289206Y75438D02*
X289206Y68834D01*
X292874Y68834D02*
X289206Y75438D01*
X292874Y75438D02*
X292874Y68834D01*
X261479Y72503D02*
X260378Y72503D01*
X261479Y72503D02*
X261479Y68834D01*
X259278Y68834D01*
X259204Y68836D01*
X259129Y68842D01*
X259056Y68851D01*
X258982Y68864D01*
X258910Y68881D01*
X258839Y68901D01*
X258768Y68925D01*
X258699Y68953D01*
X258632Y68984D01*
X258566Y69018D01*
X258501Y69056D01*
X258439Y69097D01*
X258379Y69141D01*
X258322Y69188D01*
X258267Y69238D01*
X258214Y69291D01*
X258164Y69346D01*
X258117Y69403D01*
X258073Y69463D01*
X258032Y69525D01*
X257994Y69590D01*
X257960Y69656D01*
X257929Y69723D01*
X257901Y69792D01*
X257877Y69863D01*
X257857Y69934D01*
X257840Y70006D01*
X257827Y70080D01*
X257818Y70153D01*
X257812Y70228D01*
X257810Y70302D01*
X257810Y73970D01*
X257812Y74044D01*
X257818Y74119D01*
X257827Y74192D01*
X257840Y74266D01*
X257857Y74338D01*
X257877Y74409D01*
X257901Y74480D01*
X257929Y74549D01*
X257960Y74616D01*
X257994Y74682D01*
X258032Y74747D01*
X258073Y74809D01*
X258117Y74869D01*
X258164Y74926D01*
X258214Y74981D01*
X258267Y75034D01*
X258322Y75084D01*
X258379Y75131D01*
X258439Y75175D01*
X258501Y75216D01*
X258566Y75254D01*
X258631Y75288D01*
X258699Y75319D01*
X258768Y75347D01*
X258839Y75371D01*
X258910Y75391D01*
X258982Y75408D01*
X259056Y75421D01*
X259129Y75430D01*
X259204Y75436D01*
X259278Y75438D01*
X261479Y75438D01*
X226568Y72644D02*
X226568Y66040D01*
X226568Y72644D02*
X228402Y72644D01*
X228487Y72642D01*
X228571Y72636D01*
X228655Y72626D01*
X228739Y72613D01*
X228822Y72595D01*
X228904Y72574D01*
X228985Y72549D01*
X229065Y72520D01*
X229143Y72488D01*
X229219Y72452D01*
X229294Y72412D01*
X229367Y72369D01*
X229438Y72323D01*
X229507Y72274D01*
X229574Y72221D01*
X229638Y72165D01*
X229699Y72107D01*
X229757Y72046D01*
X229813Y71982D01*
X229866Y71915D01*
X229915Y71846D01*
X229961Y71775D01*
X230004Y71702D01*
X230044Y71627D01*
X230080Y71551D01*
X230112Y71473D01*
X230141Y71393D01*
X230166Y71312D01*
X230187Y71230D01*
X230205Y71147D01*
X230218Y71063D01*
X230228Y70979D01*
X230234Y70895D01*
X230236Y70810D01*
X230234Y70725D01*
X230228Y70641D01*
X230218Y70557D01*
X230205Y70473D01*
X230187Y70390D01*
X230166Y70308D01*
X230141Y70227D01*
X230112Y70147D01*
X230080Y70069D01*
X230044Y69993D01*
X230004Y69918D01*
X229961Y69845D01*
X229915Y69774D01*
X229866Y69705D01*
X229813Y69638D01*
X229757Y69574D01*
X229699Y69513D01*
X229638Y69455D01*
X229574Y69399D01*
X229507Y69346D01*
X229438Y69297D01*
X229367Y69251D01*
X229294Y69208D01*
X229219Y69168D01*
X229143Y69132D01*
X229065Y69100D01*
X228985Y69071D01*
X228904Y69046D01*
X228822Y69025D01*
X228739Y69007D01*
X228655Y68994D01*
X228571Y68984D01*
X228487Y68978D01*
X228402Y68976D01*
X228402Y68975D02*
X226568Y68975D01*
X232969Y66040D02*
X232969Y72644D01*
X234803Y72644D01*
X234888Y72642D01*
X234972Y72636D01*
X235056Y72626D01*
X235140Y72613D01*
X235223Y72595D01*
X235305Y72574D01*
X235386Y72549D01*
X235466Y72520D01*
X235544Y72488D01*
X235620Y72452D01*
X235695Y72412D01*
X235768Y72369D01*
X235839Y72323D01*
X235908Y72274D01*
X235975Y72221D01*
X236039Y72165D01*
X236100Y72107D01*
X236158Y72046D01*
X236214Y71982D01*
X236267Y71915D01*
X236316Y71846D01*
X236362Y71775D01*
X236405Y71702D01*
X236445Y71627D01*
X236481Y71551D01*
X236513Y71473D01*
X236542Y71393D01*
X236567Y71312D01*
X236588Y71230D01*
X236606Y71147D01*
X236619Y71063D01*
X236629Y70979D01*
X236635Y70895D01*
X236637Y70810D01*
X236635Y70725D01*
X236629Y70641D01*
X236619Y70557D01*
X236606Y70473D01*
X236588Y70390D01*
X236567Y70308D01*
X236542Y70227D01*
X236513Y70147D01*
X236481Y70069D01*
X236445Y69993D01*
X236405Y69918D01*
X236362Y69845D01*
X236316Y69774D01*
X236267Y69705D01*
X236214Y69638D01*
X236158Y69574D01*
X236100Y69513D01*
X236039Y69455D01*
X235975Y69399D01*
X235908Y69346D01*
X235839Y69297D01*
X235768Y69251D01*
X235695Y69208D01*
X235620Y69168D01*
X235544Y69132D01*
X235466Y69100D01*
X235386Y69071D01*
X235305Y69046D01*
X235223Y69025D01*
X235140Y69007D01*
X235056Y68994D01*
X234972Y68984D01*
X234888Y68978D01*
X234803Y68976D01*
X234803Y68975D02*
X232969Y68975D01*
X241054Y66040D02*
X241128Y66042D01*
X241202Y66048D01*
X241276Y66057D01*
X241349Y66070D01*
X241422Y66087D01*
X241493Y66107D01*
X241564Y66131D01*
X241633Y66159D01*
X241700Y66190D01*
X241766Y66224D01*
X241831Y66262D01*
X241893Y66303D01*
X241953Y66347D01*
X242010Y66394D01*
X242065Y66444D01*
X242118Y66497D01*
X242168Y66552D01*
X242215Y66609D01*
X242259Y66669D01*
X242300Y66731D01*
X242338Y66796D01*
X242372Y66861D01*
X242403Y66929D01*
X242431Y66998D01*
X242455Y67069D01*
X242475Y67140D01*
X242492Y67212D01*
X242505Y67286D01*
X242514Y67359D01*
X242520Y67434D01*
X242522Y67508D01*
X241054Y66040D02*
X240943Y66042D01*
X240832Y66048D01*
X240721Y66058D01*
X240610Y66072D01*
X240501Y66090D01*
X240392Y66112D01*
X240283Y66137D01*
X240176Y66167D01*
X240070Y66200D01*
X239965Y66238D01*
X239862Y66278D01*
X239760Y66323D01*
X239660Y66371D01*
X239561Y66423D01*
X239465Y66478D01*
X239370Y66537D01*
X239278Y66599D01*
X239188Y66665D01*
X239100Y66733D01*
X239015Y66805D01*
X238933Y66880D01*
X238853Y66957D01*
X239036Y71176D02*
X239038Y71250D01*
X239044Y71325D01*
X239053Y71398D01*
X239066Y71472D01*
X239083Y71544D01*
X239103Y71615D01*
X239127Y71686D01*
X239155Y71755D01*
X239186Y71822D01*
X239220Y71888D01*
X239258Y71953D01*
X239299Y72015D01*
X239343Y72075D01*
X239390Y72132D01*
X239440Y72187D01*
X239493Y72240D01*
X239548Y72290D01*
X239605Y72337D01*
X239665Y72381D01*
X239727Y72422D01*
X239792Y72460D01*
X239858Y72494D01*
X239925Y72525D01*
X239994Y72553D01*
X240065Y72577D01*
X240136Y72597D01*
X240208Y72614D01*
X240282Y72627D01*
X240355Y72636D01*
X240430Y72642D01*
X240504Y72644D01*
X240608Y72642D01*
X240712Y72636D01*
X240816Y72626D01*
X240919Y72613D01*
X241022Y72595D01*
X241124Y72573D01*
X241225Y72548D01*
X241325Y72519D01*
X241424Y72486D01*
X241521Y72449D01*
X241617Y72409D01*
X241712Y72365D01*
X241804Y72317D01*
X241895Y72267D01*
X241984Y72212D01*
X242071Y72155D01*
X242155Y72094D01*
X239770Y69891D02*
X239707Y69930D01*
X239647Y69972D01*
X239589Y70017D01*
X239532Y70065D01*
X239479Y70116D01*
X239428Y70169D01*
X239379Y70224D01*
X239334Y70282D01*
X239291Y70342D01*
X239251Y70404D01*
X239215Y70468D01*
X239181Y70534D01*
X239151Y70602D01*
X239124Y70670D01*
X239101Y70740D01*
X239081Y70811D01*
X239065Y70883D01*
X239052Y70956D01*
X239043Y71029D01*
X239038Y71102D01*
X239036Y71176D01*
X241788Y68793D02*
X241851Y68754D01*
X241911Y68712D01*
X241970Y68667D01*
X242026Y68619D01*
X242079Y68568D01*
X242130Y68515D01*
X242179Y68460D01*
X242224Y68402D01*
X242267Y68342D01*
X242307Y68280D01*
X242343Y68216D01*
X242377Y68150D01*
X242407Y68082D01*
X242434Y68014D01*
X242457Y67944D01*
X242477Y67873D01*
X242493Y67801D01*
X242506Y67728D01*
X242515Y67655D01*
X242520Y67582D01*
X242522Y67508D01*
X241788Y68792D02*
X239770Y69892D01*
X213219Y69709D02*
X212118Y69709D01*
X213219Y69709D02*
X213219Y66040D01*
X211018Y66040D01*
X210944Y66042D01*
X210869Y66048D01*
X210796Y66057D01*
X210722Y66070D01*
X210650Y66087D01*
X210579Y66107D01*
X210508Y66131D01*
X210439Y66159D01*
X210372Y66190D01*
X210306Y66224D01*
X210241Y66262D01*
X210179Y66303D01*
X210119Y66347D01*
X210062Y66394D01*
X210007Y66444D01*
X209954Y66497D01*
X209904Y66552D01*
X209857Y66609D01*
X209813Y66669D01*
X209772Y66731D01*
X209734Y66796D01*
X209700Y66862D01*
X209669Y66929D01*
X209641Y66998D01*
X209617Y67069D01*
X209597Y67140D01*
X209580Y67212D01*
X209567Y67286D01*
X209558Y67359D01*
X209552Y67434D01*
X209550Y67508D01*
X209550Y71176D01*
X209552Y71250D01*
X209558Y71325D01*
X209567Y71398D01*
X209580Y71472D01*
X209597Y71544D01*
X209617Y71615D01*
X209641Y71686D01*
X209669Y71755D01*
X209700Y71822D01*
X209734Y71888D01*
X209772Y71953D01*
X209813Y72015D01*
X209857Y72075D01*
X209904Y72132D01*
X209954Y72187D01*
X210007Y72240D01*
X210062Y72290D01*
X210119Y72337D01*
X210179Y72381D01*
X210241Y72422D01*
X210306Y72460D01*
X210371Y72494D01*
X210439Y72525D01*
X210508Y72553D01*
X210579Y72577D01*
X210650Y72597D01*
X210722Y72614D01*
X210796Y72627D01*
X210869Y72636D01*
X210944Y72642D01*
X211018Y72644D01*
X213219Y72644D01*
X177151Y70302D02*
X177149Y70228D01*
X177143Y70153D01*
X177134Y70080D01*
X177121Y70006D01*
X177104Y69934D01*
X177084Y69863D01*
X177060Y69792D01*
X177032Y69723D01*
X177001Y69655D01*
X176967Y69590D01*
X176929Y69525D01*
X176888Y69463D01*
X176844Y69403D01*
X176797Y69346D01*
X176747Y69291D01*
X176694Y69238D01*
X176639Y69188D01*
X176582Y69141D01*
X176522Y69097D01*
X176460Y69056D01*
X176395Y69018D01*
X176329Y68984D01*
X176262Y68953D01*
X176193Y68925D01*
X176122Y68901D01*
X176051Y68881D01*
X175978Y68864D01*
X175905Y68851D01*
X175831Y68842D01*
X175757Y68836D01*
X175683Y68834D01*
X175572Y68836D01*
X175461Y68842D01*
X175350Y68852D01*
X175239Y68866D01*
X175130Y68884D01*
X175021Y68906D01*
X174912Y68931D01*
X174805Y68961D01*
X174699Y68994D01*
X174594Y69032D01*
X174491Y69072D01*
X174389Y69117D01*
X174289Y69165D01*
X174190Y69217D01*
X174094Y69272D01*
X173999Y69331D01*
X173907Y69393D01*
X173817Y69459D01*
X173729Y69527D01*
X173644Y69599D01*
X173562Y69674D01*
X173482Y69751D01*
X173665Y73970D02*
X173667Y74044D01*
X173673Y74119D01*
X173682Y74192D01*
X173695Y74266D01*
X173712Y74338D01*
X173732Y74409D01*
X173756Y74480D01*
X173784Y74549D01*
X173815Y74616D01*
X173849Y74682D01*
X173887Y74747D01*
X173928Y74809D01*
X173972Y74869D01*
X174019Y74926D01*
X174069Y74981D01*
X174122Y75034D01*
X174177Y75084D01*
X174234Y75131D01*
X174294Y75175D01*
X174356Y75216D01*
X174421Y75254D01*
X174487Y75288D01*
X174554Y75319D01*
X174623Y75347D01*
X174694Y75371D01*
X174765Y75391D01*
X174837Y75408D01*
X174911Y75421D01*
X174984Y75430D01*
X175059Y75436D01*
X175133Y75438D01*
X175237Y75436D01*
X175341Y75430D01*
X175445Y75420D01*
X175548Y75407D01*
X175651Y75389D01*
X175753Y75367D01*
X175854Y75342D01*
X175954Y75313D01*
X176053Y75280D01*
X176150Y75243D01*
X176246Y75203D01*
X176341Y75159D01*
X176433Y75111D01*
X176524Y75061D01*
X176613Y75006D01*
X176700Y74949D01*
X176784Y74888D01*
X174399Y72685D02*
X174336Y72724D01*
X174276Y72766D01*
X174218Y72811D01*
X174161Y72859D01*
X174108Y72910D01*
X174057Y72963D01*
X174008Y73018D01*
X173963Y73076D01*
X173920Y73136D01*
X173880Y73198D01*
X173844Y73262D01*
X173810Y73328D01*
X173780Y73396D01*
X173753Y73464D01*
X173730Y73534D01*
X173710Y73605D01*
X173694Y73677D01*
X173681Y73750D01*
X173672Y73823D01*
X173667Y73896D01*
X173665Y73970D01*
X176417Y71587D02*
X176480Y71548D01*
X176540Y71506D01*
X176599Y71461D01*
X176655Y71413D01*
X176708Y71362D01*
X176759Y71309D01*
X176808Y71254D01*
X176853Y71196D01*
X176896Y71136D01*
X176936Y71074D01*
X176972Y71010D01*
X177006Y70944D01*
X177036Y70876D01*
X177063Y70808D01*
X177086Y70738D01*
X177106Y70667D01*
X177122Y70595D01*
X177135Y70522D01*
X177144Y70449D01*
X177149Y70376D01*
X177151Y70302D01*
X176417Y71586D02*
X174399Y72686D01*
X181687Y75438D02*
X181766Y75436D01*
X181844Y75431D01*
X181922Y75421D01*
X181999Y75408D01*
X182076Y75391D01*
X182152Y75371D01*
X182227Y75347D01*
X182301Y75320D01*
X182373Y75289D01*
X182444Y75254D01*
X182513Y75217D01*
X182580Y75176D01*
X182645Y75132D01*
X182708Y75085D01*
X182768Y75035D01*
X182826Y74982D01*
X182882Y74926D01*
X182935Y74868D01*
X182985Y74808D01*
X183032Y74745D01*
X183076Y74680D01*
X183117Y74613D01*
X183154Y74544D01*
X183189Y74473D01*
X183220Y74401D01*
X183247Y74327D01*
X183271Y74252D01*
X183291Y74176D01*
X183308Y74099D01*
X183321Y74022D01*
X183331Y73944D01*
X183336Y73866D01*
X183338Y73787D01*
X181687Y75438D02*
X181598Y75436D01*
X181509Y75431D01*
X181421Y75421D01*
X181333Y75408D01*
X181246Y75392D01*
X181159Y75371D01*
X181074Y75347D01*
X180989Y75320D01*
X180906Y75289D01*
X180824Y75254D01*
X180743Y75216D01*
X180664Y75175D01*
X180588Y75131D01*
X180512Y75083D01*
X180439Y75032D01*
X180369Y74979D01*
X180300Y74922D01*
X180234Y74862D01*
X180171Y74800D01*
X180110Y74735D01*
X180052Y74668D01*
X179997Y74598D01*
X179944Y74526D01*
X179895Y74452D01*
X179849Y74376D01*
X179807Y74298D01*
X179767Y74218D01*
X179731Y74137D01*
X179698Y74054D01*
X179669Y73970D01*
X182788Y72503D02*
X182844Y72559D01*
X182898Y72618D01*
X182949Y72679D01*
X182998Y72743D01*
X183043Y72808D01*
X183086Y72876D01*
X183125Y72945D01*
X183162Y73016D01*
X183195Y73089D01*
X183224Y73163D01*
X183251Y73238D01*
X183274Y73314D01*
X183293Y73392D01*
X183309Y73470D01*
X183322Y73548D01*
X183331Y73628D01*
X183336Y73707D01*
X183338Y73787D01*
X182788Y72503D02*
X179669Y68834D01*
X183338Y68834D01*
X186323Y68834D02*
X186323Y75438D01*
X188157Y75438D01*
X188242Y75436D01*
X188326Y75430D01*
X188410Y75420D01*
X188494Y75407D01*
X188577Y75389D01*
X188659Y75368D01*
X188740Y75343D01*
X188820Y75314D01*
X188898Y75282D01*
X188974Y75246D01*
X189049Y75206D01*
X189122Y75163D01*
X189193Y75117D01*
X189262Y75068D01*
X189329Y75015D01*
X189393Y74959D01*
X189454Y74901D01*
X189512Y74840D01*
X189568Y74776D01*
X189621Y74709D01*
X189670Y74640D01*
X189716Y74569D01*
X189759Y74496D01*
X189799Y74421D01*
X189835Y74345D01*
X189867Y74267D01*
X189896Y74187D01*
X189921Y74106D01*
X189942Y74024D01*
X189960Y73941D01*
X189973Y73857D01*
X189983Y73773D01*
X189989Y73689D01*
X189991Y73604D01*
X189989Y73519D01*
X189983Y73435D01*
X189973Y73351D01*
X189960Y73267D01*
X189942Y73184D01*
X189921Y73102D01*
X189896Y73021D01*
X189867Y72941D01*
X189835Y72863D01*
X189799Y72787D01*
X189759Y72712D01*
X189716Y72639D01*
X189670Y72568D01*
X189621Y72499D01*
X189568Y72432D01*
X189512Y72368D01*
X189454Y72307D01*
X189393Y72249D01*
X189329Y72193D01*
X189262Y72140D01*
X189193Y72091D01*
X189122Y72045D01*
X189049Y72002D01*
X188974Y71962D01*
X188898Y71926D01*
X188820Y71894D01*
X188740Y71865D01*
X188659Y71840D01*
X188577Y71819D01*
X188494Y71801D01*
X188410Y71788D01*
X188326Y71778D01*
X188242Y71772D01*
X188157Y71770D01*
X188157Y71769D02*
X186323Y71769D01*
X188524Y71769D02*
X189991Y68834D01*
X192317Y68834D02*
X196720Y75438D01*
X192317Y75438D02*
X196720Y68834D01*
X160387Y72503D02*
X159286Y72503D01*
X160387Y72503D02*
X160387Y68834D01*
X158186Y68834D01*
X158112Y68836D01*
X158037Y68842D01*
X157964Y68851D01*
X157890Y68864D01*
X157818Y68881D01*
X157747Y68901D01*
X157676Y68925D01*
X157607Y68953D01*
X157540Y68984D01*
X157474Y69018D01*
X157409Y69056D01*
X157347Y69097D01*
X157287Y69141D01*
X157230Y69188D01*
X157175Y69238D01*
X157122Y69291D01*
X157072Y69346D01*
X157025Y69403D01*
X156981Y69463D01*
X156940Y69525D01*
X156902Y69590D01*
X156868Y69656D01*
X156837Y69723D01*
X156809Y69792D01*
X156785Y69863D01*
X156765Y69934D01*
X156748Y70006D01*
X156735Y70080D01*
X156726Y70153D01*
X156720Y70228D01*
X156718Y70302D01*
X156718Y73970D01*
X156720Y74044D01*
X156726Y74119D01*
X156735Y74192D01*
X156748Y74266D01*
X156765Y74338D01*
X156785Y74409D01*
X156809Y74480D01*
X156837Y74549D01*
X156868Y74616D01*
X156902Y74682D01*
X156940Y74747D01*
X156981Y74809D01*
X157025Y74869D01*
X157072Y74926D01*
X157122Y74981D01*
X157175Y75034D01*
X157230Y75084D01*
X157287Y75131D01*
X157347Y75175D01*
X157409Y75216D01*
X157474Y75254D01*
X157539Y75288D01*
X157607Y75319D01*
X157676Y75347D01*
X157747Y75371D01*
X157818Y75391D01*
X157890Y75408D01*
X157964Y75421D01*
X158037Y75430D01*
X158112Y75436D01*
X158186Y75438D01*
X160387Y75438D01*
X127621Y70302D02*
X127619Y70228D01*
X127613Y70153D01*
X127604Y70080D01*
X127591Y70006D01*
X127574Y69934D01*
X127554Y69863D01*
X127530Y69792D01*
X127502Y69723D01*
X127471Y69655D01*
X127437Y69590D01*
X127399Y69525D01*
X127358Y69463D01*
X127314Y69403D01*
X127267Y69346D01*
X127217Y69291D01*
X127164Y69238D01*
X127109Y69188D01*
X127052Y69141D01*
X126992Y69097D01*
X126930Y69056D01*
X126865Y69018D01*
X126799Y68984D01*
X126732Y68953D01*
X126663Y68925D01*
X126592Y68901D01*
X126521Y68881D01*
X126448Y68864D01*
X126375Y68851D01*
X126301Y68842D01*
X126227Y68836D01*
X126153Y68834D01*
X126042Y68836D01*
X125931Y68842D01*
X125820Y68852D01*
X125709Y68866D01*
X125600Y68884D01*
X125491Y68906D01*
X125382Y68931D01*
X125275Y68961D01*
X125169Y68994D01*
X125064Y69032D01*
X124961Y69072D01*
X124859Y69117D01*
X124759Y69165D01*
X124660Y69217D01*
X124564Y69272D01*
X124469Y69331D01*
X124377Y69393D01*
X124287Y69459D01*
X124199Y69527D01*
X124114Y69599D01*
X124032Y69674D01*
X123952Y69751D01*
X124135Y73970D02*
X124137Y74044D01*
X124143Y74119D01*
X124152Y74192D01*
X124165Y74266D01*
X124182Y74338D01*
X124202Y74409D01*
X124226Y74480D01*
X124254Y74549D01*
X124285Y74616D01*
X124319Y74682D01*
X124357Y74747D01*
X124398Y74809D01*
X124442Y74869D01*
X124489Y74926D01*
X124539Y74981D01*
X124592Y75034D01*
X124647Y75084D01*
X124704Y75131D01*
X124764Y75175D01*
X124826Y75216D01*
X124891Y75254D01*
X124957Y75288D01*
X125024Y75319D01*
X125093Y75347D01*
X125164Y75371D01*
X125235Y75391D01*
X125307Y75408D01*
X125381Y75421D01*
X125454Y75430D01*
X125529Y75436D01*
X125603Y75438D01*
X125707Y75436D01*
X125811Y75430D01*
X125915Y75420D01*
X126018Y75407D01*
X126121Y75389D01*
X126223Y75367D01*
X126324Y75342D01*
X126424Y75313D01*
X126523Y75280D01*
X126620Y75243D01*
X126716Y75203D01*
X126811Y75159D01*
X126903Y75111D01*
X126994Y75061D01*
X127083Y75006D01*
X127170Y74949D01*
X127254Y74888D01*
X124869Y72685D02*
X124806Y72724D01*
X124746Y72766D01*
X124688Y72811D01*
X124631Y72859D01*
X124578Y72910D01*
X124527Y72963D01*
X124478Y73018D01*
X124433Y73076D01*
X124390Y73136D01*
X124350Y73198D01*
X124314Y73262D01*
X124280Y73328D01*
X124250Y73396D01*
X124223Y73464D01*
X124200Y73534D01*
X124180Y73605D01*
X124164Y73677D01*
X124151Y73750D01*
X124142Y73823D01*
X124137Y73896D01*
X124135Y73970D01*
X126887Y71587D02*
X126950Y71548D01*
X127010Y71506D01*
X127069Y71461D01*
X127125Y71413D01*
X127178Y71362D01*
X127229Y71309D01*
X127278Y71254D01*
X127323Y71196D01*
X127366Y71136D01*
X127406Y71074D01*
X127442Y71010D01*
X127476Y70944D01*
X127506Y70876D01*
X127533Y70808D01*
X127556Y70738D01*
X127576Y70667D01*
X127592Y70595D01*
X127605Y70522D01*
X127614Y70449D01*
X127619Y70376D01*
X127621Y70302D01*
X126887Y71586D02*
X124869Y72686D01*
X132157Y75438D02*
X132236Y75436D01*
X132314Y75431D01*
X132392Y75421D01*
X132469Y75408D01*
X132546Y75391D01*
X132622Y75371D01*
X132697Y75347D01*
X132771Y75320D01*
X132843Y75289D01*
X132914Y75254D01*
X132983Y75217D01*
X133050Y75176D01*
X133115Y75132D01*
X133178Y75085D01*
X133238Y75035D01*
X133296Y74982D01*
X133352Y74926D01*
X133405Y74868D01*
X133455Y74808D01*
X133502Y74745D01*
X133546Y74680D01*
X133587Y74613D01*
X133624Y74544D01*
X133659Y74473D01*
X133690Y74401D01*
X133717Y74327D01*
X133741Y74252D01*
X133761Y74176D01*
X133778Y74099D01*
X133791Y74022D01*
X133801Y73944D01*
X133806Y73866D01*
X133808Y73787D01*
X132157Y75438D02*
X132068Y75436D01*
X131979Y75431D01*
X131891Y75421D01*
X131803Y75408D01*
X131716Y75392D01*
X131629Y75371D01*
X131544Y75347D01*
X131459Y75320D01*
X131376Y75289D01*
X131294Y75254D01*
X131213Y75216D01*
X131134Y75175D01*
X131058Y75131D01*
X130982Y75083D01*
X130909Y75032D01*
X130839Y74979D01*
X130770Y74922D01*
X130704Y74862D01*
X130641Y74800D01*
X130580Y74735D01*
X130522Y74668D01*
X130467Y74598D01*
X130414Y74526D01*
X130365Y74452D01*
X130319Y74376D01*
X130277Y74298D01*
X130237Y74218D01*
X130201Y74137D01*
X130168Y74054D01*
X130139Y73970D01*
X133258Y72503D02*
X133314Y72559D01*
X133368Y72618D01*
X133419Y72679D01*
X133468Y72743D01*
X133513Y72808D01*
X133556Y72876D01*
X133595Y72945D01*
X133632Y73016D01*
X133665Y73089D01*
X133694Y73163D01*
X133721Y73238D01*
X133744Y73314D01*
X133763Y73392D01*
X133779Y73470D01*
X133792Y73548D01*
X133801Y73628D01*
X133806Y73707D01*
X133808Y73787D01*
X133258Y72503D02*
X130139Y68834D01*
X133808Y68834D01*
X137948Y68834D02*
X137948Y75438D01*
X139782Y75438D02*
X136113Y75438D01*
X141721Y68834D02*
X146123Y75438D01*
X141721Y75438D02*
X146123Y68834D01*
X95871Y70302D02*
X95869Y70228D01*
X95863Y70153D01*
X95854Y70080D01*
X95841Y70006D01*
X95824Y69934D01*
X95804Y69863D01*
X95780Y69792D01*
X95752Y69723D01*
X95721Y69655D01*
X95687Y69590D01*
X95649Y69525D01*
X95608Y69463D01*
X95564Y69403D01*
X95517Y69346D01*
X95467Y69291D01*
X95414Y69238D01*
X95359Y69188D01*
X95302Y69141D01*
X95242Y69097D01*
X95180Y69056D01*
X95115Y69018D01*
X95049Y68984D01*
X94982Y68953D01*
X94913Y68925D01*
X94842Y68901D01*
X94771Y68881D01*
X94698Y68864D01*
X94625Y68851D01*
X94551Y68842D01*
X94477Y68836D01*
X94403Y68834D01*
X94292Y68836D01*
X94181Y68842D01*
X94070Y68852D01*
X93959Y68866D01*
X93850Y68884D01*
X93741Y68906D01*
X93632Y68931D01*
X93525Y68961D01*
X93419Y68994D01*
X93314Y69032D01*
X93211Y69072D01*
X93109Y69117D01*
X93009Y69165D01*
X92910Y69217D01*
X92814Y69272D01*
X92719Y69331D01*
X92627Y69393D01*
X92537Y69459D01*
X92449Y69527D01*
X92364Y69599D01*
X92282Y69674D01*
X92202Y69751D01*
X92385Y73970D02*
X92387Y74044D01*
X92393Y74119D01*
X92402Y74192D01*
X92415Y74266D01*
X92432Y74338D01*
X92452Y74409D01*
X92476Y74480D01*
X92504Y74549D01*
X92535Y74616D01*
X92569Y74682D01*
X92607Y74747D01*
X92648Y74809D01*
X92692Y74869D01*
X92739Y74926D01*
X92789Y74981D01*
X92842Y75034D01*
X92897Y75084D01*
X92954Y75131D01*
X93014Y75175D01*
X93076Y75216D01*
X93141Y75254D01*
X93207Y75288D01*
X93274Y75319D01*
X93343Y75347D01*
X93414Y75371D01*
X93485Y75391D01*
X93557Y75408D01*
X93631Y75421D01*
X93704Y75430D01*
X93779Y75436D01*
X93853Y75438D01*
X93957Y75436D01*
X94061Y75430D01*
X94165Y75420D01*
X94268Y75407D01*
X94371Y75389D01*
X94473Y75367D01*
X94574Y75342D01*
X94674Y75313D01*
X94773Y75280D01*
X94870Y75243D01*
X94966Y75203D01*
X95061Y75159D01*
X95153Y75111D01*
X95244Y75061D01*
X95333Y75006D01*
X95420Y74949D01*
X95504Y74888D01*
X93119Y72685D02*
X93056Y72724D01*
X92996Y72766D01*
X92938Y72811D01*
X92881Y72859D01*
X92828Y72910D01*
X92777Y72963D01*
X92728Y73018D01*
X92683Y73076D01*
X92640Y73136D01*
X92600Y73198D01*
X92564Y73262D01*
X92530Y73328D01*
X92500Y73396D01*
X92473Y73464D01*
X92450Y73534D01*
X92430Y73605D01*
X92414Y73677D01*
X92401Y73750D01*
X92392Y73823D01*
X92387Y73896D01*
X92385Y73970D01*
X95137Y71587D02*
X95200Y71548D01*
X95260Y71506D01*
X95319Y71461D01*
X95375Y71413D01*
X95428Y71362D01*
X95479Y71309D01*
X95528Y71254D01*
X95573Y71196D01*
X95616Y71136D01*
X95656Y71074D01*
X95692Y71010D01*
X95726Y70944D01*
X95756Y70876D01*
X95783Y70808D01*
X95806Y70738D01*
X95826Y70667D01*
X95842Y70595D01*
X95855Y70522D01*
X95864Y70449D01*
X95869Y70376D01*
X95871Y70302D01*
X95137Y71586D02*
X93119Y72686D01*
X98389Y73970D02*
X100224Y75438D01*
X100224Y68834D01*
X102058Y68834D02*
X98389Y68834D01*
X105043Y68834D02*
X105043Y75438D01*
X106877Y75438D01*
X106962Y75436D01*
X107046Y75430D01*
X107130Y75420D01*
X107214Y75407D01*
X107297Y75389D01*
X107379Y75368D01*
X107460Y75343D01*
X107540Y75314D01*
X107618Y75282D01*
X107694Y75246D01*
X107769Y75206D01*
X107842Y75163D01*
X107913Y75117D01*
X107982Y75068D01*
X108049Y75015D01*
X108113Y74959D01*
X108174Y74901D01*
X108232Y74840D01*
X108288Y74776D01*
X108341Y74709D01*
X108390Y74640D01*
X108436Y74569D01*
X108479Y74496D01*
X108519Y74421D01*
X108555Y74345D01*
X108587Y74267D01*
X108616Y74187D01*
X108641Y74106D01*
X108662Y74024D01*
X108680Y73941D01*
X108693Y73857D01*
X108703Y73773D01*
X108709Y73689D01*
X108711Y73604D01*
X108709Y73519D01*
X108703Y73435D01*
X108693Y73351D01*
X108680Y73267D01*
X108662Y73184D01*
X108641Y73102D01*
X108616Y73021D01*
X108587Y72941D01*
X108555Y72863D01*
X108519Y72787D01*
X108479Y72712D01*
X108436Y72639D01*
X108390Y72568D01*
X108341Y72499D01*
X108288Y72432D01*
X108232Y72368D01*
X108174Y72307D01*
X108113Y72249D01*
X108049Y72193D01*
X107982Y72140D01*
X107913Y72091D01*
X107842Y72045D01*
X107769Y72002D01*
X107694Y71962D01*
X107618Y71926D01*
X107540Y71894D01*
X107460Y71865D01*
X107379Y71840D01*
X107297Y71819D01*
X107214Y71801D01*
X107130Y71788D01*
X107046Y71778D01*
X106962Y71772D01*
X106877Y71770D01*
X106877Y71769D02*
X105043Y71769D01*
X107244Y71769D02*
X108711Y68834D01*
X111037Y68834D02*
X115440Y75438D01*
X111037Y75438D02*
X115440Y68834D01*
X81901Y72503D02*
X80800Y72503D01*
X81901Y72503D02*
X81901Y68834D01*
X79700Y68834D01*
X79626Y68836D01*
X79551Y68842D01*
X79478Y68851D01*
X79404Y68864D01*
X79332Y68881D01*
X79261Y68901D01*
X79190Y68925D01*
X79121Y68953D01*
X79054Y68984D01*
X78988Y69018D01*
X78923Y69056D01*
X78861Y69097D01*
X78801Y69141D01*
X78744Y69188D01*
X78689Y69238D01*
X78636Y69291D01*
X78586Y69346D01*
X78539Y69403D01*
X78495Y69463D01*
X78454Y69525D01*
X78416Y69590D01*
X78382Y69656D01*
X78351Y69723D01*
X78323Y69792D01*
X78299Y69863D01*
X78279Y69934D01*
X78262Y70006D01*
X78249Y70080D01*
X78240Y70153D01*
X78234Y70228D01*
X78232Y70302D01*
X78232Y73970D01*
X78234Y74044D01*
X78240Y74119D01*
X78249Y74192D01*
X78262Y74266D01*
X78279Y74338D01*
X78299Y74409D01*
X78323Y74480D01*
X78351Y74549D01*
X78382Y74616D01*
X78416Y74682D01*
X78454Y74747D01*
X78495Y74809D01*
X78539Y74869D01*
X78586Y74926D01*
X78636Y74981D01*
X78689Y75034D01*
X78744Y75084D01*
X78801Y75131D01*
X78861Y75175D01*
X78923Y75216D01*
X78988Y75254D01*
X79053Y75288D01*
X79121Y75319D01*
X79190Y75347D01*
X79261Y75371D01*
X79332Y75391D01*
X79404Y75408D01*
X79478Y75421D01*
X79551Y75430D01*
X79626Y75436D01*
X79700Y75438D01*
X81901Y75438D01*
X48373Y70302D02*
X48371Y70228D01*
X48365Y70153D01*
X48356Y70080D01*
X48343Y70006D01*
X48326Y69934D01*
X48306Y69863D01*
X48282Y69792D01*
X48254Y69723D01*
X48223Y69655D01*
X48189Y69590D01*
X48151Y69525D01*
X48110Y69463D01*
X48066Y69403D01*
X48019Y69346D01*
X47969Y69291D01*
X47916Y69238D01*
X47861Y69188D01*
X47804Y69141D01*
X47744Y69097D01*
X47682Y69056D01*
X47617Y69018D01*
X47551Y68984D01*
X47484Y68953D01*
X47415Y68925D01*
X47344Y68901D01*
X47273Y68881D01*
X47200Y68864D01*
X47127Y68851D01*
X47053Y68842D01*
X46979Y68836D01*
X46905Y68834D01*
X46794Y68836D01*
X46683Y68842D01*
X46572Y68852D01*
X46461Y68866D01*
X46352Y68884D01*
X46243Y68906D01*
X46134Y68931D01*
X46027Y68961D01*
X45921Y68994D01*
X45816Y69032D01*
X45713Y69072D01*
X45611Y69117D01*
X45511Y69165D01*
X45412Y69217D01*
X45316Y69272D01*
X45221Y69331D01*
X45129Y69393D01*
X45039Y69459D01*
X44951Y69527D01*
X44866Y69599D01*
X44784Y69674D01*
X44704Y69751D01*
X44887Y73970D02*
X44889Y74044D01*
X44895Y74119D01*
X44904Y74192D01*
X44917Y74266D01*
X44934Y74338D01*
X44954Y74409D01*
X44978Y74480D01*
X45006Y74549D01*
X45037Y74616D01*
X45071Y74682D01*
X45109Y74747D01*
X45150Y74809D01*
X45194Y74869D01*
X45241Y74926D01*
X45291Y74981D01*
X45344Y75034D01*
X45399Y75084D01*
X45456Y75131D01*
X45516Y75175D01*
X45578Y75216D01*
X45643Y75254D01*
X45709Y75288D01*
X45776Y75319D01*
X45845Y75347D01*
X45916Y75371D01*
X45987Y75391D01*
X46059Y75408D01*
X46133Y75421D01*
X46206Y75430D01*
X46281Y75436D01*
X46355Y75438D01*
X46459Y75436D01*
X46563Y75430D01*
X46667Y75420D01*
X46770Y75407D01*
X46873Y75389D01*
X46975Y75367D01*
X47076Y75342D01*
X47176Y75313D01*
X47275Y75280D01*
X47372Y75243D01*
X47468Y75203D01*
X47563Y75159D01*
X47655Y75111D01*
X47746Y75061D01*
X47835Y75006D01*
X47922Y74949D01*
X48006Y74888D01*
X45621Y72685D02*
X45558Y72724D01*
X45498Y72766D01*
X45440Y72811D01*
X45383Y72859D01*
X45330Y72910D01*
X45279Y72963D01*
X45230Y73018D01*
X45185Y73076D01*
X45142Y73136D01*
X45102Y73198D01*
X45066Y73262D01*
X45032Y73328D01*
X45002Y73396D01*
X44975Y73464D01*
X44952Y73534D01*
X44932Y73605D01*
X44916Y73677D01*
X44903Y73750D01*
X44894Y73823D01*
X44889Y73896D01*
X44887Y73970D01*
X47639Y71587D02*
X47702Y71548D01*
X47762Y71506D01*
X47821Y71461D01*
X47877Y71413D01*
X47930Y71362D01*
X47981Y71309D01*
X48030Y71254D01*
X48075Y71196D01*
X48118Y71136D01*
X48158Y71074D01*
X48194Y71010D01*
X48228Y70944D01*
X48258Y70876D01*
X48285Y70808D01*
X48308Y70738D01*
X48328Y70667D01*
X48344Y70595D01*
X48357Y70522D01*
X48366Y70449D01*
X48371Y70376D01*
X48373Y70302D01*
X47639Y71586D02*
X45621Y72686D01*
X50891Y73970D02*
X52726Y75438D01*
X52726Y68834D01*
X54560Y68834D02*
X50891Y68834D01*
X58700Y68834D02*
X58700Y75438D01*
X60534Y75438D02*
X56865Y75438D01*
X62473Y68834D02*
X66875Y75438D01*
X62473Y75438D02*
X66875Y68834D01*
D12*
X42436Y64254D02*
X301036Y64254D01*
X301036Y-746D01*
X42436Y-746D01*
X42436Y64254D01*
D13*
X29536Y31754D02*
X29538Y31853D01*
X29544Y31953D01*
X29554Y32052D01*
X29568Y32150D01*
X29585Y32248D01*
X29607Y32345D01*
X29632Y32441D01*
X29661Y32536D01*
X29694Y32630D01*
X29731Y32722D01*
X29771Y32813D01*
X29815Y32902D01*
X29863Y32990D01*
X29914Y33075D01*
X29968Y33158D01*
X30025Y33240D01*
X30086Y33318D01*
X30150Y33395D01*
X30216Y33468D01*
X30286Y33539D01*
X30358Y33607D01*
X30433Y33673D01*
X30511Y33735D01*
X30591Y33794D01*
X30673Y33850D01*
X30757Y33902D01*
X30844Y33951D01*
X30932Y33997D01*
X31022Y34039D01*
X31114Y34078D01*
X31207Y34113D01*
X31301Y34144D01*
X31397Y34171D01*
X31494Y34194D01*
X31591Y34214D01*
X31689Y34230D01*
X31788Y34242D01*
X31887Y34250D01*
X31986Y34254D01*
X32086Y34254D01*
X32185Y34250D01*
X32284Y34242D01*
X32383Y34230D01*
X32481Y34214D01*
X32578Y34194D01*
X32675Y34171D01*
X32771Y34144D01*
X32865Y34113D01*
X32958Y34078D01*
X33050Y34039D01*
X33140Y33997D01*
X33228Y33951D01*
X33315Y33902D01*
X33399Y33850D01*
X33481Y33794D01*
X33561Y33735D01*
X33639Y33673D01*
X33714Y33607D01*
X33786Y33539D01*
X33856Y33468D01*
X33922Y33395D01*
X33986Y33318D01*
X34047Y33240D01*
X34104Y33158D01*
X34158Y33075D01*
X34209Y32990D01*
X34257Y32902D01*
X34301Y32813D01*
X34341Y32722D01*
X34378Y32630D01*
X34411Y32536D01*
X34440Y32441D01*
X34465Y32345D01*
X34487Y32248D01*
X34504Y32150D01*
X34518Y32052D01*
X34528Y31953D01*
X34534Y31853D01*
X34536Y31754D01*
X34534Y31655D01*
X34528Y31555D01*
X34518Y31456D01*
X34504Y31358D01*
X34487Y31260D01*
X34465Y31163D01*
X34440Y31067D01*
X34411Y30972D01*
X34378Y30878D01*
X34341Y30786D01*
X34301Y30695D01*
X34257Y30606D01*
X34209Y30518D01*
X34158Y30433D01*
X34104Y30350D01*
X34047Y30268D01*
X33986Y30190D01*
X33922Y30113D01*
X33856Y30040D01*
X33786Y29969D01*
X33714Y29901D01*
X33639Y29835D01*
X33561Y29773D01*
X33481Y29714D01*
X33399Y29658D01*
X33315Y29606D01*
X33228Y29557D01*
X33140Y29511D01*
X33050Y29469D01*
X32958Y29430D01*
X32865Y29395D01*
X32771Y29364D01*
X32675Y29337D01*
X32578Y29314D01*
X32481Y29294D01*
X32383Y29278D01*
X32284Y29266D01*
X32185Y29258D01*
X32086Y29254D01*
X31986Y29254D01*
X31887Y29258D01*
X31788Y29266D01*
X31689Y29278D01*
X31591Y29294D01*
X31494Y29314D01*
X31397Y29337D01*
X31301Y29364D01*
X31207Y29395D01*
X31114Y29430D01*
X31022Y29469D01*
X30932Y29511D01*
X30844Y29557D01*
X30757Y29606D01*
X30673Y29658D01*
X30591Y29714D01*
X30511Y29773D01*
X30433Y29835D01*
X30358Y29901D01*
X30286Y29969D01*
X30216Y30040D01*
X30150Y30113D01*
X30086Y30190D01*
X30025Y30268D01*
X29968Y30350D01*
X29914Y30433D01*
X29863Y30518D01*
X29815Y30606D01*
X29771Y30695D01*
X29731Y30786D01*
X29694Y30878D01*
X29661Y30972D01*
X29632Y31067D01*
X29607Y31163D01*
X29585Y31260D01*
X29568Y31358D01*
X29554Y31456D01*
X29544Y31555D01*
X29538Y31655D01*
X29536Y31754D01*
D14*
X33124Y53794D02*
X33124Y56708D01*
X33123Y53794D02*
X33121Y53737D01*
X33115Y53681D01*
X33106Y53625D01*
X33092Y53570D01*
X33075Y53515D01*
X33054Y53463D01*
X33030Y53411D01*
X33002Y53362D01*
X32971Y53314D01*
X32936Y53269D01*
X32899Y53226D01*
X32859Y53186D01*
X32816Y53149D01*
X32771Y53114D01*
X32723Y53083D01*
X32674Y53055D01*
X32622Y53031D01*
X32570Y53010D01*
X32515Y52993D01*
X32460Y52979D01*
X32404Y52970D01*
X32348Y52964D01*
X32291Y52962D01*
X31875Y52962D01*
X34749Y55875D02*
X35790Y56708D01*
X35790Y52962D01*
X36830Y52962D02*
X34749Y52962D01*
D12*
X362538Y292632D02*
X362538Y346432D01*
X230538Y346432D02*
X230538Y292632D01*
X230538Y346432D02*
X362538Y346432D01*
D15*
X223038Y276432D02*
X223040Y276495D01*
X223046Y276557D01*
X223056Y276619D01*
X223069Y276681D01*
X223087Y276741D01*
X223108Y276800D01*
X223133Y276858D01*
X223162Y276914D01*
X223194Y276968D01*
X223229Y277020D01*
X223267Y277069D01*
X223309Y277117D01*
X223353Y277161D01*
X223401Y277203D01*
X223450Y277241D01*
X223502Y277276D01*
X223556Y277308D01*
X223612Y277337D01*
X223670Y277362D01*
X223729Y277383D01*
X223789Y277401D01*
X223851Y277414D01*
X223913Y277424D01*
X223975Y277430D01*
X224038Y277432D01*
X224101Y277430D01*
X224163Y277424D01*
X224225Y277414D01*
X224287Y277401D01*
X224347Y277383D01*
X224406Y277362D01*
X224464Y277337D01*
X224520Y277308D01*
X224574Y277276D01*
X224626Y277241D01*
X224675Y277203D01*
X224723Y277161D01*
X224767Y277117D01*
X224809Y277069D01*
X224847Y277020D01*
X224882Y276968D01*
X224914Y276914D01*
X224943Y276858D01*
X224968Y276800D01*
X224989Y276741D01*
X225007Y276681D01*
X225020Y276619D01*
X225030Y276557D01*
X225036Y276495D01*
X225038Y276432D01*
X225036Y276369D01*
X225030Y276307D01*
X225020Y276245D01*
X225007Y276183D01*
X224989Y276123D01*
X224968Y276064D01*
X224943Y276006D01*
X224914Y275950D01*
X224882Y275896D01*
X224847Y275844D01*
X224809Y275795D01*
X224767Y275747D01*
X224723Y275703D01*
X224675Y275661D01*
X224626Y275623D01*
X224574Y275588D01*
X224520Y275556D01*
X224464Y275527D01*
X224406Y275502D01*
X224347Y275481D01*
X224287Y275463D01*
X224225Y275450D01*
X224163Y275440D01*
X224101Y275434D01*
X224038Y275432D01*
X223975Y275434D01*
X223913Y275440D01*
X223851Y275450D01*
X223789Y275463D01*
X223729Y275481D01*
X223670Y275502D01*
X223612Y275527D01*
X223556Y275556D01*
X223502Y275588D01*
X223450Y275623D01*
X223401Y275661D01*
X223353Y275703D01*
X223309Y275747D01*
X223267Y275795D01*
X223229Y275844D01*
X223194Y275896D01*
X223162Y275950D01*
X223133Y276006D01*
X223108Y276064D01*
X223087Y276123D01*
X223069Y276183D01*
X223056Y276245D01*
X223046Y276307D01*
X223040Y276369D01*
X223038Y276432D01*
D14*
X228165Y354600D02*
X228165Y357305D01*
X228165Y354600D02*
X228167Y354537D01*
X228173Y354475D01*
X228182Y354412D01*
X228195Y354351D01*
X228212Y354290D01*
X228233Y354231D01*
X228257Y354173D01*
X228284Y354116D01*
X228315Y354061D01*
X228349Y354009D01*
X228387Y353958D01*
X228427Y353910D01*
X228470Y353864D01*
X228516Y353821D01*
X228564Y353781D01*
X228615Y353743D01*
X228667Y353709D01*
X228722Y353678D01*
X228779Y353651D01*
X228837Y353627D01*
X228896Y353606D01*
X228957Y353589D01*
X229018Y353576D01*
X229081Y353567D01*
X229143Y353561D01*
X229206Y353559D01*
X229269Y353561D01*
X229331Y353567D01*
X229394Y353576D01*
X229455Y353589D01*
X229516Y353606D01*
X229575Y353627D01*
X229633Y353651D01*
X229690Y353678D01*
X229745Y353709D01*
X229797Y353743D01*
X229848Y353781D01*
X229896Y353821D01*
X229942Y353864D01*
X229985Y353910D01*
X230025Y353958D01*
X230063Y354009D01*
X230097Y354061D01*
X230128Y354116D01*
X230155Y354173D01*
X230179Y354231D01*
X230200Y354290D01*
X230217Y354351D01*
X230230Y354412D01*
X230239Y354475D01*
X230245Y354537D01*
X230247Y354600D01*
X230246Y354600D02*
X230246Y357305D01*
X233030Y357306D02*
X233089Y357304D01*
X233147Y357299D01*
X233206Y357289D01*
X233263Y357277D01*
X233320Y357260D01*
X233375Y357240D01*
X233429Y357217D01*
X233481Y357190D01*
X233532Y357160D01*
X233581Y357127D01*
X233627Y357091D01*
X233671Y357052D01*
X233713Y357010D01*
X233752Y356966D01*
X233788Y356920D01*
X233821Y356871D01*
X233851Y356820D01*
X233878Y356768D01*
X233901Y356714D01*
X233921Y356659D01*
X233938Y356602D01*
X233950Y356545D01*
X233960Y356486D01*
X233965Y356428D01*
X233967Y356369D01*
X233030Y357305D02*
X232961Y357303D01*
X232893Y357297D01*
X232825Y357287D01*
X232757Y357274D01*
X232691Y357256D01*
X232625Y357235D01*
X232561Y357210D01*
X232499Y357181D01*
X232438Y357149D01*
X232379Y357114D01*
X232322Y357075D01*
X232268Y357033D01*
X232216Y356988D01*
X232167Y356940D01*
X232120Y356889D01*
X232077Y356836D01*
X232036Y356780D01*
X231999Y356722D01*
X231966Y356663D01*
X231935Y356601D01*
X231909Y356537D01*
X231886Y356473D01*
X233654Y355641D02*
X233698Y355685D01*
X233739Y355732D01*
X233777Y355782D01*
X233812Y355834D01*
X233844Y355888D01*
X233872Y355944D01*
X233897Y356002D01*
X233918Y356061D01*
X233935Y356121D01*
X233948Y356182D01*
X233958Y356244D01*
X233964Y356306D01*
X233966Y356369D01*
X233654Y355640D02*
X231885Y353559D01*
X233966Y353559D01*
X309411Y101391D02*
X309411Y97645D01*
X309411Y101391D02*
X310452Y101391D01*
X310515Y101389D01*
X310577Y101383D01*
X310640Y101374D01*
X310701Y101361D01*
X310762Y101344D01*
X310821Y101323D01*
X310879Y101299D01*
X310936Y101272D01*
X310991Y101241D01*
X311043Y101207D01*
X311094Y101169D01*
X311142Y101129D01*
X311188Y101086D01*
X311231Y101040D01*
X311271Y100992D01*
X311309Y100941D01*
X311343Y100889D01*
X311374Y100834D01*
X311401Y100777D01*
X311425Y100719D01*
X311446Y100660D01*
X311463Y100599D01*
X311476Y100538D01*
X311485Y100475D01*
X311491Y100413D01*
X311493Y100350D01*
X311491Y100287D01*
X311485Y100225D01*
X311476Y100162D01*
X311463Y100101D01*
X311446Y100040D01*
X311425Y99981D01*
X311401Y99923D01*
X311374Y99866D01*
X311343Y99811D01*
X311309Y99759D01*
X311271Y99708D01*
X311231Y99660D01*
X311188Y99614D01*
X311142Y99571D01*
X311094Y99531D01*
X311043Y99493D01*
X310991Y99459D01*
X310936Y99428D01*
X310879Y99401D01*
X310821Y99377D01*
X310762Y99356D01*
X310701Y99339D01*
X310640Y99326D01*
X310577Y99317D01*
X310515Y99311D01*
X310452Y99309D01*
X310452Y99310D02*
X309411Y99310D01*
X310660Y99310D02*
X311492Y97645D01*
X312990Y97645D02*
X314031Y97645D01*
X314094Y97647D01*
X314156Y97653D01*
X314219Y97662D01*
X314280Y97675D01*
X314341Y97692D01*
X314400Y97713D01*
X314458Y97737D01*
X314515Y97764D01*
X314570Y97795D01*
X314622Y97829D01*
X314673Y97867D01*
X314721Y97907D01*
X314767Y97950D01*
X314810Y97996D01*
X314850Y98044D01*
X314888Y98095D01*
X314922Y98147D01*
X314953Y98202D01*
X314980Y98259D01*
X315004Y98317D01*
X315025Y98376D01*
X315042Y98437D01*
X315055Y98498D01*
X315064Y98561D01*
X315070Y98623D01*
X315072Y98686D01*
X315070Y98749D01*
X315064Y98811D01*
X315055Y98874D01*
X315042Y98935D01*
X315025Y98996D01*
X315004Y99055D01*
X314980Y99113D01*
X314953Y99170D01*
X314922Y99225D01*
X314888Y99277D01*
X314850Y99328D01*
X314810Y99376D01*
X314767Y99422D01*
X314721Y99465D01*
X314673Y99505D01*
X314622Y99543D01*
X314570Y99577D01*
X314515Y99608D01*
X314458Y99635D01*
X314400Y99659D01*
X314341Y99680D01*
X314280Y99697D01*
X314219Y99710D01*
X314156Y99719D01*
X314094Y99725D01*
X314031Y99727D01*
X314239Y101391D02*
X312990Y101391D01*
X314239Y101391D02*
X314296Y101389D01*
X314352Y101383D01*
X314408Y101374D01*
X314463Y101360D01*
X314518Y101343D01*
X314570Y101322D01*
X314622Y101298D01*
X314671Y101270D01*
X314719Y101239D01*
X314764Y101204D01*
X314807Y101167D01*
X314847Y101127D01*
X314884Y101084D01*
X314919Y101039D01*
X314950Y100991D01*
X314978Y100942D01*
X315002Y100890D01*
X315023Y100838D01*
X315040Y100783D01*
X315054Y100728D01*
X315063Y100672D01*
X315069Y100616D01*
X315071Y100559D01*
X315069Y100502D01*
X315063Y100446D01*
X315054Y100390D01*
X315040Y100335D01*
X315023Y100280D01*
X315002Y100228D01*
X314978Y100176D01*
X314950Y100127D01*
X314919Y100079D01*
X314884Y100034D01*
X314847Y99991D01*
X314807Y99951D01*
X314764Y99914D01*
X314719Y99879D01*
X314671Y99848D01*
X314622Y99820D01*
X314570Y99796D01*
X314518Y99775D01*
X314463Y99758D01*
X314408Y99744D01*
X314352Y99735D01*
X314296Y99729D01*
X314239Y99727D01*
X314239Y99726D02*
X313406Y99726D01*
X305601Y88945D02*
X305601Y85199D01*
X305601Y88945D02*
X306642Y88945D01*
X306705Y88943D01*
X306767Y88937D01*
X306830Y88928D01*
X306891Y88915D01*
X306952Y88898D01*
X307011Y88877D01*
X307069Y88853D01*
X307126Y88826D01*
X307181Y88795D01*
X307233Y88761D01*
X307284Y88723D01*
X307332Y88683D01*
X307378Y88640D01*
X307421Y88594D01*
X307461Y88546D01*
X307499Y88495D01*
X307533Y88443D01*
X307564Y88388D01*
X307591Y88331D01*
X307615Y88273D01*
X307636Y88214D01*
X307653Y88153D01*
X307666Y88092D01*
X307675Y88029D01*
X307681Y87967D01*
X307683Y87904D01*
X307681Y87841D01*
X307675Y87779D01*
X307666Y87716D01*
X307653Y87655D01*
X307636Y87594D01*
X307615Y87535D01*
X307591Y87477D01*
X307564Y87420D01*
X307533Y87365D01*
X307499Y87313D01*
X307461Y87262D01*
X307421Y87214D01*
X307378Y87168D01*
X307332Y87125D01*
X307284Y87085D01*
X307233Y87047D01*
X307181Y87013D01*
X307126Y86982D01*
X307069Y86955D01*
X307011Y86931D01*
X306952Y86910D01*
X306891Y86893D01*
X306830Y86880D01*
X306767Y86871D01*
X306705Y86865D01*
X306642Y86863D01*
X306642Y86864D02*
X305601Y86864D01*
X306850Y86864D02*
X307682Y85199D01*
X309180Y86031D02*
X310013Y88945D01*
X309180Y86031D02*
X311261Y86031D01*
X310637Y86864D02*
X310637Y85199D01*
D16*
X412550Y48700D02*
X412550Y135100D01*
X412550Y48700D02*
X334350Y48700D01*
X334350Y135100D02*
X412550Y135100D01*
X412599Y135100D02*
X411658Y129751D01*
X410842Y124382D01*
X410150Y118995D01*
X409584Y113594D01*
X409143Y108180D01*
X408828Y102758D01*
X408639Y97331D01*
X408576Y91900D01*
X408639Y86469D01*
X408828Y81042D01*
X409143Y75620D01*
X409584Y70206D01*
X410150Y64805D01*
X410842Y59418D01*
X411658Y54049D01*
X412599Y48700D01*
X375600Y48700D02*
X357600Y48700D01*
X357600Y135100D02*
X375600Y135100D01*
D14*
X362041Y90671D02*
X359127Y90671D01*
X362041Y90670D02*
X362098Y90668D01*
X362154Y90662D01*
X362210Y90653D01*
X362265Y90639D01*
X362320Y90622D01*
X362372Y90601D01*
X362424Y90577D01*
X362473Y90549D01*
X362521Y90518D01*
X362566Y90483D01*
X362609Y90446D01*
X362649Y90406D01*
X362686Y90363D01*
X362721Y90318D01*
X362752Y90270D01*
X362780Y90221D01*
X362804Y90169D01*
X362825Y90117D01*
X362842Y90062D01*
X362856Y90007D01*
X362865Y89951D01*
X362871Y89895D01*
X362873Y89838D01*
X362873Y89422D01*
X359127Y93441D02*
X359129Y93500D01*
X359134Y93558D01*
X359144Y93617D01*
X359156Y93674D01*
X359173Y93731D01*
X359193Y93786D01*
X359216Y93840D01*
X359243Y93892D01*
X359273Y93943D01*
X359306Y93992D01*
X359342Y94038D01*
X359381Y94082D01*
X359423Y94124D01*
X359467Y94163D01*
X359513Y94199D01*
X359562Y94232D01*
X359613Y94262D01*
X359665Y94289D01*
X359719Y94312D01*
X359774Y94332D01*
X359831Y94349D01*
X359888Y94361D01*
X359947Y94371D01*
X360005Y94376D01*
X360064Y94378D01*
X359127Y93441D02*
X359129Y93372D01*
X359135Y93304D01*
X359145Y93236D01*
X359158Y93168D01*
X359176Y93102D01*
X359197Y93036D01*
X359222Y92972D01*
X359251Y92910D01*
X359283Y92849D01*
X359318Y92790D01*
X359357Y92733D01*
X359399Y92679D01*
X359444Y92627D01*
X359492Y92578D01*
X359543Y92531D01*
X359596Y92488D01*
X359652Y92447D01*
X359710Y92410D01*
X359770Y92377D01*
X359831Y92346D01*
X359895Y92320D01*
X359959Y92297D01*
X360792Y94066D02*
X360748Y94110D01*
X360701Y94151D01*
X360651Y94189D01*
X360599Y94224D01*
X360545Y94256D01*
X360489Y94284D01*
X360431Y94309D01*
X360372Y94330D01*
X360312Y94347D01*
X360251Y94360D01*
X360189Y94370D01*
X360127Y94376D01*
X360064Y94378D01*
X360792Y94066D02*
X362873Y92297D01*
X362873Y94378D01*
X340769Y165667D02*
X337023Y165667D01*
X337023Y166707D01*
X337025Y166770D01*
X337031Y166832D01*
X337040Y166895D01*
X337053Y166956D01*
X337070Y167017D01*
X337091Y167076D01*
X337115Y167134D01*
X337142Y167191D01*
X337173Y167246D01*
X337207Y167298D01*
X337245Y167349D01*
X337285Y167397D01*
X337328Y167443D01*
X337374Y167486D01*
X337422Y167526D01*
X337473Y167564D01*
X337525Y167598D01*
X337580Y167629D01*
X337637Y167656D01*
X337695Y167680D01*
X337754Y167701D01*
X337815Y167718D01*
X337876Y167731D01*
X337939Y167740D01*
X338001Y167746D01*
X338064Y167748D01*
X338127Y167746D01*
X338189Y167740D01*
X338252Y167731D01*
X338313Y167718D01*
X338374Y167701D01*
X338433Y167680D01*
X338491Y167656D01*
X338548Y167629D01*
X338603Y167598D01*
X338655Y167564D01*
X338706Y167526D01*
X338754Y167486D01*
X338800Y167443D01*
X338843Y167397D01*
X338883Y167349D01*
X338921Y167298D01*
X338955Y167246D01*
X338986Y167191D01*
X339013Y167134D01*
X339037Y167076D01*
X339058Y167017D01*
X339075Y166956D01*
X339088Y166895D01*
X339097Y166832D01*
X339103Y166770D01*
X339105Y166707D01*
X339104Y166707D02*
X339104Y165667D01*
X339104Y166915D02*
X340769Y167748D01*
X337855Y169246D02*
X337023Y170286D01*
X340769Y170286D01*
X340769Y169246D02*
X340769Y171327D01*
D17*
X146648Y193106D02*
X143403Y185316D01*
X149894Y185316D02*
X146648Y193106D01*
X151192Y198539D02*
X139508Y198539D01*
X151192Y205030D01*
X139508Y205030D01*
X139508Y213595D02*
X151192Y209700D01*
X151192Y217490D02*
X139508Y213595D01*
X148271Y216516D02*
X148271Y210674D01*
X151192Y222273D02*
X139508Y222273D01*
X145999Y226168D01*
X139508Y230063D01*
X151192Y230063D01*
X151192Y235899D02*
X151192Y241092D01*
X151192Y235899D02*
X139508Y235899D01*
X139508Y241092D01*
X144701Y239794D02*
X144701Y235899D01*
D15*
X33000Y293000D02*
X33000Y81000D01*
X199000Y81000D01*
X199000Y293000D01*
X33000Y293000D01*
D13*
X22172Y265000D02*
X22174Y265106D01*
X22180Y265211D01*
X22190Y265317D01*
X22204Y265421D01*
X22221Y265526D01*
X22243Y265629D01*
X22268Y265732D01*
X22298Y265834D01*
X22331Y265934D01*
X22367Y266033D01*
X22408Y266131D01*
X22452Y266227D01*
X22500Y266321D01*
X22551Y266414D01*
X22605Y266505D01*
X22663Y266593D01*
X22725Y266679D01*
X22789Y266763D01*
X22856Y266845D01*
X22927Y266924D01*
X23000Y267000D01*
X23076Y267073D01*
X23155Y267144D01*
X23237Y267211D01*
X23321Y267275D01*
X23407Y267337D01*
X23495Y267395D01*
X23586Y267449D01*
X23679Y267500D01*
X23773Y267548D01*
X23869Y267592D01*
X23967Y267633D01*
X24066Y267669D01*
X24166Y267702D01*
X24268Y267732D01*
X24371Y267757D01*
X24474Y267779D01*
X24579Y267796D01*
X24683Y267810D01*
X24789Y267820D01*
X24894Y267826D01*
X25000Y267828D01*
X25106Y267826D01*
X25211Y267820D01*
X25317Y267810D01*
X25421Y267796D01*
X25526Y267779D01*
X25629Y267757D01*
X25732Y267732D01*
X25834Y267702D01*
X25934Y267669D01*
X26033Y267633D01*
X26131Y267592D01*
X26227Y267548D01*
X26321Y267500D01*
X26414Y267449D01*
X26505Y267395D01*
X26593Y267337D01*
X26679Y267275D01*
X26763Y267211D01*
X26845Y267144D01*
X26924Y267073D01*
X27000Y267000D01*
X27073Y266924D01*
X27144Y266845D01*
X27211Y266763D01*
X27275Y266679D01*
X27337Y266593D01*
X27395Y266505D01*
X27449Y266414D01*
X27500Y266321D01*
X27548Y266227D01*
X27592Y266131D01*
X27633Y266033D01*
X27669Y265934D01*
X27702Y265834D01*
X27732Y265732D01*
X27757Y265629D01*
X27779Y265526D01*
X27796Y265421D01*
X27810Y265317D01*
X27820Y265211D01*
X27826Y265106D01*
X27828Y265000D01*
X27826Y264894D01*
X27820Y264789D01*
X27810Y264683D01*
X27796Y264579D01*
X27779Y264474D01*
X27757Y264371D01*
X27732Y264268D01*
X27702Y264166D01*
X27669Y264066D01*
X27633Y263967D01*
X27592Y263869D01*
X27548Y263773D01*
X27500Y263679D01*
X27449Y263586D01*
X27395Y263495D01*
X27337Y263407D01*
X27275Y263321D01*
X27211Y263237D01*
X27144Y263155D01*
X27073Y263076D01*
X27000Y263000D01*
X26924Y262927D01*
X26845Y262856D01*
X26763Y262789D01*
X26679Y262725D01*
X26593Y262663D01*
X26505Y262605D01*
X26414Y262551D01*
X26321Y262500D01*
X26227Y262452D01*
X26131Y262408D01*
X26033Y262367D01*
X25934Y262331D01*
X25834Y262298D01*
X25732Y262268D01*
X25629Y262243D01*
X25526Y262221D01*
X25421Y262204D01*
X25317Y262190D01*
X25211Y262180D01*
X25106Y262174D01*
X25000Y262172D01*
X24894Y262174D01*
X24789Y262180D01*
X24683Y262190D01*
X24579Y262204D01*
X24474Y262221D01*
X24371Y262243D01*
X24268Y262268D01*
X24166Y262298D01*
X24066Y262331D01*
X23967Y262367D01*
X23869Y262408D01*
X23773Y262452D01*
X23679Y262500D01*
X23586Y262551D01*
X23495Y262605D01*
X23407Y262663D01*
X23321Y262725D01*
X23237Y262789D01*
X23155Y262856D01*
X23076Y262927D01*
X23000Y263000D01*
X22927Y263076D01*
X22856Y263155D01*
X22789Y263237D01*
X22725Y263321D01*
X22663Y263407D01*
X22605Y263495D01*
X22551Y263586D01*
X22500Y263679D01*
X22452Y263773D01*
X22408Y263869D01*
X22367Y263967D01*
X22331Y264066D01*
X22298Y264166D01*
X22268Y264268D01*
X22243Y264371D01*
X22221Y264474D01*
X22204Y264579D01*
X22190Y264683D01*
X22180Y264789D01*
X22174Y264894D01*
X22172Y265000D01*
D18*
X77414Y322000D02*
X91414Y322000D01*
X91414Y348000D01*
X49414Y348000D02*
X49414Y322000D01*
X63414Y322000D01*
X77414Y348000D02*
X91414Y348000D01*
X63414Y348000D02*
X49414Y348000D01*
X77414Y321000D02*
X90414Y321000D01*
X63414Y321000D02*
X50414Y321000D01*
X77414Y320000D02*
X91414Y320000D01*
X63414Y320000D02*
X49414Y320000D01*
X91414Y320000D02*
X91414Y322000D01*
X77414Y322000D02*
X77414Y320000D01*
X63414Y320000D02*
X63414Y322000D01*
X49414Y322000D02*
X49414Y320000D01*
D10*
X96195Y339670D02*
X99433Y339670D01*
X96195Y339670D02*
X96195Y340569D01*
X96197Y340628D01*
X96203Y340686D01*
X96212Y340744D01*
X96226Y340802D01*
X96243Y340858D01*
X96263Y340913D01*
X96288Y340967D01*
X96315Y341019D01*
X96347Y341068D01*
X96381Y341116D01*
X96418Y341162D01*
X96458Y341205D01*
X96501Y341245D01*
X96547Y341282D01*
X96595Y341316D01*
X96645Y341348D01*
X96696Y341375D01*
X96750Y341400D01*
X96805Y341420D01*
X96861Y341437D01*
X96919Y341451D01*
X96977Y341460D01*
X97035Y341466D01*
X97094Y341468D01*
X97153Y341466D01*
X97211Y341460D01*
X97269Y341451D01*
X97327Y341437D01*
X97383Y341420D01*
X97438Y341400D01*
X97492Y341375D01*
X97544Y341348D01*
X97593Y341316D01*
X97641Y341282D01*
X97687Y341245D01*
X97730Y341205D01*
X97770Y341162D01*
X97807Y341116D01*
X97841Y341068D01*
X97873Y341019D01*
X97900Y340967D01*
X97925Y340913D01*
X97945Y340858D01*
X97962Y340802D01*
X97976Y340744D01*
X97985Y340686D01*
X97991Y340628D01*
X97993Y340569D01*
X97994Y340569D02*
X97994Y339670D01*
X99433Y343219D02*
X96195Y343219D01*
X96195Y344118D01*
X96197Y344177D01*
X96203Y344235D01*
X96212Y344293D01*
X96226Y344351D01*
X96243Y344407D01*
X96263Y344462D01*
X96288Y344516D01*
X96315Y344568D01*
X96347Y344617D01*
X96381Y344665D01*
X96418Y344711D01*
X96458Y344754D01*
X96501Y344794D01*
X96547Y344831D01*
X96595Y344865D01*
X96645Y344897D01*
X96696Y344924D01*
X96750Y344949D01*
X96805Y344969D01*
X96861Y344986D01*
X96919Y345000D01*
X96977Y345009D01*
X97035Y345015D01*
X97094Y345017D01*
X97153Y345015D01*
X97211Y345009D01*
X97269Y345000D01*
X97327Y344986D01*
X97383Y344969D01*
X97438Y344949D01*
X97492Y344924D01*
X97544Y344897D01*
X97593Y344865D01*
X97641Y344831D01*
X97687Y344794D01*
X97730Y344754D01*
X97770Y344711D01*
X97807Y344665D01*
X97841Y344617D01*
X97873Y344568D01*
X97900Y344516D01*
X97925Y344462D01*
X97945Y344407D01*
X97962Y344351D01*
X97976Y344293D01*
X97985Y344235D01*
X97991Y344177D01*
X97993Y344118D01*
X97994Y344118D02*
X97994Y343219D01*
X97994Y344298D02*
X99433Y345018D01*
X99433Y346959D02*
X96195Y346959D01*
X99433Y346599D02*
X99433Y347319D01*
X96195Y347319D02*
X96195Y346599D01*
D18*
X21350Y304605D02*
X21350Y275395D01*
X8650Y275395D01*
X8650Y304605D01*
X21350Y304605D01*
D10*
X28144Y295342D02*
X28144Y294622D01*
X28142Y294571D01*
X28137Y294520D01*
X28128Y294469D01*
X28115Y294419D01*
X28099Y294370D01*
X28079Y294323D01*
X28056Y294277D01*
X28030Y294233D01*
X28000Y294191D01*
X27968Y294151D01*
X27933Y294113D01*
X27896Y294078D01*
X27855Y294046D01*
X27813Y294016D01*
X27769Y293990D01*
X27723Y293967D01*
X27676Y293947D01*
X27627Y293931D01*
X27577Y293918D01*
X27526Y293909D01*
X27475Y293904D01*
X27424Y293902D01*
X25626Y293902D01*
X25575Y293904D01*
X25524Y293909D01*
X25473Y293918D01*
X25423Y293931D01*
X25374Y293947D01*
X25327Y293967D01*
X25281Y293990D01*
X25237Y294016D01*
X25195Y294046D01*
X25155Y294078D01*
X25117Y294113D01*
X25082Y294150D01*
X25050Y294191D01*
X25020Y294233D01*
X24994Y294277D01*
X24971Y294323D01*
X24951Y294370D01*
X24935Y294419D01*
X24922Y294469D01*
X24913Y294520D01*
X24908Y294571D01*
X24906Y294622D01*
X24906Y295342D01*
X25626Y296920D02*
X24906Y297820D01*
X28144Y297820D01*
X28144Y298719D02*
X28144Y296920D01*
X26525Y300521D02*
X26424Y300523D01*
X26324Y300529D01*
X26223Y300538D01*
X26123Y300551D01*
X26024Y300569D01*
X25925Y300589D01*
X25827Y300614D01*
X25730Y300642D01*
X25635Y300674D01*
X25540Y300709D01*
X25447Y300748D01*
X25356Y300791D01*
X25356Y300790D02*
X25311Y300807D01*
X25267Y300828D01*
X25224Y300852D01*
X25184Y300879D01*
X25145Y300909D01*
X25109Y300941D01*
X25076Y300976D01*
X25045Y301013D01*
X25016Y301053D01*
X24991Y301094D01*
X24969Y301138D01*
X24950Y301182D01*
X24934Y301228D01*
X24922Y301275D01*
X24913Y301323D01*
X24908Y301371D01*
X24906Y301420D01*
X24908Y301469D01*
X24913Y301517D01*
X24922Y301565D01*
X24934Y301612D01*
X24950Y301658D01*
X24969Y301702D01*
X24991Y301746D01*
X25016Y301787D01*
X25045Y301827D01*
X25076Y301864D01*
X25109Y301899D01*
X25145Y301931D01*
X25184Y301961D01*
X25224Y301988D01*
X25267Y302012D01*
X25311Y302033D01*
X25356Y302050D01*
X25356Y302049D02*
X25447Y302092D01*
X25540Y302131D01*
X25635Y302166D01*
X25730Y302198D01*
X25827Y302226D01*
X25925Y302251D01*
X26024Y302271D01*
X26123Y302289D01*
X26223Y302302D01*
X26323Y302311D01*
X26424Y302317D01*
X26525Y302319D01*
X26525Y300520D02*
X26626Y300522D01*
X26727Y300528D01*
X26827Y300537D01*
X26927Y300550D01*
X27026Y300568D01*
X27125Y300588D01*
X27223Y300613D01*
X27320Y300641D01*
X27416Y300673D01*
X27510Y300708D01*
X27603Y300747D01*
X27694Y300790D01*
X27739Y300807D01*
X27783Y300828D01*
X27826Y300852D01*
X27866Y300879D01*
X27905Y300909D01*
X27941Y300941D01*
X27974Y300976D01*
X28005Y301013D01*
X28034Y301053D01*
X28059Y301094D01*
X28081Y301138D01*
X28100Y301182D01*
X28116Y301228D01*
X28128Y301275D01*
X28137Y301323D01*
X28142Y301371D01*
X28144Y301420D01*
X27694Y302049D02*
X27603Y302092D01*
X27510Y302131D01*
X27415Y302166D01*
X27320Y302198D01*
X27223Y302226D01*
X27125Y302251D01*
X27026Y302271D01*
X26927Y302289D01*
X26827Y302302D01*
X26727Y302311D01*
X26626Y302317D01*
X26525Y302319D01*
X27694Y302050D02*
X27739Y302033D01*
X27783Y302012D01*
X27826Y301988D01*
X27866Y301961D01*
X27905Y301931D01*
X27941Y301899D01*
X27974Y301864D01*
X28005Y301827D01*
X28034Y301787D01*
X28059Y301746D01*
X28081Y301702D01*
X28100Y301658D01*
X28116Y301612D01*
X28128Y301565D01*
X28137Y301517D01*
X28142Y301469D01*
X28144Y301420D01*
X27424Y300700D02*
X25626Y302139D01*
D18*
X208650Y314605D02*
X208650Y285395D01*
X208650Y314605D02*
X221350Y314605D01*
X221350Y285395D01*
X208650Y285395D01*
D10*
X205094Y288401D02*
X205094Y289120D01*
X205094Y288401D02*
X205092Y288350D01*
X205087Y288299D01*
X205078Y288248D01*
X205065Y288198D01*
X205049Y288149D01*
X205029Y288102D01*
X205006Y288056D01*
X204980Y288012D01*
X204950Y287970D01*
X204918Y287930D01*
X204883Y287892D01*
X204846Y287857D01*
X204805Y287825D01*
X204763Y287795D01*
X204719Y287769D01*
X204673Y287746D01*
X204626Y287726D01*
X204577Y287710D01*
X204527Y287697D01*
X204476Y287688D01*
X204425Y287683D01*
X204374Y287681D01*
X202576Y287681D01*
X202525Y287683D01*
X202474Y287688D01*
X202423Y287697D01*
X202373Y287710D01*
X202324Y287726D01*
X202277Y287746D01*
X202231Y287769D01*
X202187Y287795D01*
X202145Y287825D01*
X202105Y287857D01*
X202067Y287892D01*
X202032Y287929D01*
X202000Y287970D01*
X201970Y288012D01*
X201944Y288056D01*
X201921Y288102D01*
X201901Y288149D01*
X201885Y288198D01*
X201872Y288248D01*
X201863Y288299D01*
X201858Y288350D01*
X201856Y288401D01*
X201856Y289120D01*
X202576Y290699D02*
X201856Y291598D01*
X205094Y291598D01*
X205094Y290699D02*
X205094Y292498D01*
X202576Y294299D02*
X201856Y295198D01*
X205094Y295198D01*
X205094Y294299D02*
X205094Y296098D01*
D14*
X212331Y133125D02*
X212331Y129379D01*
X212331Y133125D02*
X213372Y133125D01*
X213435Y133123D01*
X213497Y133117D01*
X213560Y133108D01*
X213621Y133095D01*
X213682Y133078D01*
X213741Y133057D01*
X213799Y133033D01*
X213856Y133006D01*
X213911Y132975D01*
X213963Y132941D01*
X214014Y132903D01*
X214062Y132863D01*
X214108Y132820D01*
X214151Y132774D01*
X214191Y132726D01*
X214229Y132675D01*
X214263Y132623D01*
X214294Y132568D01*
X214321Y132511D01*
X214345Y132453D01*
X214366Y132394D01*
X214383Y132333D01*
X214396Y132272D01*
X214405Y132209D01*
X214411Y132147D01*
X214413Y132084D01*
X214411Y132021D01*
X214405Y131959D01*
X214396Y131896D01*
X214383Y131835D01*
X214366Y131774D01*
X214345Y131715D01*
X214321Y131657D01*
X214294Y131600D01*
X214263Y131545D01*
X214229Y131493D01*
X214191Y131442D01*
X214151Y131394D01*
X214108Y131348D01*
X214062Y131305D01*
X214014Y131265D01*
X213963Y131227D01*
X213911Y131193D01*
X213856Y131162D01*
X213799Y131135D01*
X213741Y131111D01*
X213682Y131090D01*
X213621Y131073D01*
X213560Y131060D01*
X213497Y131051D01*
X213435Y131045D01*
X213372Y131043D01*
X213372Y131044D02*
X212331Y131044D01*
X213580Y131044D02*
X214412Y129379D01*
X215910Y129379D02*
X217159Y129379D01*
X217216Y129381D01*
X217272Y129387D01*
X217328Y129396D01*
X217383Y129410D01*
X217438Y129427D01*
X217490Y129448D01*
X217542Y129472D01*
X217591Y129500D01*
X217639Y129531D01*
X217684Y129566D01*
X217727Y129603D01*
X217767Y129643D01*
X217804Y129686D01*
X217839Y129731D01*
X217870Y129779D01*
X217898Y129828D01*
X217922Y129880D01*
X217943Y129932D01*
X217960Y129987D01*
X217974Y130042D01*
X217983Y130098D01*
X217989Y130154D01*
X217991Y130211D01*
X217991Y130628D01*
X217989Y130685D01*
X217983Y130741D01*
X217974Y130797D01*
X217960Y130852D01*
X217943Y130907D01*
X217922Y130959D01*
X217898Y131011D01*
X217870Y131060D01*
X217839Y131108D01*
X217804Y131153D01*
X217767Y131196D01*
X217727Y131236D01*
X217684Y131273D01*
X217639Y131308D01*
X217591Y131339D01*
X217542Y131367D01*
X217490Y131391D01*
X217438Y131412D01*
X217383Y131429D01*
X217328Y131443D01*
X217272Y131452D01*
X217216Y131458D01*
X217159Y131460D01*
X215910Y131460D01*
X215910Y133125D01*
X217991Y133125D01*
X224977Y107763D02*
X228723Y107763D01*
X224977Y107763D02*
X224977Y108804D01*
X224979Y108867D01*
X224985Y108929D01*
X224994Y108992D01*
X225007Y109053D01*
X225024Y109114D01*
X225045Y109173D01*
X225069Y109231D01*
X225096Y109288D01*
X225127Y109343D01*
X225161Y109395D01*
X225199Y109446D01*
X225239Y109494D01*
X225282Y109540D01*
X225328Y109583D01*
X225376Y109623D01*
X225427Y109661D01*
X225479Y109695D01*
X225534Y109726D01*
X225591Y109753D01*
X225649Y109777D01*
X225708Y109798D01*
X225769Y109815D01*
X225830Y109828D01*
X225893Y109837D01*
X225955Y109843D01*
X226018Y109845D01*
X226081Y109843D01*
X226143Y109837D01*
X226206Y109828D01*
X226267Y109815D01*
X226328Y109798D01*
X226387Y109777D01*
X226445Y109753D01*
X226502Y109726D01*
X226557Y109695D01*
X226609Y109661D01*
X226660Y109623D01*
X226708Y109583D01*
X226754Y109540D01*
X226797Y109494D01*
X226837Y109446D01*
X226875Y109395D01*
X226909Y109343D01*
X226940Y109288D01*
X226967Y109231D01*
X226991Y109173D01*
X227012Y109114D01*
X227029Y109053D01*
X227042Y108992D01*
X227051Y108929D01*
X227057Y108867D01*
X227059Y108804D01*
X227058Y108804D02*
X227058Y107763D01*
X227058Y109012D02*
X228723Y109844D01*
X226642Y111342D02*
X226642Y112591D01*
X226644Y112648D01*
X226650Y112704D01*
X226659Y112760D01*
X226673Y112815D01*
X226690Y112870D01*
X226711Y112922D01*
X226735Y112974D01*
X226763Y113023D01*
X226794Y113071D01*
X226829Y113116D01*
X226866Y113159D01*
X226906Y113199D01*
X226949Y113236D01*
X226994Y113271D01*
X227042Y113302D01*
X227091Y113330D01*
X227143Y113354D01*
X227195Y113375D01*
X227250Y113392D01*
X227305Y113406D01*
X227361Y113415D01*
X227417Y113421D01*
X227474Y113423D01*
X227682Y113423D01*
X227682Y113424D02*
X227745Y113422D01*
X227807Y113416D01*
X227870Y113407D01*
X227931Y113394D01*
X227992Y113377D01*
X228051Y113356D01*
X228109Y113332D01*
X228166Y113305D01*
X228221Y113274D01*
X228273Y113240D01*
X228324Y113202D01*
X228372Y113162D01*
X228418Y113119D01*
X228461Y113073D01*
X228501Y113025D01*
X228539Y112974D01*
X228573Y112922D01*
X228604Y112867D01*
X228631Y112810D01*
X228655Y112752D01*
X228676Y112693D01*
X228693Y112632D01*
X228706Y112571D01*
X228715Y112508D01*
X228721Y112446D01*
X228723Y112383D01*
X228721Y112320D01*
X228715Y112258D01*
X228706Y112195D01*
X228693Y112134D01*
X228676Y112073D01*
X228655Y112014D01*
X228631Y111956D01*
X228604Y111899D01*
X228573Y111844D01*
X228539Y111792D01*
X228501Y111741D01*
X228461Y111693D01*
X228418Y111647D01*
X228372Y111604D01*
X228324Y111564D01*
X228273Y111526D01*
X228221Y111492D01*
X228166Y111461D01*
X228109Y111434D01*
X228051Y111410D01*
X227992Y111389D01*
X227931Y111372D01*
X227870Y111359D01*
X227807Y111350D01*
X227745Y111344D01*
X227682Y111342D01*
X226642Y111342D01*
X226563Y111344D01*
X226484Y111350D01*
X226405Y111359D01*
X226327Y111372D01*
X226249Y111389D01*
X226173Y111409D01*
X226097Y111434D01*
X226023Y111461D01*
X225950Y111492D01*
X225879Y111527D01*
X225810Y111565D01*
X225742Y111606D01*
X225676Y111651D01*
X225613Y111698D01*
X225552Y111749D01*
X225493Y111802D01*
X225437Y111858D01*
X225384Y111917D01*
X225333Y111978D01*
X225286Y112041D01*
X225241Y112107D01*
X225200Y112174D01*
X225162Y112244D01*
X225127Y112315D01*
X225096Y112388D01*
X225069Y112462D01*
X225044Y112538D01*
X225024Y112614D01*
X225007Y112692D01*
X224994Y112770D01*
X224985Y112849D01*
X224979Y112928D01*
X224977Y113007D01*
D18*
X197016Y322000D02*
X183016Y322000D01*
X197016Y322000D02*
X197016Y348000D01*
X155016Y348000D02*
X155016Y322000D01*
X169016Y322000D01*
X183016Y348000D02*
X197016Y348000D01*
X169016Y348000D02*
X155016Y348000D01*
X183016Y321000D02*
X196016Y321000D01*
X169016Y321000D02*
X156016Y321000D01*
X183016Y320000D02*
X197016Y320000D01*
X169016Y320000D02*
X155016Y320000D01*
X197016Y320000D02*
X197016Y322000D01*
X183016Y322000D02*
X183016Y320000D01*
X169016Y320000D02*
X169016Y322000D01*
X155016Y322000D02*
X155016Y320000D01*
D10*
X204315Y341097D02*
X204366Y341095D01*
X204417Y341090D01*
X204468Y341081D01*
X204518Y341068D01*
X204567Y341052D01*
X204614Y341032D01*
X204660Y341009D01*
X204704Y340983D01*
X204746Y340953D01*
X204787Y340921D01*
X204824Y340886D01*
X204859Y340848D01*
X204891Y340808D01*
X204921Y340766D01*
X204947Y340722D01*
X204970Y340676D01*
X204990Y340629D01*
X205006Y340580D01*
X205019Y340530D01*
X205028Y340479D01*
X205033Y340428D01*
X205035Y340377D01*
X205033Y340302D01*
X205028Y340227D01*
X205018Y340153D01*
X205005Y340079D01*
X204989Y340006D01*
X204969Y339933D01*
X204945Y339862D01*
X204918Y339792D01*
X204888Y339724D01*
X204854Y339657D01*
X204817Y339592D01*
X204776Y339529D01*
X204733Y339467D01*
X204686Y339408D01*
X204637Y339352D01*
X204585Y339298D01*
X202517Y339387D02*
X202466Y339389D01*
X202415Y339394D01*
X202364Y339403D01*
X202314Y339416D01*
X202265Y339432D01*
X202218Y339452D01*
X202172Y339475D01*
X202128Y339501D01*
X202086Y339531D01*
X202046Y339563D01*
X202008Y339598D01*
X201973Y339636D01*
X201941Y339676D01*
X201911Y339718D01*
X201885Y339762D01*
X201862Y339808D01*
X201842Y339855D01*
X201826Y339904D01*
X201813Y339954D01*
X201804Y340005D01*
X201799Y340056D01*
X201797Y340107D01*
X201799Y340179D01*
X201805Y340251D01*
X201814Y340323D01*
X201828Y340394D01*
X201845Y340464D01*
X201866Y340534D01*
X201891Y340602D01*
X201919Y340668D01*
X201951Y340733D01*
X201986Y340796D01*
X202025Y340857D01*
X202067Y340916D01*
X203147Y339747D02*
X203120Y339704D01*
X203090Y339664D01*
X203057Y339625D01*
X203021Y339589D01*
X202984Y339555D01*
X202944Y339524D01*
X202901Y339496D01*
X202857Y339471D01*
X202812Y339449D01*
X202765Y339430D01*
X202717Y339415D01*
X202668Y339403D01*
X202618Y339394D01*
X202568Y339389D01*
X202517Y339387D01*
X203685Y340737D02*
X203712Y340780D01*
X203742Y340821D01*
X203775Y340859D01*
X203811Y340895D01*
X203848Y340929D01*
X203889Y340960D01*
X203931Y340988D01*
X203975Y341013D01*
X204020Y341035D01*
X204067Y341054D01*
X204115Y341069D01*
X204164Y341081D01*
X204214Y341090D01*
X204264Y341095D01*
X204315Y341097D01*
X203686Y340737D02*
X203146Y339747D01*
X205035Y342910D02*
X205035Y344349D01*
X205035Y342910D02*
X201797Y342910D01*
X201797Y344349D01*
X203236Y343989D02*
X203236Y342910D01*
X205035Y346599D02*
X205035Y347319D01*
X205035Y346599D02*
X205033Y346548D01*
X205028Y346497D01*
X205019Y346446D01*
X205006Y346396D01*
X204990Y346347D01*
X204970Y346300D01*
X204947Y346254D01*
X204921Y346210D01*
X204891Y346168D01*
X204859Y346128D01*
X204824Y346090D01*
X204787Y346055D01*
X204746Y346023D01*
X204704Y345993D01*
X204660Y345967D01*
X204614Y345944D01*
X204567Y345924D01*
X204518Y345908D01*
X204468Y345895D01*
X204417Y345886D01*
X204366Y345881D01*
X204315Y345879D01*
X204315Y345880D02*
X202517Y345880D01*
X202517Y345879D02*
X202466Y345881D01*
X202415Y345886D01*
X202364Y345895D01*
X202314Y345908D01*
X202265Y345924D01*
X202218Y345944D01*
X202172Y345967D01*
X202128Y345993D01*
X202086Y346023D01*
X202046Y346055D01*
X202008Y346090D01*
X201973Y346127D01*
X201941Y346168D01*
X201911Y346210D01*
X201885Y346254D01*
X201862Y346300D01*
X201842Y346347D01*
X201826Y346396D01*
X201813Y346446D01*
X201804Y346497D01*
X201799Y346548D01*
X201797Y346599D01*
X201797Y347319D01*
D18*
X240978Y101397D02*
X240978Y72187D01*
X228278Y72187D01*
X228278Y101397D01*
X240978Y101397D01*
D10*
X247264Y85530D02*
X247264Y84810D01*
X247262Y84759D01*
X247257Y84708D01*
X247248Y84657D01*
X247235Y84607D01*
X247219Y84558D01*
X247199Y84511D01*
X247176Y84465D01*
X247150Y84421D01*
X247120Y84379D01*
X247088Y84339D01*
X247053Y84301D01*
X247016Y84266D01*
X246975Y84234D01*
X246933Y84204D01*
X246889Y84178D01*
X246843Y84155D01*
X246796Y84135D01*
X246747Y84119D01*
X246697Y84106D01*
X246646Y84097D01*
X246595Y84092D01*
X246544Y84090D01*
X244746Y84090D01*
X244695Y84092D01*
X244644Y84097D01*
X244593Y84106D01*
X244543Y84119D01*
X244494Y84135D01*
X244447Y84155D01*
X244401Y84178D01*
X244357Y84204D01*
X244315Y84234D01*
X244275Y84266D01*
X244237Y84301D01*
X244202Y84338D01*
X244170Y84379D01*
X244140Y84421D01*
X244114Y84465D01*
X244091Y84511D01*
X244071Y84558D01*
X244055Y84607D01*
X244042Y84657D01*
X244033Y84708D01*
X244028Y84759D01*
X244026Y84810D01*
X244026Y85530D01*
X244746Y87108D02*
X244026Y88008D01*
X247264Y88008D01*
X247264Y88907D02*
X247264Y87108D01*
X244026Y91698D02*
X244028Y91753D01*
X244034Y91808D01*
X244043Y91863D01*
X244056Y91917D01*
X244073Y91969D01*
X244093Y92021D01*
X244117Y92071D01*
X244144Y92119D01*
X244174Y92165D01*
X244208Y92209D01*
X244244Y92251D01*
X244283Y92290D01*
X244325Y92326D01*
X244369Y92360D01*
X244415Y92390D01*
X244463Y92417D01*
X244513Y92441D01*
X244565Y92461D01*
X244617Y92478D01*
X244671Y92491D01*
X244726Y92500D01*
X244781Y92506D01*
X244836Y92508D01*
X244026Y91698D02*
X244028Y91636D01*
X244033Y91574D01*
X244043Y91512D01*
X244056Y91451D01*
X244072Y91391D01*
X244092Y91332D01*
X244116Y91275D01*
X244143Y91219D01*
X244173Y91164D01*
X244207Y91112D01*
X244244Y91061D01*
X244283Y91013D01*
X244326Y90968D01*
X244371Y90925D01*
X244418Y90884D01*
X244468Y90847D01*
X244520Y90813D01*
X244574Y90782D01*
X244630Y90754D01*
X244687Y90730D01*
X244746Y90709D01*
X245466Y92238D02*
X245424Y92279D01*
X245380Y92317D01*
X245332Y92352D01*
X245283Y92384D01*
X245232Y92413D01*
X245179Y92438D01*
X245124Y92459D01*
X245068Y92476D01*
X245011Y92490D01*
X244953Y92500D01*
X244895Y92506D01*
X244836Y92508D01*
X245465Y92237D02*
X247264Y90708D01*
X247264Y92507D01*
D18*
X226298Y101411D02*
X226298Y72201D01*
X213598Y72201D01*
X213598Y101411D01*
X226298Y101411D01*
D10*
X211248Y85036D02*
X211248Y84316D01*
X211246Y84265D01*
X211241Y84214D01*
X211232Y84163D01*
X211219Y84113D01*
X211203Y84064D01*
X211183Y84017D01*
X211160Y83971D01*
X211134Y83927D01*
X211104Y83885D01*
X211072Y83845D01*
X211037Y83807D01*
X211000Y83772D01*
X210959Y83740D01*
X210917Y83710D01*
X210873Y83684D01*
X210827Y83661D01*
X210780Y83641D01*
X210731Y83625D01*
X210681Y83612D01*
X210630Y83603D01*
X210579Y83598D01*
X210528Y83596D01*
X208730Y83596D01*
X208679Y83598D01*
X208628Y83603D01*
X208577Y83612D01*
X208527Y83625D01*
X208478Y83641D01*
X208431Y83661D01*
X208385Y83684D01*
X208341Y83710D01*
X208299Y83740D01*
X208259Y83772D01*
X208221Y83807D01*
X208186Y83844D01*
X208154Y83885D01*
X208124Y83927D01*
X208098Y83971D01*
X208075Y84017D01*
X208055Y84064D01*
X208039Y84113D01*
X208026Y84163D01*
X208017Y84214D01*
X208012Y84265D01*
X208010Y84316D01*
X208010Y85036D01*
X208730Y86614D02*
X208010Y87514D01*
X211248Y87514D01*
X211248Y88413D02*
X211248Y86614D01*
X211248Y90214D02*
X211248Y91114D01*
X211246Y91173D01*
X211240Y91231D01*
X211231Y91289D01*
X211217Y91347D01*
X211200Y91403D01*
X211180Y91458D01*
X211155Y91512D01*
X211128Y91564D01*
X211096Y91613D01*
X211062Y91661D01*
X211025Y91707D01*
X210985Y91750D01*
X210942Y91790D01*
X210896Y91827D01*
X210848Y91861D01*
X210799Y91893D01*
X210747Y91920D01*
X210693Y91945D01*
X210638Y91965D01*
X210582Y91982D01*
X210524Y91996D01*
X210466Y92005D01*
X210408Y92011D01*
X210349Y92013D01*
X210290Y92011D01*
X210232Y92005D01*
X210174Y91996D01*
X210116Y91982D01*
X210060Y91965D01*
X210005Y91945D01*
X209951Y91920D01*
X209900Y91893D01*
X209850Y91861D01*
X209802Y91827D01*
X209756Y91790D01*
X209713Y91750D01*
X209673Y91707D01*
X209636Y91661D01*
X209602Y91613D01*
X209570Y91564D01*
X209543Y91512D01*
X209518Y91458D01*
X209498Y91403D01*
X209481Y91347D01*
X209467Y91289D01*
X209458Y91231D01*
X209452Y91173D01*
X209450Y91114D01*
X208010Y91293D02*
X208010Y90214D01*
X208010Y91293D02*
X208012Y91346D01*
X208018Y91398D01*
X208027Y91450D01*
X208041Y91500D01*
X208058Y91550D01*
X208078Y91599D01*
X208102Y91645D01*
X208130Y91690D01*
X208160Y91733D01*
X208194Y91773D01*
X208230Y91811D01*
X208269Y91846D01*
X208311Y91879D01*
X208355Y91908D01*
X208401Y91933D01*
X208448Y91956D01*
X208498Y91974D01*
X208548Y91990D01*
X208599Y92001D01*
X208651Y92009D01*
X208704Y92013D01*
X208756Y92013D01*
X208809Y92009D01*
X208861Y92001D01*
X208912Y91990D01*
X208962Y91974D01*
X209012Y91956D01*
X209059Y91933D01*
X209105Y91908D01*
X209149Y91879D01*
X209191Y91846D01*
X209230Y91811D01*
X209266Y91773D01*
X209300Y91733D01*
X209330Y91690D01*
X209358Y91645D01*
X209382Y91599D01*
X209402Y91550D01*
X209419Y91500D01*
X209433Y91450D01*
X209442Y91398D01*
X209448Y91346D01*
X209450Y91293D01*
X209449Y91293D02*
X209449Y90574D01*
D18*
X25344Y206359D02*
X25344Y235569D01*
X25344Y206359D02*
X12644Y206359D01*
X12644Y235569D01*
X25344Y235569D01*
D10*
X9786Y217924D02*
X9786Y217204D01*
X9784Y217153D01*
X9779Y217102D01*
X9770Y217051D01*
X9757Y217001D01*
X9741Y216952D01*
X9721Y216905D01*
X9698Y216859D01*
X9672Y216815D01*
X9642Y216773D01*
X9610Y216733D01*
X9575Y216695D01*
X9538Y216660D01*
X9497Y216628D01*
X9455Y216598D01*
X9411Y216572D01*
X9365Y216549D01*
X9318Y216529D01*
X9269Y216513D01*
X9219Y216500D01*
X9168Y216491D01*
X9117Y216486D01*
X9066Y216484D01*
X7268Y216484D01*
X7217Y216486D01*
X7166Y216491D01*
X7115Y216500D01*
X7065Y216513D01*
X7016Y216529D01*
X6969Y216549D01*
X6923Y216572D01*
X6879Y216598D01*
X6837Y216628D01*
X6797Y216660D01*
X6759Y216695D01*
X6724Y216732D01*
X6692Y216773D01*
X6662Y216815D01*
X6636Y216859D01*
X6613Y216905D01*
X6593Y216952D01*
X6577Y217001D01*
X6564Y217051D01*
X6555Y217102D01*
X6550Y217153D01*
X6548Y217204D01*
X6548Y217924D01*
X7268Y219502D02*
X6548Y220402D01*
X9786Y220402D01*
X9786Y221301D02*
X9786Y219502D01*
X9066Y223102D02*
X6548Y223822D01*
X9066Y223102D02*
X9066Y224901D01*
X8347Y224361D02*
X9786Y224361D01*
D18*
X61745Y298650D02*
X90955Y298650D01*
X61745Y298650D02*
X61745Y311350D01*
X90955Y311350D01*
X90955Y298650D01*
D10*
X51624Y302016D02*
X51624Y305254D01*
X51624Y302016D02*
X53063Y302016D01*
X55602Y305255D02*
X55657Y305253D01*
X55712Y305247D01*
X55767Y305238D01*
X55821Y305225D01*
X55873Y305208D01*
X55925Y305188D01*
X55975Y305164D01*
X56023Y305137D01*
X56069Y305107D01*
X56113Y305073D01*
X56155Y305037D01*
X56194Y304998D01*
X56230Y304956D01*
X56264Y304912D01*
X56294Y304866D01*
X56321Y304818D01*
X56345Y304768D01*
X56365Y304716D01*
X56382Y304664D01*
X56395Y304610D01*
X56404Y304555D01*
X56410Y304500D01*
X56412Y304445D01*
X55602Y305254D02*
X55540Y305252D01*
X55478Y305247D01*
X55416Y305237D01*
X55355Y305224D01*
X55295Y305208D01*
X55236Y305188D01*
X55179Y305164D01*
X55123Y305137D01*
X55068Y305107D01*
X55016Y305073D01*
X54965Y305036D01*
X54917Y304997D01*
X54872Y304954D01*
X54829Y304909D01*
X54788Y304862D01*
X54751Y304812D01*
X54717Y304760D01*
X54686Y304706D01*
X54658Y304650D01*
X54634Y304593D01*
X54613Y304534D01*
X56142Y303815D02*
X56183Y303857D01*
X56221Y303901D01*
X56256Y303949D01*
X56288Y303998D01*
X56317Y304049D01*
X56342Y304102D01*
X56363Y304157D01*
X56380Y304213D01*
X56394Y304270D01*
X56404Y304328D01*
X56410Y304386D01*
X56412Y304445D01*
X56141Y303815D02*
X54612Y302016D01*
X56411Y302016D01*
D18*
X91897Y298758D02*
X121107Y298758D01*
X91897Y298758D02*
X91897Y311458D01*
X121107Y311458D01*
X121107Y298758D01*
D10*
X103208Y314062D02*
X102488Y314062D01*
X102437Y314064D01*
X102386Y314069D01*
X102335Y314078D01*
X102285Y314091D01*
X102236Y314107D01*
X102189Y314127D01*
X102143Y314150D01*
X102099Y314176D01*
X102057Y314206D01*
X102017Y314238D01*
X101979Y314273D01*
X101944Y314311D01*
X101912Y314351D01*
X101882Y314393D01*
X101856Y314437D01*
X101833Y314483D01*
X101813Y314530D01*
X101797Y314579D01*
X101784Y314629D01*
X101775Y314680D01*
X101770Y314731D01*
X101768Y314782D01*
X101768Y316580D01*
X101770Y316631D01*
X101775Y316682D01*
X101784Y316733D01*
X101797Y316783D01*
X101813Y316832D01*
X101833Y316879D01*
X101856Y316925D01*
X101882Y316969D01*
X101912Y317011D01*
X101944Y317051D01*
X101979Y317089D01*
X102016Y317124D01*
X102057Y317156D01*
X102099Y317186D01*
X102143Y317212D01*
X102189Y317235D01*
X102236Y317255D01*
X102285Y317271D01*
X102335Y317284D01*
X102386Y317293D01*
X102437Y317298D01*
X102488Y317300D01*
X103208Y317300D01*
X104786Y316580D02*
X105686Y317300D01*
X105686Y314062D01*
X106585Y314062D02*
X104786Y314062D01*
X108386Y314062D02*
X109465Y314062D01*
X109516Y314064D01*
X109567Y314069D01*
X109618Y314078D01*
X109668Y314091D01*
X109717Y314107D01*
X109764Y314127D01*
X109810Y314150D01*
X109854Y314176D01*
X109896Y314206D01*
X109936Y314238D01*
X109974Y314273D01*
X110009Y314310D01*
X110041Y314351D01*
X110071Y314393D01*
X110097Y314437D01*
X110120Y314483D01*
X110140Y314530D01*
X110156Y314579D01*
X110169Y314629D01*
X110178Y314680D01*
X110183Y314731D01*
X110185Y314782D01*
X110185Y315141D01*
X110183Y315192D01*
X110178Y315243D01*
X110169Y315294D01*
X110156Y315344D01*
X110140Y315393D01*
X110120Y315440D01*
X110097Y315486D01*
X110071Y315530D01*
X110041Y315572D01*
X110009Y315612D01*
X109974Y315650D01*
X109936Y315685D01*
X109896Y315717D01*
X109854Y315747D01*
X109810Y315773D01*
X109764Y315796D01*
X109717Y315816D01*
X109668Y315832D01*
X109618Y315845D01*
X109567Y315854D01*
X109516Y315859D01*
X109465Y315861D01*
X108386Y315861D01*
X108386Y317300D01*
X110185Y317300D01*
D18*
X153951Y311350D02*
X183161Y311350D01*
X183161Y298650D01*
X153951Y298650D01*
X153951Y311350D01*
D10*
X186717Y306460D02*
X186717Y303222D01*
X188156Y303222D01*
X189705Y303222D02*
X190604Y303222D01*
X190663Y303224D01*
X190721Y303230D01*
X190779Y303239D01*
X190837Y303253D01*
X190893Y303270D01*
X190948Y303290D01*
X191002Y303315D01*
X191054Y303342D01*
X191103Y303374D01*
X191151Y303408D01*
X191197Y303445D01*
X191240Y303485D01*
X191280Y303528D01*
X191317Y303574D01*
X191351Y303622D01*
X191383Y303672D01*
X191410Y303723D01*
X191435Y303777D01*
X191455Y303832D01*
X191472Y303888D01*
X191486Y303946D01*
X191495Y304004D01*
X191501Y304062D01*
X191503Y304121D01*
X191501Y304180D01*
X191495Y304238D01*
X191486Y304296D01*
X191472Y304354D01*
X191455Y304410D01*
X191435Y304465D01*
X191410Y304519D01*
X191383Y304571D01*
X191351Y304620D01*
X191317Y304668D01*
X191280Y304714D01*
X191240Y304757D01*
X191197Y304797D01*
X191151Y304834D01*
X191103Y304868D01*
X191054Y304900D01*
X191002Y304927D01*
X190948Y304952D01*
X190893Y304972D01*
X190837Y304989D01*
X190779Y305003D01*
X190721Y305012D01*
X190663Y305018D01*
X190604Y305020D01*
X190784Y306460D02*
X189705Y306460D01*
X190784Y306460D02*
X190837Y306458D01*
X190889Y306452D01*
X190941Y306443D01*
X190991Y306429D01*
X191041Y306412D01*
X191090Y306392D01*
X191136Y306368D01*
X191181Y306340D01*
X191224Y306310D01*
X191264Y306276D01*
X191302Y306240D01*
X191337Y306201D01*
X191370Y306159D01*
X191399Y306115D01*
X191424Y306069D01*
X191447Y306022D01*
X191465Y305972D01*
X191481Y305922D01*
X191492Y305871D01*
X191500Y305819D01*
X191504Y305766D01*
X191504Y305714D01*
X191500Y305661D01*
X191492Y305609D01*
X191481Y305558D01*
X191465Y305508D01*
X191447Y305458D01*
X191424Y305411D01*
X191399Y305365D01*
X191370Y305321D01*
X191337Y305279D01*
X191302Y305240D01*
X191264Y305204D01*
X191224Y305170D01*
X191181Y305140D01*
X191136Y305112D01*
X191090Y305088D01*
X191041Y305068D01*
X190991Y305051D01*
X190941Y305037D01*
X190889Y305028D01*
X190837Y305022D01*
X190784Y305020D01*
X190784Y305021D02*
X190065Y305021D01*
D18*
X151637Y311350D02*
X122427Y311350D01*
X151637Y311350D02*
X151637Y298650D01*
X122427Y298650D01*
X122427Y311350D01*
D10*
X125433Y314906D02*
X126152Y314906D01*
X125433Y314906D02*
X125382Y314908D01*
X125331Y314913D01*
X125280Y314922D01*
X125230Y314935D01*
X125181Y314951D01*
X125134Y314971D01*
X125088Y314994D01*
X125044Y315020D01*
X125002Y315050D01*
X124962Y315082D01*
X124924Y315117D01*
X124889Y315155D01*
X124857Y315195D01*
X124827Y315237D01*
X124801Y315281D01*
X124778Y315327D01*
X124758Y315374D01*
X124742Y315423D01*
X124729Y315473D01*
X124720Y315524D01*
X124715Y315575D01*
X124713Y315626D01*
X124713Y317424D01*
X124715Y317475D01*
X124720Y317526D01*
X124729Y317577D01*
X124742Y317627D01*
X124758Y317676D01*
X124778Y317723D01*
X124801Y317769D01*
X124827Y317813D01*
X124857Y317855D01*
X124889Y317895D01*
X124924Y317933D01*
X124961Y317968D01*
X125002Y318000D01*
X125044Y318030D01*
X125088Y318056D01*
X125134Y318079D01*
X125181Y318099D01*
X125230Y318115D01*
X125280Y318128D01*
X125331Y318137D01*
X125382Y318142D01*
X125433Y318144D01*
X126152Y318144D01*
X127731Y317424D02*
X128630Y318144D01*
X128630Y314906D01*
X127731Y314906D02*
X129530Y314906D01*
X131331Y316705D02*
X132410Y316705D01*
X132461Y316703D01*
X132512Y316698D01*
X132563Y316689D01*
X132613Y316676D01*
X132662Y316660D01*
X132709Y316640D01*
X132755Y316617D01*
X132799Y316591D01*
X132841Y316561D01*
X132881Y316529D01*
X132919Y316494D01*
X132954Y316456D01*
X132986Y316416D01*
X133016Y316374D01*
X133042Y316330D01*
X133065Y316284D01*
X133085Y316237D01*
X133101Y316188D01*
X133114Y316138D01*
X133123Y316087D01*
X133128Y316036D01*
X133130Y315985D01*
X133130Y315805D01*
X133129Y315805D02*
X133127Y315746D01*
X133121Y315688D01*
X133112Y315630D01*
X133098Y315572D01*
X133081Y315516D01*
X133061Y315461D01*
X133036Y315407D01*
X133009Y315356D01*
X132977Y315306D01*
X132943Y315258D01*
X132906Y315212D01*
X132866Y315169D01*
X132823Y315129D01*
X132777Y315092D01*
X132729Y315058D01*
X132680Y315026D01*
X132628Y314999D01*
X132574Y314974D01*
X132519Y314954D01*
X132463Y314937D01*
X132405Y314923D01*
X132347Y314914D01*
X132289Y314908D01*
X132230Y314906D01*
X132171Y314908D01*
X132113Y314914D01*
X132055Y314923D01*
X131997Y314937D01*
X131941Y314954D01*
X131886Y314974D01*
X131832Y314999D01*
X131781Y315026D01*
X131731Y315058D01*
X131683Y315092D01*
X131637Y315129D01*
X131594Y315169D01*
X131554Y315212D01*
X131517Y315258D01*
X131483Y315306D01*
X131451Y315356D01*
X131424Y315407D01*
X131399Y315461D01*
X131379Y315516D01*
X131362Y315572D01*
X131348Y315630D01*
X131339Y315688D01*
X131333Y315746D01*
X131331Y315805D01*
X131331Y316705D01*
X131333Y316780D01*
X131339Y316855D01*
X131349Y316930D01*
X131362Y317004D01*
X131380Y317077D01*
X131401Y317150D01*
X131427Y317221D01*
X131455Y317290D01*
X131488Y317358D01*
X131524Y317424D01*
X131563Y317489D01*
X131606Y317551D01*
X131652Y317611D01*
X131701Y317668D01*
X131752Y317723D01*
X131807Y317774D01*
X131864Y317823D01*
X131924Y317869D01*
X131986Y317912D01*
X132050Y317951D01*
X132117Y317987D01*
X132185Y318020D01*
X132254Y318048D01*
X132325Y318074D01*
X132398Y318095D01*
X132471Y318113D01*
X132545Y318126D01*
X132620Y318136D01*
X132695Y318142D01*
X132770Y318144D01*
D18*
X231414Y169280D02*
X231414Y141280D01*
X244414Y141280D02*
X244414Y169280D01*
X231414Y169280D01*
X231414Y141280D02*
X244414Y141280D01*
X237914Y157280D02*
X233914Y157280D01*
X237914Y157280D02*
X241914Y157280D01*
X237914Y157280D02*
X233914Y153280D01*
X241914Y153280D01*
X237914Y157280D01*
D10*
X228643Y149226D02*
X228643Y147787D01*
X225405Y147787D01*
X225405Y149226D01*
X226844Y148866D02*
X226844Y147787D01*
X225405Y150934D02*
X228643Y150934D01*
X225405Y150934D02*
X225405Y151834D01*
X225407Y151893D01*
X225413Y151951D01*
X225422Y152009D01*
X225436Y152067D01*
X225453Y152123D01*
X225473Y152178D01*
X225498Y152232D01*
X225525Y152284D01*
X225557Y152333D01*
X225591Y152381D01*
X225628Y152427D01*
X225668Y152470D01*
X225711Y152510D01*
X225757Y152547D01*
X225805Y152581D01*
X225855Y152613D01*
X225906Y152640D01*
X225960Y152665D01*
X226015Y152685D01*
X226071Y152702D01*
X226129Y152716D01*
X226187Y152725D01*
X226245Y152731D01*
X226304Y152733D01*
X226363Y152731D01*
X226421Y152725D01*
X226479Y152716D01*
X226537Y152702D01*
X226593Y152685D01*
X226648Y152665D01*
X226702Y152640D01*
X226754Y152613D01*
X226803Y152581D01*
X226851Y152547D01*
X226897Y152510D01*
X226940Y152470D01*
X226980Y152427D01*
X227017Y152381D01*
X227051Y152333D01*
X227083Y152284D01*
X227110Y152232D01*
X227135Y152178D01*
X227155Y152123D01*
X227172Y152067D01*
X227186Y152009D01*
X227195Y151951D01*
X227201Y151893D01*
X227203Y151834D01*
X227204Y151834D02*
X227204Y150934D01*
X227204Y152013D02*
X228643Y152733D01*
X228643Y154654D02*
X225405Y154654D01*
X225405Y155554D01*
X225407Y155613D01*
X225413Y155671D01*
X225422Y155729D01*
X225436Y155787D01*
X225453Y155843D01*
X225473Y155898D01*
X225498Y155952D01*
X225525Y156004D01*
X225557Y156053D01*
X225591Y156101D01*
X225628Y156147D01*
X225668Y156190D01*
X225711Y156230D01*
X225757Y156267D01*
X225805Y156301D01*
X225855Y156333D01*
X225906Y156360D01*
X225960Y156385D01*
X226015Y156405D01*
X226071Y156422D01*
X226129Y156436D01*
X226187Y156445D01*
X226245Y156451D01*
X226304Y156453D01*
X226363Y156451D01*
X226421Y156445D01*
X226479Y156436D01*
X226537Y156422D01*
X226593Y156405D01*
X226648Y156385D01*
X226702Y156360D01*
X226754Y156333D01*
X226803Y156301D01*
X226851Y156267D01*
X226897Y156230D01*
X226940Y156190D01*
X226980Y156147D01*
X227017Y156101D01*
X227051Y156053D01*
X227083Y156004D01*
X227110Y155952D01*
X227135Y155898D01*
X227155Y155843D01*
X227172Y155787D01*
X227186Y155729D01*
X227195Y155671D01*
X227201Y155613D01*
X227203Y155554D01*
X227204Y155554D02*
X227204Y154654D01*
X227204Y155733D02*
X228643Y156453D01*
D18*
X248310Y169280D02*
X248310Y141280D01*
X261310Y141280D02*
X261310Y169280D01*
X248310Y169280D01*
X248310Y141280D02*
X261310Y141280D01*
X254810Y157280D02*
X250810Y157280D01*
X254810Y157280D02*
X258810Y157280D01*
X254810Y157280D02*
X250810Y153280D01*
X258810Y153280D01*
X254810Y157280D01*
D10*
X263637Y149311D02*
X266875Y149311D01*
X263637Y149311D02*
X263637Y150210D01*
X263639Y150269D01*
X263645Y150327D01*
X263654Y150385D01*
X263668Y150443D01*
X263685Y150499D01*
X263705Y150554D01*
X263730Y150608D01*
X263757Y150660D01*
X263789Y150709D01*
X263823Y150757D01*
X263860Y150803D01*
X263900Y150846D01*
X263943Y150886D01*
X263989Y150923D01*
X264037Y150957D01*
X264087Y150989D01*
X264138Y151016D01*
X264192Y151041D01*
X264247Y151061D01*
X264303Y151078D01*
X264361Y151092D01*
X264419Y151101D01*
X264477Y151107D01*
X264536Y151109D01*
X264595Y151107D01*
X264653Y151101D01*
X264711Y151092D01*
X264769Y151078D01*
X264825Y151061D01*
X264880Y151041D01*
X264934Y151016D01*
X264986Y150989D01*
X265035Y150957D01*
X265083Y150923D01*
X265129Y150886D01*
X265172Y150846D01*
X265212Y150803D01*
X265249Y150757D01*
X265283Y150709D01*
X265315Y150660D01*
X265342Y150608D01*
X265367Y150554D01*
X265387Y150499D01*
X265404Y150443D01*
X265418Y150385D01*
X265427Y150327D01*
X265433Y150269D01*
X265435Y150210D01*
X265436Y150210D02*
X265436Y149311D01*
X263637Y152521D02*
X266875Y153600D01*
X263637Y154680D01*
X263637Y156960D02*
X266875Y156960D01*
X263637Y156061D02*
X263637Y157860D01*
D18*
X248460Y139885D02*
X248460Y110675D01*
X248460Y139885D02*
X261160Y139885D01*
X261160Y110675D01*
X248460Y110675D01*
D10*
X265034Y120327D02*
X268272Y120327D01*
X265034Y120327D02*
X265034Y121226D01*
X265036Y121285D01*
X265042Y121343D01*
X265051Y121401D01*
X265065Y121459D01*
X265082Y121515D01*
X265102Y121570D01*
X265127Y121624D01*
X265154Y121676D01*
X265186Y121725D01*
X265220Y121773D01*
X265257Y121819D01*
X265297Y121862D01*
X265340Y121902D01*
X265386Y121939D01*
X265434Y121973D01*
X265484Y122005D01*
X265535Y122032D01*
X265589Y122057D01*
X265644Y122077D01*
X265700Y122094D01*
X265758Y122108D01*
X265816Y122117D01*
X265874Y122123D01*
X265933Y122125D01*
X265992Y122123D01*
X266050Y122117D01*
X266108Y122108D01*
X266166Y122094D01*
X266222Y122077D01*
X266277Y122057D01*
X266331Y122032D01*
X266383Y122005D01*
X266432Y121973D01*
X266480Y121939D01*
X266526Y121902D01*
X266569Y121862D01*
X266609Y121819D01*
X266646Y121773D01*
X266680Y121725D01*
X266712Y121676D01*
X266739Y121624D01*
X266764Y121570D01*
X266784Y121515D01*
X266801Y121459D01*
X266815Y121401D01*
X266824Y121343D01*
X266830Y121285D01*
X266832Y121226D01*
X266833Y121226D02*
X266833Y120327D01*
X266833Y121406D02*
X268272Y122126D01*
X265394Y123888D02*
X265034Y123888D01*
X265034Y125687D01*
X268272Y124787D01*
D18*
X231564Y110675D02*
X231564Y139885D01*
X244264Y139885D01*
X244264Y110675D01*
X231564Y110675D01*
D10*
X228008Y120835D02*
X224770Y120835D01*
X224770Y121734D01*
X224772Y121793D01*
X224778Y121851D01*
X224787Y121909D01*
X224801Y121967D01*
X224818Y122023D01*
X224838Y122078D01*
X224863Y122132D01*
X224890Y122184D01*
X224922Y122233D01*
X224956Y122281D01*
X224993Y122327D01*
X225033Y122370D01*
X225076Y122410D01*
X225122Y122447D01*
X225170Y122481D01*
X225220Y122513D01*
X225271Y122540D01*
X225325Y122565D01*
X225380Y122585D01*
X225436Y122602D01*
X225494Y122616D01*
X225552Y122625D01*
X225610Y122631D01*
X225669Y122633D01*
X225728Y122631D01*
X225786Y122625D01*
X225844Y122616D01*
X225902Y122602D01*
X225958Y122585D01*
X226013Y122565D01*
X226067Y122540D01*
X226119Y122513D01*
X226168Y122481D01*
X226216Y122447D01*
X226262Y122410D01*
X226305Y122370D01*
X226345Y122327D01*
X226382Y122281D01*
X226416Y122233D01*
X226448Y122184D01*
X226475Y122132D01*
X226500Y122078D01*
X226520Y122023D01*
X226537Y121967D01*
X226551Y121909D01*
X226560Y121851D01*
X226566Y121793D01*
X226568Y121734D01*
X226569Y121734D02*
X226569Y120835D01*
X226569Y121914D02*
X228008Y122634D01*
X227109Y124396D02*
X227050Y124398D01*
X226992Y124404D01*
X226934Y124413D01*
X226876Y124427D01*
X226820Y124444D01*
X226765Y124464D01*
X226711Y124489D01*
X226660Y124516D01*
X226610Y124548D01*
X226562Y124582D01*
X226516Y124619D01*
X226473Y124659D01*
X226433Y124702D01*
X226396Y124748D01*
X226362Y124796D01*
X226330Y124846D01*
X226303Y124897D01*
X226278Y124951D01*
X226258Y125006D01*
X226241Y125062D01*
X226227Y125120D01*
X226218Y125178D01*
X226212Y125236D01*
X226210Y125295D01*
X226212Y125354D01*
X226218Y125412D01*
X226227Y125470D01*
X226241Y125528D01*
X226258Y125584D01*
X226278Y125639D01*
X226303Y125693D01*
X226330Y125745D01*
X226362Y125794D01*
X226396Y125842D01*
X226433Y125888D01*
X226473Y125931D01*
X226516Y125971D01*
X226562Y126008D01*
X226610Y126042D01*
X226660Y126074D01*
X226711Y126101D01*
X226765Y126126D01*
X226820Y126146D01*
X226876Y126163D01*
X226934Y126177D01*
X226992Y126186D01*
X227050Y126192D01*
X227109Y126194D01*
X227168Y126192D01*
X227226Y126186D01*
X227284Y126177D01*
X227342Y126163D01*
X227398Y126146D01*
X227453Y126126D01*
X227507Y126101D01*
X227559Y126074D01*
X227608Y126042D01*
X227656Y126008D01*
X227702Y125971D01*
X227745Y125931D01*
X227785Y125888D01*
X227822Y125842D01*
X227856Y125794D01*
X227888Y125745D01*
X227915Y125693D01*
X227940Y125639D01*
X227960Y125584D01*
X227977Y125528D01*
X227991Y125470D01*
X228000Y125412D01*
X228006Y125354D01*
X228008Y125295D01*
X228006Y125236D01*
X228000Y125178D01*
X227991Y125120D01*
X227977Y125062D01*
X227960Y125006D01*
X227940Y124951D01*
X227915Y124897D01*
X227888Y124846D01*
X227856Y124796D01*
X227822Y124748D01*
X227785Y124702D01*
X227745Y124659D01*
X227702Y124619D01*
X227656Y124582D01*
X227608Y124548D01*
X227559Y124516D01*
X227507Y124489D01*
X227453Y124464D01*
X227398Y124444D01*
X227342Y124427D01*
X227284Y124413D01*
X227226Y124404D01*
X227168Y124398D01*
X227109Y124396D01*
X225490Y124575D02*
X225437Y124577D01*
X225385Y124583D01*
X225333Y124592D01*
X225283Y124606D01*
X225233Y124623D01*
X225184Y124643D01*
X225138Y124667D01*
X225093Y124695D01*
X225050Y124725D01*
X225010Y124759D01*
X224972Y124795D01*
X224937Y124834D01*
X224904Y124876D01*
X224875Y124920D01*
X224850Y124966D01*
X224827Y125013D01*
X224809Y125063D01*
X224793Y125113D01*
X224782Y125164D01*
X224774Y125216D01*
X224770Y125269D01*
X224770Y125321D01*
X224774Y125374D01*
X224782Y125426D01*
X224793Y125477D01*
X224809Y125527D01*
X224827Y125577D01*
X224850Y125624D01*
X224875Y125670D01*
X224904Y125714D01*
X224937Y125756D01*
X224972Y125795D01*
X225010Y125831D01*
X225050Y125865D01*
X225093Y125895D01*
X225138Y125923D01*
X225184Y125947D01*
X225233Y125967D01*
X225283Y125984D01*
X225333Y125998D01*
X225385Y126007D01*
X225437Y126013D01*
X225490Y126015D01*
X225543Y126013D01*
X225595Y126007D01*
X225647Y125998D01*
X225697Y125984D01*
X225747Y125967D01*
X225796Y125947D01*
X225842Y125923D01*
X225887Y125895D01*
X225930Y125865D01*
X225970Y125831D01*
X226008Y125795D01*
X226043Y125756D01*
X226076Y125714D01*
X226105Y125670D01*
X226130Y125624D01*
X226153Y125577D01*
X226171Y125527D01*
X226187Y125477D01*
X226198Y125426D01*
X226206Y125374D01*
X226210Y125321D01*
X226210Y125269D01*
X226206Y125216D01*
X226198Y125164D01*
X226187Y125113D01*
X226171Y125063D01*
X226153Y125013D01*
X226130Y124966D01*
X226105Y124920D01*
X226076Y124876D01*
X226043Y124834D01*
X226008Y124795D01*
X225970Y124759D01*
X225930Y124725D01*
X225887Y124695D01*
X225842Y124667D01*
X225796Y124643D01*
X225747Y124623D01*
X225697Y124606D01*
X225647Y124592D01*
X225595Y124583D01*
X225543Y124577D01*
X225490Y124575D01*
X9613Y109497D02*
X9613Y106259D01*
X9613Y109497D02*
X10512Y109497D01*
X10571Y109495D01*
X10629Y109489D01*
X10687Y109480D01*
X10745Y109466D01*
X10801Y109449D01*
X10856Y109429D01*
X10910Y109404D01*
X10961Y109377D01*
X11011Y109345D01*
X11059Y109311D01*
X11105Y109274D01*
X11148Y109234D01*
X11188Y109191D01*
X11225Y109145D01*
X11259Y109097D01*
X11291Y109048D01*
X11318Y108996D01*
X11343Y108942D01*
X11363Y108887D01*
X11380Y108831D01*
X11394Y108773D01*
X11403Y108715D01*
X11409Y108657D01*
X11411Y108598D01*
X11409Y108539D01*
X11403Y108481D01*
X11394Y108423D01*
X11380Y108365D01*
X11363Y108309D01*
X11343Y108254D01*
X11318Y108200D01*
X11291Y108149D01*
X11259Y108099D01*
X11225Y108051D01*
X11188Y108005D01*
X11148Y107962D01*
X11105Y107922D01*
X11059Y107885D01*
X11011Y107851D01*
X10962Y107819D01*
X10910Y107792D01*
X10856Y107767D01*
X10801Y107747D01*
X10745Y107730D01*
X10687Y107716D01*
X10629Y107707D01*
X10571Y107701D01*
X10512Y107699D01*
X10512Y107698D02*
X9613Y107698D01*
X10692Y107698D02*
X11412Y106259D01*
X13833Y106259D02*
X13833Y109497D01*
X12934Y109497D02*
X14733Y109497D01*
X16504Y109497D02*
X16504Y106259D01*
X16504Y107518D02*
X18303Y109497D01*
X17223Y108238D02*
X18303Y106259D01*
D18*
X226096Y194497D02*
X226096Y223707D01*
X226096Y194497D02*
X213396Y194497D01*
X213396Y223707D01*
X226096Y223707D01*
D10*
X210792Y207586D02*
X210792Y206866D01*
X210790Y206815D01*
X210785Y206764D01*
X210776Y206713D01*
X210763Y206663D01*
X210747Y206614D01*
X210727Y206567D01*
X210704Y206521D01*
X210678Y206477D01*
X210648Y206435D01*
X210616Y206395D01*
X210581Y206357D01*
X210544Y206322D01*
X210503Y206290D01*
X210461Y206260D01*
X210417Y206234D01*
X210371Y206211D01*
X210324Y206191D01*
X210275Y206175D01*
X210225Y206162D01*
X210174Y206153D01*
X210123Y206148D01*
X210072Y206146D01*
X208274Y206146D01*
X208223Y206148D01*
X208172Y206153D01*
X208121Y206162D01*
X208071Y206175D01*
X208022Y206191D01*
X207975Y206211D01*
X207929Y206234D01*
X207885Y206260D01*
X207843Y206290D01*
X207803Y206322D01*
X207765Y206357D01*
X207730Y206394D01*
X207698Y206435D01*
X207668Y206477D01*
X207642Y206521D01*
X207619Y206567D01*
X207599Y206614D01*
X207583Y206663D01*
X207570Y206713D01*
X207561Y206764D01*
X207556Y206815D01*
X207554Y206866D01*
X207554Y207586D01*
X208274Y209164D02*
X207554Y210064D01*
X210792Y210064D01*
X210792Y210963D02*
X210792Y209164D01*
X207914Y212764D02*
X207554Y212764D01*
X207554Y214563D01*
X210792Y213664D01*
D16*
X374903Y282956D02*
X374903Y289560D01*
X374903Y286625D02*
X378572Y286625D01*
X378572Y289560D02*
X378572Y282956D01*
X382706Y282956D02*
X382706Y289560D01*
X384540Y289560D01*
X384625Y289558D01*
X384709Y289552D01*
X384793Y289542D01*
X384877Y289529D01*
X384960Y289511D01*
X385042Y289490D01*
X385123Y289465D01*
X385203Y289436D01*
X385281Y289404D01*
X385357Y289368D01*
X385432Y289328D01*
X385505Y289285D01*
X385576Y289239D01*
X385645Y289190D01*
X385712Y289137D01*
X385776Y289081D01*
X385837Y289023D01*
X385895Y288962D01*
X385951Y288898D01*
X386004Y288831D01*
X386053Y288762D01*
X386099Y288691D01*
X386142Y288618D01*
X386182Y288543D01*
X386218Y288467D01*
X386250Y288389D01*
X386279Y288309D01*
X386304Y288228D01*
X386325Y288146D01*
X386343Y288063D01*
X386356Y287979D01*
X386366Y287895D01*
X386372Y287811D01*
X386374Y287726D01*
X386375Y287726D02*
X386375Y284790D01*
X386374Y284790D02*
X386372Y284705D01*
X386366Y284621D01*
X386356Y284537D01*
X386343Y284453D01*
X386325Y284370D01*
X386304Y284288D01*
X386279Y284207D01*
X386250Y284127D01*
X386218Y284049D01*
X386182Y283973D01*
X386142Y283898D01*
X386099Y283825D01*
X386053Y283754D01*
X386004Y283685D01*
X385951Y283618D01*
X385895Y283554D01*
X385837Y283493D01*
X385776Y283435D01*
X385712Y283379D01*
X385645Y283326D01*
X385576Y283277D01*
X385505Y283231D01*
X385432Y283188D01*
X385357Y283148D01*
X385281Y283112D01*
X385203Y283080D01*
X385123Y283051D01*
X385042Y283026D01*
X384960Y283005D01*
X384877Y282987D01*
X384793Y282974D01*
X384709Y282964D01*
X384625Y282958D01*
X384540Y282956D01*
X382706Y282956D01*
X391612Y282956D02*
X391612Y289560D01*
X393446Y289560D02*
X389777Y289560D01*
X373552Y171196D02*
X373552Y164592D01*
X373552Y171196D02*
X375387Y171196D01*
X375472Y171194D01*
X375556Y171188D01*
X375640Y171178D01*
X375724Y171165D01*
X375807Y171147D01*
X375889Y171126D01*
X375970Y171101D01*
X376050Y171072D01*
X376128Y171040D01*
X376204Y171004D01*
X376279Y170964D01*
X376352Y170921D01*
X376423Y170875D01*
X376492Y170826D01*
X376559Y170773D01*
X376623Y170717D01*
X376684Y170659D01*
X376742Y170598D01*
X376798Y170534D01*
X376851Y170467D01*
X376900Y170398D01*
X376946Y170327D01*
X376989Y170254D01*
X377029Y170179D01*
X377065Y170103D01*
X377097Y170025D01*
X377126Y169945D01*
X377151Y169864D01*
X377172Y169782D01*
X377190Y169699D01*
X377203Y169615D01*
X377213Y169531D01*
X377219Y169447D01*
X377221Y169362D01*
X377219Y169277D01*
X377213Y169193D01*
X377203Y169109D01*
X377190Y169025D01*
X377172Y168942D01*
X377151Y168860D01*
X377126Y168779D01*
X377097Y168699D01*
X377065Y168621D01*
X377029Y168545D01*
X376989Y168470D01*
X376946Y168397D01*
X376900Y168326D01*
X376851Y168257D01*
X376798Y168190D01*
X376742Y168126D01*
X376684Y168065D01*
X376623Y168007D01*
X376559Y167951D01*
X376492Y167898D01*
X376423Y167849D01*
X376352Y167803D01*
X376279Y167760D01*
X376204Y167720D01*
X376128Y167684D01*
X376050Y167652D01*
X375970Y167623D01*
X375889Y167598D01*
X375807Y167577D01*
X375724Y167559D01*
X375640Y167546D01*
X375556Y167536D01*
X375472Y167530D01*
X375387Y167528D01*
X375387Y167527D02*
X373552Y167527D01*
X380317Y171196D02*
X381785Y164592D01*
X383252Y168995D01*
X384720Y164592D01*
X386188Y171196D01*
X390031Y171196D02*
X390031Y164592D01*
X390031Y171196D02*
X391866Y171196D01*
X391951Y171194D01*
X392035Y171188D01*
X392119Y171178D01*
X392203Y171165D01*
X392286Y171147D01*
X392368Y171126D01*
X392449Y171101D01*
X392529Y171072D01*
X392607Y171040D01*
X392683Y171004D01*
X392758Y170964D01*
X392831Y170921D01*
X392902Y170875D01*
X392971Y170826D01*
X393038Y170773D01*
X393102Y170717D01*
X393163Y170659D01*
X393221Y170598D01*
X393277Y170534D01*
X393330Y170467D01*
X393379Y170398D01*
X393425Y170327D01*
X393468Y170254D01*
X393508Y170179D01*
X393544Y170103D01*
X393576Y170025D01*
X393605Y169945D01*
X393630Y169864D01*
X393651Y169782D01*
X393669Y169699D01*
X393682Y169615D01*
X393692Y169531D01*
X393698Y169447D01*
X393700Y169362D01*
X393698Y169277D01*
X393692Y169193D01*
X393682Y169109D01*
X393669Y169025D01*
X393651Y168942D01*
X393630Y168860D01*
X393605Y168779D01*
X393576Y168699D01*
X393544Y168621D01*
X393508Y168545D01*
X393468Y168470D01*
X393425Y168397D01*
X393379Y168326D01*
X393330Y168257D01*
X393277Y168190D01*
X393221Y168126D01*
X393163Y168065D01*
X393102Y168007D01*
X393038Y167951D01*
X392971Y167898D01*
X392902Y167849D01*
X392831Y167803D01*
X392758Y167760D01*
X392683Y167720D01*
X392607Y167684D01*
X392529Y167652D01*
X392449Y167623D01*
X392368Y167598D01*
X392286Y167577D01*
X392203Y167559D01*
X392119Y167546D01*
X392035Y167536D01*
X391951Y167530D01*
X391866Y167528D01*
X391866Y167527D02*
X390031Y167527D01*
X392232Y167527D02*
X393700Y164592D01*
D19*
X0Y25000D02*
X95Y22821D01*
X380Y20659D01*
X852Y18530D01*
X1508Y16450D01*
X2342Y14435D01*
X3349Y12500D01*
X4521Y10661D01*
X5849Y8930D01*
X7322Y7322D01*
X8930Y5849D01*
X10661Y4521D01*
X12500Y3349D01*
X14435Y2342D01*
X16450Y1508D01*
X18530Y852D01*
X20659Y380D01*
X22821Y95D01*
X25000Y0D01*
X375000Y0D01*
X377179Y95D01*
X379341Y380D01*
X381470Y852D01*
X383551Y1508D01*
X385565Y2342D01*
X387500Y3349D01*
X389339Y4521D01*
X391070Y5849D01*
X392678Y7322D01*
X394151Y8930D01*
X395479Y10661D01*
X396651Y12500D01*
X397658Y14435D01*
X398492Y16450D01*
X399148Y18530D01*
X399620Y20659D01*
X399905Y22821D01*
X400000Y25000D01*
X400000Y325000D01*
X399905Y327179D01*
X399620Y329341D01*
X399148Y331470D01*
X398492Y333551D01*
X397658Y335565D01*
X396651Y337500D01*
X395479Y339339D01*
X394151Y341070D01*
X392678Y342678D01*
X391070Y344151D01*
X389339Y345479D01*
X387500Y346651D01*
X385565Y347658D01*
X383551Y348492D01*
X381470Y349148D01*
X379341Y349620D01*
X377179Y349905D01*
X375000Y350000D01*
X362698Y350000D01*
X362698Y293000D01*
X230000Y293000D01*
X230000Y350000D01*
X25000Y350000D01*
X22821Y349905D01*
X20659Y349620D01*
X18530Y349148D01*
X16450Y348492D01*
X14435Y347658D01*
X12500Y346651D01*
X10661Y345479D01*
X8930Y344151D01*
X7322Y342678D01*
X5849Y341070D01*
X4521Y339339D01*
X3349Y337500D01*
X2342Y335565D01*
X1508Y333551D01*
X852Y331470D01*
X380Y329341D01*
X95Y327179D01*
X0Y325000D01*
X0Y25000D01*
X339250Y132100D02*
X350250Y132100D01*
X350511Y132111D01*
X350771Y132146D01*
X351026Y132202D01*
X351276Y132281D01*
X351518Y132381D01*
X351750Y132502D01*
X351971Y132643D01*
X352178Y132802D01*
X352371Y132979D01*
X352548Y133172D01*
X352707Y133379D01*
X352848Y133600D01*
X352969Y133832D01*
X353069Y134074D01*
X353148Y134324D01*
X353204Y134579D01*
X353239Y134839D01*
X353250Y135100D01*
X353239Y135361D01*
X353204Y135621D01*
X353148Y135876D01*
X353069Y136126D01*
X352969Y136368D01*
X352848Y136600D01*
X352707Y136821D01*
X352548Y137028D01*
X352371Y137221D01*
X352178Y137398D01*
X351971Y137557D01*
X351750Y137698D01*
X351518Y137819D01*
X351276Y137919D01*
X351026Y137998D01*
X350771Y138054D01*
X350511Y138089D01*
X350250Y138100D01*
X339250Y138100D01*
X338989Y138089D01*
X338729Y138054D01*
X338474Y137998D01*
X338224Y137919D01*
X337982Y137819D01*
X337750Y137698D01*
X337529Y137557D01*
X337322Y137398D01*
X337129Y137221D01*
X336952Y137028D01*
X336793Y136821D01*
X336652Y136600D01*
X336531Y136368D01*
X336431Y136126D01*
X336352Y135876D01*
X336296Y135621D01*
X336261Y135361D01*
X336250Y135100D01*
X336261Y134839D01*
X336296Y134579D01*
X336352Y134324D01*
X336431Y134074D01*
X336531Y133832D01*
X336652Y133600D01*
X336793Y133379D01*
X336952Y133172D01*
X337129Y132979D01*
X337322Y132802D01*
X337529Y132643D01*
X337750Y132502D01*
X337982Y132381D01*
X338224Y132281D01*
X338474Y132202D01*
X338729Y132146D01*
X338989Y132111D01*
X339250Y132100D01*
X383400Y132100D02*
X389600Y132100D01*
X389861Y132111D01*
X390121Y132146D01*
X390376Y132202D01*
X390626Y132281D01*
X390868Y132381D01*
X391100Y132502D01*
X391321Y132643D01*
X391528Y132802D01*
X391721Y132979D01*
X391898Y133172D01*
X392057Y133379D01*
X392198Y133600D01*
X392319Y133832D01*
X392419Y134074D01*
X392498Y134324D01*
X392554Y134579D01*
X392589Y134839D01*
X392600Y135100D01*
X392589Y135361D01*
X392554Y135621D01*
X392498Y135876D01*
X392419Y136126D01*
X392319Y136368D01*
X392198Y136600D01*
X392057Y136821D01*
X391898Y137028D01*
X391721Y137221D01*
X391528Y137398D01*
X391321Y137557D01*
X391100Y137698D01*
X390868Y137819D01*
X390626Y137919D01*
X390376Y137998D01*
X390121Y138054D01*
X389861Y138089D01*
X389600Y138100D01*
X383400Y138100D01*
X383139Y138089D01*
X382879Y138054D01*
X382624Y137998D01*
X382374Y137919D01*
X382132Y137819D01*
X381900Y137698D01*
X381679Y137557D01*
X381472Y137398D01*
X381279Y137221D01*
X381102Y137028D01*
X380943Y136821D01*
X380802Y136600D01*
X380681Y136368D01*
X380581Y136126D01*
X380502Y135876D01*
X380446Y135621D01*
X380411Y135361D01*
X380400Y135100D01*
X380411Y134839D01*
X380446Y134579D01*
X380502Y134324D01*
X380581Y134074D01*
X380681Y133832D01*
X380802Y133600D01*
X380943Y133379D01*
X381102Y133172D01*
X381279Y132979D01*
X381472Y132802D01*
X381679Y132643D01*
X381900Y132502D01*
X382132Y132381D01*
X382374Y132281D01*
X382624Y132202D01*
X382879Y132146D01*
X383139Y132111D01*
X383400Y132100D01*
X383400Y45700D02*
X389600Y45700D01*
X389861Y45711D01*
X390121Y45746D01*
X390376Y45802D01*
X390626Y45881D01*
X390868Y45981D01*
X391100Y46102D01*
X391321Y46243D01*
X391528Y46402D01*
X391721Y46579D01*
X391898Y46772D01*
X392057Y46979D01*
X392198Y47200D01*
X392319Y47432D01*
X392419Y47674D01*
X392498Y47924D01*
X392554Y48179D01*
X392589Y48439D01*
X392600Y48700D01*
X392589Y48961D01*
X392554Y49221D01*
X392498Y49476D01*
X392419Y49726D01*
X392319Y49968D01*
X392198Y50200D01*
X392057Y50421D01*
X391898Y50628D01*
X391721Y50821D01*
X391528Y50998D01*
X391321Y51157D01*
X391100Y51298D01*
X390868Y51419D01*
X390626Y51519D01*
X390376Y51598D01*
X390121Y51654D01*
X389861Y51689D01*
X389600Y51700D01*
X383400Y51700D01*
X383139Y51689D01*
X382879Y51654D01*
X382624Y51598D01*
X382374Y51519D01*
X382132Y51419D01*
X381900Y51298D01*
X381679Y51157D01*
X381472Y50998D01*
X381279Y50821D01*
X381102Y50628D01*
X380943Y50421D01*
X380802Y50200D01*
X380681Y49968D01*
X380581Y49726D01*
X380502Y49476D01*
X380446Y49221D01*
X380411Y48961D01*
X380400Y48700D01*
X380411Y48439D01*
X380446Y48179D01*
X380502Y47924D01*
X380581Y47674D01*
X380681Y47432D01*
X380802Y47200D01*
X380943Y46979D01*
X381102Y46772D01*
X381279Y46579D01*
X381472Y46402D01*
X381679Y46243D01*
X381900Y46102D01*
X382132Y45981D01*
X382374Y45881D01*
X382624Y45802D01*
X382879Y45746D01*
X383139Y45711D01*
X383400Y45700D01*
X339250Y45700D02*
X350250Y45700D01*
X350511Y45711D01*
X350771Y45746D01*
X351026Y45802D01*
X351276Y45881D01*
X351518Y45981D01*
X351750Y46102D01*
X351971Y46243D01*
X352178Y46402D01*
X352371Y46579D01*
X352548Y46772D01*
X352707Y46979D01*
X352848Y47200D01*
X352969Y47432D01*
X353069Y47674D01*
X353148Y47924D01*
X353204Y48179D01*
X353239Y48439D01*
X353250Y48700D01*
X353239Y48961D01*
X353204Y49221D01*
X353148Y49476D01*
X353069Y49726D01*
X352969Y49968D01*
X352848Y50200D01*
X352707Y50421D01*
X352548Y50628D01*
X352371Y50821D01*
X352178Y50998D01*
X351971Y51157D01*
X351750Y51298D01*
X351518Y51419D01*
X351276Y51519D01*
X351026Y51598D01*
X350771Y51654D01*
X350511Y51689D01*
X350250Y51700D01*
X339250Y51700D01*
X338989Y51689D01*
X338729Y51654D01*
X338474Y51598D01*
X338224Y51519D01*
X337982Y51419D01*
X337750Y51298D01*
X337529Y51157D01*
X337322Y50998D01*
X337129Y50821D01*
X336952Y50628D01*
X336793Y50421D01*
X336652Y50200D01*
X336531Y49968D01*
X336431Y49726D01*
X336352Y49476D01*
X336296Y49221D01*
X336261Y48961D01*
X336250Y48700D01*
X336261Y48439D01*
X336296Y48179D01*
X336352Y47924D01*
X336431Y47674D01*
X336531Y47432D01*
X336652Y47200D01*
X336793Y46979D01*
X336952Y46772D01*
X337129Y46579D01*
X337322Y46402D01*
X337529Y46243D01*
X337750Y46102D01*
X337982Y45981D01*
X338224Y45881D01*
X338474Y45802D01*
X338729Y45746D01*
X338989Y45711D01*
X339250Y45700D01*
X32500Y329509D02*
X32423Y328530D01*
X32269Y327560D01*
X32040Y326604D01*
X31736Y325670D01*
X31361Y324763D01*
X30915Y323888D01*
X30401Y323050D01*
X29824Y322255D01*
X29186Y321508D01*
X28492Y320814D01*
X27745Y320176D01*
X26950Y319599D01*
X26112Y319085D01*
X25237Y318639D01*
X24330Y318264D01*
X23396Y317960D01*
X22441Y317731D01*
X21470Y317577D01*
X20491Y317500D01*
X19509Y317500D01*
X18530Y317577D01*
X17560Y317731D01*
X16604Y317960D01*
X15670Y318264D01*
X14763Y318639D01*
X13888Y319085D01*
X13050Y319599D01*
X12255Y320176D01*
X11508Y320814D01*
X10814Y321508D01*
X10176Y322255D01*
X9599Y323050D01*
X9085Y323888D01*
X8639Y324763D01*
X8264Y325670D01*
X7960Y326604D01*
X7731Y327560D01*
X7577Y328530D01*
X7500Y329509D01*
X7500Y330491D01*
X7577Y331470D01*
X7731Y332441D01*
X7960Y333396D01*
X8264Y334330D01*
X8639Y335237D01*
X9085Y336112D01*
X9599Y336950D01*
X10176Y337745D01*
X10814Y338492D01*
X11508Y339186D01*
X12255Y339824D01*
X13050Y340401D01*
X13888Y340915D01*
X14763Y341361D01*
X15670Y341736D01*
X16604Y342040D01*
X17560Y342269D01*
X18530Y342423D01*
X19509Y342500D01*
X20491Y342500D01*
X21470Y342423D01*
X22441Y342269D01*
X23396Y342040D01*
X24330Y341736D01*
X25237Y341361D01*
X26112Y340915D01*
X26950Y340401D01*
X27745Y339824D01*
X28492Y339186D01*
X29186Y338492D01*
X29824Y337745D01*
X30401Y336950D01*
X30915Y336112D01*
X31361Y335237D01*
X31736Y334330D01*
X32040Y333396D01*
X32269Y332441D01*
X32423Y331470D01*
X32500Y330491D01*
X32500Y329509D01*
X392500Y19509D02*
X392423Y18530D01*
X392269Y17560D01*
X392040Y16604D01*
X391736Y15670D01*
X391361Y14763D01*
X390915Y13888D01*
X390401Y13050D01*
X389824Y12255D01*
X389186Y11508D01*
X388492Y10814D01*
X387745Y10176D01*
X386950Y9599D01*
X386112Y9085D01*
X385237Y8639D01*
X384330Y8264D01*
X383396Y7960D01*
X382441Y7731D01*
X381470Y7577D01*
X380491Y7500D01*
X379509Y7500D01*
X378530Y7577D01*
X377560Y7731D01*
X376604Y7960D01*
X375670Y8264D01*
X374763Y8639D01*
X373888Y9085D01*
X373050Y9599D01*
X372255Y10176D01*
X371508Y10814D01*
X370814Y11508D01*
X370176Y12255D01*
X369599Y13050D01*
X369085Y13888D01*
X368639Y14763D01*
X368264Y15670D01*
X367960Y16604D01*
X367731Y17560D01*
X367577Y18530D01*
X367500Y19509D01*
X367500Y20491D01*
X367577Y21470D01*
X367731Y22441D01*
X367960Y23396D01*
X368264Y24330D01*
X368639Y25237D01*
X369085Y26112D01*
X369599Y26950D01*
X370176Y27745D01*
X370814Y28492D01*
X371508Y29186D01*
X372255Y29824D01*
X373050Y30401D01*
X373888Y30915D01*
X374763Y31361D01*
X375670Y31736D01*
X376604Y32040D01*
X377560Y32269D01*
X378530Y32423D01*
X379509Y32500D01*
X380491Y32500D01*
X381470Y32423D01*
X382441Y32269D01*
X383396Y32040D01*
X384330Y31736D01*
X385237Y31361D01*
X386112Y30915D01*
X386950Y30401D01*
X387745Y29824D01*
X388492Y29186D01*
X389186Y28492D01*
X389824Y27745D01*
X390401Y26950D01*
X390915Y26112D01*
X391361Y25237D01*
X391736Y24330D01*
X392040Y23396D01*
X392269Y22441D01*
X392423Y21470D01*
X392500Y20491D01*
X392500Y19509D01*
X350263Y66250D02*
X350685Y66194D01*
X351097Y66084D01*
X351491Y65921D01*
X351859Y65708D01*
X352197Y65449D01*
X352499Y65147D01*
X352758Y64809D01*
X352971Y64441D01*
X353134Y64047D01*
X353244Y63635D01*
X353300Y63213D01*
X353300Y62787D01*
X353244Y62365D01*
X353134Y61953D01*
X352971Y61559D01*
X352758Y61191D01*
X352499Y60853D01*
X352197Y60551D01*
X351859Y60292D01*
X351491Y60079D01*
X351097Y59916D01*
X350685Y59806D01*
X350263Y59750D01*
X349837Y59750D01*
X349415Y59806D01*
X349003Y59916D01*
X348609Y60079D01*
X348241Y60292D01*
X347903Y60551D01*
X347601Y60853D01*
X347342Y61191D01*
X347129Y61559D01*
X346966Y61953D01*
X346856Y62365D01*
X346800Y62787D01*
X346800Y63213D01*
X346856Y63635D01*
X346966Y64047D01*
X347129Y64441D01*
X347342Y64809D01*
X347601Y65147D01*
X347903Y65449D01*
X348241Y65708D01*
X348609Y65921D01*
X349003Y66084D01*
X349415Y66194D01*
X349837Y66250D01*
X350263Y66250D01*
X350263Y124050D02*
X350685Y123994D01*
X351097Y123884D01*
X351491Y123721D01*
X351859Y123508D01*
X352197Y123249D01*
X352499Y122947D01*
X352758Y122609D01*
X352971Y122241D01*
X353134Y121847D01*
X353244Y121435D01*
X353300Y121013D01*
X353300Y120587D01*
X353244Y120165D01*
X353134Y119753D01*
X352971Y119359D01*
X352758Y118991D01*
X352499Y118653D01*
X352197Y118351D01*
X351859Y118092D01*
X351491Y117879D01*
X351097Y117716D01*
X350685Y117606D01*
X350263Y117550D01*
X349837Y117550D01*
X349415Y117606D01*
X349003Y117716D01*
X348609Y117879D01*
X348241Y118092D01*
X347903Y118351D01*
X347601Y118653D01*
X347342Y118991D01*
X347129Y119359D01*
X346966Y119753D01*
X346856Y120165D01*
X346800Y120587D01*
X346800Y121013D01*
X346856Y121435D01*
X346966Y121847D01*
X347129Y122241D01*
X347342Y122609D01*
X347601Y122947D01*
X347903Y123249D01*
X348241Y123508D01*
X348609Y123721D01*
X349003Y123884D01*
X349415Y123994D01*
X349837Y124050D01*
X350263Y124050D01*
M02*
