G04 EAGLE Gerber RS-274X export*
G75*
%MOMM*%
%FSLAX34Y34*%
%LPD*%
%INSilkscreen Bottom*%
%IPPOS*%
%AMOC8*
5,1,8,0,0,1.08239X$1,22.5*%
G01*
%ADD10C,0.200000*%
%ADD11C,0.127000*%
%ADD12C,0.025400*%
%ADD13C,0.203200*%
%ADD14C,0.076200*%
%ADD15C,0.152400*%
%ADD16C,0.101600*%
%ADD17C,0.050800*%
%ADD18C,0.254000*%

G36*
X133955Y263342D02*
X133955Y263342D01*
X133955Y268947D01*
X136920Y268947D01*
X136925Y268951D01*
X136925Y268952D01*
X136925Y270932D01*
X136921Y270937D01*
X136920Y270937D01*
X133955Y270937D01*
X133955Y276542D01*
X133951Y276547D01*
X133950Y276547D01*
X131970Y276547D01*
X131965Y276543D01*
X131965Y276542D01*
X131965Y270937D01*
X129000Y270937D01*
X128995Y270933D01*
X128995Y270932D01*
X128995Y268952D01*
X128999Y268947D01*
X129000Y268947D01*
X131965Y268947D01*
X131965Y263342D01*
X131969Y263337D01*
X131970Y263337D01*
X133950Y263337D01*
X133955Y263342D01*
G37*
G36*
X105271Y261937D02*
X105271Y261937D01*
X105271Y261938D01*
X105271Y267543D01*
X108236Y267543D01*
X108241Y267547D01*
X108241Y267548D01*
X108241Y269528D01*
X108237Y269533D01*
X108236Y269533D01*
X105271Y269533D01*
X105271Y275138D01*
X105267Y275143D01*
X105266Y275143D01*
X103286Y275143D01*
X103281Y275139D01*
X103281Y275138D01*
X103281Y269533D01*
X100316Y269533D01*
X100311Y269529D01*
X100311Y269528D01*
X100311Y267548D01*
X100315Y267543D01*
X100316Y267543D01*
X103281Y267543D01*
X103281Y261938D01*
X103285Y261933D01*
X103286Y261933D01*
X105266Y261933D01*
X105271Y261937D01*
G37*
G36*
X191045Y268951D02*
X191045Y268951D01*
X191045Y268952D01*
X191045Y270932D01*
X191041Y270937D01*
X191040Y270937D01*
X183120Y270937D01*
X183115Y270933D01*
X183115Y270932D01*
X183115Y268952D01*
X183119Y268947D01*
X183120Y268947D01*
X191040Y268947D01*
X191045Y268951D01*
G37*
G36*
X54121Y267547D02*
X54121Y267547D01*
X54121Y267548D01*
X54121Y269528D01*
X54117Y269533D01*
X54116Y269533D01*
X46196Y269533D01*
X46191Y269529D01*
X46191Y269528D01*
X46191Y267548D01*
X46195Y267543D01*
X46196Y267543D01*
X54116Y267543D01*
X54121Y267547D01*
G37*
D10*
X284524Y156100D02*
X284526Y156163D01*
X284532Y156225D01*
X284542Y156287D01*
X284555Y156349D01*
X284573Y156409D01*
X284594Y156468D01*
X284619Y156526D01*
X284648Y156582D01*
X284680Y156636D01*
X284715Y156688D01*
X284753Y156737D01*
X284795Y156785D01*
X284839Y156829D01*
X284887Y156871D01*
X284936Y156909D01*
X284988Y156944D01*
X285042Y156976D01*
X285098Y157005D01*
X285156Y157030D01*
X285215Y157051D01*
X285275Y157069D01*
X285337Y157082D01*
X285399Y157092D01*
X285461Y157098D01*
X285524Y157100D01*
X285587Y157098D01*
X285649Y157092D01*
X285711Y157082D01*
X285773Y157069D01*
X285833Y157051D01*
X285892Y157030D01*
X285950Y157005D01*
X286006Y156976D01*
X286060Y156944D01*
X286112Y156909D01*
X286161Y156871D01*
X286209Y156829D01*
X286253Y156785D01*
X286295Y156737D01*
X286333Y156688D01*
X286368Y156636D01*
X286400Y156582D01*
X286429Y156526D01*
X286454Y156468D01*
X286475Y156409D01*
X286493Y156349D01*
X286506Y156287D01*
X286516Y156225D01*
X286522Y156163D01*
X286524Y156100D01*
X286522Y156037D01*
X286516Y155975D01*
X286506Y155913D01*
X286493Y155851D01*
X286475Y155791D01*
X286454Y155732D01*
X286429Y155674D01*
X286400Y155618D01*
X286368Y155564D01*
X286333Y155512D01*
X286295Y155463D01*
X286253Y155415D01*
X286209Y155371D01*
X286161Y155329D01*
X286112Y155291D01*
X286060Y155256D01*
X286006Y155224D01*
X285950Y155195D01*
X285892Y155170D01*
X285833Y155149D01*
X285773Y155131D01*
X285711Y155118D01*
X285649Y155108D01*
X285587Y155102D01*
X285524Y155100D01*
X285461Y155102D01*
X285399Y155108D01*
X285337Y155118D01*
X285275Y155131D01*
X285215Y155149D01*
X285156Y155170D01*
X285098Y155195D01*
X285042Y155224D01*
X284988Y155256D01*
X284936Y155291D01*
X284887Y155329D01*
X284839Y155371D01*
X284795Y155415D01*
X284753Y155463D01*
X284715Y155512D01*
X284680Y155564D01*
X284648Y155618D01*
X284619Y155674D01*
X284594Y155732D01*
X284573Y155791D01*
X284555Y155851D01*
X284542Y155913D01*
X284532Y155975D01*
X284526Y156037D01*
X284524Y156100D01*
D11*
X261274Y158350D02*
X225974Y158350D01*
X225974Y108350D02*
X261274Y108350D01*
D12*
X278497Y164518D02*
X278497Y167223D01*
X278497Y164518D02*
X278495Y164455D01*
X278489Y164393D01*
X278480Y164330D01*
X278467Y164269D01*
X278450Y164208D01*
X278429Y164149D01*
X278405Y164091D01*
X278378Y164034D01*
X278347Y163979D01*
X278313Y163927D01*
X278275Y163876D01*
X278235Y163828D01*
X278192Y163782D01*
X278146Y163739D01*
X278098Y163699D01*
X278047Y163661D01*
X277995Y163627D01*
X277940Y163596D01*
X277883Y163569D01*
X277825Y163545D01*
X277766Y163524D01*
X277705Y163507D01*
X277644Y163494D01*
X277581Y163485D01*
X277519Y163479D01*
X277456Y163477D01*
X277393Y163479D01*
X277331Y163485D01*
X277268Y163494D01*
X277207Y163507D01*
X277146Y163524D01*
X277087Y163545D01*
X277029Y163569D01*
X276972Y163596D01*
X276917Y163627D01*
X276865Y163661D01*
X276814Y163699D01*
X276766Y163739D01*
X276720Y163782D01*
X276677Y163828D01*
X276637Y163876D01*
X276599Y163927D01*
X276565Y163979D01*
X276534Y164034D01*
X276507Y164091D01*
X276483Y164149D01*
X276462Y164208D01*
X276445Y164269D01*
X276432Y164330D01*
X276423Y164393D01*
X276417Y164455D01*
X276415Y164518D01*
X276416Y164518D02*
X276416Y167223D01*
X274777Y166391D02*
X273737Y167223D01*
X273737Y163477D01*
X274777Y163477D02*
X272696Y163477D01*
D13*
X356118Y35504D02*
X356118Y31004D01*
X356118Y35504D02*
X310118Y35504D01*
X310118Y31004D01*
X310118Y11004D02*
X310118Y6504D01*
X356118Y6504D01*
X356118Y11004D01*
X323118Y11004D02*
X323118Y31004D01*
D12*
X355851Y37641D02*
X355851Y41387D01*
X354810Y41387D01*
X354747Y41385D01*
X354685Y41379D01*
X354622Y41370D01*
X354561Y41357D01*
X354500Y41340D01*
X354441Y41319D01*
X354383Y41295D01*
X354326Y41268D01*
X354271Y41237D01*
X354219Y41203D01*
X354168Y41165D01*
X354120Y41125D01*
X354074Y41082D01*
X354031Y41036D01*
X353991Y40988D01*
X353953Y40937D01*
X353919Y40885D01*
X353888Y40830D01*
X353861Y40773D01*
X353837Y40715D01*
X353816Y40656D01*
X353799Y40595D01*
X353786Y40534D01*
X353777Y40471D01*
X353771Y40409D01*
X353769Y40346D01*
X353770Y40346D02*
X353770Y38682D01*
X353769Y38682D02*
X353771Y38619D01*
X353777Y38557D01*
X353786Y38494D01*
X353799Y38433D01*
X353816Y38372D01*
X353837Y38313D01*
X353861Y38255D01*
X353888Y38198D01*
X353919Y38143D01*
X353953Y38091D01*
X353991Y38040D01*
X354031Y37992D01*
X354074Y37946D01*
X354120Y37903D01*
X354168Y37863D01*
X354219Y37825D01*
X354271Y37791D01*
X354326Y37760D01*
X354383Y37733D01*
X354441Y37709D01*
X354500Y37688D01*
X354561Y37671D01*
X354622Y37658D01*
X354685Y37649D01*
X354747Y37643D01*
X354810Y37641D01*
X355851Y37641D01*
X350986Y41388D02*
X350927Y41386D01*
X350869Y41381D01*
X350810Y41371D01*
X350753Y41359D01*
X350696Y41342D01*
X350641Y41322D01*
X350587Y41299D01*
X350535Y41272D01*
X350484Y41242D01*
X350435Y41209D01*
X350389Y41173D01*
X350345Y41134D01*
X350303Y41092D01*
X350264Y41048D01*
X350228Y41002D01*
X350195Y40953D01*
X350165Y40902D01*
X350138Y40850D01*
X350115Y40796D01*
X350095Y40741D01*
X350078Y40684D01*
X350066Y40627D01*
X350056Y40568D01*
X350051Y40510D01*
X350049Y40451D01*
X350986Y41387D02*
X351055Y41385D01*
X351123Y41379D01*
X351191Y41369D01*
X351259Y41356D01*
X351325Y41338D01*
X351391Y41317D01*
X351455Y41292D01*
X351517Y41263D01*
X351578Y41231D01*
X351637Y41196D01*
X351694Y41157D01*
X351748Y41115D01*
X351800Y41070D01*
X351849Y41022D01*
X351896Y40971D01*
X351939Y40918D01*
X351980Y40862D01*
X352017Y40804D01*
X352050Y40744D01*
X352081Y40683D01*
X352107Y40619D01*
X352130Y40555D01*
X350362Y39723D02*
X350318Y39767D01*
X350277Y39814D01*
X350239Y39864D01*
X350204Y39916D01*
X350172Y39970D01*
X350144Y40026D01*
X350119Y40084D01*
X350098Y40143D01*
X350081Y40203D01*
X350068Y40264D01*
X350058Y40326D01*
X350052Y40388D01*
X350050Y40451D01*
X350362Y39722D02*
X352131Y37641D01*
X350050Y37641D01*
D11*
X37488Y169800D02*
X35008Y169800D01*
D13*
X37488Y169800D02*
X64948Y169800D01*
X64948Y245850D01*
X62888Y245850D01*
D11*
X62313Y245850D01*
D13*
X62888Y245850D02*
X32948Y245850D01*
X32948Y169800D01*
X37488Y169800D01*
X41328Y210230D02*
X56568Y210230D01*
X48948Y202610D02*
X41328Y210230D01*
X48948Y202610D02*
X56568Y210230D01*
X56568Y202610D02*
X48948Y202610D01*
X41328Y202610D01*
D14*
X47961Y167629D02*
X47961Y164391D01*
X47961Y167629D02*
X47062Y167629D01*
X47003Y167627D01*
X46945Y167621D01*
X46887Y167612D01*
X46829Y167598D01*
X46773Y167581D01*
X46718Y167561D01*
X46664Y167536D01*
X46613Y167509D01*
X46563Y167477D01*
X46515Y167443D01*
X46469Y167406D01*
X46426Y167366D01*
X46386Y167323D01*
X46349Y167277D01*
X46315Y167229D01*
X46283Y167180D01*
X46256Y167128D01*
X46231Y167074D01*
X46211Y167019D01*
X46194Y166963D01*
X46180Y166905D01*
X46171Y166847D01*
X46165Y166789D01*
X46163Y166730D01*
X46162Y166730D02*
X46162Y165290D01*
X46163Y165290D02*
X46165Y165231D01*
X46171Y165173D01*
X46180Y165115D01*
X46194Y165057D01*
X46211Y165001D01*
X46231Y164946D01*
X46256Y164892D01*
X46283Y164841D01*
X46315Y164791D01*
X46349Y164743D01*
X46386Y164697D01*
X46426Y164654D01*
X46469Y164614D01*
X46515Y164577D01*
X46563Y164543D01*
X46613Y164511D01*
X46664Y164484D01*
X46718Y164459D01*
X46773Y164439D01*
X46829Y164422D01*
X46887Y164408D01*
X46945Y164399D01*
X47003Y164393D01*
X47062Y164391D01*
X47961Y164391D01*
X44241Y166909D02*
X43342Y167629D01*
X43342Y164391D01*
X44241Y164391D02*
X42442Y164391D01*
D13*
X94108Y208292D02*
X94108Y246392D01*
X76328Y246392D01*
X76328Y208292D01*
X94108Y208292D01*
D14*
X69343Y223998D02*
X69343Y224717D01*
X69343Y223998D02*
X69345Y223947D01*
X69350Y223896D01*
X69359Y223845D01*
X69372Y223795D01*
X69388Y223746D01*
X69408Y223699D01*
X69431Y223653D01*
X69457Y223609D01*
X69487Y223567D01*
X69519Y223527D01*
X69554Y223489D01*
X69592Y223454D01*
X69632Y223422D01*
X69674Y223392D01*
X69718Y223366D01*
X69764Y223343D01*
X69811Y223323D01*
X69860Y223307D01*
X69910Y223294D01*
X69961Y223285D01*
X70012Y223280D01*
X70063Y223278D01*
X71861Y223278D01*
X71912Y223280D01*
X71963Y223285D01*
X72014Y223294D01*
X72064Y223307D01*
X72113Y223323D01*
X72160Y223343D01*
X72206Y223366D01*
X72250Y223392D01*
X72292Y223422D01*
X72332Y223454D01*
X72370Y223489D01*
X72405Y223526D01*
X72437Y223567D01*
X72467Y223609D01*
X72493Y223653D01*
X72516Y223699D01*
X72536Y223746D01*
X72552Y223795D01*
X72565Y223845D01*
X72574Y223896D01*
X72579Y223947D01*
X72581Y223998D01*
X72581Y224717D01*
X71861Y226296D02*
X72581Y227195D01*
X69343Y227195D01*
X69343Y226296D02*
X69343Y228095D01*
D13*
X112156Y241439D02*
X112156Y212229D01*
X112156Y241439D02*
X99456Y241439D01*
X99456Y212229D01*
X112156Y212229D01*
D14*
X115712Y215235D02*
X115712Y215954D01*
X115712Y215235D02*
X115714Y215184D01*
X115719Y215133D01*
X115728Y215082D01*
X115741Y215032D01*
X115757Y214983D01*
X115777Y214936D01*
X115800Y214890D01*
X115826Y214846D01*
X115856Y214804D01*
X115888Y214764D01*
X115923Y214726D01*
X115961Y214691D01*
X116001Y214659D01*
X116043Y214629D01*
X116087Y214603D01*
X116133Y214580D01*
X116180Y214560D01*
X116229Y214544D01*
X116279Y214531D01*
X116330Y214522D01*
X116381Y214517D01*
X116432Y214515D01*
X118230Y214515D01*
X118281Y214517D01*
X118332Y214522D01*
X118383Y214531D01*
X118433Y214544D01*
X118482Y214560D01*
X118529Y214580D01*
X118575Y214603D01*
X118619Y214629D01*
X118661Y214659D01*
X118701Y214691D01*
X118739Y214726D01*
X118774Y214763D01*
X118806Y214804D01*
X118836Y214846D01*
X118862Y214890D01*
X118885Y214936D01*
X118905Y214983D01*
X118921Y215032D01*
X118934Y215082D01*
X118943Y215133D01*
X118948Y215184D01*
X118950Y215235D01*
X118950Y215954D01*
X118951Y218522D02*
X118949Y218577D01*
X118943Y218632D01*
X118934Y218687D01*
X118921Y218741D01*
X118904Y218793D01*
X118884Y218845D01*
X118860Y218895D01*
X118833Y218943D01*
X118803Y218989D01*
X118769Y219033D01*
X118733Y219075D01*
X118694Y219114D01*
X118652Y219150D01*
X118608Y219184D01*
X118562Y219214D01*
X118514Y219241D01*
X118464Y219265D01*
X118412Y219285D01*
X118360Y219302D01*
X118306Y219315D01*
X118251Y219324D01*
X118196Y219330D01*
X118141Y219332D01*
X118950Y218522D02*
X118948Y218460D01*
X118943Y218398D01*
X118933Y218336D01*
X118920Y218275D01*
X118904Y218215D01*
X118884Y218156D01*
X118860Y218099D01*
X118833Y218043D01*
X118803Y217988D01*
X118769Y217936D01*
X118732Y217885D01*
X118693Y217837D01*
X118650Y217792D01*
X118605Y217749D01*
X118558Y217708D01*
X118508Y217671D01*
X118456Y217637D01*
X118402Y217606D01*
X118346Y217578D01*
X118289Y217554D01*
X118230Y217533D01*
X117511Y219062D02*
X117553Y219103D01*
X117597Y219141D01*
X117645Y219176D01*
X117694Y219208D01*
X117745Y219237D01*
X117798Y219262D01*
X117853Y219283D01*
X117909Y219300D01*
X117966Y219314D01*
X118024Y219324D01*
X118082Y219330D01*
X118141Y219332D01*
X117511Y219062D02*
X115712Y217533D01*
X115712Y219332D01*
D10*
X141076Y165396D02*
X173076Y165396D01*
X173076Y214396D01*
X141076Y214396D01*
X141076Y165396D01*
X137576Y163846D02*
X122076Y163846D01*
D12*
X160582Y182943D02*
X160582Y186689D01*
X160998Y182943D02*
X160166Y182943D01*
X160166Y186689D02*
X160998Y186689D01*
X157920Y182943D02*
X157087Y182943D01*
X157920Y182943D02*
X157977Y182945D01*
X158033Y182951D01*
X158089Y182960D01*
X158144Y182974D01*
X158199Y182991D01*
X158251Y183012D01*
X158303Y183036D01*
X158352Y183064D01*
X158400Y183095D01*
X158445Y183130D01*
X158488Y183167D01*
X158528Y183207D01*
X158565Y183250D01*
X158600Y183295D01*
X158631Y183343D01*
X158659Y183392D01*
X158683Y183444D01*
X158704Y183496D01*
X158721Y183551D01*
X158735Y183606D01*
X158744Y183662D01*
X158750Y183718D01*
X158752Y183775D01*
X158752Y185857D01*
X158750Y185914D01*
X158744Y185970D01*
X158735Y186026D01*
X158721Y186081D01*
X158704Y186136D01*
X158683Y186188D01*
X158659Y186240D01*
X158631Y186289D01*
X158600Y186337D01*
X158565Y186382D01*
X158528Y186425D01*
X158488Y186465D01*
X158445Y186502D01*
X158400Y186537D01*
X158352Y186568D01*
X158303Y186596D01*
X158251Y186620D01*
X158199Y186641D01*
X158144Y186658D01*
X158089Y186672D01*
X158033Y186681D01*
X157977Y186687D01*
X157920Y186689D01*
X157087Y186689D01*
X155743Y185857D02*
X154702Y186689D01*
X154702Y182943D01*
X153662Y182943D02*
X155743Y182943D01*
D13*
X178426Y154501D02*
X178426Y125291D01*
X178426Y154501D02*
X165726Y154501D01*
X165726Y125291D01*
X178426Y125291D01*
D14*
X173455Y119752D02*
X172736Y119752D01*
X173455Y119752D02*
X173506Y119754D01*
X173557Y119759D01*
X173608Y119768D01*
X173658Y119781D01*
X173707Y119797D01*
X173754Y119817D01*
X173800Y119840D01*
X173844Y119866D01*
X173886Y119896D01*
X173927Y119928D01*
X173964Y119963D01*
X173999Y120001D01*
X174031Y120041D01*
X174061Y120083D01*
X174087Y120127D01*
X174110Y120173D01*
X174130Y120220D01*
X174146Y120269D01*
X174159Y120319D01*
X174168Y120370D01*
X174173Y120421D01*
X174175Y120472D01*
X174175Y122270D01*
X174173Y122321D01*
X174168Y122372D01*
X174159Y122423D01*
X174146Y122473D01*
X174130Y122522D01*
X174110Y122569D01*
X174087Y122615D01*
X174061Y122659D01*
X174031Y122701D01*
X173999Y122741D01*
X173964Y122779D01*
X173927Y122814D01*
X173887Y122846D01*
X173844Y122876D01*
X173800Y122902D01*
X173754Y122925D01*
X173707Y122945D01*
X173658Y122961D01*
X173608Y122974D01*
X173558Y122983D01*
X173506Y122988D01*
X173455Y122990D01*
X172736Y122990D01*
X171157Y119752D02*
X170258Y119752D01*
X170199Y119754D01*
X170141Y119760D01*
X170083Y119769D01*
X170025Y119783D01*
X169969Y119800D01*
X169914Y119820D01*
X169860Y119845D01*
X169809Y119872D01*
X169759Y119904D01*
X169711Y119938D01*
X169665Y119975D01*
X169622Y120015D01*
X169582Y120058D01*
X169545Y120104D01*
X169511Y120152D01*
X169479Y120202D01*
X169452Y120253D01*
X169427Y120307D01*
X169407Y120362D01*
X169390Y120418D01*
X169376Y120476D01*
X169367Y120534D01*
X169361Y120592D01*
X169359Y120651D01*
X169361Y120710D01*
X169367Y120768D01*
X169376Y120826D01*
X169390Y120884D01*
X169407Y120940D01*
X169427Y120995D01*
X169452Y121049D01*
X169479Y121101D01*
X169511Y121150D01*
X169545Y121198D01*
X169582Y121244D01*
X169622Y121287D01*
X169665Y121327D01*
X169711Y121364D01*
X169759Y121398D01*
X169809Y121430D01*
X169860Y121457D01*
X169914Y121482D01*
X169969Y121502D01*
X170025Y121519D01*
X170083Y121533D01*
X170141Y121542D01*
X170199Y121548D01*
X170258Y121550D01*
X170078Y122990D02*
X171157Y122990D01*
X170078Y122990D02*
X170025Y122988D01*
X169973Y122982D01*
X169921Y122973D01*
X169871Y122959D01*
X169821Y122942D01*
X169772Y122922D01*
X169726Y122898D01*
X169681Y122870D01*
X169638Y122840D01*
X169598Y122806D01*
X169560Y122770D01*
X169525Y122731D01*
X169492Y122689D01*
X169463Y122645D01*
X169438Y122599D01*
X169415Y122552D01*
X169397Y122502D01*
X169381Y122452D01*
X169370Y122401D01*
X169362Y122349D01*
X169358Y122296D01*
X169358Y122244D01*
X169362Y122191D01*
X169370Y122139D01*
X169381Y122088D01*
X169397Y122038D01*
X169415Y121988D01*
X169438Y121941D01*
X169463Y121895D01*
X169492Y121851D01*
X169525Y121809D01*
X169560Y121770D01*
X169598Y121734D01*
X169638Y121700D01*
X169681Y121670D01*
X169726Y121642D01*
X169772Y121618D01*
X169821Y121598D01*
X169871Y121581D01*
X169921Y121567D01*
X169973Y121558D01*
X170025Y121552D01*
X170078Y121550D01*
X170078Y121551D02*
X170798Y121551D01*
D13*
X163426Y125291D02*
X163426Y154501D01*
X150726Y154501D01*
X150726Y125291D01*
X163426Y125291D01*
D14*
X158469Y119738D02*
X157750Y119738D01*
X158469Y119738D02*
X158520Y119740D01*
X158571Y119745D01*
X158622Y119754D01*
X158672Y119767D01*
X158721Y119783D01*
X158768Y119803D01*
X158814Y119826D01*
X158858Y119852D01*
X158900Y119882D01*
X158941Y119914D01*
X158978Y119949D01*
X159013Y119987D01*
X159045Y120027D01*
X159075Y120069D01*
X159101Y120113D01*
X159124Y120159D01*
X159144Y120206D01*
X159160Y120255D01*
X159173Y120305D01*
X159182Y120356D01*
X159187Y120407D01*
X159189Y120458D01*
X159189Y122256D01*
X159187Y122307D01*
X159182Y122358D01*
X159173Y122409D01*
X159160Y122459D01*
X159144Y122508D01*
X159124Y122555D01*
X159101Y122601D01*
X159075Y122645D01*
X159045Y122687D01*
X159013Y122727D01*
X158978Y122765D01*
X158941Y122800D01*
X158901Y122832D01*
X158858Y122862D01*
X158814Y122888D01*
X158768Y122911D01*
X158721Y122931D01*
X158672Y122947D01*
X158622Y122960D01*
X158572Y122969D01*
X158520Y122974D01*
X158469Y122976D01*
X157750Y122976D01*
X155452Y122976D02*
X156171Y120458D01*
X154372Y120458D01*
X154912Y121177D02*
X154912Y119738D01*
D13*
X148426Y125291D02*
X148426Y154501D01*
X135726Y154501D01*
X135726Y125291D01*
X148426Y125291D01*
D14*
X142467Y119724D02*
X141748Y119724D01*
X142467Y119724D02*
X142518Y119726D01*
X142569Y119731D01*
X142620Y119740D01*
X142670Y119753D01*
X142719Y119769D01*
X142766Y119789D01*
X142812Y119812D01*
X142856Y119838D01*
X142898Y119868D01*
X142939Y119900D01*
X142976Y119935D01*
X143011Y119973D01*
X143043Y120013D01*
X143073Y120055D01*
X143099Y120099D01*
X143122Y120145D01*
X143142Y120192D01*
X143158Y120241D01*
X143171Y120291D01*
X143180Y120342D01*
X143185Y120393D01*
X143187Y120444D01*
X143187Y122242D01*
X143185Y122293D01*
X143180Y122344D01*
X143171Y122395D01*
X143158Y122445D01*
X143142Y122494D01*
X143122Y122541D01*
X143099Y122587D01*
X143073Y122631D01*
X143043Y122673D01*
X143011Y122713D01*
X142976Y122751D01*
X142939Y122786D01*
X142899Y122818D01*
X142856Y122848D01*
X142812Y122874D01*
X142766Y122897D01*
X142719Y122917D01*
X142670Y122933D01*
X142620Y122946D01*
X142570Y122955D01*
X142518Y122960D01*
X142467Y122962D01*
X141748Y122962D01*
X140169Y119724D02*
X139090Y119724D01*
X139039Y119726D01*
X138988Y119731D01*
X138937Y119740D01*
X138887Y119753D01*
X138838Y119769D01*
X138791Y119789D01*
X138745Y119812D01*
X138701Y119838D01*
X138659Y119868D01*
X138619Y119900D01*
X138581Y119935D01*
X138546Y119972D01*
X138514Y120013D01*
X138484Y120055D01*
X138458Y120099D01*
X138435Y120145D01*
X138415Y120192D01*
X138399Y120241D01*
X138386Y120291D01*
X138377Y120342D01*
X138372Y120393D01*
X138370Y120444D01*
X138370Y120803D01*
X138372Y120854D01*
X138377Y120905D01*
X138386Y120956D01*
X138399Y121006D01*
X138415Y121055D01*
X138435Y121102D01*
X138458Y121148D01*
X138484Y121192D01*
X138514Y121234D01*
X138546Y121274D01*
X138581Y121312D01*
X138619Y121347D01*
X138659Y121379D01*
X138701Y121409D01*
X138745Y121435D01*
X138791Y121458D01*
X138838Y121478D01*
X138887Y121494D01*
X138937Y121507D01*
X138988Y121516D01*
X139039Y121521D01*
X139090Y121523D01*
X140169Y121523D01*
X140169Y122962D01*
X138370Y122962D01*
D12*
X218169Y246767D02*
X221915Y246767D01*
X221915Y247808D01*
X221913Y247871D01*
X221907Y247933D01*
X221898Y247996D01*
X221885Y248057D01*
X221868Y248118D01*
X221847Y248177D01*
X221823Y248235D01*
X221796Y248292D01*
X221765Y248347D01*
X221731Y248399D01*
X221693Y248450D01*
X221653Y248498D01*
X221610Y248544D01*
X221564Y248587D01*
X221516Y248627D01*
X221465Y248665D01*
X221413Y248699D01*
X221358Y248730D01*
X221301Y248757D01*
X221243Y248781D01*
X221184Y248802D01*
X221123Y248819D01*
X221062Y248832D01*
X220999Y248841D01*
X220937Y248847D01*
X220874Y248849D01*
X220811Y248847D01*
X220749Y248841D01*
X220686Y248832D01*
X220625Y248819D01*
X220564Y248802D01*
X220505Y248781D01*
X220447Y248757D01*
X220390Y248730D01*
X220335Y248699D01*
X220283Y248665D01*
X220232Y248627D01*
X220184Y248587D01*
X220138Y248544D01*
X220095Y248498D01*
X220055Y248450D01*
X220017Y248399D01*
X219983Y248347D01*
X219952Y248292D01*
X219925Y248235D01*
X219901Y248177D01*
X219880Y248118D01*
X219863Y248057D01*
X219850Y247996D01*
X219841Y247933D01*
X219835Y247871D01*
X219833Y247808D01*
X219834Y247808D02*
X219834Y246767D01*
X219834Y248016D02*
X218169Y248848D01*
X220979Y252428D02*
X221038Y252426D01*
X221096Y252421D01*
X221155Y252411D01*
X221212Y252399D01*
X221269Y252382D01*
X221324Y252362D01*
X221378Y252339D01*
X221430Y252312D01*
X221481Y252282D01*
X221530Y252249D01*
X221576Y252213D01*
X221620Y252174D01*
X221662Y252132D01*
X221701Y252088D01*
X221737Y252042D01*
X221770Y251993D01*
X221800Y251942D01*
X221827Y251890D01*
X221850Y251836D01*
X221870Y251781D01*
X221887Y251724D01*
X221899Y251667D01*
X221909Y251608D01*
X221914Y251550D01*
X221916Y251491D01*
X221915Y251491D02*
X221913Y251422D01*
X221907Y251354D01*
X221897Y251286D01*
X221884Y251218D01*
X221866Y251152D01*
X221845Y251086D01*
X221820Y251022D01*
X221791Y250960D01*
X221759Y250899D01*
X221724Y250840D01*
X221685Y250783D01*
X221643Y250729D01*
X221598Y250677D01*
X221550Y250628D01*
X221499Y250581D01*
X221446Y250538D01*
X221390Y250497D01*
X221332Y250460D01*
X221273Y250427D01*
X221211Y250396D01*
X221147Y250370D01*
X221083Y250347D01*
X220251Y252115D02*
X220295Y252159D01*
X220342Y252200D01*
X220392Y252238D01*
X220444Y252273D01*
X220498Y252305D01*
X220554Y252333D01*
X220612Y252358D01*
X220671Y252379D01*
X220731Y252396D01*
X220792Y252409D01*
X220854Y252419D01*
X220916Y252425D01*
X220979Y252427D01*
X220250Y252115D02*
X218169Y250346D01*
X218169Y252427D01*
D13*
X289819Y157296D02*
X319029Y157296D01*
X319029Y169996D01*
X289819Y169996D01*
X289819Y157296D01*
D14*
X321748Y149272D02*
X321748Y148553D01*
X321750Y148502D01*
X321755Y148451D01*
X321764Y148400D01*
X321777Y148350D01*
X321793Y148301D01*
X321813Y148254D01*
X321836Y148208D01*
X321862Y148164D01*
X321892Y148122D01*
X321924Y148082D01*
X321959Y148044D01*
X321997Y148009D01*
X322037Y147977D01*
X322079Y147947D01*
X322123Y147921D01*
X322169Y147898D01*
X322216Y147878D01*
X322265Y147862D01*
X322315Y147849D01*
X322366Y147840D01*
X322417Y147835D01*
X322468Y147833D01*
X324266Y147833D01*
X324317Y147835D01*
X324368Y147840D01*
X324419Y147849D01*
X324469Y147862D01*
X324518Y147878D01*
X324565Y147898D01*
X324611Y147921D01*
X324655Y147947D01*
X324697Y147977D01*
X324737Y148009D01*
X324775Y148044D01*
X324810Y148081D01*
X324842Y148122D01*
X324872Y148164D01*
X324898Y148208D01*
X324921Y148254D01*
X324941Y148301D01*
X324957Y148350D01*
X324970Y148400D01*
X324979Y148451D01*
X324984Y148502D01*
X324986Y148553D01*
X324986Y149272D01*
X323547Y150851D02*
X323547Y151930D01*
X323545Y151981D01*
X323540Y152032D01*
X323531Y152083D01*
X323518Y152133D01*
X323502Y152182D01*
X323482Y152229D01*
X323459Y152275D01*
X323433Y152319D01*
X323403Y152361D01*
X323371Y152401D01*
X323336Y152439D01*
X323298Y152474D01*
X323258Y152506D01*
X323216Y152536D01*
X323172Y152562D01*
X323126Y152585D01*
X323079Y152605D01*
X323030Y152621D01*
X322980Y152634D01*
X322929Y152643D01*
X322878Y152648D01*
X322827Y152650D01*
X322647Y152650D01*
X322647Y152649D02*
X322588Y152647D01*
X322530Y152641D01*
X322472Y152632D01*
X322414Y152618D01*
X322358Y152601D01*
X322303Y152581D01*
X322249Y152556D01*
X322198Y152529D01*
X322148Y152497D01*
X322100Y152463D01*
X322054Y152426D01*
X322011Y152386D01*
X321971Y152343D01*
X321934Y152297D01*
X321900Y152249D01*
X321868Y152200D01*
X321841Y152148D01*
X321816Y152094D01*
X321796Y152039D01*
X321779Y151983D01*
X321765Y151925D01*
X321756Y151867D01*
X321750Y151809D01*
X321748Y151750D01*
X321750Y151691D01*
X321756Y151633D01*
X321765Y151575D01*
X321779Y151517D01*
X321796Y151461D01*
X321816Y151406D01*
X321841Y151352D01*
X321868Y151301D01*
X321900Y151251D01*
X321934Y151203D01*
X321971Y151157D01*
X322011Y151114D01*
X322054Y151074D01*
X322100Y151037D01*
X322148Y151003D01*
X322198Y150971D01*
X322249Y150944D01*
X322303Y150919D01*
X322358Y150899D01*
X322414Y150882D01*
X322472Y150868D01*
X322530Y150859D01*
X322588Y150853D01*
X322647Y150851D01*
X323547Y150851D01*
X323622Y150853D01*
X323697Y150859D01*
X323772Y150869D01*
X323846Y150882D01*
X323919Y150900D01*
X323992Y150921D01*
X324063Y150947D01*
X324132Y150975D01*
X324200Y151008D01*
X324266Y151044D01*
X324331Y151083D01*
X324393Y151126D01*
X324453Y151172D01*
X324510Y151221D01*
X324565Y151272D01*
X324616Y151327D01*
X324665Y151384D01*
X324711Y151444D01*
X324754Y151506D01*
X324793Y151570D01*
X324829Y151637D01*
X324862Y151705D01*
X324890Y151774D01*
X324916Y151845D01*
X324937Y151918D01*
X324955Y151991D01*
X324968Y152065D01*
X324978Y152140D01*
X324984Y152215D01*
X324986Y152290D01*
D13*
X319029Y122978D02*
X289819Y122978D01*
X319029Y122978D02*
X319029Y135678D01*
X289819Y135678D01*
X289819Y122978D01*
D14*
X321268Y128995D02*
X321268Y129714D01*
X321268Y128995D02*
X321270Y128944D01*
X321275Y128893D01*
X321284Y128842D01*
X321297Y128792D01*
X321313Y128743D01*
X321333Y128696D01*
X321356Y128650D01*
X321382Y128606D01*
X321412Y128564D01*
X321444Y128524D01*
X321479Y128486D01*
X321517Y128451D01*
X321557Y128419D01*
X321599Y128389D01*
X321643Y128363D01*
X321689Y128340D01*
X321736Y128320D01*
X321785Y128304D01*
X321835Y128291D01*
X321886Y128282D01*
X321937Y128277D01*
X321988Y128275D01*
X323786Y128275D01*
X323837Y128277D01*
X323888Y128282D01*
X323939Y128291D01*
X323989Y128304D01*
X324038Y128320D01*
X324085Y128340D01*
X324131Y128363D01*
X324175Y128389D01*
X324217Y128419D01*
X324257Y128451D01*
X324295Y128486D01*
X324330Y128523D01*
X324362Y128564D01*
X324392Y128606D01*
X324418Y128650D01*
X324441Y128696D01*
X324461Y128743D01*
X324477Y128792D01*
X324490Y128842D01*
X324499Y128893D01*
X324504Y128944D01*
X324506Y128995D01*
X324506Y129714D01*
X324506Y131293D02*
X324146Y131293D01*
X324506Y131293D02*
X324506Y133092D01*
X321268Y132192D01*
D13*
X319067Y121718D02*
X289857Y121718D01*
X289857Y109018D01*
X319067Y109018D01*
X319067Y121718D01*
D14*
X321870Y114680D02*
X321870Y113961D01*
X321872Y113910D01*
X321877Y113859D01*
X321886Y113808D01*
X321899Y113758D01*
X321915Y113709D01*
X321935Y113662D01*
X321958Y113616D01*
X321984Y113572D01*
X322014Y113530D01*
X322046Y113490D01*
X322081Y113452D01*
X322119Y113417D01*
X322159Y113385D01*
X322201Y113355D01*
X322245Y113329D01*
X322291Y113306D01*
X322338Y113286D01*
X322387Y113270D01*
X322437Y113257D01*
X322488Y113248D01*
X322539Y113243D01*
X322590Y113241D01*
X324388Y113241D01*
X324439Y113243D01*
X324490Y113248D01*
X324541Y113257D01*
X324591Y113270D01*
X324640Y113286D01*
X324687Y113306D01*
X324733Y113329D01*
X324777Y113355D01*
X324819Y113385D01*
X324859Y113417D01*
X324897Y113452D01*
X324932Y113489D01*
X324964Y113530D01*
X324994Y113572D01*
X325020Y113616D01*
X325043Y113662D01*
X325063Y113709D01*
X325079Y113758D01*
X325092Y113808D01*
X325101Y113859D01*
X325106Y113910D01*
X325108Y113961D01*
X325108Y114680D01*
X322769Y116259D02*
X322828Y116261D01*
X322886Y116267D01*
X322944Y116276D01*
X323002Y116290D01*
X323058Y116307D01*
X323113Y116327D01*
X323167Y116352D01*
X323219Y116379D01*
X323268Y116411D01*
X323316Y116445D01*
X323362Y116482D01*
X323405Y116522D01*
X323445Y116565D01*
X323482Y116611D01*
X323516Y116659D01*
X323548Y116709D01*
X323575Y116760D01*
X323600Y116814D01*
X323620Y116869D01*
X323637Y116925D01*
X323651Y116983D01*
X323660Y117041D01*
X323666Y117099D01*
X323668Y117158D01*
X323666Y117217D01*
X323660Y117275D01*
X323651Y117333D01*
X323637Y117391D01*
X323620Y117447D01*
X323600Y117502D01*
X323575Y117556D01*
X323548Y117608D01*
X323516Y117657D01*
X323482Y117705D01*
X323445Y117751D01*
X323405Y117794D01*
X323362Y117834D01*
X323316Y117871D01*
X323268Y117905D01*
X323219Y117937D01*
X323167Y117964D01*
X323113Y117989D01*
X323058Y118009D01*
X323002Y118026D01*
X322944Y118040D01*
X322886Y118049D01*
X322828Y118055D01*
X322769Y118057D01*
X322710Y118055D01*
X322652Y118049D01*
X322594Y118040D01*
X322536Y118026D01*
X322480Y118009D01*
X322425Y117989D01*
X322371Y117964D01*
X322320Y117937D01*
X322270Y117905D01*
X322222Y117871D01*
X322176Y117834D01*
X322133Y117794D01*
X322093Y117751D01*
X322056Y117705D01*
X322022Y117657D01*
X321990Y117608D01*
X321963Y117556D01*
X321938Y117502D01*
X321918Y117447D01*
X321901Y117391D01*
X321887Y117333D01*
X321878Y117275D01*
X321872Y117217D01*
X321870Y117158D01*
X321872Y117099D01*
X321878Y117041D01*
X321887Y116983D01*
X321901Y116925D01*
X321918Y116869D01*
X321938Y116814D01*
X321963Y116760D01*
X321990Y116709D01*
X322022Y116659D01*
X322056Y116611D01*
X322093Y116565D01*
X322133Y116522D01*
X322176Y116482D01*
X322222Y116445D01*
X322270Y116411D01*
X322320Y116379D01*
X322371Y116352D01*
X322425Y116327D01*
X322480Y116307D01*
X322536Y116290D01*
X322594Y116276D01*
X322652Y116267D01*
X322710Y116261D01*
X322769Y116259D01*
X324388Y116438D02*
X324441Y116440D01*
X324493Y116446D01*
X324545Y116455D01*
X324595Y116469D01*
X324645Y116486D01*
X324694Y116506D01*
X324740Y116530D01*
X324785Y116558D01*
X324828Y116588D01*
X324868Y116622D01*
X324906Y116658D01*
X324941Y116697D01*
X324974Y116739D01*
X325003Y116783D01*
X325028Y116829D01*
X325051Y116876D01*
X325069Y116926D01*
X325085Y116976D01*
X325096Y117027D01*
X325104Y117079D01*
X325108Y117132D01*
X325108Y117184D01*
X325104Y117237D01*
X325096Y117289D01*
X325085Y117340D01*
X325069Y117390D01*
X325051Y117440D01*
X325028Y117487D01*
X325003Y117533D01*
X324974Y117577D01*
X324941Y117619D01*
X324906Y117658D01*
X324868Y117694D01*
X324828Y117728D01*
X324785Y117758D01*
X324740Y117786D01*
X324694Y117810D01*
X324645Y117830D01*
X324595Y117847D01*
X324545Y117861D01*
X324493Y117870D01*
X324441Y117876D01*
X324388Y117878D01*
X324335Y117876D01*
X324283Y117870D01*
X324231Y117861D01*
X324181Y117847D01*
X324131Y117830D01*
X324082Y117810D01*
X324036Y117786D01*
X323991Y117758D01*
X323948Y117728D01*
X323908Y117694D01*
X323870Y117658D01*
X323835Y117619D01*
X323802Y117577D01*
X323773Y117533D01*
X323748Y117487D01*
X323725Y117440D01*
X323707Y117390D01*
X323691Y117340D01*
X323680Y117289D01*
X323672Y117237D01*
X323668Y117184D01*
X323668Y117132D01*
X323672Y117079D01*
X323680Y117027D01*
X323691Y116976D01*
X323707Y116926D01*
X323725Y116876D01*
X323748Y116829D01*
X323773Y116783D01*
X323802Y116739D01*
X323835Y116697D01*
X323870Y116658D01*
X323908Y116622D01*
X323948Y116588D01*
X323991Y116558D01*
X324036Y116530D01*
X324082Y116506D01*
X324131Y116486D01*
X324181Y116469D01*
X324231Y116455D01*
X324283Y116446D01*
X324335Y116440D01*
X324388Y116438D01*
D13*
X319029Y155838D02*
X289819Y155838D01*
X289819Y143138D01*
X319029Y143138D01*
X319029Y155838D01*
D14*
X321954Y161751D02*
X321954Y162470D01*
X321954Y161751D02*
X321956Y161700D01*
X321961Y161649D01*
X321970Y161598D01*
X321983Y161548D01*
X321999Y161499D01*
X322019Y161452D01*
X322042Y161406D01*
X322068Y161362D01*
X322098Y161320D01*
X322130Y161280D01*
X322165Y161242D01*
X322203Y161207D01*
X322243Y161175D01*
X322285Y161145D01*
X322329Y161119D01*
X322375Y161096D01*
X322422Y161076D01*
X322471Y161060D01*
X322521Y161047D01*
X322572Y161038D01*
X322623Y161033D01*
X322674Y161031D01*
X324472Y161031D01*
X324523Y161033D01*
X324574Y161038D01*
X324625Y161047D01*
X324675Y161060D01*
X324724Y161076D01*
X324771Y161096D01*
X324817Y161119D01*
X324861Y161145D01*
X324903Y161175D01*
X324943Y161207D01*
X324981Y161242D01*
X325016Y161279D01*
X325048Y161320D01*
X325078Y161362D01*
X325104Y161406D01*
X325127Y161452D01*
X325147Y161499D01*
X325163Y161548D01*
X325176Y161598D01*
X325185Y161649D01*
X325190Y161700D01*
X325192Y161751D01*
X325192Y162470D01*
X323393Y164768D02*
X323393Y165848D01*
X323393Y164768D02*
X323395Y164717D01*
X323400Y164666D01*
X323409Y164615D01*
X323422Y164565D01*
X323438Y164516D01*
X323458Y164469D01*
X323481Y164423D01*
X323507Y164379D01*
X323537Y164337D01*
X323569Y164297D01*
X323604Y164259D01*
X323642Y164224D01*
X323682Y164192D01*
X323724Y164162D01*
X323768Y164136D01*
X323814Y164113D01*
X323861Y164093D01*
X323910Y164077D01*
X323960Y164064D01*
X324011Y164055D01*
X324062Y164050D01*
X324113Y164048D01*
X324113Y164049D02*
X324293Y164049D01*
X324352Y164051D01*
X324410Y164057D01*
X324468Y164066D01*
X324526Y164080D01*
X324582Y164097D01*
X324637Y164117D01*
X324691Y164142D01*
X324743Y164169D01*
X324792Y164201D01*
X324840Y164235D01*
X324886Y164272D01*
X324929Y164312D01*
X324969Y164355D01*
X325006Y164401D01*
X325040Y164449D01*
X325072Y164499D01*
X325099Y164550D01*
X325124Y164604D01*
X325144Y164659D01*
X325161Y164715D01*
X325175Y164773D01*
X325184Y164831D01*
X325190Y164889D01*
X325192Y164948D01*
X325190Y165007D01*
X325184Y165065D01*
X325175Y165123D01*
X325161Y165181D01*
X325144Y165237D01*
X325124Y165292D01*
X325099Y165346D01*
X325072Y165398D01*
X325040Y165447D01*
X325006Y165495D01*
X324969Y165541D01*
X324929Y165584D01*
X324886Y165624D01*
X324840Y165661D01*
X324792Y165695D01*
X324743Y165727D01*
X324691Y165754D01*
X324637Y165779D01*
X324582Y165799D01*
X324526Y165816D01*
X324468Y165830D01*
X324410Y165839D01*
X324352Y165845D01*
X324293Y165847D01*
X324293Y165848D02*
X323393Y165848D01*
X323393Y165847D02*
X323318Y165845D01*
X323243Y165839D01*
X323168Y165829D01*
X323094Y165816D01*
X323021Y165798D01*
X322948Y165777D01*
X322877Y165751D01*
X322808Y165723D01*
X322740Y165690D01*
X322674Y165654D01*
X322609Y165615D01*
X322547Y165572D01*
X322487Y165526D01*
X322430Y165477D01*
X322375Y165426D01*
X322324Y165371D01*
X322275Y165314D01*
X322229Y165254D01*
X322186Y165192D01*
X322147Y165128D01*
X322111Y165061D01*
X322078Y164993D01*
X322050Y164924D01*
X322024Y164853D01*
X322003Y164780D01*
X321985Y164707D01*
X321972Y164633D01*
X321962Y164558D01*
X321956Y164483D01*
X321954Y164408D01*
D13*
X343600Y213458D02*
X343600Y255458D01*
X313092Y255458D02*
X313092Y213458D01*
D14*
X348306Y214519D02*
X348306Y215418D01*
X348305Y215418D02*
X348303Y215477D01*
X348297Y215535D01*
X348288Y215593D01*
X348274Y215651D01*
X348257Y215707D01*
X348237Y215762D01*
X348212Y215816D01*
X348185Y215868D01*
X348153Y215917D01*
X348119Y215965D01*
X348082Y216011D01*
X348042Y216054D01*
X347999Y216094D01*
X347953Y216131D01*
X347905Y216165D01*
X347856Y216197D01*
X347804Y216224D01*
X347750Y216249D01*
X347695Y216269D01*
X347639Y216286D01*
X347581Y216300D01*
X347523Y216309D01*
X347465Y216315D01*
X347406Y216317D01*
X347347Y216315D01*
X347289Y216309D01*
X347231Y216300D01*
X347173Y216286D01*
X347117Y216269D01*
X347062Y216249D01*
X347008Y216224D01*
X346957Y216197D01*
X346907Y216165D01*
X346859Y216131D01*
X346813Y216094D01*
X346770Y216054D01*
X346730Y216011D01*
X346693Y215965D01*
X346659Y215917D01*
X346627Y215868D01*
X346600Y215816D01*
X346575Y215762D01*
X346555Y215707D01*
X346538Y215651D01*
X346524Y215593D01*
X346515Y215535D01*
X346509Y215477D01*
X346507Y215418D01*
X346507Y214519D01*
X349745Y214519D01*
X349745Y215418D01*
X349743Y215471D01*
X349737Y215523D01*
X349728Y215575D01*
X349714Y215625D01*
X349697Y215675D01*
X349677Y215724D01*
X349653Y215770D01*
X349625Y215815D01*
X349595Y215858D01*
X349561Y215898D01*
X349525Y215936D01*
X349486Y215971D01*
X349444Y216004D01*
X349400Y216033D01*
X349354Y216058D01*
X349307Y216081D01*
X349257Y216099D01*
X349207Y216115D01*
X349156Y216126D01*
X349104Y216134D01*
X349051Y216138D01*
X348999Y216138D01*
X348946Y216134D01*
X348894Y216126D01*
X348843Y216115D01*
X348793Y216099D01*
X348743Y216081D01*
X348696Y216058D01*
X348650Y216033D01*
X348606Y216004D01*
X348564Y215971D01*
X348525Y215936D01*
X348489Y215898D01*
X348455Y215858D01*
X348425Y215815D01*
X348397Y215770D01*
X348373Y215724D01*
X348353Y215675D01*
X348336Y215625D01*
X348322Y215575D01*
X348313Y215523D01*
X348307Y215471D01*
X348305Y215418D01*
X348846Y217909D02*
X347406Y217909D01*
X348846Y217909D02*
X348905Y217911D01*
X348963Y217917D01*
X349021Y217926D01*
X349079Y217940D01*
X349135Y217957D01*
X349190Y217977D01*
X349244Y218002D01*
X349296Y218029D01*
X349345Y218061D01*
X349393Y218095D01*
X349439Y218132D01*
X349482Y218172D01*
X349522Y218215D01*
X349559Y218261D01*
X349593Y218309D01*
X349625Y218359D01*
X349652Y218410D01*
X349677Y218464D01*
X349697Y218519D01*
X349714Y218575D01*
X349728Y218633D01*
X349737Y218691D01*
X349743Y218749D01*
X349745Y218808D01*
X349743Y218867D01*
X349737Y218925D01*
X349728Y218983D01*
X349714Y219041D01*
X349697Y219097D01*
X349677Y219152D01*
X349652Y219206D01*
X349625Y219258D01*
X349593Y219307D01*
X349559Y219355D01*
X349522Y219401D01*
X349482Y219444D01*
X349439Y219484D01*
X349393Y219521D01*
X349345Y219555D01*
X349296Y219587D01*
X349244Y219614D01*
X349190Y219639D01*
X349135Y219659D01*
X349079Y219676D01*
X349021Y219690D01*
X348963Y219699D01*
X348905Y219705D01*
X348846Y219707D01*
X348846Y219708D02*
X347406Y219708D01*
X347406Y219707D02*
X347347Y219705D01*
X347289Y219699D01*
X347231Y219690D01*
X347173Y219676D01*
X347117Y219659D01*
X347062Y219639D01*
X347008Y219614D01*
X346957Y219587D01*
X346907Y219555D01*
X346859Y219521D01*
X346813Y219484D01*
X346770Y219444D01*
X346730Y219401D01*
X346693Y219355D01*
X346659Y219307D01*
X346627Y219258D01*
X346600Y219206D01*
X346575Y219152D01*
X346555Y219097D01*
X346538Y219041D01*
X346524Y218983D01*
X346515Y218925D01*
X346509Y218867D01*
X346507Y218808D01*
X346509Y218749D01*
X346515Y218691D01*
X346524Y218633D01*
X346538Y218575D01*
X346555Y218519D01*
X346575Y218464D01*
X346600Y218410D01*
X346627Y218359D01*
X346659Y218309D01*
X346693Y218261D01*
X346730Y218215D01*
X346770Y218172D01*
X346813Y218132D01*
X346859Y218095D01*
X346907Y218061D01*
X346957Y218029D01*
X347008Y218002D01*
X347062Y217977D01*
X347117Y217957D01*
X347173Y217940D01*
X347231Y217926D01*
X347289Y217917D01*
X347347Y217911D01*
X347406Y217909D01*
X347406Y221509D02*
X348846Y221509D01*
X348905Y221511D01*
X348963Y221517D01*
X349021Y221526D01*
X349079Y221540D01*
X349135Y221557D01*
X349190Y221577D01*
X349244Y221602D01*
X349296Y221629D01*
X349345Y221661D01*
X349393Y221695D01*
X349439Y221732D01*
X349482Y221772D01*
X349522Y221815D01*
X349559Y221861D01*
X349593Y221909D01*
X349625Y221959D01*
X349652Y222010D01*
X349677Y222064D01*
X349697Y222119D01*
X349714Y222175D01*
X349728Y222233D01*
X349737Y222291D01*
X349743Y222349D01*
X349745Y222408D01*
X349743Y222467D01*
X349737Y222525D01*
X349728Y222583D01*
X349714Y222641D01*
X349697Y222697D01*
X349677Y222752D01*
X349652Y222806D01*
X349625Y222858D01*
X349593Y222907D01*
X349559Y222955D01*
X349522Y223001D01*
X349482Y223044D01*
X349439Y223084D01*
X349393Y223121D01*
X349345Y223155D01*
X349296Y223187D01*
X349244Y223214D01*
X349190Y223239D01*
X349135Y223259D01*
X349079Y223276D01*
X349021Y223290D01*
X348963Y223299D01*
X348905Y223305D01*
X348846Y223307D01*
X348846Y223308D02*
X347406Y223308D01*
X347406Y223307D02*
X347347Y223305D01*
X347289Y223299D01*
X347231Y223290D01*
X347173Y223276D01*
X347117Y223259D01*
X347062Y223239D01*
X347008Y223214D01*
X346957Y223187D01*
X346907Y223155D01*
X346859Y223121D01*
X346813Y223084D01*
X346770Y223044D01*
X346730Y223001D01*
X346693Y222955D01*
X346659Y222907D01*
X346627Y222858D01*
X346600Y222806D01*
X346575Y222752D01*
X346555Y222697D01*
X346538Y222641D01*
X346524Y222583D01*
X346515Y222525D01*
X346509Y222467D01*
X346507Y222408D01*
X346509Y222349D01*
X346515Y222291D01*
X346524Y222233D01*
X346538Y222175D01*
X346555Y222119D01*
X346575Y222064D01*
X346600Y222010D01*
X346627Y221959D01*
X346659Y221909D01*
X346693Y221861D01*
X346730Y221815D01*
X346770Y221772D01*
X346813Y221732D01*
X346859Y221695D01*
X346907Y221661D01*
X346957Y221629D01*
X347008Y221602D01*
X347062Y221577D01*
X347117Y221557D01*
X347173Y221540D01*
X347231Y221526D01*
X347289Y221517D01*
X347347Y221511D01*
X347406Y221509D01*
X346507Y225768D02*
X349745Y225768D01*
X349745Y224869D02*
X349745Y226668D01*
D12*
X282169Y271133D02*
X278423Y271133D01*
X282169Y271133D02*
X282169Y272173D01*
X282167Y272236D01*
X282161Y272298D01*
X282152Y272361D01*
X282139Y272422D01*
X282122Y272483D01*
X282101Y272542D01*
X282077Y272600D01*
X282050Y272657D01*
X282019Y272712D01*
X281985Y272764D01*
X281947Y272815D01*
X281907Y272863D01*
X281864Y272909D01*
X281818Y272952D01*
X281770Y272992D01*
X281719Y273030D01*
X281667Y273064D01*
X281612Y273095D01*
X281555Y273122D01*
X281497Y273146D01*
X281438Y273167D01*
X281377Y273184D01*
X281316Y273197D01*
X281253Y273206D01*
X281191Y273212D01*
X281128Y273214D01*
X281065Y273212D01*
X281003Y273206D01*
X280940Y273197D01*
X280879Y273184D01*
X280818Y273167D01*
X280759Y273146D01*
X280701Y273122D01*
X280644Y273095D01*
X280589Y273064D01*
X280537Y273030D01*
X280486Y272992D01*
X280438Y272952D01*
X280392Y272909D01*
X280349Y272863D01*
X280309Y272815D01*
X280271Y272764D01*
X280237Y272712D01*
X280206Y272657D01*
X280179Y272600D01*
X280155Y272542D01*
X280134Y272483D01*
X280117Y272422D01*
X280104Y272361D01*
X280095Y272298D01*
X280089Y272236D01*
X280087Y272173D01*
X280088Y272173D02*
X280088Y271133D01*
X280088Y272381D02*
X278423Y273214D01*
X280088Y275544D02*
X280088Y276793D01*
X280088Y275544D02*
X280090Y275487D01*
X280096Y275431D01*
X280105Y275375D01*
X280119Y275320D01*
X280136Y275265D01*
X280157Y275213D01*
X280181Y275161D01*
X280209Y275112D01*
X280240Y275064D01*
X280275Y275019D01*
X280312Y274976D01*
X280352Y274936D01*
X280395Y274899D01*
X280440Y274864D01*
X280488Y274833D01*
X280537Y274805D01*
X280589Y274781D01*
X280641Y274760D01*
X280696Y274743D01*
X280751Y274729D01*
X280807Y274720D01*
X280863Y274714D01*
X280920Y274712D01*
X281128Y274712D01*
X281128Y274711D02*
X281191Y274713D01*
X281253Y274719D01*
X281316Y274728D01*
X281377Y274741D01*
X281438Y274758D01*
X281497Y274779D01*
X281555Y274803D01*
X281612Y274830D01*
X281667Y274861D01*
X281719Y274895D01*
X281770Y274933D01*
X281818Y274973D01*
X281864Y275016D01*
X281907Y275062D01*
X281947Y275110D01*
X281985Y275161D01*
X282019Y275213D01*
X282050Y275268D01*
X282077Y275325D01*
X282101Y275383D01*
X282122Y275442D01*
X282139Y275503D01*
X282152Y275564D01*
X282161Y275627D01*
X282167Y275689D01*
X282169Y275752D01*
X282167Y275815D01*
X282161Y275877D01*
X282152Y275940D01*
X282139Y276001D01*
X282122Y276062D01*
X282101Y276121D01*
X282077Y276179D01*
X282050Y276236D01*
X282019Y276291D01*
X281985Y276343D01*
X281947Y276394D01*
X281907Y276442D01*
X281864Y276488D01*
X281818Y276531D01*
X281770Y276571D01*
X281719Y276609D01*
X281667Y276643D01*
X281612Y276674D01*
X281555Y276701D01*
X281497Y276725D01*
X281438Y276746D01*
X281377Y276763D01*
X281316Y276776D01*
X281253Y276785D01*
X281191Y276791D01*
X281128Y276793D01*
X280088Y276793D01*
X280009Y276791D01*
X279930Y276785D01*
X279851Y276776D01*
X279773Y276763D01*
X279695Y276746D01*
X279619Y276726D01*
X279543Y276701D01*
X279469Y276674D01*
X279396Y276643D01*
X279325Y276608D01*
X279256Y276570D01*
X279188Y276529D01*
X279122Y276484D01*
X279059Y276437D01*
X278998Y276386D01*
X278939Y276333D01*
X278883Y276277D01*
X278830Y276218D01*
X278779Y276157D01*
X278732Y276094D01*
X278687Y276028D01*
X278646Y275961D01*
X278608Y275891D01*
X278573Y275820D01*
X278542Y275747D01*
X278515Y275673D01*
X278490Y275597D01*
X278470Y275521D01*
X278453Y275443D01*
X278440Y275365D01*
X278431Y275286D01*
X278425Y275207D01*
X278423Y275128D01*
D13*
X277442Y255458D02*
X277442Y213458D01*
X246934Y213458D02*
X246934Y255458D01*
D14*
X280349Y214519D02*
X283587Y214519D01*
X283587Y215418D01*
X283585Y215477D01*
X283579Y215535D01*
X283570Y215593D01*
X283556Y215651D01*
X283539Y215707D01*
X283519Y215762D01*
X283494Y215816D01*
X283467Y215868D01*
X283435Y215917D01*
X283401Y215965D01*
X283364Y216011D01*
X283324Y216054D01*
X283281Y216094D01*
X283235Y216131D01*
X283187Y216165D01*
X283138Y216197D01*
X283086Y216224D01*
X283032Y216249D01*
X282977Y216269D01*
X282921Y216286D01*
X282863Y216300D01*
X282805Y216309D01*
X282747Y216315D01*
X282688Y216317D01*
X282629Y216315D01*
X282571Y216309D01*
X282513Y216300D01*
X282455Y216286D01*
X282399Y216269D01*
X282344Y216249D01*
X282290Y216224D01*
X282239Y216197D01*
X282189Y216165D01*
X282141Y216131D01*
X282095Y216094D01*
X282052Y216054D01*
X282012Y216011D01*
X281975Y215965D01*
X281941Y215917D01*
X281909Y215868D01*
X281882Y215816D01*
X281857Y215762D01*
X281837Y215707D01*
X281820Y215651D01*
X281806Y215593D01*
X281797Y215535D01*
X281791Y215477D01*
X281789Y215418D01*
X281788Y215418D02*
X281788Y214519D01*
X281788Y215598D02*
X280349Y216318D01*
X280349Y218212D02*
X280349Y219651D01*
X280349Y218212D02*
X283587Y218212D01*
X283587Y219651D01*
X282148Y219291D02*
X282148Y218212D01*
X280349Y222159D02*
X280351Y222210D01*
X280356Y222261D01*
X280365Y222312D01*
X280378Y222362D01*
X280394Y222411D01*
X280414Y222458D01*
X280437Y222504D01*
X280463Y222548D01*
X280493Y222590D01*
X280525Y222630D01*
X280560Y222668D01*
X280598Y222703D01*
X280638Y222735D01*
X280680Y222765D01*
X280724Y222791D01*
X280770Y222814D01*
X280817Y222834D01*
X280866Y222850D01*
X280916Y222863D01*
X280967Y222872D01*
X281018Y222877D01*
X281069Y222879D01*
X280349Y222159D02*
X280351Y222084D01*
X280356Y222009D01*
X280366Y221935D01*
X280379Y221861D01*
X280395Y221788D01*
X280415Y221715D01*
X280439Y221644D01*
X280466Y221574D01*
X280496Y221506D01*
X280530Y221439D01*
X280568Y221374D01*
X280608Y221311D01*
X280651Y221249D01*
X280698Y221190D01*
X280747Y221134D01*
X280799Y221080D01*
X282867Y221169D02*
X282918Y221171D01*
X282969Y221176D01*
X283020Y221185D01*
X283070Y221198D01*
X283119Y221214D01*
X283166Y221234D01*
X283212Y221257D01*
X283256Y221283D01*
X283298Y221313D01*
X283338Y221345D01*
X283376Y221380D01*
X283411Y221418D01*
X283443Y221458D01*
X283473Y221500D01*
X283499Y221544D01*
X283522Y221590D01*
X283542Y221637D01*
X283558Y221686D01*
X283571Y221736D01*
X283580Y221787D01*
X283585Y221838D01*
X283587Y221889D01*
X283585Y221961D01*
X283579Y222033D01*
X283570Y222105D01*
X283556Y222176D01*
X283539Y222246D01*
X283518Y222316D01*
X283493Y222384D01*
X283465Y222450D01*
X283433Y222515D01*
X283398Y222578D01*
X283359Y222639D01*
X283317Y222698D01*
X282237Y221530D02*
X282264Y221487D01*
X282294Y221447D01*
X282327Y221408D01*
X282363Y221372D01*
X282400Y221338D01*
X282440Y221307D01*
X282483Y221279D01*
X282527Y221254D01*
X282572Y221232D01*
X282619Y221213D01*
X282667Y221198D01*
X282716Y221186D01*
X282766Y221177D01*
X282816Y221172D01*
X282867Y221170D01*
X281699Y222519D02*
X281672Y222562D01*
X281642Y222603D01*
X281609Y222641D01*
X281573Y222677D01*
X281536Y222711D01*
X281495Y222742D01*
X281453Y222770D01*
X281409Y222795D01*
X281364Y222817D01*
X281317Y222836D01*
X281269Y222851D01*
X281220Y222863D01*
X281170Y222872D01*
X281120Y222877D01*
X281069Y222879D01*
X281698Y222519D02*
X282238Y221529D01*
X280349Y224692D02*
X280349Y226131D01*
X280349Y224692D02*
X283587Y224692D01*
X283587Y226131D01*
X282148Y225771D02*
X282148Y224692D01*
X283587Y228339D02*
X280349Y228339D01*
X283587Y227440D02*
X283587Y229239D01*
D15*
X105929Y162572D02*
X105929Y160934D01*
X105929Y162572D02*
X42405Y162572D01*
X42405Y160934D01*
X105929Y100686D02*
X105929Y99048D01*
X42405Y99048D01*
X42405Y100686D01*
D16*
X89400Y166116D02*
X89400Y177800D01*
X89400Y166116D02*
X84207Y166116D01*
X79897Y175204D02*
X76652Y177800D01*
X76652Y166116D01*
X79897Y166116D02*
X73406Y166116D01*
D15*
X126258Y234962D02*
X126258Y247904D01*
X126258Y234962D02*
X140220Y221000D01*
X193782Y221000D01*
X193715Y247685D01*
X126397Y261620D02*
X126263Y274574D01*
X140208Y288519D01*
X193777Y288519D01*
X193576Y262155D01*
D17*
X201168Y223718D02*
X201168Y222476D01*
X201170Y222406D01*
X201176Y222337D01*
X201186Y222268D01*
X201199Y222200D01*
X201217Y222132D01*
X201238Y222066D01*
X201263Y222001D01*
X201291Y221937D01*
X201323Y221875D01*
X201358Y221815D01*
X201397Y221757D01*
X201439Y221702D01*
X201484Y221648D01*
X201532Y221598D01*
X201582Y221550D01*
X201636Y221505D01*
X201691Y221463D01*
X201749Y221424D01*
X201809Y221389D01*
X201871Y221357D01*
X201935Y221329D01*
X202000Y221304D01*
X202066Y221283D01*
X202134Y221265D01*
X202202Y221252D01*
X202271Y221242D01*
X202340Y221236D01*
X202410Y221234D01*
X205514Y221234D01*
X205584Y221236D01*
X205653Y221242D01*
X205722Y221252D01*
X205790Y221265D01*
X205858Y221283D01*
X205924Y221304D01*
X205989Y221329D01*
X206053Y221357D01*
X206115Y221389D01*
X206175Y221424D01*
X206233Y221463D01*
X206288Y221505D01*
X206342Y221550D01*
X206392Y221598D01*
X206440Y221648D01*
X206485Y221702D01*
X206527Y221757D01*
X206566Y221815D01*
X206601Y221875D01*
X206633Y221937D01*
X206661Y222001D01*
X206686Y222066D01*
X206707Y222132D01*
X206725Y222200D01*
X206738Y222268D01*
X206748Y222337D01*
X206754Y222406D01*
X206756Y222476D01*
X206756Y223718D01*
X205514Y225822D02*
X206756Y227374D01*
X201168Y227374D01*
X201168Y225822D02*
X201168Y228927D01*
X202720Y231309D02*
X202797Y231311D01*
X202875Y231317D01*
X202951Y231326D01*
X203028Y231340D01*
X203103Y231357D01*
X203177Y231378D01*
X203251Y231403D01*
X203323Y231431D01*
X203393Y231463D01*
X203462Y231498D01*
X203529Y231537D01*
X203594Y231579D01*
X203657Y231624D01*
X203718Y231672D01*
X203776Y231723D01*
X203831Y231777D01*
X203884Y231834D01*
X203933Y231893D01*
X203980Y231955D01*
X204024Y232019D01*
X204064Y232085D01*
X204101Y232153D01*
X204135Y232223D01*
X204165Y232294D01*
X204191Y232367D01*
X204214Y232441D01*
X204233Y232516D01*
X204248Y232591D01*
X204260Y232668D01*
X204268Y232745D01*
X204272Y232822D01*
X204272Y232900D01*
X204268Y232977D01*
X204260Y233054D01*
X204248Y233131D01*
X204233Y233206D01*
X204214Y233281D01*
X204191Y233355D01*
X204165Y233428D01*
X204135Y233499D01*
X204101Y233569D01*
X204064Y233637D01*
X204024Y233703D01*
X203980Y233767D01*
X203933Y233829D01*
X203884Y233888D01*
X203831Y233945D01*
X203776Y233999D01*
X203718Y234050D01*
X203657Y234098D01*
X203594Y234143D01*
X203529Y234185D01*
X203462Y234224D01*
X203393Y234259D01*
X203323Y234291D01*
X203251Y234319D01*
X203177Y234344D01*
X203103Y234365D01*
X203028Y234382D01*
X202951Y234396D01*
X202875Y234405D01*
X202797Y234411D01*
X202720Y234413D01*
X202643Y234411D01*
X202565Y234405D01*
X202489Y234396D01*
X202412Y234382D01*
X202337Y234365D01*
X202263Y234344D01*
X202189Y234319D01*
X202117Y234291D01*
X202047Y234259D01*
X201978Y234224D01*
X201911Y234185D01*
X201846Y234143D01*
X201783Y234098D01*
X201722Y234050D01*
X201664Y233999D01*
X201609Y233945D01*
X201556Y233888D01*
X201507Y233829D01*
X201460Y233767D01*
X201416Y233703D01*
X201376Y233637D01*
X201339Y233569D01*
X201305Y233499D01*
X201275Y233428D01*
X201249Y233355D01*
X201226Y233281D01*
X201207Y233206D01*
X201192Y233131D01*
X201180Y233054D01*
X201172Y232977D01*
X201168Y232900D01*
X201168Y232822D01*
X201172Y232745D01*
X201180Y232668D01*
X201192Y232591D01*
X201207Y232516D01*
X201226Y232441D01*
X201249Y232367D01*
X201275Y232294D01*
X201305Y232223D01*
X201339Y232153D01*
X201376Y232085D01*
X201416Y232019D01*
X201460Y231955D01*
X201507Y231893D01*
X201556Y231834D01*
X201609Y231777D01*
X201664Y231723D01*
X201722Y231672D01*
X201783Y231624D01*
X201846Y231579D01*
X201911Y231537D01*
X201978Y231498D01*
X202047Y231463D01*
X202117Y231431D01*
X202189Y231403D01*
X202263Y231378D01*
X202337Y231357D01*
X202412Y231340D01*
X202489Y231326D01*
X202565Y231317D01*
X202643Y231311D01*
X202720Y231309D01*
X205514Y231619D02*
X205584Y231621D01*
X205653Y231627D01*
X205722Y231637D01*
X205790Y231650D01*
X205858Y231668D01*
X205924Y231689D01*
X205989Y231714D01*
X206053Y231742D01*
X206115Y231774D01*
X206175Y231809D01*
X206233Y231848D01*
X206288Y231890D01*
X206342Y231935D01*
X206392Y231983D01*
X206440Y232033D01*
X206485Y232087D01*
X206527Y232142D01*
X206566Y232200D01*
X206601Y232260D01*
X206633Y232322D01*
X206661Y232386D01*
X206686Y232451D01*
X206707Y232517D01*
X206725Y232585D01*
X206738Y232653D01*
X206748Y232722D01*
X206754Y232791D01*
X206756Y232861D01*
X206754Y232931D01*
X206748Y233000D01*
X206738Y233069D01*
X206725Y233137D01*
X206707Y233205D01*
X206686Y233271D01*
X206661Y233336D01*
X206633Y233400D01*
X206601Y233462D01*
X206566Y233522D01*
X206527Y233580D01*
X206485Y233635D01*
X206440Y233689D01*
X206392Y233739D01*
X206342Y233787D01*
X206288Y233832D01*
X206233Y233874D01*
X206175Y233913D01*
X206115Y233948D01*
X206053Y233980D01*
X205989Y234008D01*
X205924Y234033D01*
X205858Y234054D01*
X205790Y234072D01*
X205722Y234085D01*
X205653Y234095D01*
X205584Y234101D01*
X205514Y234103D01*
X205444Y234101D01*
X205375Y234095D01*
X205306Y234085D01*
X205238Y234072D01*
X205170Y234054D01*
X205104Y234033D01*
X205039Y234008D01*
X204975Y233980D01*
X204913Y233948D01*
X204853Y233913D01*
X204795Y233874D01*
X204740Y233832D01*
X204686Y233787D01*
X204636Y233739D01*
X204588Y233689D01*
X204543Y233635D01*
X204501Y233580D01*
X204462Y233522D01*
X204427Y233462D01*
X204395Y233400D01*
X204367Y233336D01*
X204342Y233271D01*
X204321Y233205D01*
X204303Y233137D01*
X204290Y233069D01*
X204280Y233000D01*
X204274Y232931D01*
X204272Y232861D01*
X204274Y232791D01*
X204280Y232722D01*
X204290Y232653D01*
X204303Y232585D01*
X204321Y232517D01*
X204342Y232451D01*
X204367Y232386D01*
X204395Y232322D01*
X204427Y232260D01*
X204462Y232200D01*
X204501Y232142D01*
X204543Y232087D01*
X204588Y232033D01*
X204636Y231983D01*
X204686Y231935D01*
X204740Y231890D01*
X204795Y231848D01*
X204853Y231809D01*
X204913Y231774D01*
X204975Y231742D01*
X205039Y231714D01*
X205104Y231689D01*
X205170Y231668D01*
X205238Y231650D01*
X205306Y231637D01*
X205375Y231627D01*
X205444Y231621D01*
X205514Y231619D01*
D15*
X110978Y290576D02*
X110978Y303518D01*
X97016Y317480D01*
X43454Y317480D01*
X43521Y290795D01*
X110839Y276860D02*
X110973Y263906D01*
X97028Y249961D01*
X43459Y249961D01*
X43660Y276325D01*
D17*
X33274Y255214D02*
X33274Y253972D01*
X33276Y253902D01*
X33282Y253833D01*
X33292Y253764D01*
X33305Y253696D01*
X33323Y253628D01*
X33344Y253562D01*
X33369Y253497D01*
X33397Y253433D01*
X33429Y253371D01*
X33464Y253311D01*
X33503Y253253D01*
X33545Y253198D01*
X33590Y253144D01*
X33638Y253094D01*
X33688Y253046D01*
X33742Y253001D01*
X33797Y252959D01*
X33855Y252920D01*
X33915Y252885D01*
X33977Y252853D01*
X34041Y252825D01*
X34106Y252800D01*
X34172Y252779D01*
X34240Y252761D01*
X34308Y252748D01*
X34377Y252738D01*
X34446Y252732D01*
X34516Y252730D01*
X37620Y252730D01*
X37690Y252732D01*
X37759Y252738D01*
X37828Y252748D01*
X37896Y252761D01*
X37964Y252779D01*
X38030Y252800D01*
X38095Y252825D01*
X38159Y252853D01*
X38221Y252885D01*
X38281Y252920D01*
X38339Y252959D01*
X38394Y253001D01*
X38448Y253046D01*
X38498Y253094D01*
X38546Y253144D01*
X38591Y253198D01*
X38633Y253253D01*
X38672Y253311D01*
X38707Y253371D01*
X38739Y253433D01*
X38767Y253497D01*
X38792Y253562D01*
X38813Y253628D01*
X38831Y253696D01*
X38844Y253764D01*
X38854Y253833D01*
X38860Y253902D01*
X38862Y253972D01*
X38862Y255214D01*
X37620Y257318D02*
X38862Y258870D01*
X33274Y258870D01*
X33274Y257318D02*
X33274Y260423D01*
X35758Y264046D02*
X35758Y265909D01*
X35757Y264046D02*
X35759Y263976D01*
X35765Y263907D01*
X35775Y263838D01*
X35788Y263770D01*
X35806Y263702D01*
X35827Y263636D01*
X35852Y263571D01*
X35880Y263507D01*
X35912Y263445D01*
X35947Y263385D01*
X35986Y263327D01*
X36028Y263272D01*
X36073Y263218D01*
X36121Y263168D01*
X36171Y263120D01*
X36225Y263075D01*
X36280Y263033D01*
X36338Y262994D01*
X36398Y262959D01*
X36460Y262927D01*
X36524Y262899D01*
X36589Y262874D01*
X36655Y262853D01*
X36723Y262835D01*
X36791Y262822D01*
X36860Y262812D01*
X36929Y262806D01*
X36999Y262804D01*
X36999Y262805D02*
X37310Y262805D01*
X37387Y262807D01*
X37465Y262813D01*
X37541Y262822D01*
X37618Y262836D01*
X37693Y262853D01*
X37767Y262874D01*
X37841Y262899D01*
X37913Y262927D01*
X37983Y262959D01*
X38052Y262994D01*
X38119Y263033D01*
X38184Y263075D01*
X38247Y263120D01*
X38308Y263168D01*
X38366Y263219D01*
X38421Y263273D01*
X38474Y263330D01*
X38523Y263389D01*
X38570Y263451D01*
X38614Y263515D01*
X38654Y263581D01*
X38691Y263649D01*
X38725Y263719D01*
X38755Y263790D01*
X38781Y263863D01*
X38804Y263937D01*
X38823Y264012D01*
X38838Y264087D01*
X38850Y264164D01*
X38858Y264241D01*
X38862Y264318D01*
X38862Y264396D01*
X38858Y264473D01*
X38850Y264550D01*
X38838Y264627D01*
X38823Y264702D01*
X38804Y264777D01*
X38781Y264851D01*
X38755Y264924D01*
X38725Y264995D01*
X38691Y265065D01*
X38654Y265133D01*
X38614Y265199D01*
X38570Y265263D01*
X38523Y265325D01*
X38474Y265384D01*
X38421Y265441D01*
X38366Y265495D01*
X38308Y265546D01*
X38247Y265594D01*
X38184Y265639D01*
X38119Y265681D01*
X38052Y265720D01*
X37983Y265755D01*
X37913Y265787D01*
X37841Y265815D01*
X37767Y265840D01*
X37693Y265861D01*
X37618Y265878D01*
X37541Y265892D01*
X37465Y265901D01*
X37387Y265907D01*
X37310Y265909D01*
X35758Y265909D01*
X35660Y265907D01*
X35563Y265901D01*
X35466Y265892D01*
X35369Y265878D01*
X35273Y265861D01*
X35178Y265840D01*
X35084Y265816D01*
X34990Y265787D01*
X34898Y265755D01*
X34807Y265720D01*
X34718Y265681D01*
X34630Y265638D01*
X34544Y265592D01*
X34460Y265543D01*
X34378Y265490D01*
X34298Y265435D01*
X34220Y265376D01*
X34145Y265314D01*
X34072Y265249D01*
X34002Y265181D01*
X33934Y265111D01*
X33869Y265038D01*
X33807Y264963D01*
X33748Y264885D01*
X33693Y264805D01*
X33640Y264723D01*
X33591Y264639D01*
X33545Y264553D01*
X33502Y264465D01*
X33463Y264376D01*
X33428Y264285D01*
X33396Y264193D01*
X33367Y264099D01*
X33343Y264005D01*
X33322Y263910D01*
X33305Y263814D01*
X33291Y263717D01*
X33282Y263620D01*
X33276Y263523D01*
X33274Y263425D01*
D18*
X0Y25000D02*
X95Y22821D01*
X380Y20659D01*
X852Y18530D01*
X1508Y16450D01*
X2342Y14435D01*
X3349Y12500D01*
X4521Y10661D01*
X5849Y8930D01*
X7322Y7322D01*
X8930Y5849D01*
X10661Y4521D01*
X12500Y3349D01*
X14435Y2342D01*
X16450Y1508D01*
X18530Y852D01*
X20659Y380D01*
X22821Y95D01*
X25000Y0D01*
X375000Y0D01*
X377179Y95D01*
X379341Y380D01*
X381470Y852D01*
X383551Y1508D01*
X385565Y2342D01*
X387500Y3349D01*
X389339Y4521D01*
X391070Y5849D01*
X392678Y7322D01*
X394151Y8930D01*
X395479Y10661D01*
X396651Y12500D01*
X397658Y14435D01*
X398492Y16450D01*
X399148Y18530D01*
X399620Y20659D01*
X399905Y22821D01*
X400000Y25000D01*
X400000Y325000D01*
X399905Y327179D01*
X399620Y329341D01*
X399148Y331470D01*
X398492Y333551D01*
X397658Y335565D01*
X396651Y337500D01*
X395479Y339339D01*
X394151Y341070D01*
X392678Y342678D01*
X391070Y344151D01*
X389339Y345479D01*
X387500Y346651D01*
X385565Y347658D01*
X383551Y348492D01*
X381470Y349148D01*
X379341Y349620D01*
X377179Y349905D01*
X375000Y350000D01*
X362698Y350000D01*
X362698Y293000D01*
X230000Y293000D01*
X230000Y350000D01*
X25000Y350000D01*
X22821Y349905D01*
X20659Y349620D01*
X18530Y349148D01*
X16450Y348492D01*
X14435Y347658D01*
X12500Y346651D01*
X10661Y345479D01*
X8930Y344151D01*
X7322Y342678D01*
X5849Y341070D01*
X4521Y339339D01*
X3349Y337500D01*
X2342Y335565D01*
X1508Y333551D01*
X852Y331470D01*
X380Y329341D01*
X95Y327179D01*
X0Y325000D01*
X0Y25000D01*
X339250Y132100D02*
X350250Y132100D01*
X350511Y132111D01*
X350771Y132146D01*
X351026Y132202D01*
X351276Y132281D01*
X351518Y132381D01*
X351750Y132502D01*
X351971Y132643D01*
X352178Y132802D01*
X352371Y132979D01*
X352548Y133172D01*
X352707Y133379D01*
X352848Y133600D01*
X352969Y133832D01*
X353069Y134074D01*
X353148Y134324D01*
X353204Y134579D01*
X353239Y134839D01*
X353250Y135100D01*
X353239Y135361D01*
X353204Y135621D01*
X353148Y135876D01*
X353069Y136126D01*
X352969Y136368D01*
X352848Y136600D01*
X352707Y136821D01*
X352548Y137028D01*
X352371Y137221D01*
X352178Y137398D01*
X351971Y137557D01*
X351750Y137698D01*
X351518Y137819D01*
X351276Y137919D01*
X351026Y137998D01*
X350771Y138054D01*
X350511Y138089D01*
X350250Y138100D01*
X339250Y138100D01*
X338989Y138089D01*
X338729Y138054D01*
X338474Y137998D01*
X338224Y137919D01*
X337982Y137819D01*
X337750Y137698D01*
X337529Y137557D01*
X337322Y137398D01*
X337129Y137221D01*
X336952Y137028D01*
X336793Y136821D01*
X336652Y136600D01*
X336531Y136368D01*
X336431Y136126D01*
X336352Y135876D01*
X336296Y135621D01*
X336261Y135361D01*
X336250Y135100D01*
X336261Y134839D01*
X336296Y134579D01*
X336352Y134324D01*
X336431Y134074D01*
X336531Y133832D01*
X336652Y133600D01*
X336793Y133379D01*
X336952Y133172D01*
X337129Y132979D01*
X337322Y132802D01*
X337529Y132643D01*
X337750Y132502D01*
X337982Y132381D01*
X338224Y132281D01*
X338474Y132202D01*
X338729Y132146D01*
X338989Y132111D01*
X339250Y132100D01*
X383400Y132100D02*
X389600Y132100D01*
X389861Y132111D01*
X390121Y132146D01*
X390376Y132202D01*
X390626Y132281D01*
X390868Y132381D01*
X391100Y132502D01*
X391321Y132643D01*
X391528Y132802D01*
X391721Y132979D01*
X391898Y133172D01*
X392057Y133379D01*
X392198Y133600D01*
X392319Y133832D01*
X392419Y134074D01*
X392498Y134324D01*
X392554Y134579D01*
X392589Y134839D01*
X392600Y135100D01*
X392589Y135361D01*
X392554Y135621D01*
X392498Y135876D01*
X392419Y136126D01*
X392319Y136368D01*
X392198Y136600D01*
X392057Y136821D01*
X391898Y137028D01*
X391721Y137221D01*
X391528Y137398D01*
X391321Y137557D01*
X391100Y137698D01*
X390868Y137819D01*
X390626Y137919D01*
X390376Y137998D01*
X390121Y138054D01*
X389861Y138089D01*
X389600Y138100D01*
X383400Y138100D01*
X383139Y138089D01*
X382879Y138054D01*
X382624Y137998D01*
X382374Y137919D01*
X382132Y137819D01*
X381900Y137698D01*
X381679Y137557D01*
X381472Y137398D01*
X381279Y137221D01*
X381102Y137028D01*
X380943Y136821D01*
X380802Y136600D01*
X380681Y136368D01*
X380581Y136126D01*
X380502Y135876D01*
X380446Y135621D01*
X380411Y135361D01*
X380400Y135100D01*
X380411Y134839D01*
X380446Y134579D01*
X380502Y134324D01*
X380581Y134074D01*
X380681Y133832D01*
X380802Y133600D01*
X380943Y133379D01*
X381102Y133172D01*
X381279Y132979D01*
X381472Y132802D01*
X381679Y132643D01*
X381900Y132502D01*
X382132Y132381D01*
X382374Y132281D01*
X382624Y132202D01*
X382879Y132146D01*
X383139Y132111D01*
X383400Y132100D01*
X383400Y45700D02*
X389600Y45700D01*
X389861Y45711D01*
X390121Y45746D01*
X390376Y45802D01*
X390626Y45881D01*
X390868Y45981D01*
X391100Y46102D01*
X391321Y46243D01*
X391528Y46402D01*
X391721Y46579D01*
X391898Y46772D01*
X392057Y46979D01*
X392198Y47200D01*
X392319Y47432D01*
X392419Y47674D01*
X392498Y47924D01*
X392554Y48179D01*
X392589Y48439D01*
X392600Y48700D01*
X392589Y48961D01*
X392554Y49221D01*
X392498Y49476D01*
X392419Y49726D01*
X392319Y49968D01*
X392198Y50200D01*
X392057Y50421D01*
X391898Y50628D01*
X391721Y50821D01*
X391528Y50998D01*
X391321Y51157D01*
X391100Y51298D01*
X390868Y51419D01*
X390626Y51519D01*
X390376Y51598D01*
X390121Y51654D01*
X389861Y51689D01*
X389600Y51700D01*
X383400Y51700D01*
X383139Y51689D01*
X382879Y51654D01*
X382624Y51598D01*
X382374Y51519D01*
X382132Y51419D01*
X381900Y51298D01*
X381679Y51157D01*
X381472Y50998D01*
X381279Y50821D01*
X381102Y50628D01*
X380943Y50421D01*
X380802Y50200D01*
X380681Y49968D01*
X380581Y49726D01*
X380502Y49476D01*
X380446Y49221D01*
X380411Y48961D01*
X380400Y48700D01*
X380411Y48439D01*
X380446Y48179D01*
X380502Y47924D01*
X380581Y47674D01*
X380681Y47432D01*
X380802Y47200D01*
X380943Y46979D01*
X381102Y46772D01*
X381279Y46579D01*
X381472Y46402D01*
X381679Y46243D01*
X381900Y46102D01*
X382132Y45981D01*
X382374Y45881D01*
X382624Y45802D01*
X382879Y45746D01*
X383139Y45711D01*
X383400Y45700D01*
X339250Y45700D02*
X350250Y45700D01*
X350511Y45711D01*
X350771Y45746D01*
X351026Y45802D01*
X351276Y45881D01*
X351518Y45981D01*
X351750Y46102D01*
X351971Y46243D01*
X352178Y46402D01*
X352371Y46579D01*
X352548Y46772D01*
X352707Y46979D01*
X352848Y47200D01*
X352969Y47432D01*
X353069Y47674D01*
X353148Y47924D01*
X353204Y48179D01*
X353239Y48439D01*
X353250Y48700D01*
X353239Y48961D01*
X353204Y49221D01*
X353148Y49476D01*
X353069Y49726D01*
X352969Y49968D01*
X352848Y50200D01*
X352707Y50421D01*
X352548Y50628D01*
X352371Y50821D01*
X352178Y50998D01*
X351971Y51157D01*
X351750Y51298D01*
X351518Y51419D01*
X351276Y51519D01*
X351026Y51598D01*
X350771Y51654D01*
X350511Y51689D01*
X350250Y51700D01*
X339250Y51700D01*
X338989Y51689D01*
X338729Y51654D01*
X338474Y51598D01*
X338224Y51519D01*
X337982Y51419D01*
X337750Y51298D01*
X337529Y51157D01*
X337322Y50998D01*
X337129Y50821D01*
X336952Y50628D01*
X336793Y50421D01*
X336652Y50200D01*
X336531Y49968D01*
X336431Y49726D01*
X336352Y49476D01*
X336296Y49221D01*
X336261Y48961D01*
X336250Y48700D01*
X336261Y48439D01*
X336296Y48179D01*
X336352Y47924D01*
X336431Y47674D01*
X336531Y47432D01*
X336652Y47200D01*
X336793Y46979D01*
X336952Y46772D01*
X337129Y46579D01*
X337322Y46402D01*
X337529Y46243D01*
X337750Y46102D01*
X337982Y45981D01*
X338224Y45881D01*
X338474Y45802D01*
X338729Y45746D01*
X338989Y45711D01*
X339250Y45700D01*
X32500Y329509D02*
X32423Y328530D01*
X32269Y327560D01*
X32040Y326604D01*
X31736Y325670D01*
X31361Y324763D01*
X30915Y323888D01*
X30401Y323050D01*
X29824Y322255D01*
X29186Y321508D01*
X28492Y320814D01*
X27745Y320176D01*
X26950Y319599D01*
X26112Y319085D01*
X25237Y318639D01*
X24330Y318264D01*
X23396Y317960D01*
X22441Y317731D01*
X21470Y317577D01*
X20491Y317500D01*
X19509Y317500D01*
X18530Y317577D01*
X17560Y317731D01*
X16604Y317960D01*
X15670Y318264D01*
X14763Y318639D01*
X13888Y319085D01*
X13050Y319599D01*
X12255Y320176D01*
X11508Y320814D01*
X10814Y321508D01*
X10176Y322255D01*
X9599Y323050D01*
X9085Y323888D01*
X8639Y324763D01*
X8264Y325670D01*
X7960Y326604D01*
X7731Y327560D01*
X7577Y328530D01*
X7500Y329509D01*
X7500Y330491D01*
X7577Y331470D01*
X7731Y332441D01*
X7960Y333396D01*
X8264Y334330D01*
X8639Y335237D01*
X9085Y336112D01*
X9599Y336950D01*
X10176Y337745D01*
X10814Y338492D01*
X11508Y339186D01*
X12255Y339824D01*
X13050Y340401D01*
X13888Y340915D01*
X14763Y341361D01*
X15670Y341736D01*
X16604Y342040D01*
X17560Y342269D01*
X18530Y342423D01*
X19509Y342500D01*
X20491Y342500D01*
X21470Y342423D01*
X22441Y342269D01*
X23396Y342040D01*
X24330Y341736D01*
X25237Y341361D01*
X26112Y340915D01*
X26950Y340401D01*
X27745Y339824D01*
X28492Y339186D01*
X29186Y338492D01*
X29824Y337745D01*
X30401Y336950D01*
X30915Y336112D01*
X31361Y335237D01*
X31736Y334330D01*
X32040Y333396D01*
X32269Y332441D01*
X32423Y331470D01*
X32500Y330491D01*
X32500Y329509D01*
X392500Y19509D02*
X392423Y18530D01*
X392269Y17560D01*
X392040Y16604D01*
X391736Y15670D01*
X391361Y14763D01*
X390915Y13888D01*
X390401Y13050D01*
X389824Y12255D01*
X389186Y11508D01*
X388492Y10814D01*
X387745Y10176D01*
X386950Y9599D01*
X386112Y9085D01*
X385237Y8639D01*
X384330Y8264D01*
X383396Y7960D01*
X382441Y7731D01*
X381470Y7577D01*
X380491Y7500D01*
X379509Y7500D01*
X378530Y7577D01*
X377560Y7731D01*
X376604Y7960D01*
X375670Y8264D01*
X374763Y8639D01*
X373888Y9085D01*
X373050Y9599D01*
X372255Y10176D01*
X371508Y10814D01*
X370814Y11508D01*
X370176Y12255D01*
X369599Y13050D01*
X369085Y13888D01*
X368639Y14763D01*
X368264Y15670D01*
X367960Y16604D01*
X367731Y17560D01*
X367577Y18530D01*
X367500Y19509D01*
X367500Y20491D01*
X367577Y21470D01*
X367731Y22441D01*
X367960Y23396D01*
X368264Y24330D01*
X368639Y25237D01*
X369085Y26112D01*
X369599Y26950D01*
X370176Y27745D01*
X370814Y28492D01*
X371508Y29186D01*
X372255Y29824D01*
X373050Y30401D01*
X373888Y30915D01*
X374763Y31361D01*
X375670Y31736D01*
X376604Y32040D01*
X377560Y32269D01*
X378530Y32423D01*
X379509Y32500D01*
X380491Y32500D01*
X381470Y32423D01*
X382441Y32269D01*
X383396Y32040D01*
X384330Y31736D01*
X385237Y31361D01*
X386112Y30915D01*
X386950Y30401D01*
X387745Y29824D01*
X388492Y29186D01*
X389186Y28492D01*
X389824Y27745D01*
X390401Y26950D01*
X390915Y26112D01*
X391361Y25237D01*
X391736Y24330D01*
X392040Y23396D01*
X392269Y22441D01*
X392423Y21470D01*
X392500Y20491D01*
X392500Y19509D01*
X350263Y66250D02*
X350685Y66194D01*
X351097Y66084D01*
X351491Y65921D01*
X351859Y65708D01*
X352197Y65449D01*
X352499Y65147D01*
X352758Y64809D01*
X352971Y64441D01*
X353134Y64047D01*
X353244Y63635D01*
X353300Y63213D01*
X353300Y62787D01*
X353244Y62365D01*
X353134Y61953D01*
X352971Y61559D01*
X352758Y61191D01*
X352499Y60853D01*
X352197Y60551D01*
X351859Y60292D01*
X351491Y60079D01*
X351097Y59916D01*
X350685Y59806D01*
X350263Y59750D01*
X349837Y59750D01*
X349415Y59806D01*
X349003Y59916D01*
X348609Y60079D01*
X348241Y60292D01*
X347903Y60551D01*
X347601Y60853D01*
X347342Y61191D01*
X347129Y61559D01*
X346966Y61953D01*
X346856Y62365D01*
X346800Y62787D01*
X346800Y63213D01*
X346856Y63635D01*
X346966Y64047D01*
X347129Y64441D01*
X347342Y64809D01*
X347601Y65147D01*
X347903Y65449D01*
X348241Y65708D01*
X348609Y65921D01*
X349003Y66084D01*
X349415Y66194D01*
X349837Y66250D01*
X350263Y66250D01*
X350263Y124050D02*
X350685Y123994D01*
X351097Y123884D01*
X351491Y123721D01*
X351859Y123508D01*
X352197Y123249D01*
X352499Y122947D01*
X352758Y122609D01*
X352971Y122241D01*
X353134Y121847D01*
X353244Y121435D01*
X353300Y121013D01*
X353300Y120587D01*
X353244Y120165D01*
X353134Y119753D01*
X352971Y119359D01*
X352758Y118991D01*
X352499Y118653D01*
X352197Y118351D01*
X351859Y118092D01*
X351491Y117879D01*
X351097Y117716D01*
X350685Y117606D01*
X350263Y117550D01*
X349837Y117550D01*
X349415Y117606D01*
X349003Y117716D01*
X348609Y117879D01*
X348241Y118092D01*
X347903Y118351D01*
X347601Y118653D01*
X347342Y118991D01*
X347129Y119359D01*
X346966Y119753D01*
X346856Y120165D01*
X346800Y120587D01*
X346800Y121013D01*
X346856Y121435D01*
X346966Y121847D01*
X347129Y122241D01*
X347342Y122609D01*
X347601Y122947D01*
X347903Y123249D01*
X348241Y123508D01*
X348609Y123721D01*
X349003Y123884D01*
X349415Y123994D01*
X349837Y124050D01*
X350263Y124050D01*
M02*
