G04 EAGLE Gerber RS-274X export*
G75*
%MOMM*%
%FSLAX34Y34*%
%LPD*%
%INSolderpaste Bottom*%
%IPPOS*%
%AMOC8*
5,1,8,0,0,1.08239X$1,22.5*%
G01*
%ADD10C,0.102500*%
%ADD11R,1.270000X1.470000*%
%ADD12R,2.540000X2.540000*%
%ADD13R,1.300000X1.200000*%
%ADD14R,0.800000X0.900000*%
%ADD15R,1.550000X0.700000*%
%ADD16R,0.700000X0.600000*%
%ADD17R,0.900000X0.800000*%
%ADD18R,0.900000X0.900000*%
%ADD19R,1.000000X1.100000*%
%ADD20R,2.199997X5.720003*%
%ADD21R,3.499994X1.199997*%
%ADD22C,0.254000*%


D10*
X264986Y157638D02*
X279662Y157638D01*
X279662Y154562D01*
X264986Y154562D01*
X264986Y157638D01*
X264986Y155536D02*
X279662Y155536D01*
X279662Y156510D02*
X264986Y156510D01*
X264986Y157484D02*
X279662Y157484D01*
X279662Y151138D02*
X264986Y151138D01*
X279662Y151138D02*
X279662Y148062D01*
X264986Y148062D01*
X264986Y151138D01*
X264986Y149036D02*
X279662Y149036D01*
X279662Y150010D02*
X264986Y150010D01*
X264986Y150984D02*
X279662Y150984D01*
X279662Y144638D02*
X264986Y144638D01*
X279662Y144638D02*
X279662Y141562D01*
X264986Y141562D01*
X264986Y144638D01*
X264986Y142536D02*
X279662Y142536D01*
X279662Y143510D02*
X264986Y143510D01*
X264986Y144484D02*
X279662Y144484D01*
X279662Y138138D02*
X264986Y138138D01*
X279662Y138138D02*
X279662Y135062D01*
X264986Y135062D01*
X264986Y138138D01*
X264986Y136036D02*
X279662Y136036D01*
X279662Y137010D02*
X264986Y137010D01*
X264986Y137984D02*
X279662Y137984D01*
X279662Y131638D02*
X264986Y131638D01*
X279662Y131638D02*
X279662Y128562D01*
X264986Y128562D01*
X264986Y131638D01*
X264986Y129536D02*
X279662Y129536D01*
X279662Y130510D02*
X264986Y130510D01*
X264986Y131484D02*
X279662Y131484D01*
X279662Y125138D02*
X264986Y125138D01*
X279662Y125138D02*
X279662Y122062D01*
X264986Y122062D01*
X264986Y125138D01*
X264986Y123036D02*
X279662Y123036D01*
X279662Y124010D02*
X264986Y124010D01*
X264986Y124984D02*
X279662Y124984D01*
X279662Y118638D02*
X264986Y118638D01*
X279662Y118638D02*
X279662Y115562D01*
X264986Y115562D01*
X264986Y118638D01*
X264986Y116536D02*
X279662Y116536D01*
X279662Y117510D02*
X264986Y117510D01*
X264986Y118484D02*
X279662Y118484D01*
X279662Y112138D02*
X264986Y112138D01*
X279662Y112138D02*
X279662Y109062D01*
X264986Y109062D01*
X264986Y112138D01*
X264986Y110036D02*
X279662Y110036D01*
X279662Y111010D02*
X264986Y111010D01*
X264986Y111984D02*
X279662Y111984D01*
X222262Y112138D02*
X207586Y112138D01*
X222262Y112138D02*
X222262Y109062D01*
X207586Y109062D01*
X207586Y112138D01*
X207586Y110036D02*
X222262Y110036D01*
X222262Y111010D02*
X207586Y111010D01*
X207586Y111984D02*
X222262Y111984D01*
X222262Y118638D02*
X207586Y118638D01*
X222262Y118638D02*
X222262Y115562D01*
X207586Y115562D01*
X207586Y118638D01*
X207586Y116536D02*
X222262Y116536D01*
X222262Y117510D02*
X207586Y117510D01*
X207586Y118484D02*
X222262Y118484D01*
X222262Y125138D02*
X207586Y125138D01*
X222262Y125138D02*
X222262Y122062D01*
X207586Y122062D01*
X207586Y125138D01*
X207586Y123036D02*
X222262Y123036D01*
X222262Y124010D02*
X207586Y124010D01*
X207586Y124984D02*
X222262Y124984D01*
X222262Y131638D02*
X207586Y131638D01*
X222262Y131638D02*
X222262Y128562D01*
X207586Y128562D01*
X207586Y131638D01*
X207586Y129536D02*
X222262Y129536D01*
X222262Y130510D02*
X207586Y130510D01*
X207586Y131484D02*
X222262Y131484D01*
X222262Y138138D02*
X207586Y138138D01*
X222262Y138138D02*
X222262Y135062D01*
X207586Y135062D01*
X207586Y138138D01*
X207586Y136036D02*
X222262Y136036D01*
X222262Y137010D02*
X207586Y137010D01*
X207586Y137984D02*
X222262Y137984D01*
X222262Y144638D02*
X207586Y144638D01*
X222262Y144638D02*
X222262Y141562D01*
X207586Y141562D01*
X207586Y144638D01*
X207586Y142536D02*
X222262Y142536D01*
X222262Y143510D02*
X207586Y143510D01*
X207586Y144484D02*
X222262Y144484D01*
X222262Y151138D02*
X207586Y151138D01*
X222262Y151138D02*
X222262Y148062D01*
X207586Y148062D01*
X207586Y151138D01*
X207586Y149036D02*
X222262Y149036D01*
X222262Y150010D02*
X207586Y150010D01*
X207586Y150984D02*
X222262Y150984D01*
X222262Y157638D02*
X207586Y157638D01*
X222262Y157638D02*
X222262Y154562D01*
X207586Y154562D01*
X207586Y157638D01*
X207586Y155536D02*
X222262Y155536D01*
X222262Y156510D02*
X207586Y156510D01*
X207586Y157484D02*
X222262Y157484D01*
D11*
X354618Y21004D03*
X311618Y21004D03*
D12*
X48948Y184195D03*
X48948Y231185D03*
D13*
X85218Y217182D03*
X85218Y237502D03*
D14*
X105806Y219214D03*
X105806Y234454D03*
D15*
X129826Y170846D03*
X129826Y183546D03*
X129826Y196246D03*
X129826Y208946D03*
X184326Y208946D03*
X184326Y196246D03*
X184326Y183546D03*
X184326Y170846D03*
D14*
X172076Y132276D03*
X172076Y147516D03*
X157076Y132276D03*
X157076Y147516D03*
X142076Y132276D03*
X142076Y147516D03*
D16*
X227948Y244942D03*
X227948Y254942D03*
D17*
X296804Y163646D03*
X312044Y163646D03*
X296804Y129328D03*
X312044Y129328D03*
X312082Y115368D03*
X296842Y115368D03*
X312044Y149488D03*
X296804Y149488D03*
D18*
X336346Y254958D03*
X320346Y254958D03*
X320346Y213958D03*
X336346Y213958D03*
D19*
X270942Y274726D03*
X253942Y274726D03*
D18*
X270188Y254958D03*
X254188Y254958D03*
X254188Y213958D03*
X270188Y213958D03*
D20*
X49168Y130810D03*
X99166Y130810D03*
D21*
X186720Y254762D03*
X133320Y254762D03*
X50516Y283718D03*
X103916Y283718D03*
D22*
X0Y25000D02*
X95Y22821D01*
X380Y20659D01*
X852Y18530D01*
X1508Y16450D01*
X2342Y14435D01*
X3349Y12500D01*
X4521Y10661D01*
X5849Y8930D01*
X7322Y7322D01*
X8930Y5849D01*
X10661Y4521D01*
X12500Y3349D01*
X14435Y2342D01*
X16450Y1508D01*
X18530Y852D01*
X20659Y380D01*
X22821Y95D01*
X25000Y0D01*
X375000Y0D01*
X377179Y95D01*
X379341Y380D01*
X381470Y852D01*
X383551Y1508D01*
X385565Y2342D01*
X387500Y3349D01*
X389339Y4521D01*
X391070Y5849D01*
X392678Y7322D01*
X394151Y8930D01*
X395479Y10661D01*
X396651Y12500D01*
X397658Y14435D01*
X398492Y16450D01*
X399148Y18530D01*
X399620Y20659D01*
X399905Y22821D01*
X400000Y25000D01*
X400000Y325000D01*
X399905Y327179D01*
X399620Y329341D01*
X399148Y331470D01*
X398492Y333551D01*
X397658Y335565D01*
X396651Y337500D01*
X395479Y339339D01*
X394151Y341070D01*
X392678Y342678D01*
X391070Y344151D01*
X389339Y345479D01*
X387500Y346651D01*
X385565Y347658D01*
X383551Y348492D01*
X381470Y349148D01*
X379341Y349620D01*
X377179Y349905D01*
X375000Y350000D01*
X362698Y350000D01*
X362698Y293000D01*
X230000Y293000D01*
X230000Y350000D01*
X25000Y350000D01*
X22821Y349905D01*
X20659Y349620D01*
X18530Y349148D01*
X16450Y348492D01*
X14435Y347658D01*
X12500Y346651D01*
X10661Y345479D01*
X8930Y344151D01*
X7322Y342678D01*
X5849Y341070D01*
X4521Y339339D01*
X3349Y337500D01*
X2342Y335565D01*
X1508Y333551D01*
X852Y331470D01*
X380Y329341D01*
X95Y327179D01*
X0Y325000D01*
X0Y25000D01*
X339250Y132100D02*
X350250Y132100D01*
X350511Y132111D01*
X350771Y132146D01*
X351026Y132202D01*
X351276Y132281D01*
X351518Y132381D01*
X351750Y132502D01*
X351971Y132643D01*
X352178Y132802D01*
X352371Y132979D01*
X352548Y133172D01*
X352707Y133379D01*
X352848Y133600D01*
X352969Y133832D01*
X353069Y134074D01*
X353148Y134324D01*
X353204Y134579D01*
X353239Y134839D01*
X353250Y135100D01*
X353239Y135361D01*
X353204Y135621D01*
X353148Y135876D01*
X353069Y136126D01*
X352969Y136368D01*
X352848Y136600D01*
X352707Y136821D01*
X352548Y137028D01*
X352371Y137221D01*
X352178Y137398D01*
X351971Y137557D01*
X351750Y137698D01*
X351518Y137819D01*
X351276Y137919D01*
X351026Y137998D01*
X350771Y138054D01*
X350511Y138089D01*
X350250Y138100D01*
X339250Y138100D01*
X338989Y138089D01*
X338729Y138054D01*
X338474Y137998D01*
X338224Y137919D01*
X337982Y137819D01*
X337750Y137698D01*
X337529Y137557D01*
X337322Y137398D01*
X337129Y137221D01*
X336952Y137028D01*
X336793Y136821D01*
X336652Y136600D01*
X336531Y136368D01*
X336431Y136126D01*
X336352Y135876D01*
X336296Y135621D01*
X336261Y135361D01*
X336250Y135100D01*
X336261Y134839D01*
X336296Y134579D01*
X336352Y134324D01*
X336431Y134074D01*
X336531Y133832D01*
X336652Y133600D01*
X336793Y133379D01*
X336952Y133172D01*
X337129Y132979D01*
X337322Y132802D01*
X337529Y132643D01*
X337750Y132502D01*
X337982Y132381D01*
X338224Y132281D01*
X338474Y132202D01*
X338729Y132146D01*
X338989Y132111D01*
X339250Y132100D01*
X383400Y132100D02*
X389600Y132100D01*
X389861Y132111D01*
X390121Y132146D01*
X390376Y132202D01*
X390626Y132281D01*
X390868Y132381D01*
X391100Y132502D01*
X391321Y132643D01*
X391528Y132802D01*
X391721Y132979D01*
X391898Y133172D01*
X392057Y133379D01*
X392198Y133600D01*
X392319Y133832D01*
X392419Y134074D01*
X392498Y134324D01*
X392554Y134579D01*
X392589Y134839D01*
X392600Y135100D01*
X392589Y135361D01*
X392554Y135621D01*
X392498Y135876D01*
X392419Y136126D01*
X392319Y136368D01*
X392198Y136600D01*
X392057Y136821D01*
X391898Y137028D01*
X391721Y137221D01*
X391528Y137398D01*
X391321Y137557D01*
X391100Y137698D01*
X390868Y137819D01*
X390626Y137919D01*
X390376Y137998D01*
X390121Y138054D01*
X389861Y138089D01*
X389600Y138100D01*
X383400Y138100D01*
X383139Y138089D01*
X382879Y138054D01*
X382624Y137998D01*
X382374Y137919D01*
X382132Y137819D01*
X381900Y137698D01*
X381679Y137557D01*
X381472Y137398D01*
X381279Y137221D01*
X381102Y137028D01*
X380943Y136821D01*
X380802Y136600D01*
X380681Y136368D01*
X380581Y136126D01*
X380502Y135876D01*
X380446Y135621D01*
X380411Y135361D01*
X380400Y135100D01*
X380411Y134839D01*
X380446Y134579D01*
X380502Y134324D01*
X380581Y134074D01*
X380681Y133832D01*
X380802Y133600D01*
X380943Y133379D01*
X381102Y133172D01*
X381279Y132979D01*
X381472Y132802D01*
X381679Y132643D01*
X381900Y132502D01*
X382132Y132381D01*
X382374Y132281D01*
X382624Y132202D01*
X382879Y132146D01*
X383139Y132111D01*
X383400Y132100D01*
X383400Y45700D02*
X389600Y45700D01*
X389861Y45711D01*
X390121Y45746D01*
X390376Y45802D01*
X390626Y45881D01*
X390868Y45981D01*
X391100Y46102D01*
X391321Y46243D01*
X391528Y46402D01*
X391721Y46579D01*
X391898Y46772D01*
X392057Y46979D01*
X392198Y47200D01*
X392319Y47432D01*
X392419Y47674D01*
X392498Y47924D01*
X392554Y48179D01*
X392589Y48439D01*
X392600Y48700D01*
X392589Y48961D01*
X392554Y49221D01*
X392498Y49476D01*
X392419Y49726D01*
X392319Y49968D01*
X392198Y50200D01*
X392057Y50421D01*
X391898Y50628D01*
X391721Y50821D01*
X391528Y50998D01*
X391321Y51157D01*
X391100Y51298D01*
X390868Y51419D01*
X390626Y51519D01*
X390376Y51598D01*
X390121Y51654D01*
X389861Y51689D01*
X389600Y51700D01*
X383400Y51700D01*
X383139Y51689D01*
X382879Y51654D01*
X382624Y51598D01*
X382374Y51519D01*
X382132Y51419D01*
X381900Y51298D01*
X381679Y51157D01*
X381472Y50998D01*
X381279Y50821D01*
X381102Y50628D01*
X380943Y50421D01*
X380802Y50200D01*
X380681Y49968D01*
X380581Y49726D01*
X380502Y49476D01*
X380446Y49221D01*
X380411Y48961D01*
X380400Y48700D01*
X380411Y48439D01*
X380446Y48179D01*
X380502Y47924D01*
X380581Y47674D01*
X380681Y47432D01*
X380802Y47200D01*
X380943Y46979D01*
X381102Y46772D01*
X381279Y46579D01*
X381472Y46402D01*
X381679Y46243D01*
X381900Y46102D01*
X382132Y45981D01*
X382374Y45881D01*
X382624Y45802D01*
X382879Y45746D01*
X383139Y45711D01*
X383400Y45700D01*
X339250Y45700D02*
X350250Y45700D01*
X350511Y45711D01*
X350771Y45746D01*
X351026Y45802D01*
X351276Y45881D01*
X351518Y45981D01*
X351750Y46102D01*
X351971Y46243D01*
X352178Y46402D01*
X352371Y46579D01*
X352548Y46772D01*
X352707Y46979D01*
X352848Y47200D01*
X352969Y47432D01*
X353069Y47674D01*
X353148Y47924D01*
X353204Y48179D01*
X353239Y48439D01*
X353250Y48700D01*
X353239Y48961D01*
X353204Y49221D01*
X353148Y49476D01*
X353069Y49726D01*
X352969Y49968D01*
X352848Y50200D01*
X352707Y50421D01*
X352548Y50628D01*
X352371Y50821D01*
X352178Y50998D01*
X351971Y51157D01*
X351750Y51298D01*
X351518Y51419D01*
X351276Y51519D01*
X351026Y51598D01*
X350771Y51654D01*
X350511Y51689D01*
X350250Y51700D01*
X339250Y51700D01*
X338989Y51689D01*
X338729Y51654D01*
X338474Y51598D01*
X338224Y51519D01*
X337982Y51419D01*
X337750Y51298D01*
X337529Y51157D01*
X337322Y50998D01*
X337129Y50821D01*
X336952Y50628D01*
X336793Y50421D01*
X336652Y50200D01*
X336531Y49968D01*
X336431Y49726D01*
X336352Y49476D01*
X336296Y49221D01*
X336261Y48961D01*
X336250Y48700D01*
X336261Y48439D01*
X336296Y48179D01*
X336352Y47924D01*
X336431Y47674D01*
X336531Y47432D01*
X336652Y47200D01*
X336793Y46979D01*
X336952Y46772D01*
X337129Y46579D01*
X337322Y46402D01*
X337529Y46243D01*
X337750Y46102D01*
X337982Y45981D01*
X338224Y45881D01*
X338474Y45802D01*
X338729Y45746D01*
X338989Y45711D01*
X339250Y45700D01*
X32500Y329509D02*
X32423Y328530D01*
X32269Y327560D01*
X32040Y326604D01*
X31736Y325670D01*
X31361Y324763D01*
X30915Y323888D01*
X30401Y323050D01*
X29824Y322255D01*
X29186Y321508D01*
X28492Y320814D01*
X27745Y320176D01*
X26950Y319599D01*
X26112Y319085D01*
X25237Y318639D01*
X24330Y318264D01*
X23396Y317960D01*
X22441Y317731D01*
X21470Y317577D01*
X20491Y317500D01*
X19509Y317500D01*
X18530Y317577D01*
X17560Y317731D01*
X16604Y317960D01*
X15670Y318264D01*
X14763Y318639D01*
X13888Y319085D01*
X13050Y319599D01*
X12255Y320176D01*
X11508Y320814D01*
X10814Y321508D01*
X10176Y322255D01*
X9599Y323050D01*
X9085Y323888D01*
X8639Y324763D01*
X8264Y325670D01*
X7960Y326604D01*
X7731Y327560D01*
X7577Y328530D01*
X7500Y329509D01*
X7500Y330491D01*
X7577Y331470D01*
X7731Y332441D01*
X7960Y333396D01*
X8264Y334330D01*
X8639Y335237D01*
X9085Y336112D01*
X9599Y336950D01*
X10176Y337745D01*
X10814Y338492D01*
X11508Y339186D01*
X12255Y339824D01*
X13050Y340401D01*
X13888Y340915D01*
X14763Y341361D01*
X15670Y341736D01*
X16604Y342040D01*
X17560Y342269D01*
X18530Y342423D01*
X19509Y342500D01*
X20491Y342500D01*
X21470Y342423D01*
X22441Y342269D01*
X23396Y342040D01*
X24330Y341736D01*
X25237Y341361D01*
X26112Y340915D01*
X26950Y340401D01*
X27745Y339824D01*
X28492Y339186D01*
X29186Y338492D01*
X29824Y337745D01*
X30401Y336950D01*
X30915Y336112D01*
X31361Y335237D01*
X31736Y334330D01*
X32040Y333396D01*
X32269Y332441D01*
X32423Y331470D01*
X32500Y330491D01*
X32500Y329509D01*
X392500Y19509D02*
X392423Y18530D01*
X392269Y17560D01*
X392040Y16604D01*
X391736Y15670D01*
X391361Y14763D01*
X390915Y13888D01*
X390401Y13050D01*
X389824Y12255D01*
X389186Y11508D01*
X388492Y10814D01*
X387745Y10176D01*
X386950Y9599D01*
X386112Y9085D01*
X385237Y8639D01*
X384330Y8264D01*
X383396Y7960D01*
X382441Y7731D01*
X381470Y7577D01*
X380491Y7500D01*
X379509Y7500D01*
X378530Y7577D01*
X377560Y7731D01*
X376604Y7960D01*
X375670Y8264D01*
X374763Y8639D01*
X373888Y9085D01*
X373050Y9599D01*
X372255Y10176D01*
X371508Y10814D01*
X370814Y11508D01*
X370176Y12255D01*
X369599Y13050D01*
X369085Y13888D01*
X368639Y14763D01*
X368264Y15670D01*
X367960Y16604D01*
X367731Y17560D01*
X367577Y18530D01*
X367500Y19509D01*
X367500Y20491D01*
X367577Y21470D01*
X367731Y22441D01*
X367960Y23396D01*
X368264Y24330D01*
X368639Y25237D01*
X369085Y26112D01*
X369599Y26950D01*
X370176Y27745D01*
X370814Y28492D01*
X371508Y29186D01*
X372255Y29824D01*
X373050Y30401D01*
X373888Y30915D01*
X374763Y31361D01*
X375670Y31736D01*
X376604Y32040D01*
X377560Y32269D01*
X378530Y32423D01*
X379509Y32500D01*
X380491Y32500D01*
X381470Y32423D01*
X382441Y32269D01*
X383396Y32040D01*
X384330Y31736D01*
X385237Y31361D01*
X386112Y30915D01*
X386950Y30401D01*
X387745Y29824D01*
X388492Y29186D01*
X389186Y28492D01*
X389824Y27745D01*
X390401Y26950D01*
X390915Y26112D01*
X391361Y25237D01*
X391736Y24330D01*
X392040Y23396D01*
X392269Y22441D01*
X392423Y21470D01*
X392500Y20491D01*
X392500Y19509D01*
X350263Y66250D02*
X350685Y66194D01*
X351097Y66084D01*
X351491Y65921D01*
X351859Y65708D01*
X352197Y65449D01*
X352499Y65147D01*
X352758Y64809D01*
X352971Y64441D01*
X353134Y64047D01*
X353244Y63635D01*
X353300Y63213D01*
X353300Y62787D01*
X353244Y62365D01*
X353134Y61953D01*
X352971Y61559D01*
X352758Y61191D01*
X352499Y60853D01*
X352197Y60551D01*
X351859Y60292D01*
X351491Y60079D01*
X351097Y59916D01*
X350685Y59806D01*
X350263Y59750D01*
X349837Y59750D01*
X349415Y59806D01*
X349003Y59916D01*
X348609Y60079D01*
X348241Y60292D01*
X347903Y60551D01*
X347601Y60853D01*
X347342Y61191D01*
X347129Y61559D01*
X346966Y61953D01*
X346856Y62365D01*
X346800Y62787D01*
X346800Y63213D01*
X346856Y63635D01*
X346966Y64047D01*
X347129Y64441D01*
X347342Y64809D01*
X347601Y65147D01*
X347903Y65449D01*
X348241Y65708D01*
X348609Y65921D01*
X349003Y66084D01*
X349415Y66194D01*
X349837Y66250D01*
X350263Y66250D01*
X350263Y124050D02*
X350685Y123994D01*
X351097Y123884D01*
X351491Y123721D01*
X351859Y123508D01*
X352197Y123249D01*
X352499Y122947D01*
X352758Y122609D01*
X352971Y122241D01*
X353134Y121847D01*
X353244Y121435D01*
X353300Y121013D01*
X353300Y120587D01*
X353244Y120165D01*
X353134Y119753D01*
X352971Y119359D01*
X352758Y118991D01*
X352499Y118653D01*
X352197Y118351D01*
X351859Y118092D01*
X351491Y117879D01*
X351097Y117716D01*
X350685Y117606D01*
X350263Y117550D01*
X349837Y117550D01*
X349415Y117606D01*
X349003Y117716D01*
X348609Y117879D01*
X348241Y118092D01*
X347903Y118351D01*
X347601Y118653D01*
X347342Y118991D01*
X347129Y119359D01*
X346966Y119753D01*
X346856Y120165D01*
X346800Y120587D01*
X346800Y121013D01*
X346856Y121435D01*
X346966Y121847D01*
X347129Y122241D01*
X347342Y122609D01*
X347601Y122947D01*
X347903Y123249D01*
X348241Y123508D01*
X348609Y123721D01*
X349003Y123884D01*
X349415Y123994D01*
X349837Y124050D01*
X350263Y124050D01*
M02*
